<svg width="430" height="83" viewBox="0 0 430 83" fill="none" xmlns="http://www.w3.org/2000/svg">
<path d="M24.6405 64.5929C19.9471 64.5929 15.723 63.6116 11.9682 61.6489C8.25617 59.6435 5.33344 56.8701 3.20007 53.3287C1.06669 49.7873 0 45.7766 0 41.2965C0 36.8164 1.06669 32.8056 3.20007 29.2642C5.33344 25.7228 8.25617 22.9708 11.9682 21.0081C15.723 19.0027 19.9471 18 24.6405 18C28.7366 18 32.4273 18.7253 35.7127 20.176C38.9981 21.6267 41.7288 23.7175 43.9049 26.4482L35.8407 33.7443C32.9393 30.2456 29.4193 28.4962 25.2805 28.4962C22.8485 28.4962 20.6724 29.0296 18.7524 30.0962C16.875 31.1629 15.403 32.6776 14.3363 34.6403C13.3123 36.5604 12.8003 38.7791 12.8003 41.2965C12.8003 43.8139 13.3123 46.0539 14.3363 48.0166C15.403 49.9366 16.875 51.43 18.7524 52.4967C20.6724 53.5634 22.8485 54.0967 25.2805 54.0967C29.4193 54.0967 32.9393 52.3474 35.8407 48.8486L43.9049 56.1448C41.7288 58.8755 38.9981 60.9662 35.7127 62.4169C32.4273 63.8676 28.7366 64.5929 24.6405 64.5929Z" fill="white"/>
<path d="M58.7162 28.9442H44.9559V18.896H85.0847V28.9442H71.3884V63.6969H58.7162V28.9442Z" fill="white"/>
<path d="M102.478 28.6882V38.5444H122.254V48.3366H102.478V63.6969H89.8058V18.896H124.943V28.6882H102.478Z" fill="white"/>
<g filter="url(#filter0_f_265_727)">
<path fill-rule="evenodd" clip-rule="evenodd" d="M168.567 64.7224L168.463 45.3333L159.478 60.4081H152.323L143.416 45.8798V64.7224H129.043V18.0237H141.524L156.066 41.9062L170.254 18.0237H182.741L182.873 64.2483L203.278 18.0237H217.379L237.852 64.254V18.0237H259.326C263.445 18.0237 267.097 18.7167 270.244 20.1535C273.393 21.5497 275.873 23.6018 277.624 26.3188C279.384 29.0061 280.237 32.1478 280.237 35.6832C280.237 39.0904 279.427 42.1399 277.762 44.7781C276.423 46.9193 274.603 48.663 272.336 50.0164L282.43 64.7224H265.617L257.677 53.0926H253.163V64.7224H221.94L218.501 56.2189H201.97L198.531 64.7224H168.567ZM200.981 54.7535H219.489L222.928 63.2569H235.808L216.425 19.4891H204.233L184.912 63.2569H197.543L200.981 54.7535ZM251.698 51.6272H258.451L266.391 63.2569H279.647L270.205 49.5013C270.656 49.2828 271.089 49.0509 271.505 48.8056C273.629 47.5532 275.301 45.951 276.52 43.9991C278.021 41.6231 278.771 38.8512 278.771 35.6832C278.771 32.3902 277.979 29.5349 276.395 27.1172C274.811 24.6579 272.561 22.7821 269.643 21.4899C266.725 20.1561 263.286 19.4891 259.326 19.4891H239.318V63.2569H251.698V51.6272ZM156.082 44.7494L140.701 19.4891H130.509V63.2569H141.951V40.6852L153.143 58.9427H158.645L169.9 40.06L170.025 63.2569H181.405L181.28 19.4891H171.088L156.082 44.7494ZM210.235 31.6191L204.608 45.6248H215.862L210.235 31.6191ZM210.235 35.5498L206.776 44.1593H213.694L210.235 35.5498ZM264.801 35.6832C264.801 33.9752 264.277 32.8298 263.366 32.0363C262.443 31.2332 260.931 30.7085 258.576 30.7085H253.163V40.5954H258.576C260.933 40.5954 262.452 40.0904 263.376 39.3211C264.281 38.5279 264.801 37.3847 264.801 35.6832ZM264.328 40.4351C263.036 41.5189 261.118 42.0608 258.576 42.0608H251.698V29.2431H258.576C261.118 29.2431 263.036 29.8058 264.328 30.9313C265.62 32.0567 266.266 33.6407 266.266 35.6832C266.266 37.7257 265.62 39.3097 264.328 40.4351ZM314.988 63.2569L302.483 47.3755L297.856 52.315V63.2569H285.601V19.4891H297.856V37.684L314.801 19.4891H328.431L310.549 38.872L329.369 63.2569H314.988ZM312.465 38.9562L331.152 63.1686V18.7011L312.465 38.9562ZM368.409 18.0237V30.521H346.338V34.9681H365.783V47.1527H346.338V52.2251H369.222V64.7224H314.277L302.387 49.6219L299.322 52.8941V64.7224H284.136V18.0237H299.322V33.9602L314.163 18.0237H368.409ZM344.872 53.6905V45.6873H364.318V36.4335H344.872V29.0555H366.944V19.4891H332.618V63.2569H367.757V53.6905H344.872ZM369.035 30.7711V18.0237H411.169V30.7711H397.789V64.7224H382.478V30.7711H369.035ZM383.943 29.3056V63.2569H396.323V29.3056H409.704V19.4891H370.5V29.3056H383.943Z" fill="#42D4BA"/>
<path fill-rule="evenodd" clip-rule="evenodd" d="M168.567 64.7224L168.463 45.3333L159.478 60.4081H152.323L143.416 45.8798V64.7224H129.043V18.0237H141.524L156.066 41.9062L170.254 18.0237H182.741L182.873 64.2483L203.278 18.0237H217.379L237.852 64.254V18.0237H259.326C263.445 18.0237 267.097 18.7167 270.244 20.1535C273.393 21.5497 275.873 23.6018 277.624 26.3188C279.384 29.0061 280.237 32.1478 280.237 35.6832C280.237 39.0904 279.427 42.1399 277.762 44.7781C276.423 46.9193 274.603 48.663 272.336 50.0164L282.43 64.7224H265.617L257.677 53.0926H253.163V64.7224H221.94L218.501 56.2189H201.97L198.531 64.7224H168.567ZM200.981 54.7535H219.489L222.928 63.2569H235.808L216.425 19.4891H204.233L184.912 63.2569H197.543L200.981 54.7535ZM251.698 51.6272H258.451L266.391 63.2569H279.647L270.205 49.5013C270.656 49.2828 271.089 49.0509 271.505 48.8056C273.629 47.5532 275.301 45.951 276.52 43.9991C278.021 41.6231 278.771 38.8512 278.771 35.6832C278.771 32.3902 277.979 29.5349 276.395 27.1172C274.811 24.6579 272.561 22.7821 269.643 21.4899C266.725 20.1561 263.286 19.4891 259.326 19.4891H239.318V63.2569H251.698V51.6272ZM156.082 44.7494L140.701 19.4891H130.509V63.2569H141.951V40.6852L153.143 58.9427H158.645L169.9 40.06L170.025 63.2569H181.405L181.28 19.4891H171.088L156.082 44.7494ZM210.235 31.6191L204.608 45.6248H215.862L210.235 31.6191ZM210.235 35.5498L206.776 44.1593H213.694L210.235 35.5498ZM264.801 35.6832C264.801 33.9752 264.277 32.8298 263.366 32.0363C262.443 31.2332 260.931 30.7085 258.576 30.7085H253.163V40.5954H258.576C260.933 40.5954 262.452 40.0904 263.376 39.3211C264.281 38.5279 264.801 37.3847 264.801 35.6832ZM264.328 40.4351C263.036 41.5189 261.118 42.0608 258.576 42.0608H251.698V29.2431H258.576C261.118 29.2431 263.036 29.8058 264.328 30.9313C265.62 32.0567 266.266 33.6407 266.266 35.6832C266.266 37.7257 265.62 39.3097 264.328 40.4351ZM314.988 63.2569L302.483 47.3755L297.856 52.315V63.2569H285.601V19.4891H297.856V37.684L314.801 19.4891H328.431L310.549 38.872L329.369 63.2569H314.988ZM312.465 38.9562L331.152 63.1686V18.7011L312.465 38.9562ZM368.409 18.0237V30.521H346.338V34.9681H365.783V47.1527H346.338V52.2251H369.222V64.7224H314.277L302.387 49.6219L299.322 52.8941V64.7224H284.136V18.0237H299.322V33.9602L314.163 18.0237H368.409ZM344.872 53.6905V45.6873H364.318V36.4335H344.872V29.0555H366.944V19.4891H332.618V63.2569H367.757V53.6905H344.872ZM369.035 30.7711V18.0237H411.169V30.7711H397.789V64.7224H382.478V30.7711H369.035ZM383.943 29.3056V63.2569H396.323V29.3056H409.704V19.4891H370.5V29.3056H383.943Z" fill="#42D4BA"/>
<path fill-rule="evenodd" clip-rule="evenodd" d="M168.567 64.7224L168.463 45.3333L159.478 60.4081H152.323L143.416 45.8798V64.7224H129.043V18.0237H141.524L156.066 41.9062L170.254 18.0237H182.741L182.873 64.2483L203.278 18.0237H217.379L237.852 64.254V18.0237H259.326C263.445 18.0237 267.097 18.7167 270.244 20.1535C273.393 21.5497 275.873 23.6018 277.624 26.3188C279.384 29.0061 280.237 32.1478 280.237 35.6832C280.237 39.0904 279.427 42.1399 277.762 44.7781C276.423 46.9193 274.603 48.663 272.336 50.0164L282.43 64.7224H265.617L257.677 53.0926H253.163V64.7224H221.94L218.501 56.2189H201.97L198.531 64.7224H168.567ZM200.981 54.7535H219.489L222.928 63.2569H235.808L216.425 19.4891H204.233L184.912 63.2569H197.543L200.981 54.7535ZM251.698 51.6272H258.451L266.391 63.2569H279.647L270.205 49.5013C270.656 49.2828 271.089 49.0509 271.505 48.8056C273.629 47.5532 275.301 45.951 276.52 43.9991C278.021 41.6231 278.771 38.8512 278.771 35.6832C278.771 32.3902 277.979 29.5349 276.395 27.1172C274.811 24.6579 272.561 22.7821 269.643 21.4899C266.725 20.1561 263.286 19.4891 259.326 19.4891H239.318V63.2569H251.698V51.6272ZM156.082 44.7494L140.701 19.4891H130.509V63.2569H141.951V40.6852L153.143 58.9427H158.645L169.9 40.06L170.025 63.2569H181.405L181.28 19.4891H171.088L156.082 44.7494ZM210.235 31.6191L204.608 45.6248H215.862L210.235 31.6191ZM210.235 35.5498L206.776 44.1593H213.694L210.235 35.5498ZM264.801 35.6832C264.801 33.9752 264.277 32.8298 263.366 32.0363C262.443 31.2332 260.931 30.7085 258.576 30.7085H253.163V40.5954H258.576C260.933 40.5954 262.452 40.0904 263.376 39.3211C264.281 38.5279 264.801 37.3847 264.801 35.6832ZM264.328 40.4351C263.036 41.5189 261.118 42.0608 258.576 42.0608H251.698V29.2431H258.576C261.118 29.2431 263.036 29.8058 264.328 30.9313C265.62 32.0567 266.266 33.6407 266.266 35.6832C266.266 37.7257 265.62 39.3097 264.328 40.4351ZM314.988 63.2569L302.483 47.3755L297.856 52.315V63.2569H285.601V19.4891H297.856V37.684L314.801 19.4891H328.431L310.549 38.872L329.369 63.2569H314.988ZM312.465 38.9562L331.152 63.1686V18.7011L312.465 38.9562ZM368.409 18.0237V30.521H346.338V34.9681H365.783V47.1527H346.338V52.2251H369.222V64.7224H314.277L302.387 49.6219L299.322 52.8941V64.7224H284.136V18.0237H299.322V33.9602L314.163 18.0237H368.409ZM344.872 53.6905V45.6873H364.318V36.4335H344.872V29.0555H366.944V19.4891H332.618V63.2569H367.757V53.6905H344.872ZM369.035 30.7711V18.0237H411.169V30.7711H397.789V64.7224H382.478V30.7711H369.035ZM383.943 29.3056V63.2569H396.323V29.3056H409.704V19.4891H370.5V29.3056H383.943Z" fill="#42D4BA"/>
</g>
<path fill-rule="evenodd" clip-rule="evenodd" d="M168.567 64.7224L168.463 45.3333L159.478 60.4081H152.323L143.416 45.8798V64.7224H129.043V18.0237H141.524L156.066 41.9062L170.254 18.0237H182.741L182.873 64.2483L203.278 18.0237H217.379L237.852 64.254V18.0237H259.326C263.445 18.0237 267.097 18.7167 270.244 20.1535C273.393 21.5497 275.873 23.6018 277.624 26.3188C279.384 29.0061 280.237 32.1478 280.237 35.6832C280.237 39.0904 279.427 42.1399 277.762 44.7781C276.423 46.9193 274.603 48.663 272.336 50.0164L282.43 64.7224H265.617L257.677 53.0926H253.163V64.7224H221.94L218.501 56.2189H201.97L198.531 64.7224H168.567ZM200.981 54.7535H219.489L222.928 63.2569H235.808L216.425 19.4891H204.233L184.912 63.2569H197.543L200.981 54.7535ZM251.698 51.6272H258.451L266.391 63.2569H279.647L270.205 49.5013C270.656 49.2828 271.089 49.0509 271.505 48.8056C273.629 47.5532 275.301 45.951 276.52 43.9991C278.021 41.6231 278.771 38.8512 278.771 35.6832C278.771 32.3902 277.979 29.5349 276.395 27.1172C274.811 24.6579 272.561 22.7821 269.643 21.4899C266.725 20.1561 263.286 19.4891 259.326 19.4891H239.318V63.2569H251.698V51.6272ZM156.082 44.7494L140.701 19.4891H130.509V63.2569H141.951V40.6852L153.143 58.9427H158.645L169.9 40.06L170.025 63.2569H181.405L181.28 19.4891H171.088L156.082 44.7494ZM210.235 31.6191L204.608 45.6248H215.862L210.235 31.6191ZM210.235 35.5498L206.776 44.1593H213.694L210.235 35.5498ZM264.801 35.6832C264.801 33.9752 264.277 32.8298 263.366 32.0363C262.443 31.2332 260.931 30.7085 258.576 30.7085H253.163V40.5954H258.576C260.933 40.5954 262.452 40.0904 263.376 39.3211C264.281 38.5279 264.801 37.3847 264.801 35.6832ZM264.328 40.4351C263.036 41.5189 261.118 42.0608 258.576 42.0608H251.698V29.2431H258.576C261.118 29.2431 263.036 29.8058 264.328 30.9313C265.62 32.0567 266.266 33.6407 266.266 35.6832C266.266 37.7257 265.62 39.3097 264.328 40.4351ZM314.988 63.2569L302.483 47.3755L297.856 52.315V63.2569H285.601V19.4891H297.856V37.684L314.801 19.4891H328.431L310.549 38.872L329.369 63.2569H314.988ZM312.465 38.9562L331.152 63.1686V18.7011L312.465 38.9562ZM368.409 18.0237V30.521H346.338V34.9681H365.783V47.1527H346.338V52.2251H369.222V64.7224H314.277L302.387 49.6219L299.322 52.8941V64.7224H284.136V18.0237H299.322V33.9602L314.163 18.0237H368.409ZM344.872 53.6905V45.6873H364.318V36.4335H344.872V29.0555H366.944V19.4891H332.618V63.2569H367.757V53.6905H344.872ZM369.035 30.7711V18.0237H411.169V30.7711H397.789V64.7224H382.478V30.7711H369.035ZM383.943 29.3056V63.2569H396.323V29.3056H409.704V19.4891H370.5V29.3056H383.943Z" fill="#42D4BA"/>
<path fill-rule="evenodd" clip-rule="evenodd" d="M168.567 64.7224L168.463 45.3333L159.478 60.4081H152.323L143.416 45.8798V64.7224H129.043V18.0237H141.524L156.066 41.9062L170.254 18.0237H182.741L182.873 64.2483L203.278 18.0237H217.379L237.852 64.254V18.0237H259.326C263.445 18.0237 267.097 18.7167 270.244 20.1535C273.393 21.5497 275.873 23.6018 277.624 26.3188C279.384 29.0061 280.237 32.1478 280.237 35.6832C280.237 39.0904 279.427 42.1399 277.762 44.7781C276.423 46.9193 274.603 48.663 272.336 50.0164L282.43 64.7224H265.617L257.677 53.0926H253.163V64.7224H221.94L218.501 56.2189H201.97L198.531 64.7224H168.567ZM200.981 54.7535H219.489L222.928 63.2569H235.808L216.425 19.4891H204.233L184.912 63.2569H197.543L200.981 54.7535ZM251.698 51.6272H258.451L266.391 63.2569H279.647L270.205 49.5013C270.656 49.2828 271.089 49.0509 271.505 48.8056C273.629 47.5532 275.301 45.951 276.52 43.9991C278.021 41.6231 278.771 38.8512 278.771 35.6832C278.771 32.3902 277.979 29.5349 276.395 27.1172C274.811 24.6579 272.561 22.7821 269.643 21.4899C266.725 20.1561 263.286 19.4891 259.326 19.4891H239.318V63.2569H251.698V51.6272ZM156.082 44.7494L140.701 19.4891H130.509V63.2569H141.951V40.6852L153.143 58.9427H158.645L169.9 40.06L170.025 63.2569H181.405L181.28 19.4891H171.088L156.082 44.7494ZM210.235 31.6191L204.608 45.6248H215.862L210.235 31.6191ZM210.235 35.5498L206.776 44.1593H213.694L210.235 35.5498ZM264.801 35.6832C264.801 33.9752 264.277 32.8298 263.366 32.0363C262.443 31.2332 260.931 30.7085 258.576 30.7085H253.163V40.5954H258.576C260.933 40.5954 262.452 40.0904 263.376 39.3211C264.281 38.5279 264.801 37.3847 264.801 35.6832ZM264.328 40.4351C263.036 41.5189 261.118 42.0608 258.576 42.0608H251.698V29.2431H258.576C261.118 29.2431 263.036 29.8058 264.328 30.9313C265.62 32.0567 266.266 33.6407 266.266 35.6832C266.266 37.7257 265.62 39.3097 264.328 40.4351ZM314.988 63.2569L302.483 47.3755L297.856 52.315V63.2569H285.601V19.4891H297.856V37.684L314.801 19.4891H328.431L310.549 38.872L329.369 63.2569H314.988ZM312.465 38.9562L331.152 63.1686V18.7011L312.465 38.9562ZM368.409 18.0237V30.521H346.338V34.9681H365.783V47.1527H346.338V52.2251H369.222V64.7224H314.277L302.387 49.6219L299.322 52.8941V64.7224H284.136V18.0237H299.322V33.9602L314.163 18.0237H368.409ZM344.872 53.6905V45.6873H364.318V36.4335H344.872V29.0555H366.944V19.4891H332.618V63.2569H367.757V53.6905H344.872ZM369.035 30.7711V18.0237H411.169V30.7711H397.789V64.7224H382.478V30.7711H369.035ZM383.943 29.3056V63.2569H396.323V29.3056H409.704V19.4891H370.5V29.3056H383.943Z" fill="#42D4BA"/>
<path fill-rule="evenodd" clip-rule="evenodd" d="M168.567 64.7224L168.463 45.3333L159.478 60.4081H152.323L143.416 45.8798V64.7224H129.043V18.0237H141.524L156.066 41.9062L170.254 18.0237H182.741L182.873 64.2483L203.278 18.0237H217.379L237.852 64.254V18.0237H259.326C263.445 18.0237 267.097 18.7167 270.244 20.1535C273.393 21.5497 275.873 23.6018 277.624 26.3188C279.384 29.0061 280.237 32.1478 280.237 35.6832C280.237 39.0904 279.427 42.1399 277.762 44.7781C276.423 46.9193 274.603 48.663 272.336 50.0164L282.43 64.7224H265.617L257.677 53.0926H253.163V64.7224H221.94L218.501 56.2189H201.97L198.531 64.7224H168.567ZM200.981 54.7535H219.489L222.928 63.2569H235.808L216.425 19.4891H204.233L184.912 63.2569H197.543L200.981 54.7535ZM251.698 51.6272H258.451L266.391 63.2569H279.647L270.205 49.5013C270.656 49.2828 271.089 49.0509 271.505 48.8056C273.629 47.5532 275.301 45.951 276.52 43.9991C278.021 41.6231 278.771 38.8512 278.771 35.6832C278.771 32.3902 277.979 29.5349 276.395 27.1172C274.811 24.6579 272.561 22.7821 269.643 21.4899C266.725 20.1561 263.286 19.4891 259.326 19.4891H239.318V63.2569H251.698V51.6272ZM156.082 44.7494L140.701 19.4891H130.509V63.2569H141.951V40.6852L153.143 58.9427H158.645L169.9 40.06L170.025 63.2569H181.405L181.28 19.4891H171.088L156.082 44.7494ZM210.235 31.6191L204.608 45.6248H215.862L210.235 31.6191ZM210.235 35.5498L206.776 44.1593H213.694L210.235 35.5498ZM264.801 35.6832C264.801 33.9752 264.277 32.8298 263.366 32.0363C262.443 31.2332 260.931 30.7085 258.576 30.7085H253.163V40.5954H258.576C260.933 40.5954 262.452 40.0904 263.376 39.3211C264.281 38.5279 264.801 37.3847 264.801 35.6832ZM264.328 40.4351C263.036 41.5189 261.118 42.0608 258.576 42.0608H251.698V29.2431H258.576C261.118 29.2431 263.036 29.8058 264.328 30.9313C265.62 32.0567 266.266 33.6407 266.266 35.6832C266.266 37.7257 265.62 39.3097 264.328 40.4351ZM314.988 63.2569L302.483 47.3755L297.856 52.315V63.2569H285.601V19.4891H297.856V37.684L314.801 19.4891H328.431L310.549 38.872L329.369 63.2569H314.988ZM312.465 38.9562L331.152 63.1686V18.7011L312.465 38.9562ZM368.409 18.0237V30.521H346.338V34.9681H365.783V47.1527H346.338V52.2251H369.222V64.7224H314.277L302.387 49.6219L299.322 52.8941V64.7224H284.136V18.0237H299.322V33.9602L314.163 18.0237H368.409ZM344.872 53.6905V45.6873H364.318V36.4335H344.872V29.0555H366.944V19.4891H332.618V63.2569H367.757V53.6905H344.872ZM369.035 30.7711V18.0237H411.169V30.7711H397.789V64.7224H382.478V30.7711H369.035ZM383.943 29.3056V63.2569H396.323V29.3056H409.704V19.4891H370.5V29.3056H383.943Z" fill="#42D4BA"/>
<defs>
<filter id="filter0_f_265_727" x="111.043" y="0.0236816" width="318.125" height="82.6987" filterUnits="userSpaceOnUse" color-interpolation-filters="sRGB">
<feFlood flood-opacity="0" result="BackgroundImageFix"/>
<feBlend mode="normal" in="SourceGraphic" in2="BackgroundImageFix" result="shape"/>
<feGaussianBlur stdDeviation="9" result="effect1_foregroundBlur_265_727"/>
</filter>
</defs>
</svg>
