<svg width="25" height="25" viewBox="0 0 25 25" fill="none" xmlns="http://www.w3.org/2000/svg">
<path d="M3.5 6.5H5.5H21.5" stroke="white" stroke-width="1.5" stroke-linecap="round" stroke-linejoin="round"/>
<path d="M8.5 6.5V4.5C8.5 3.96957 8.71071 3.46086 9.08579 3.08579C9.46086 2.71071 9.96957 2.5 10.5 2.5H14.5C15.0304 2.5 15.5391 2.71071 15.9142 3.08579C16.2893 3.46086 16.5 3.96957 16.5 4.5V6.5M19.5 6.5V20.5C19.5 21.0304 19.2893 21.5391 18.9142 21.9142C18.5391 22.2893 18.0304 22.5 17.5 22.5H7.5C6.96957 22.5 6.46086 22.2893 6.08579 21.9142C5.71071 21.5391 5.5 21.0304 5.5 20.5V6.5H19.5Z" stroke="white" stroke-width="1.5" stroke-linecap="round" stroke-linejoin="round"/>
<path d="M10.5 11.5V17.5" stroke="white" stroke-width="1.5" stroke-linecap="round" stroke-linejoin="round"/>
<path d="M14.5 11.5V17.5" stroke="white" stroke-width="1.5" stroke-linecap="round" stroke-linejoin="round"/>
</svg>
