<svg width="1028" height="394" viewBox="0 0 1028 394" fill="none" xmlns="http://www.w3.org/2000/svg">
<path d="M25.728 100.088L32.496 90.68H39.216L32.64 100.088L39.216 109.448H32.496L25.728 100.088ZM36.576 100.088L43.344 90.68H50.064L43.488 100.088L50.064 109.448H43.344L36.576 100.088ZM85.3996 79.4L71.0956 105.992C69.7196 108.552 68.0556 110.488 66.1036 111.8C64.1836 113.112 62.0876 113.768 59.8156 113.768C58.0556 113.768 56.2316 113.384 54.3436 112.616L56.2156 106.712C57.5596 107.128 58.6796 107.336 59.5756 107.336C60.5356 107.336 61.3996 107.112 62.1676 106.664C62.9356 106.184 63.6396 105.448 64.2796 104.456L64.5676 104.072L51.3196 79.4H59.6236L68.5516 97.448L77.7676 79.4H85.3996ZM103.247 87.176H110.687V97.256H121.919V87.176H129.407V113H121.919V103.352H110.687V113H103.247V87.176ZM146.823 86.792C150.823 86.792 153.895 87.752 156.039 89.672C158.183 91.56 159.255 94.424 159.255 98.264V113H152.247V109.784C150.839 112.184 148.215 113.384 144.375 113.384C142.391 113.384 140.663 113.048 139.191 112.376C137.751 111.704 136.647 110.776 135.879 109.592C135.111 108.408 134.727 107.064 134.727 105.56C134.727 103.16 135.623 101.272 137.415 99.896C139.239 98.52 142.039 97.832 145.815 97.832H151.767C151.767 96.2 151.271 94.952 150.279 94.088C149.287 93.192 147.799 92.744 145.815 92.744C144.439 92.744 143.079 92.968 141.735 93.416C140.423 93.832 139.303 94.408 138.375 95.144L135.687 89.912C137.095 88.92 138.775 88.152 140.727 87.608C142.711 87.064 144.743 86.792 146.823 86.792ZM146.247 108.344C147.527 108.344 148.663 108.056 149.655 107.48C150.647 106.872 151.351 105.992 151.767 104.84V102.2H146.631C143.559 102.2 142.023 103.208 142.023 105.224C142.023 106.184 142.391 106.952 143.127 107.528C143.895 108.072 144.935 108.344 146.247 108.344ZM205.384 87.176V113H165.976V87.176H173.416V106.856H182.008V87.176H189.448V106.856H197.944V87.176H205.384ZM237.889 100.184C237.889 100.28 237.841 100.952 237.745 102.2H218.209C218.561 103.8 219.393 105.064 220.705 105.992C222.017 106.92 223.649 107.384 225.601 107.384C226.945 107.384 228.129 107.192 229.153 106.808C230.209 106.392 231.185 105.752 232.081 104.888L236.065 109.208C233.633 111.992 230.081 113.384 225.409 113.384C222.497 113.384 219.921 112.824 217.681 111.704C215.441 110.552 213.713 108.968 212.497 106.952C211.281 104.936 210.673 102.648 210.673 100.088C210.673 97.56 211.265 95.288 212.449 93.272C213.665 91.224 215.313 89.64 217.393 88.52C219.505 87.368 221.857 86.792 224.449 86.792C226.977 86.792 229.265 87.336 231.313 88.424C233.361 89.512 234.961 91.08 236.113 93.128C237.297 95.144 237.889 97.496 237.889 100.184ZM224.497 92.456C222.801 92.456 221.377 92.936 220.225 93.896C219.073 94.856 218.369 96.168 218.113 97.832H230.833C230.577 96.2 229.873 94.904 228.721 93.944C227.569 92.952 226.161 92.456 224.497 92.456ZM264.533 93.32H251.285V113H243.845V87.176H264.533V93.32ZM279.735 113.384C277.015 113.384 274.567 112.824 272.391 111.704C270.247 110.552 268.567 108.968 267.351 106.952C266.135 104.936 265.527 102.648 265.527 100.088C265.527 97.528 266.135 95.24 267.351 93.224C268.567 91.208 270.247 89.64 272.391 88.52C274.567 87.368 277.015 86.792 279.735 86.792C282.455 86.792 284.887 87.368 287.031 88.52C289.175 89.64 290.855 91.208 292.071 93.224C293.287 95.24 293.895 97.528 293.895 100.088C293.895 102.648 293.287 104.936 292.071 106.952C290.855 108.968 289.175 110.552 287.031 111.704C284.887 112.824 282.455 113.384 279.735 113.384ZM279.735 107.24C281.655 107.24 283.223 106.6 284.439 105.32C285.687 104.008 286.311 102.264 286.311 100.088C286.311 97.912 285.687 96.184 284.439 94.904C283.223 93.592 281.655 92.936 279.735 92.936C277.815 92.936 276.231 93.592 274.983 94.904C273.735 96.184 273.111 97.912 273.111 100.088C273.111 102.264 273.735 104.008 274.983 105.32C276.231 106.6 277.815 107.24 279.735 107.24ZM325.358 113.384C322.606 113.384 320.126 112.824 317.918 111.704C315.742 110.552 314.03 108.968 312.782 106.952C311.566 104.936 310.958 102.648 310.958 100.088C310.958 97.528 311.566 95.24 312.782 93.224C314.03 91.208 315.742 89.64 317.918 88.52C320.126 87.368 322.606 86.792 325.358 86.792C328.078 86.792 330.446 87.368 332.462 88.52C334.51 89.64 335.998 91.256 336.926 93.368L331.118 96.488C329.774 94.12 327.838 92.936 325.31 92.936C323.358 92.936 321.742 93.576 320.462 94.856C319.182 96.136 318.542 97.88 318.542 100.088C318.542 102.296 319.182 104.04 320.462 105.32C321.742 106.6 323.358 107.24 325.31 107.24C327.87 107.24 329.806 106.056 331.118 103.688L336.926 106.856C335.998 108.904 334.51 110.504 332.462 111.656C330.446 112.808 328.078 113.384 325.358 113.384ZM351.724 86.792C355.724 86.792 358.796 87.752 360.94 89.672C363.084 91.56 364.156 94.424 364.156 98.264V113H357.148V109.784C355.74 112.184 353.116 113.384 349.276 113.384C347.292 113.384 345.564 113.048 344.092 112.376C342.652 111.704 341.548 110.776 340.78 109.592C340.012 108.408 339.628 107.064 339.628 105.56C339.628 103.16 340.524 101.272 342.316 99.896C344.14 98.52 346.94 97.832 350.716 97.832H356.668C356.668 96.2 356.172 94.952 355.18 94.088C354.188 93.192 352.7 92.744 350.716 92.744C349.34 92.744 347.98 92.968 346.636 93.416C345.324 93.832 344.204 94.408 343.276 95.144L340.588 89.912C341.996 88.92 343.676 88.152 345.628 87.608C347.612 87.064 349.644 86.792 351.724 86.792ZM351.148 108.344C352.428 108.344 353.564 108.056 354.556 107.48C355.548 106.872 356.252 105.992 356.668 104.84V102.2H351.532C348.46 102.2 346.924 103.208 346.924 105.224C346.924 106.184 347.292 106.952 348.028 107.528C348.796 108.072 349.836 108.344 351.148 108.344ZM370.877 87.176H378.317V102.536L390.893 87.176H397.757V113H390.317V97.64L377.789 113H370.877V87.176ZM383.837 84.392C378.205 84.392 375.373 81.912 375.341 76.952H380.237C380.269 78.072 380.573 78.952 381.149 79.592C381.757 80.2 382.637 80.504 383.789 80.504C384.941 80.504 385.821 80.2 386.429 79.592C387.069 78.952 387.389 78.072 387.389 76.952H392.381C392.349 81.912 389.501 84.392 383.837 84.392ZM426.866 93.32H418.13V113H410.69V93.32H401.954V87.176H426.866V93.32ZM441.106 86.792C445.106 86.792 448.178 87.752 450.322 89.672C452.466 91.56 453.538 94.424 453.538 98.264V113H446.53V109.784C445.122 112.184 442.498 113.384 438.658 113.384C436.674 113.384 434.946 113.048 433.474 112.376C432.034 111.704 430.93 110.776 430.162 109.592C429.394 108.408 429.01 107.064 429.01 105.56C429.01 103.16 429.906 101.272 431.698 99.896C433.522 98.52 436.322 97.832 440.098 97.832H446.05C446.05 96.2 445.554 94.952 444.562 94.088C443.57 93.192 442.082 92.744 440.098 92.744C438.722 92.744 437.362 92.968 436.018 93.416C434.706 93.832 433.586 94.408 432.658 95.144L429.97 89.912C431.378 88.92 433.058 88.152 435.01 87.608C436.994 87.064 439.026 86.792 441.106 86.792ZM440.53 108.344C441.81 108.344 442.946 108.056 443.938 107.48C444.93 106.872 445.634 105.992 446.05 104.84V102.2H440.914C437.842 102.2 436.306 103.208 436.306 105.224C436.306 106.184 436.674 106.952 437.41 107.528C438.178 108.072 439.218 108.344 440.53 108.344ZM486.164 113.384C483.444 113.384 480.996 112.824 478.82 111.704C476.676 110.552 474.996 108.968 473.78 106.952C472.564 104.936 471.956 102.648 471.956 100.088C471.956 97.528 472.564 95.24 473.78 93.224C474.996 91.208 476.676 89.64 478.82 88.52C480.996 87.368 483.444 86.792 486.164 86.792C488.884 86.792 491.316 87.368 493.46 88.52C495.604 89.64 497.284 91.208 498.5 93.224C499.716 95.24 500.324 97.528 500.324 100.088C500.324 102.648 499.716 104.936 498.5 106.952C497.284 108.968 495.604 110.552 493.46 111.704C491.316 112.824 488.884 113.384 486.164 113.384ZM486.164 107.24C488.084 107.24 489.652 106.6 490.868 105.32C492.116 104.008 492.74 102.264 492.74 100.088C492.74 97.912 492.116 96.184 490.868 94.904C489.652 93.592 488.084 92.936 486.164 92.936C484.244 92.936 482.66 93.592 481.412 94.904C480.164 96.184 479.54 97.912 479.54 100.088C479.54 102.264 480.164 104.008 481.412 105.32C482.66 106.6 484.244 107.24 486.164 107.24ZM526.448 93.32H517.712V113H510.272V93.32H501.536V87.176H526.448V93.32ZM542.031 103.208H538.143V113H530.655V87.176H538.143V97.208H542.175L549.183 87.176H557.151L548.127 99.56L557.775 113H548.943L542.031 103.208ZM576.884 86.792C579.284 86.792 581.46 87.352 583.412 88.472C585.396 89.56 586.948 91.112 588.068 93.128C589.188 95.112 589.748 97.432 589.748 100.088C589.748 102.744 589.188 105.08 588.068 107.096C586.948 109.08 585.396 110.632 583.412 111.752C581.46 112.84 579.284 113.384 576.884 113.384C573.588 113.384 570.996 112.344 569.108 110.264V122.312H561.62V87.176H568.772V90.152C570.628 87.912 573.332 86.792 576.884 86.792ZM575.588 107.24C577.508 107.24 579.076 106.6 580.292 105.32C581.54 104.008 582.164 102.264 582.164 100.088C582.164 97.912 581.54 96.184 580.292 94.904C579.076 93.592 577.508 92.936 575.588 92.936C573.668 92.936 572.084 93.592 570.836 94.904C569.62 96.184 569.012 97.912 569.012 100.088C569.012 102.264 569.62 104.008 570.836 105.32C572.084 106.6 573.668 107.24 575.588 107.24ZM608.796 95.432C612.156 95.464 614.7 96.216 616.428 97.688C618.156 99.16 619.02 101.272 619.02 104.024C619.02 106.904 618.044 109.128 616.092 110.696C614.14 112.264 611.372 113.048 607.788 113.048L595.212 113V87.176H602.652V95.432H608.796ZM621.804 87.176H629.244V113H621.804V87.176ZM607.116 107.72C608.556 107.752 609.66 107.448 610.428 106.808C611.196 106.168 611.58 105.208 611.58 103.928C611.58 102.68 611.196 101.768 610.428 101.192C609.692 100.616 608.588 100.312 607.116 100.28L602.652 100.232V107.72H607.116ZM658.374 93.32H649.638V113H642.198V93.32H633.462V87.176H658.374V93.32ZM965.286 96.488H978.87V102.488H965.286V96.488ZM52.704 185.184C52.704 185.28 52.656 185.952 52.56 187.2H33.024C33.376 188.8 34.208 190.064 35.52 190.992C36.832 191.92 38.464 192.384 40.416 192.384C41.76 192.384 42.944 192.192 43.968 191.808C45.024 191.392 46 190.752 46.896 189.888L50.88 194.208C48.448 196.992 44.896 198.384 40.224 198.384C37.312 198.384 34.736 197.824 32.496 196.704C30.256 195.552 28.528 193.968 27.312 191.952C26.096 189.936 25.488 187.648 25.488 185.088C25.488 182.56 26.08 180.288 27.264 178.272C28.48 176.224 30.128 174.64 32.208 173.52C34.32 172.368 36.672 171.792 39.264 171.792C41.792 171.792 44.08 172.336 46.128 173.424C48.176 174.512 49.776 176.08 50.928 178.128C52.112 180.144 52.704 182.496 52.704 185.184ZM39.312 177.456C37.616 177.456 36.192 177.936 35.04 178.896C33.888 179.856 33.184 181.168 32.928 182.832H45.648C45.392 181.2 44.688 179.904 43.536 178.944C42.384 177.952 40.976 177.456 39.312 177.456ZM70.9475 198.384C68.1955 198.384 65.7155 197.824 63.5075 196.704C61.3315 195.552 59.6195 193.968 58.3715 191.952C57.1555 189.936 56.5475 187.648 56.5475 185.088C56.5475 182.528 57.1555 180.24 58.3715 178.224C59.6195 176.208 61.3315 174.64 63.5075 173.52C65.7155 172.368 68.1955 171.792 70.9475 171.792C73.6675 171.792 76.0355 172.368 78.0515 173.52C80.0995 174.64 81.5875 176.256 82.5155 178.368L76.7075 181.488C75.3635 179.12 73.4275 177.936 70.8995 177.936C68.9475 177.936 67.3315 178.576 66.0515 179.856C64.7715 181.136 64.1315 182.88 64.1315 185.088C64.1315 187.296 64.7715 189.04 66.0515 190.32C67.3315 191.6 68.9475 192.24 70.8995 192.24C73.4595 192.24 75.3955 191.056 76.7075 188.688L82.5155 191.856C81.5875 193.904 80.0995 195.504 78.0515 196.656C76.0355 197.808 73.6675 198.384 70.9475 198.384ZM111.675 172.176V198H104.187V178.32H96.0265L95.7865 182.88C95.6585 186.272 95.3385 189.088 94.8265 191.328C94.3145 193.568 93.4825 195.328 92.3305 196.608C91.1785 197.888 89.5785 198.528 87.5305 198.528C86.4425 198.528 85.1465 198.336 83.6425 197.952L84.0265 191.808C84.5385 191.872 84.9065 191.904 85.1305 191.904C86.2505 191.904 87.0825 191.504 87.6265 190.704C88.2025 189.872 88.5865 188.832 88.7785 187.584C88.9705 186.304 89.1145 184.624 89.2105 182.544L89.5945 172.176H111.675ZM119.091 172.176H126.531V187.536L139.107 172.176H145.971V198H138.531V182.64L126.003 198H119.091V172.176ZM188.89 178.32H180.154V198H172.714V178.32H163.978V172.176H188.89V178.32ZM206.682 180.432C210.042 180.464 212.586 181.216 214.314 182.688C216.042 184.16 216.906 186.272 216.906 189.024C216.906 191.904 215.93 194.128 213.978 195.696C212.026 197.264 209.258 198.048 205.674 198.048L193.098 198V172.176H200.538V180.432H206.682ZM219.69 172.176H227.13V198H219.69V172.176ZM205.002 192.72C206.442 192.752 207.546 192.448 208.314 191.808C209.082 191.168 209.466 190.208 209.466 188.928C209.466 187.68 209.082 186.768 208.314 186.192C207.578 185.616 206.474 185.312 205.002 185.28L200.538 185.232V192.72H205.002ZM248.373 172.176H255.813V182.256H267.045V172.176H274.533V198H267.045V188.352H255.813V198H248.373V172.176ZM291.949 171.792C295.949 171.792 299.021 172.752 301.165 174.672C303.309 176.56 304.381 179.424 304.381 183.264V198H297.373V194.784C295.965 197.184 293.341 198.384 289.501 198.384C287.517 198.384 285.789 198.048 284.317 197.376C282.877 196.704 281.773 195.776 281.005 194.592C280.237 193.408 279.853 192.064 279.853 190.56C279.853 188.16 280.749 186.272 282.541 184.896C284.365 183.52 287.165 182.832 290.941 182.832H296.893C296.893 181.2 296.397 179.952 295.405 179.088C294.413 178.192 292.925 177.744 290.941 177.744C289.565 177.744 288.205 177.968 286.861 178.416C285.549 178.832 284.429 179.408 283.501 180.144L280.813 174.912C282.221 173.92 283.901 173.152 285.853 172.608C287.837 172.064 289.869 171.792 291.949 171.792ZM291.373 193.344C292.653 193.344 293.789 193.056 294.781 192.48C295.773 191.872 296.477 190.992 296.893 189.84V187.2H291.757C288.685 187.2 287.149 188.208 287.149 190.224C287.149 191.184 287.517 191.952 288.253 192.528C289.021 193.072 290.061 193.344 291.373 193.344ZM350.509 172.176V198H311.101V172.176H318.541V191.856H327.133V172.176H334.573V191.856H343.069V172.176H350.509ZM383.015 185.184C383.015 185.28 382.967 185.952 382.871 187.2H363.335C363.687 188.8 364.519 190.064 365.831 190.992C367.143 191.92 368.775 192.384 370.727 192.384C372.071 192.384 373.255 192.192 374.279 191.808C375.335 191.392 376.311 190.752 377.207 189.888L381.191 194.208C378.759 196.992 375.207 198.384 370.535 198.384C367.623 198.384 365.047 197.824 362.807 196.704C360.567 195.552 358.839 193.968 357.623 191.952C356.407 189.936 355.799 187.648 355.799 185.088C355.799 182.56 356.391 180.288 357.575 178.272C358.791 176.224 360.439 174.64 362.519 173.52C364.631 172.368 366.983 171.792 369.575 171.792C372.103 171.792 374.391 172.336 376.439 173.424C378.487 174.512 380.087 176.08 381.239 178.128C382.423 180.144 383.015 182.496 383.015 185.184ZM369.623 177.456C367.927 177.456 366.503 177.936 365.351 178.896C364.199 179.856 363.495 181.168 363.239 182.832H375.959C375.703 181.2 374.999 179.904 373.847 178.944C372.695 177.952 371.287 177.456 369.623 177.456ZM364.583 168.624C363.623 168.624 362.823 168.32 362.183 167.712C361.543 167.072 361.223 166.272 361.223 165.312C361.223 164.352 361.543 163.568 362.183 162.96C362.823 162.32 363.623 162 364.583 162C365.543 162 366.327 162.32 366.935 162.96C367.575 163.568 367.895 164.352 367.895 165.312C367.895 166.272 367.575 167.072 366.935 167.712C366.327 168.32 365.543 168.624 364.583 168.624ZM374.279 168.624C373.319 168.624 372.519 168.32 371.879 167.712C371.271 167.072 370.967 166.272 370.967 165.312C370.967 164.352 371.271 163.568 371.879 162.96C372.519 162.32 373.319 162 374.279 162C375.239 162 376.039 162.32 376.679 162.96C377.319 163.568 377.639 164.352 377.639 165.312C377.639 166.272 377.319 167.072 376.679 167.712C376.039 168.32 375.239 168.624 374.279 168.624ZM413.504 172.176V198H406.016V178.32H397.856L397.616 182.88C397.488 186.272 397.168 189.088 396.656 191.328C396.144 193.568 395.312 195.328 394.16 196.608C393.008 197.888 391.408 198.528 389.36 198.528C388.272 198.528 386.976 198.336 385.472 197.952L385.856 191.808C386.368 191.872 386.736 191.904 386.96 191.904C388.08 191.904 388.912 191.504 389.456 190.704C390.032 189.872 390.416 188.832 390.608 187.584C390.8 186.304 390.944 184.624 391.04 182.544L391.424 172.176H413.504ZM449.658 173.952C452.122 173.952 454.282 174.464 456.138 175.488C457.994 176.48 459.418 177.888 460.41 179.712C461.434 181.536 461.946 183.648 461.946 186.048C461.946 188.512 461.338 190.704 460.122 192.624C458.938 194.512 457.274 195.984 455.13 197.04C452.986 198.064 450.554 198.576 447.834 198.576C443.322 198.576 439.77 197.136 437.178 194.256C434.618 191.344 433.338 187.088 433.338 181.488C433.338 176.304 434.458 172.176 436.698 169.104C438.97 166 442.442 163.968 447.114 163.008L459.402 160.56L460.41 166.992L449.562 169.152C446.618 169.728 444.426 170.688 442.986 172.032C441.578 173.376 440.746 175.28 440.49 177.744C441.61 176.528 442.954 175.6 444.522 174.96C446.09 174.288 447.802 173.952 449.658 173.952ZM447.882 192.768C449.802 192.768 451.338 192.144 452.49 190.896C453.674 189.648 454.266 188.064 454.266 186.144C454.266 184.192 453.674 182.64 452.49 181.488C451.338 180.336 449.802 179.76 447.882 179.76C445.93 179.76 444.362 180.336 443.178 181.488C441.994 182.64 441.402 184.192 441.402 186.144C441.402 188.096 442.01 189.696 443.226 190.944C444.442 192.16 445.994 192.768 447.882 192.768ZM476.853 171.792C480.853 171.792 483.925 172.752 486.069 174.672C488.213 176.56 489.285 179.424 489.285 183.264V198H482.277V194.784C480.869 197.184 478.245 198.384 474.405 198.384C472.421 198.384 470.693 198.048 469.221 197.376C467.781 196.704 466.677 195.776 465.909 194.592C465.141 193.408 464.757 192.064 464.757 190.56C464.757 188.16 465.653 186.272 467.445 184.896C469.269 183.52 472.069 182.832 475.845 182.832H481.797C481.797 181.2 481.301 179.952 480.309 179.088C479.317 178.192 477.829 177.744 475.845 177.744C474.469 177.744 473.109 177.968 471.765 178.416C470.453 178.832 469.333 179.408 468.405 180.144L465.717 174.912C467.125 173.92 468.805 173.152 470.757 172.608C472.741 172.064 474.773 171.792 476.853 171.792ZM476.277 193.344C477.557 193.344 478.693 193.056 479.685 192.48C480.677 191.872 481.381 190.992 481.797 189.84V187.2H476.661C473.589 187.2 472.053 188.208 472.053 190.224C472.053 191.184 472.421 191.952 473.157 192.528C473.925 193.072 474.965 193.344 476.277 193.344ZM516.693 178.32H503.445V198H496.005V172.176H516.693V178.32ZM520.877 172.176H528.317V187.536L540.893 172.176H547.757V198H540.317V182.64L527.789 198H520.877V172.176ZM557.907 189.072C559.251 189.072 560.355 189.504 561.219 190.368C562.083 191.2 562.515 192.304 562.515 193.68C562.515 194.32 562.435 194.96 562.275 195.6C562.115 196.24 561.763 197.2 561.219 198.48L558.483 205.392H553.731L555.843 197.76C555.043 197.44 554.403 196.928 553.923 196.224C553.475 195.488 553.251 194.64 553.251 193.68C553.251 192.304 553.683 191.2 554.547 190.368C555.443 189.504 556.563 189.072 557.907 189.072ZM598.511 184.56C600.047 185.04 601.231 185.776 602.063 186.768C602.927 187.76 603.359 188.944 603.359 190.32C603.359 191.952 602.799 193.392 601.679 194.64C600.559 195.856 599.023 196.8 597.071 197.472C595.119 198.144 592.911 198.48 590.447 198.48C588.431 198.48 586.447 198.272 584.495 197.856C582.543 197.44 580.735 196.816 579.071 195.984L581.087 190.752C583.807 192.064 586.815 192.72 590.111 192.72C591.871 192.72 593.247 192.464 594.239 191.952C595.263 191.408 595.775 190.656 595.775 189.696C595.775 188.864 595.423 188.24 594.719 187.824C594.015 187.376 592.991 187.152 591.647 187.152H586.367V182.496H590.975C592.287 182.496 593.295 182.288 593.999 181.872C594.703 181.456 595.055 180.848 595.055 180.048C595.055 179.216 594.607 178.576 593.711 178.128C592.847 177.68 591.599 177.456 589.967 177.456C587.471 177.456 584.751 178.048 581.807 179.232L579.983 174.048C583.567 172.48 587.055 171.696 590.447 171.696C592.783 171.696 594.863 171.984 596.687 172.56C598.543 173.136 599.999 173.984 601.055 175.104C602.111 176.192 602.639 177.472 602.639 178.944C602.639 180.16 602.271 181.264 601.535 182.256C600.799 183.216 599.791 183.984 598.511 184.56ZM609.022 172.176H616.462V182.256H627.694V172.176H635.182V198H627.694V188.352H616.462V198H609.022V172.176ZM652.597 171.792C656.597 171.792 659.669 172.752 661.813 174.672C663.957 176.56 665.029 179.424 665.029 183.264V198H658.021V194.784C656.613 197.184 653.989 198.384 650.149 198.384C648.165 198.384 646.437 198.048 644.965 197.376C643.525 196.704 642.421 195.776 641.653 194.592C640.885 193.408 640.501 192.064 640.501 190.56C640.501 188.16 641.397 186.272 643.189 184.896C645.013 183.52 647.813 182.832 651.589 182.832H657.541C657.541 181.2 657.045 179.952 656.053 179.088C655.061 178.192 653.573 177.744 651.589 177.744C650.213 177.744 648.853 177.968 647.509 178.416C646.197 178.832 645.077 179.408 644.149 180.144L641.461 174.912C642.869 173.92 644.549 173.152 646.501 172.608C648.485 172.064 650.517 171.792 652.597 171.792ZM652.021 193.344C653.301 193.344 654.437 193.056 655.429 192.48C656.421 191.872 657.125 190.992 657.541 189.84V187.2H652.405C649.333 187.2 647.797 188.208 647.797 190.224C647.797 191.184 648.165 191.952 648.901 192.528C649.669 193.072 650.709 193.344 652.021 193.344ZM694.982 172.176V198H687.494V188.4C685.318 189.488 682.918 190.032 680.294 190.032C676.806 190.032 674.166 189.248 672.374 187.68C670.614 186.08 669.734 183.616 669.734 180.288V172.176H677.222V179.808C677.222 181.376 677.622 182.512 678.422 183.216C679.254 183.92 680.438 184.272 681.974 184.272C683.926 184.272 685.766 183.856 687.494 183.024V172.176H694.982ZM702.387 172.176H709.827V187.536L722.403 172.176H729.267V198H721.827V182.64L709.299 198H702.387V172.176ZM758.377 178.32H749.641V198H742.201V178.32H733.465V172.176H758.377V178.32ZM762.789 189.072C764.133 189.072 765.237 189.504 766.101 190.368C766.965 191.2 767.397 192.304 767.397 193.68C767.397 194.32 767.317 194.96 767.157 195.6C766.997 196.24 766.645 197.2 766.101 198.48L763.365 205.392H758.613L760.725 197.76C759.925 197.44 759.285 196.928 758.805 196.224C758.357 195.488 758.133 194.64 758.133 193.68C758.133 192.304 758.565 191.2 759.429 190.368C760.325 189.504 761.445 189.072 762.789 189.072ZM811.841 198V182.544L804.113 195.504H800.945L793.409 182.496V198H786.641V172.176H794.465L802.721 187.104L811.505 172.176H818.513L818.609 198H811.841ZM839.582 180.432C842.942 180.464 845.486 181.216 847.214 182.688C848.942 184.16 849.806 186.272 849.806 189.024C849.806 191.904 848.83 194.128 846.878 195.696C844.926 197.264 842.158 198.048 838.574 198.048L825.998 198V172.176H833.438V180.432H839.582ZM852.59 172.176H860.03V198H852.59V172.176ZM837.902 192.72C839.342 192.752 840.446 192.448 841.214 191.808C841.982 191.168 842.366 190.208 842.366 188.928C842.366 187.68 841.982 186.768 841.214 186.192C840.478 185.616 839.374 185.312 837.902 185.28L833.438 185.232V192.72H837.902ZM902.969 178.32H894.233V198H886.793V178.32H878.057V172.176H902.969V178.32ZM931.202 185.184C931.202 185.28 931.154 185.952 931.058 187.2H911.522C911.874 188.8 912.706 190.064 914.018 190.992C915.33 191.92 916.962 192.384 918.914 192.384C920.258 192.384 921.442 192.192 922.466 191.808C923.522 191.392 924.498 190.752 925.394 189.888L929.378 194.208C926.946 196.992 923.394 198.384 918.722 198.384C915.81 198.384 913.234 197.824 910.994 196.704C908.754 195.552 907.026 193.968 905.81 191.952C904.594 189.936 903.986 187.648 903.986 185.088C903.986 182.56 904.578 180.288 905.762 178.272C906.978 176.224 908.626 174.64 910.706 173.52C912.818 172.368 915.17 171.792 917.762 171.792C920.29 171.792 922.578 172.336 924.626 173.424C926.674 174.512 928.274 176.08 929.426 178.128C930.61 180.144 931.202 182.496 931.202 185.184ZM917.81 177.456C916.114 177.456 914.69 177.936 913.538 178.896C912.386 179.856 911.682 181.168 911.426 182.832H924.146C923.89 181.2 923.186 179.904 922.034 178.944C920.882 177.952 919.474 177.456 917.81 177.456ZM952.085 173.952C954.549 173.952 956.709 174.464 958.565 175.488C960.421 176.48 961.845 177.888 962.837 179.712C963.861 181.536 964.373 183.648 964.373 186.048C964.373 188.512 963.765 190.704 962.549 192.624C961.365 194.512 959.701 195.984 957.557 197.04C955.413 198.064 952.981 198.576 950.261 198.576C945.749 198.576 942.197 197.136 939.605 194.256C937.045 191.344 935.765 187.088 935.765 181.488C935.765 176.304 936.885 172.176 939.125 169.104C941.397 166 944.869 163.968 949.541 163.008L961.829 160.56L962.837 166.992L951.989 169.152C949.045 169.728 946.853 170.688 945.413 172.032C944.005 173.376 943.173 175.28 942.917 177.744C944.037 176.528 945.381 175.6 946.949 174.96C948.517 174.288 950.229 173.952 952.085 173.952ZM950.309 192.768C952.229 192.768 953.765 192.144 954.917 190.896C956.101 189.648 956.693 188.064 956.693 186.144C956.693 184.192 956.101 182.64 954.917 181.488C953.765 180.336 952.229 179.76 950.309 179.76C948.357 179.76 946.789 180.336 945.605 181.488C944.421 182.64 943.829 184.192 943.829 186.144C943.829 188.096 944.437 189.696 945.653 190.944C946.869 192.16 948.421 192.768 950.309 192.768ZM994.774 185.184C994.774 185.28 994.726 185.952 994.63 187.2H975.094C975.446 188.8 976.278 190.064 977.59 190.992C978.902 191.92 980.534 192.384 982.486 192.384C983.83 192.384 985.014 192.192 986.038 191.808C987.094 191.392 988.07 190.752 988.966 189.888L992.95 194.208C990.518 196.992 986.966 198.384 982.294 198.384C979.382 198.384 976.806 197.824 974.566 196.704C972.326 195.552 970.598 193.968 969.382 191.952C968.166 189.936 967.558 187.648 967.558 185.088C967.558 182.56 968.15 180.288 969.334 178.272C970.55 176.224 972.198 174.64 974.278 173.52C976.39 172.368 978.742 171.792 981.334 171.792C983.862 171.792 986.15 172.336 988.198 173.424C990.246 174.512 991.846 176.08 992.998 178.128C994.182 180.144 994.774 182.496 994.774 185.184ZM981.382 177.456C979.686 177.456 978.262 177.936 977.11 178.896C975.958 179.856 975.254 181.168 974.998 182.832H987.718C987.462 181.2 986.758 179.904 985.606 178.944C984.454 177.952 983.046 177.456 981.382 177.456ZM53.28 257.176V283H45.792V263.32H35.04V283H27.6V257.176H53.28ZM85.4431 257.176V283H77.9551V263.32H69.7951L69.5551 267.88C69.4271 271.272 69.1071 274.088 68.5951 276.328C68.0831 278.568 67.2511 280.328 66.0991 281.608C64.9471 282.888 63.3471 283.528 61.2991 283.528C60.2111 283.528 58.9151 283.336 57.4111 282.952L57.7951 276.808C58.3071 276.872 58.6751 276.904 58.8991 276.904C60.0191 276.904 60.8511 276.504 61.3951 275.704C61.9711 274.872 62.3551 273.832 62.5471 272.584C62.7391 271.304 62.8831 269.624 62.9791 267.544L63.3631 257.176H85.4431ZM102.892 256.792C106.892 256.792 109.964 257.752 112.108 259.672C114.252 261.56 115.324 264.424 115.324 268.264V283H108.316V279.784C106.908 282.184 104.284 283.384 100.444 283.384C98.4596 283.384 96.7316 283.048 95.2596 282.376C93.8196 281.704 92.7156 280.776 91.9476 279.592C91.1796 278.408 90.7956 277.064 90.7956 275.56C90.7956 273.16 91.6916 271.272 93.4836 269.896C95.3076 268.52 98.1076 267.832 101.884 267.832H107.836C107.836 266.2 107.34 264.952 106.348 264.088C105.356 263.192 103.868 262.744 101.884 262.744C100.508 262.744 99.1476 262.968 97.8036 263.416C96.4916 263.832 95.3716 264.408 94.4436 265.144L91.7556 259.912C93.1636 258.92 94.8436 258.152 96.7956 257.608C98.7796 257.064 100.812 256.792 102.892 256.792ZM102.316 278.344C103.596 278.344 104.732 278.056 105.724 277.48C106.716 276.872 107.42 275.992 107.836 274.84V272.2H102.7C99.6276 272.2 98.0916 273.208 98.0916 275.224C98.0916 276.184 98.4596 276.952 99.1956 277.528C99.9636 278.072 101.004 278.344 102.316 278.344ZM143.74 263.32H135.004V283H127.564V263.32H118.828V257.176H143.74V263.32ZM147.947 257.176H155.387V272.536L167.963 257.176H174.827V283H167.387V267.64L154.859 283H147.947V257.176ZM207.441 283V267.544L199.713 280.504H196.545L189.009 267.496V283H182.241V257.176H190.065L198.321 272.104L207.105 257.176H214.113L214.209 283H207.441ZM252.159 269.56C253.695 270.04 254.879 270.776 255.711 271.768C256.575 272.76 257.007 273.944 257.007 275.32C257.007 276.952 256.447 278.392 255.327 279.64C254.207 280.856 252.671 281.8 250.719 282.472C248.767 283.144 246.559 283.48 244.095 283.48C242.079 283.48 240.095 283.272 238.143 282.856C236.191 282.44 234.383 281.816 232.719 280.984L234.735 275.752C237.455 277.064 240.463 277.72 243.759 277.72C245.519 277.72 246.895 277.464 247.887 276.952C248.911 276.408 249.423 275.656 249.423 274.696C249.423 273.864 249.071 273.24 248.367 272.824C247.663 272.376 246.639 272.152 245.295 272.152H240.015V267.496H244.623C245.935 267.496 246.943 267.288 247.647 266.872C248.351 266.456 248.703 265.848 248.703 265.048C248.703 264.216 248.255 263.576 247.359 263.128C246.495 262.68 245.247 262.456 243.615 262.456C241.119 262.456 238.399 263.048 235.455 264.232L233.631 259.048C237.215 257.48 240.703 256.696 244.095 256.696C246.431 256.696 248.511 256.984 250.335 257.56C252.191 258.136 253.647 258.984 254.703 260.104C255.759 261.192 256.287 262.472 256.287 263.944C256.287 265.16 255.919 266.264 255.183 267.256C254.447 268.216 253.439 268.984 252.159 269.56ZM272.702 256.792C276.702 256.792 279.774 257.752 281.918 259.672C284.062 261.56 285.134 264.424 285.134 268.264V283H278.126V279.784C276.718 282.184 274.094 283.384 270.254 283.384C268.27 283.384 266.542 283.048 265.07 282.376C263.63 281.704 262.526 280.776 261.758 279.592C260.99 278.408 260.606 277.064 260.606 275.56C260.606 273.16 261.502 271.272 263.294 269.896C265.118 268.52 267.918 267.832 271.694 267.832H277.646C277.646 266.2 277.15 264.952 276.158 264.088C275.166 263.192 273.678 262.744 271.694 262.744C270.318 262.744 268.958 262.968 267.614 263.416C266.302 263.832 265.182 264.408 264.254 265.144L261.566 259.912C262.974 258.92 264.654 258.152 266.606 257.608C268.59 257.064 270.622 256.792 272.702 256.792ZM272.126 278.344C273.406 278.344 274.542 278.056 275.534 277.48C276.526 276.872 277.23 275.992 277.646 274.84V272.2H272.51C269.438 272.2 267.902 273.208 267.902 275.224C267.902 276.184 268.27 276.952 269.006 277.528C269.774 278.072 270.814 278.344 272.126 278.344ZM327.36 263.32H318.624V283H311.184V263.32H302.448V257.176H327.36V263.32ZM342.585 283.384C339.865 283.384 337.417 282.824 335.241 281.704C333.097 280.552 331.417 278.968 330.201 276.952C328.985 274.936 328.377 272.648 328.377 270.088C328.377 267.528 328.985 265.24 330.201 263.224C331.417 261.208 333.097 259.64 335.241 258.52C337.417 257.368 339.865 256.792 342.585 256.792C345.305 256.792 347.737 257.368 349.881 258.52C352.025 259.64 353.705 261.208 354.921 263.224C356.137 265.24 356.745 267.528 356.745 270.088C356.745 272.648 356.137 274.936 354.921 276.952C353.705 278.968 352.025 280.552 349.881 281.704C347.737 282.824 345.305 283.384 342.585 283.384ZM342.585 277.24C344.505 277.24 346.073 276.6 347.289 275.32C348.537 274.008 349.161 272.264 349.161 270.088C349.161 267.912 348.537 266.184 347.289 264.904C346.073 263.592 344.505 262.936 342.585 262.936C340.665 262.936 339.081 263.592 337.833 264.904C336.585 266.184 335.961 267.912 335.961 270.088C335.961 272.264 336.585 274.008 337.833 275.32C339.081 276.6 340.665 277.24 342.585 277.24ZM364.519 274.072C365.863 274.072 366.967 274.504 367.831 275.368C368.695 276.2 369.127 277.304 369.127 278.68C369.127 279.32 369.047 279.96 368.887 280.6C368.727 281.24 368.375 282.2 367.831 283.48L365.095 290.392H360.343L362.455 282.76C361.655 282.44 361.015 281.928 360.535 281.224C360.087 280.488 359.863 279.64 359.863 278.68C359.863 277.304 360.295 276.2 361.159 275.368C362.055 274.504 363.175 274.072 364.519 274.072ZM411.603 257.176V283H404.115V273.4C401.939 274.488 399.539 275.032 396.915 275.032C393.427 275.032 390.787 274.248 388.995 272.68C387.235 271.08 386.355 268.616 386.355 265.288V257.176H393.843V264.808C393.843 266.376 394.243 267.512 395.043 268.216C395.875 268.92 397.059 269.272 398.595 269.272C400.547 269.272 402.387 268.856 404.115 268.024V257.176H411.603ZM440.704 263.32H431.968V283H424.528V263.32H415.792V257.176H440.704V263.32ZM455.929 283.384C453.209 283.384 450.761 282.824 448.585 281.704C446.441 280.552 444.761 278.968 443.545 276.952C442.329 274.936 441.721 272.648 441.721 270.088C441.721 267.528 442.329 265.24 443.545 263.224C444.761 261.208 446.441 259.64 448.585 258.52C450.761 257.368 453.209 256.792 455.929 256.792C458.649 256.792 461.081 257.368 463.225 258.52C465.369 259.64 467.049 261.208 468.265 263.224C469.481 265.24 470.089 267.528 470.089 270.088C470.089 272.648 469.481 274.936 468.265 276.952C467.049 278.968 465.369 280.552 463.225 281.704C461.081 282.824 458.649 283.384 455.929 283.384ZM455.929 277.24C457.849 277.24 459.417 276.6 460.633 275.32C461.881 274.008 462.505 272.264 462.505 270.088C462.505 267.912 461.881 266.184 460.633 264.904C459.417 263.592 457.849 262.936 455.929 262.936C454.009 262.936 452.425 263.592 451.177 264.904C449.929 266.184 449.305 267.912 449.305 270.088C449.305 272.264 449.929 274.008 451.177 275.32C452.425 276.6 454.009 277.24 455.929 277.24ZM514.465 283V267.544L506.737 280.504H503.569L496.033 267.496V283H489.265V257.176H497.089L505.345 272.104L514.129 257.176H521.137L521.233 283H514.465ZM542.205 265.432C545.565 265.464 548.109 266.216 549.837 267.688C551.565 269.16 552.429 271.272 552.429 274.024C552.429 276.904 551.453 279.128 549.501 280.696C547.549 282.264 544.781 283.048 541.197 283.048L528.621 283V257.176H536.061V265.432H542.205ZM555.213 257.176H562.653V283H555.213V257.176ZM540.525 277.72C541.965 277.752 543.069 277.448 543.837 276.808C544.605 276.168 544.989 275.208 544.989 273.928C544.989 272.68 544.605 271.768 543.837 271.192C543.101 270.616 541.997 270.312 540.525 270.28L536.061 270.232V277.72H540.525ZM596.185 283.384C593.433 283.384 590.953 282.824 588.745 281.704C586.569 280.552 584.857 278.968 583.609 276.952C582.393 274.936 581.785 272.648 581.785 270.088C581.785 267.528 582.393 265.24 583.609 263.224C584.857 261.208 586.569 259.64 588.745 258.52C590.953 257.368 593.433 256.792 596.185 256.792C598.905 256.792 601.273 257.368 603.289 258.52C605.337 259.64 606.825 261.256 607.753 263.368L601.945 266.488C600.601 264.12 598.665 262.936 596.137 262.936C594.185 262.936 592.569 263.576 591.289 264.856C590.009 266.136 589.369 267.88 589.369 270.088C589.369 272.296 590.009 274.04 591.289 275.32C592.569 276.6 594.185 277.24 596.137 277.24C598.697 277.24 600.633 276.056 601.945 273.688L607.753 276.856C606.825 278.904 605.337 280.504 603.289 281.656C601.273 282.808 598.905 283.384 596.185 283.384ZM622.551 256.792C626.551 256.792 629.623 257.752 631.767 259.672C633.911 261.56 634.983 264.424 634.983 268.264V283H627.975V279.784C626.567 282.184 623.943 283.384 620.103 283.384C618.119 283.384 616.391 283.048 614.919 282.376C613.479 281.704 612.375 280.776 611.607 279.592C610.839 278.408 610.455 277.064 610.455 275.56C610.455 273.16 611.351 271.272 613.143 269.896C614.967 268.52 617.767 267.832 621.543 267.832H627.495C627.495 266.2 626.999 264.952 626.007 264.088C625.015 263.192 623.527 262.744 621.543 262.744C620.167 262.744 618.807 262.968 617.463 263.416C616.151 263.832 615.031 264.408 614.103 265.144L611.415 259.912C612.823 258.92 614.503 258.152 616.455 257.608C618.439 257.064 620.471 256.792 622.551 256.792ZM621.975 278.344C623.255 278.344 624.391 278.056 625.383 277.48C626.375 276.872 627.079 275.992 627.495 274.84V272.2H622.359C619.287 272.2 617.751 273.208 617.751 275.224C617.751 276.184 618.119 276.952 618.855 277.528C619.623 278.072 620.663 278.344 621.975 278.344ZM666.903 283V267.544L659.175 280.504H656.007L648.471 267.496V283H641.703V257.176H649.527L657.783 272.104L666.567 257.176H673.575L673.671 283H666.903ZM681.059 257.176H688.499V272.536L701.075 257.176H707.939V283H700.499V267.64L687.971 283H681.059V257.176ZM729.163 257.176H736.603V267.256H747.835V257.176H755.323V283H747.835V273.352H736.603V283H729.163V257.176ZM787.811 270.184C787.811 270.28 787.763 270.952 787.667 272.2H768.131C768.483 273.8 769.315 275.064 770.627 275.992C771.939 276.92 773.571 277.384 775.523 277.384C776.867 277.384 778.051 277.192 779.075 276.808C780.131 276.392 781.107 275.752 782.003 274.888L785.987 279.208C783.555 281.992 780.003 283.384 775.331 283.384C772.419 283.384 769.843 282.824 767.603 281.704C765.363 280.552 763.635 278.968 762.419 276.952C761.203 274.936 760.595 272.648 760.595 270.088C760.595 267.56 761.187 265.288 762.371 263.272C763.587 261.224 765.235 259.64 767.315 258.52C769.427 257.368 771.779 256.792 774.371 256.792C776.899 256.792 779.187 257.336 781.235 258.424C783.283 259.512 784.883 261.08 786.035 263.128C787.219 265.144 787.811 267.496 787.811 270.184ZM774.419 262.456C772.723 262.456 771.299 262.936 770.147 263.896C768.995 264.856 768.291 266.168 768.035 267.832H780.755C780.499 266.2 779.795 264.904 778.643 263.944C777.491 262.952 776.083 262.456 774.419 262.456ZM832.776 283V267.544L825.048 280.504H821.88L814.344 267.496V283H807.576V257.176H815.4L823.656 272.104L832.44 257.176H839.448L839.544 283H832.776ZM859.028 283.384C856.308 283.384 853.86 282.824 851.684 281.704C849.54 280.552 847.86 278.968 846.644 276.952C845.428 274.936 844.82 272.648 844.82 270.088C844.82 267.528 845.428 265.24 846.644 263.224C847.86 261.208 849.54 259.64 851.684 258.52C853.86 257.368 856.308 256.792 859.028 256.792C861.748 256.792 864.18 257.368 866.324 258.52C868.468 259.64 870.148 261.208 871.364 263.224C872.58 265.24 873.188 267.528 873.188 270.088C873.188 272.648 872.58 274.936 871.364 276.952C870.148 278.968 868.468 280.552 866.324 281.704C864.18 282.824 861.748 283.384 859.028 283.384ZM859.028 277.24C860.948 277.24 862.516 276.6 863.732 275.32C864.98 274.008 865.604 272.264 865.604 270.088C865.604 267.912 864.98 266.184 863.732 264.904C862.516 263.592 860.948 262.936 859.028 262.936C857.108 262.936 855.524 263.592 854.276 264.904C853.028 266.184 852.404 267.912 852.404 270.088C852.404 272.264 853.028 274.008 854.276 275.32C855.524 276.6 857.108 277.24 859.028 277.24ZM903.341 273.208H899.741V283H892.349V273.208H888.749L883.277 283H874.445L882.557 269.656L875.021 257.176H882.941L888.653 267.208H892.349V257.176H899.741V267.208H903.389L909.149 257.176H917.069L909.533 269.656L917.693 283H908.813L903.341 273.208ZM946.108 270.184C946.108 270.28 946.06 270.952 945.964 272.2H926.428C926.78 273.8 927.612 275.064 928.924 275.992C930.236 276.92 931.868 277.384 933.82 277.384C935.164 277.384 936.348 277.192 937.372 276.808C938.428 276.392 939.404 275.752 940.3 274.888L944.284 279.208C941.852 281.992 938.3 283.384 933.628 283.384C930.716 283.384 928.14 282.824 925.9 281.704C923.66 280.552 921.932 278.968 920.716 276.952C919.5 274.936 918.892 272.648 918.892 270.088C918.892 267.56 919.484 265.288 920.668 263.272C921.884 261.224 923.532 259.64 925.612 258.52C927.724 257.368 930.076 256.792 932.668 256.792C935.196 256.792 937.484 257.336 939.532 258.424C941.58 259.512 943.18 261.08 944.332 263.128C945.516 265.144 946.108 267.496 946.108 270.184ZM932.716 262.456C931.02 262.456 929.596 262.936 928.444 263.896C927.292 264.856 926.588 266.168 926.332 267.832H939.052C938.796 266.2 938.092 264.904 936.94 263.944C935.788 262.952 934.38 262.456 932.716 262.456ZM977.264 283V267.544L969.536 280.504H966.368L958.832 267.496V283H952.064V257.176H959.888L968.144 272.104L976.928 257.176H983.936L984.032 283H977.264ZM27.6 342.176H35.04V352.256H46.272V342.176H53.76V368H46.272V358.352H35.04V368H27.6V342.176ZM73.2399 368.384C70.5199 368.384 68.0719 367.824 65.8959 366.704C63.7519 365.552 62.0719 363.968 60.8559 361.952C59.6399 359.936 59.0319 357.648 59.0319 355.088C59.0319 352.528 59.6399 350.24 60.8559 348.224C62.0719 346.208 63.7519 344.64 65.8959 343.52C68.0719 342.368 70.5199 341.792 73.2399 341.792C75.9599 341.792 78.3919 342.368 80.5359 343.52C82.6799 344.64 84.3599 346.208 85.5759 348.224C86.7919 350.24 87.3999 352.528 87.3999 355.088C87.3999 357.648 86.7919 359.936 85.5759 361.952C84.3599 363.968 82.6799 365.552 80.5359 366.704C78.3919 367.824 75.9599 368.384 73.2399 368.384ZM73.2399 362.24C75.1599 362.24 76.7279 361.6 77.9439 360.32C79.1919 359.008 79.8159 357.264 79.8159 355.088C79.8159 352.912 79.1919 351.184 77.9439 349.904C76.7279 348.592 75.1599 347.936 73.2399 347.936C71.3199 347.936 69.7359 348.592 68.4879 349.904C67.2399 351.184 66.6159 352.912 66.6159 355.088C66.6159 357.264 67.2399 359.008 68.4879 360.32C69.7359 361.6 71.3199 362.24 73.2399 362.24ZM107.982 341.792C110.382 341.792 112.558 342.352 114.51 343.472C116.494 344.56 118.046 346.112 119.166 348.128C120.286 350.112 120.846 352.432 120.846 355.088C120.846 357.744 120.286 360.08 119.166 362.096C118.046 364.08 116.494 365.632 114.51 366.752C112.558 367.84 110.382 368.384 107.982 368.384C104.686 368.384 102.094 367.344 100.206 365.264V377.312H92.7179V342.176H99.8699V345.152C101.726 342.912 104.43 341.792 107.982 341.792ZM106.686 362.24C108.606 362.24 110.174 361.6 111.39 360.32C112.638 359.008 113.262 357.264 113.262 355.088C113.262 352.912 112.638 351.184 111.39 349.904C110.174 348.592 108.606 347.936 106.686 347.936C104.766 347.936 103.182 348.592 101.934 349.904C100.718 351.184 100.11 352.912 100.11 355.088C100.11 357.264 100.718 359.008 101.934 360.32C103.182 361.6 104.766 362.24 106.686 362.24ZM151.51 368V352.544L143.782 365.504H140.614L133.078 352.496V368H126.31V342.176H134.134L142.39 357.104L151.174 342.176H158.182L158.278 368H151.51ZM175.698 341.792C179.698 341.792 182.77 342.752 184.914 344.672C187.058 346.56 188.13 349.424 188.13 353.264V368H181.122V364.784C179.714 367.184 177.09 368.384 173.25 368.384C171.266 368.384 169.538 368.048 168.066 367.376C166.626 366.704 165.522 365.776 164.754 364.592C163.986 363.408 163.602 362.064 163.602 360.56C163.602 358.16 164.498 356.272 166.29 354.896C168.114 353.52 170.914 352.832 174.69 352.832H180.642C180.642 351.2 180.146 349.952 179.154 349.088C178.162 348.192 176.674 347.744 174.69 347.744C173.314 347.744 171.954 347.968 170.61 348.416C169.298 348.832 168.178 349.408 167.25 350.144L164.562 344.912C165.97 343.92 167.65 343.152 169.602 342.608C171.586 342.064 173.618 341.792 175.698 341.792ZM175.122 363.344C176.402 363.344 177.538 363.056 178.53 362.48C179.522 361.872 180.226 360.992 180.642 359.84V357.2H175.506C172.434 357.2 170.898 358.208 170.898 360.224C170.898 361.184 171.266 361.952 172.002 362.528C172.77 363.072 173.81 363.344 175.122 363.344ZM219.619 342.176V368H212.131V348.32H203.971L203.731 352.88C203.603 356.272 203.283 359.088 202.771 361.328C202.259 363.568 201.427 365.328 200.275 366.608C199.123 367.888 197.523 368.528 195.475 368.528C194.387 368.528 193.091 368.336 191.587 367.952L191.971 361.808C192.483 361.872 192.851 361.904 193.075 361.904C194.195 361.904 195.027 361.504 195.571 360.704C196.147 359.872 196.531 358.832 196.723 357.584C196.915 356.304 197.059 354.624 197.155 352.544L197.539 342.176H219.619ZM241.003 350.432C244.363 350.464 246.939 351.232 248.731 352.736C250.523 354.208 251.419 356.304 251.419 359.024C251.419 361.872 250.411 364.096 248.395 365.696C246.411 367.264 243.611 368.048 239.995 368.048L227.035 368V342.176H234.475V350.432H241.003ZM239.323 362.72C240.763 362.752 241.867 362.448 242.635 361.808C243.403 361.168 243.787 360.208 243.787 358.928C243.787 357.68 243.403 356.768 242.635 356.192C241.899 355.616 240.795 355.312 239.323 355.28L234.475 355.232V362.72H239.323ZM256.313 342.176H263.753V352.256H274.985V342.176H282.473V368H274.985V358.352H263.753V368H256.313V342.176ZM301.953 368.384C299.233 368.384 296.785 367.824 294.609 366.704C292.465 365.552 290.785 363.968 289.569 361.952C288.353 359.936 287.745 357.648 287.745 355.088C287.745 352.528 288.353 350.24 289.569 348.224C290.785 346.208 292.465 344.64 294.609 343.52C296.785 342.368 299.233 341.792 301.953 341.792C304.673 341.792 307.105 342.368 309.249 343.52C311.393 344.64 313.073 346.208 314.289 348.224C315.505 350.24 316.113 352.528 316.113 355.088C316.113 357.648 315.505 359.936 314.289 361.952C313.073 363.968 311.393 365.552 309.249 366.704C307.105 367.824 304.673 368.384 301.953 368.384ZM301.953 362.24C303.873 362.24 305.441 361.6 306.657 360.32C307.905 359.008 308.529 357.264 308.529 355.088C308.529 352.912 307.905 351.184 306.657 349.904C305.441 348.592 303.873 347.936 301.953 347.936C300.033 347.936 298.449 348.592 297.201 349.904C295.953 351.184 295.329 352.912 295.329 355.088C295.329 357.264 295.953 359.008 297.201 360.32C298.449 361.6 300.033 362.24 301.953 362.24ZM360.969 342.176V368H353.481V348.32H342.729V368H335.289V342.176H360.969ZM368.364 342.176H375.804V357.536L388.38 342.176H395.244V368H387.804V352.64L375.276 368H368.364V342.176ZM414.946 368.384C412.194 368.384 409.714 367.824 407.506 366.704C405.33 365.552 403.618 363.968 402.37 361.952C401.154 359.936 400.546 357.648 400.546 355.088C400.546 352.528 401.154 350.24 402.37 348.224C403.618 346.208 405.33 344.64 407.506 343.52C409.714 342.368 412.194 341.792 414.946 341.792C417.666 341.792 420.034 342.368 422.05 343.52C424.098 344.64 425.586 346.256 426.514 348.368L420.706 351.488C419.362 349.12 417.426 347.936 414.898 347.936C412.946 347.936 411.33 348.576 410.05 349.856C408.77 351.136 408.13 352.88 408.13 355.088C408.13 357.296 408.77 359.04 410.05 360.32C411.33 361.6 412.946 362.24 414.898 362.24C417.458 362.24 419.394 361.056 420.706 358.688L426.514 361.856C425.586 363.904 424.098 365.504 422.05 366.656C420.034 367.808 417.666 368.384 414.946 368.384ZM441.312 341.792C445.312 341.792 448.384 342.752 450.528 344.672C452.672 346.56 453.744 349.424 453.744 353.264V368H446.736V364.784C445.328 367.184 442.704 368.384 438.864 368.384C436.88 368.384 435.152 368.048 433.68 367.376C432.24 366.704 431.136 365.776 430.368 364.592C429.6 363.408 429.216 362.064 429.216 360.56C429.216 358.16 430.112 356.272 431.904 354.896C433.728 353.52 436.528 352.832 440.304 352.832H446.256C446.256 351.2 445.76 349.952 444.768 349.088C443.776 348.192 442.288 347.744 440.304 347.744C438.928 347.744 437.568 347.968 436.224 348.416C434.912 348.832 433.792 349.408 432.864 350.144L430.176 344.912C431.584 343.92 433.264 343.152 435.216 342.608C437.2 342.064 439.232 341.792 441.312 341.792ZM440.736 363.344C442.016 363.344 443.152 363.056 444.144 362.48C445.136 361.872 445.84 360.992 446.256 359.84V357.2H441.12C438.048 357.2 436.512 358.208 436.512 360.224C436.512 361.184 436.88 361.952 437.616 362.528C438.384 363.072 439.424 363.344 440.736 363.344ZM482.16 348.32H473.424V368H465.984V348.32H457.248V342.176H482.16V348.32ZM500.336 350.432C503.696 350.464 506.272 351.232 508.064 352.736C509.856 354.208 510.752 356.304 510.752 359.024C510.752 361.872 509.744 364.096 507.728 365.696C505.744 367.264 502.944 368.048 499.328 368.048L486.368 368V342.176H493.808V350.432H500.336ZM498.656 362.72C500.096 362.752 501.2 362.448 501.968 361.808C502.736 361.168 503.12 360.208 503.12 358.928C503.12 357.68 502.736 356.768 501.968 356.192C501.232 355.616 500.128 355.312 498.656 355.28L493.808 355.232V362.72H498.656ZM540.831 358.208H536.943V368H529.455V342.176H536.943V352.208H540.975L547.983 342.176H555.951L546.927 354.56L556.575 368H547.743L540.831 358.208ZM571.767 368.384C569.047 368.384 566.599 367.824 564.423 366.704C562.279 365.552 560.599 363.968 559.383 361.952C558.167 359.936 557.559 357.648 557.559 355.088C557.559 352.528 558.167 350.24 559.383 348.224C560.599 346.208 562.279 344.64 564.423 343.52C566.599 342.368 569.047 341.792 571.767 341.792C574.487 341.792 576.919 342.368 579.063 343.52C581.207 344.64 582.887 346.208 584.103 348.224C585.319 350.24 585.927 352.528 585.927 355.088C585.927 357.648 585.319 359.936 584.103 361.952C582.887 363.968 581.207 365.552 579.063 366.704C576.919 367.824 574.487 368.384 571.767 368.384ZM571.767 362.24C573.687 362.24 575.255 361.6 576.471 360.32C577.719 359.008 578.343 357.264 578.343 355.088C578.343 352.912 577.719 351.184 576.471 349.904C575.255 348.592 573.687 347.936 571.767 347.936C569.847 347.936 568.263 348.592 567.015 349.904C565.767 351.184 565.143 352.912 565.143 355.088C565.143 357.264 565.767 359.008 567.015 360.32C568.263 361.6 569.847 362.24 571.767 362.24ZM619.862 361.856V373.568H612.902V368H594.758V373.568H587.798V361.856H588.854C590.454 361.824 591.558 360.88 592.166 359.024C592.774 357.168 593.158 354.528 593.318 351.104L593.654 342.176H616.166V361.856H619.862ZM600.086 351.632C599.99 354.256 599.782 356.4 599.462 358.064C599.174 359.728 598.614 360.992 597.782 361.856H608.678V348.32H600.23L600.086 351.632ZM623.686 334.4H632.614L631.126 356.336H625.174L623.686 334.4ZM628.15 368.384C626.838 368.384 625.734 367.968 624.838 367.136C623.974 366.272 623.542 365.232 623.542 364.016C623.542 362.8 623.974 361.792 624.838 360.992C625.702 360.16 626.806 359.744 628.15 359.744C629.494 359.744 630.598 360.16 631.462 360.992C632.326 361.792 632.758 362.8 632.758 364.016C632.758 365.232 632.31 366.272 631.414 367.136C630.55 367.968 629.462 368.384 628.15 368.384ZM636.481 364.448L643.057 355.088L636.481 345.68H643.201L649.969 355.088L643.201 364.448H636.481ZM647.329 364.448L653.905 355.088L647.329 345.68H654.049L660.817 355.088L654.049 364.448H647.329Z" fill="white"/>
<g filter="url(#filter0_f_718_1051)">
<path fill-rule="evenodd" clip-rule="evenodd" d="M683.152 112.616H676V77H683.488V89.528C684.084 88.8709 684.751 88.3177 685.488 87.8682C687.084 86.8947 689.009 86.408 691.264 86.408C693.664 86.408 695.84 86.968 697.792 88.088C699.776 89.176 701.328 90.728 702.448 92.744C703.568 94.728 704.128 97.048 704.128 99.704C704.128 102.36 703.568 104.696 702.448 106.712C701.328 108.696 699.776 110.248 697.792 111.368C695.84 112.456 693.664 113 691.264 113C688.828 113 686.79 112.473 685.152 111.419C684.402 110.937 683.735 110.344 683.152 109.64V112.616ZM685.152 113.712V114.616H674V75H685.488V85.5997C687.195 84.7954 689.136 84.408 691.264 84.408C693.983 84.408 696.5 85.0447 698.771 86.3437C701.082 87.6152 702.897 89.4363 704.193 91.7669C705.506 94.0959 706.128 96.7636 706.128 99.704C706.128 102.648 705.505 105.328 704.196 107.683L704.19 107.695C702.891 109.996 701.076 111.811 698.775 113.11L698.766 113.115C696.494 114.381 693.979 115 691.264 115C688.988 115 686.93 114.585 685.152 113.712ZM693.222 95.8981L693.205 95.8795C692.398 95.0083 691.377 94.552 689.968 94.552C688.559 94.552 687.511 95.0093 686.665 95.8984C685.881 96.7247 685.392 97.9159 685.392 99.704C685.392 101.478 685.874 102.693 686.666 103.558C687.505 104.409 688.553 104.856 689.968 104.856C691.393 104.856 692.419 104.404 693.222 103.559L693.223 103.558C694.048 102.69 694.544 101.477 694.544 99.704C694.544 97.9294 694.048 96.7446 693.24 95.9162L693.222 95.8981ZM737.372 84.792V114.616H726.268V113.608C726.026 113.734 725.778 113.854 725.525 113.965L725.507 113.973L725.489 113.981C723.851 114.667 722.098 115 720.252 115C716.458 115 713.223 113.895 710.786 111.498C708.293 109.045 707.212 105.552 707.212 101.384V84.792H718.7V100.28C718.7 102.129 719.095 103.144 719.541 103.675C719.93 104.139 720.598 104.52 721.932 104.52C723.247 104.52 724.131 104.12 724.789 103.429C725.411 102.745 725.884 101.569 725.884 99.56V84.792H737.372ZM726.252 104.792C725.164 105.944 723.724 106.52 721.932 106.52C718.444 106.52 716.7 104.44 716.7 100.28V86.792H709.212V101.384C709.212 105.224 710.204 108.12 712.188 110.072C714.172 112.024 716.86 113 720.252 113C721.852 113 723.34 112.712 724.716 112.136C725.264 111.894 725.781 111.611 726.268 111.288C727.005 110.8 727.671 110.218 728.268 109.544V112.616H735.372V86.792H727.884V99.56C727.884 101.864 727.34 103.608 726.252 104.792ZM771.165 84.792V108.296C771.165 113.357 769.845 117.502 766.835 120.317C763.874 123.086 759.707 124.312 754.669 124.312C752.01 124.312 749.464 123.988 747.041 123.33C744.604 122.669 742.491 121.686 740.765 120.335L739.421 119.284L744.293 110.484C742.825 109.398 741.599 108.053 740.626 106.458C739.261 104.221 738.605 101.676 738.605 98.888C738.605 96.0996 739.261 93.5549 740.626 91.3183C741.965 89.1242 743.783 87.4167 746.054 86.224C748.342 85.0074 750.842 84.408 753.517 84.408C755.971 84.408 758.174 84.8863 760.061 85.8822V84.792H771.165ZM762.061 90.104C761.475 89.3644 760.809 88.7358 760.061 88.2182C758.319 87.0114 756.137 86.408 753.517 86.408C751.149 86.408 748.973 86.936 746.989 87.992C745.037 89.016 743.485 90.472 742.333 92.36C741.181 94.248 740.605 96.424 740.605 98.888C740.605 101.352 741.181 103.528 742.333 105.416C743.485 107.304 745.037 108.776 746.989 109.832C748.973 110.856 751.149 111.368 753.517 111.368C755.935 111.368 757.983 110.853 759.663 109.823C759.947 109.649 760.221 109.46 760.484 109.256C760.909 108.927 761.307 108.559 761.677 108.152V109.256C761.677 109.862 761.636 110.429 761.555 110.955C761.317 112.485 760.734 113.679 759.805 114.536C758.589 115.72 756.685 116.312 754.093 116.312C752.429 116.312 750.765 116.04 749.101 115.496C748.198 115.218 747.379 114.883 746.646 114.492C746.028 114.163 745.471 113.794 744.973 113.384L741.997 118.76C743.469 119.912 745.325 120.792 747.565 121.4C749.805 122.008 752.173 122.312 754.669 122.312C759.405 122.312 763.005 121.16 765.469 118.856C767.933 116.552 769.165 113.032 769.165 108.296V86.792H762.061V90.104ZM758.995 112.39C757.354 113.05 755.516 113.368 753.517 113.368C750.85 113.368 748.357 112.788 746.072 111.609L746.055 111.6L746.038 111.591C745.939 111.538 745.842 111.484 745.745 111.428L746.245 111.84C747.09 112.536 748.218 113.132 749.689 113.584L749.706 113.59L749.723 113.595C751.197 114.077 752.651 114.312 754.093 114.312C756.433 114.312 757.724 113.771 758.41 113.103L758.429 113.084L758.449 113.066C758.647 112.883 758.832 112.661 758.995 112.39ZM758.496 95.797L758.477 95.7789C757.657 95.0016 756.561 94.552 755.005 94.552C753.45 94.552 752.326 95.0016 751.467 95.7962L751.457 95.8055L751.447 95.8146C750.632 96.5483 750.189 97.5059 750.189 98.888C750.189 100.265 750.629 101.248 751.457 102.019C752.313 102.784 753.441 103.224 755.005 103.224C756.576 103.224 757.678 102.781 758.495 102.028C759.33 101.256 759.773 100.27 759.773 98.888C759.773 97.5059 759.331 96.5483 758.515 95.8146L758.496 95.797ZM759.853 103.496C758.605 104.648 756.989 105.224 755.005 105.224C753.021 105.224 751.389 104.648 750.109 103.496C748.829 102.312 748.189 100.776 748.189 98.888C748.189 97 748.829 95.48 750.109 94.328C751.389 93.144 753.021 92.552 755.005 92.552C756.989 92.552 758.605 93.144 759.853 94.328C761.133 95.48 761.773 97 761.773 98.888C761.773 100.776 761.133 102.312 759.853 103.496ZM783.502 112.616H776.35V77H783.838V89.528C784.435 88.8709 785.101 88.3177 785.838 87.8682C787.434 86.8947 789.36 86.408 791.614 86.408C794.014 86.408 796.19 86.968 798.142 88.088C800.126 89.176 801.678 90.728 802.798 92.744C803.918 94.728 804.478 97.048 804.478 99.704C804.478 102.36 803.918 104.696 802.798 106.712C801.678 108.696 800.126 110.248 798.142 111.368C796.19 112.456 794.014 113 791.614 113C789.178 113 787.141 112.473 785.502 111.419C784.752 110.937 784.085 110.344 783.502 109.64V112.616ZM785.502 113.712V114.616H774.35V75H785.838V85.5997C787.545 84.7954 789.486 84.408 791.614 84.408C794.333 84.408 796.85 85.0448 799.121 86.3437C801.433 87.6153 803.248 89.4365 804.544 91.7671C805.313 93.1322 805.845 94.6137 806.154 96.1983C806.494 94.6419 807.073 93.1745 807.898 91.807C809.308 89.4694 811.263 87.6503 813.72 86.3656C816.213 85.0474 818.986 84.408 821.995 84.408C825.002 84.408 827.762 85.0464 830.227 86.3687C832.682 87.6533 834.635 89.4713 836.043 91.807C837.464 94.1618 838.155 96.8128 838.155 99.704C838.155 102.595 837.464 105.246 836.043 107.601C834.636 109.935 832.686 111.766 830.237 113.082L830.227 113.087L830.217 113.093C827.753 114.38 824.997 115 821.995 115C818.992 115 816.225 114.38 813.735 113.098L813.72 113.09L813.704 113.082C811.255 111.766 809.306 109.935 807.898 107.601C807.074 106.235 806.495 104.769 806.155 103.214C805.846 104.807 805.315 106.301 804.547 107.683L804.54 107.695C803.241 109.996 801.427 111.811 799.126 113.11L799.116 113.115C796.844 114.381 794.329 115 791.614 115C789.339 115 787.281 114.585 785.502 113.712ZM829.291 88.136C827.147 86.984 824.715 86.408 821.995 86.408C819.275 86.408 816.827 86.984 814.651 88.136C812.507 89.256 810.827 90.824 809.611 92.84C808.395 94.856 807.787 97.144 807.787 99.704C807.787 102.264 808.395 104.552 809.611 106.568C810.827 108.584 812.507 110.168 814.651 111.32C816.827 112.44 819.275 113 821.995 113C824.715 113 827.147 112.44 829.291 111.32C831.435 110.168 833.115 108.584 834.331 106.568C835.547 104.552 836.155 102.264 836.155 99.704C836.155 97.144 835.547 94.856 834.331 92.84C833.115 90.824 831.435 89.256 829.291 88.136ZM790.318 104.856L793.556 95.8795C792.748 95.0083 791.727 94.552 790.318 94.552C788.91 94.552 787.862 95.009 787.016 95.8975M793.572 103.559L793.573 103.558C794.399 102.69 794.894 101.477 794.894 99.704C794.894 97.9294 794.363 96.708 793.556 95.8795L790.318 104.856M793.572 103.559C792.769 104.404 791.743 104.856 790.318 104.856L793.572 103.559ZM787.016 95.8975C786.232 96.7238 785.742 97.9154 785.742 99.704C785.742 101.478 786.224 102.693 787.016 103.558C787.855 104.409 788.903 104.856 790.318 104.856M785.566 104.936C784.35 103.624 783.742 101.88 783.742 99.704C783.742 97.528 784.35 95.8 785.566 94.52C786.814 93.208 788.398 92.552 790.318 92.552C792.238 92.552 793.806 93.208 795.022 94.52C796.27 95.8 796.894 97.528 796.894 99.704C796.894 101.88 796.27 103.624 795.022 104.936C793.806 106.216 792.238 106.856 790.318 106.856C788.398 106.856 786.814 106.216 785.566 104.936ZM825.249 95.8981L825.232 95.8795C824.424 95.0083 823.404 94.552 821.995 94.552C820.586 94.552 819.538 95.0093 818.692 95.8984L818.683 95.9074L818.675 95.9162C817.867 96.7446 817.371 97.9294 817.371 99.704C817.371 101.471 817.863 102.682 818.684 103.549C819.524 104.406 820.575 104.856 821.995 104.856C823.42 104.856 824.446 104.404 825.249 103.559L825.25 103.558C826.075 102.69 826.571 101.477 826.571 99.704C826.571 97.9294 826.074 96.7446 825.267 95.9162L825.249 95.8981ZM817.243 104.936C815.995 103.624 815.371 101.88 815.371 99.704C815.371 97.528 815.995 95.8 817.243 94.52C818.491 93.208 820.075 92.552 821.995 92.552C823.915 92.552 825.483 93.208 826.699 94.52C827.947 95.8 828.571 97.528 828.571 99.704C828.571 101.88 827.947 103.624 826.699 104.936C825.483 106.216 823.915 106.856 821.995 106.856C820.075 106.856 818.491 106.216 817.243 104.936ZM869.392 84.792V114.616H858.288V113.608C858.045 113.734 857.797 113.854 857.544 113.965L857.526 113.973L857.508 113.981C855.87 114.667 854.117 115 852.272 115C848.477 115 845.242 113.895 842.805 111.498C840.312 109.045 839.232 105.552 839.232 101.384V84.792H850.72V100.28C850.72 102.129 851.115 103.144 851.56 103.675C851.949 104.139 852.618 104.52 853.952 104.52C855.266 104.52 856.15 104.12 856.808 103.429C857.43 102.745 857.904 101.569 857.904 99.56V84.792H869.392ZM858.272 104.792C857.184 105.944 855.744 106.52 853.952 106.52C850.464 106.52 848.72 104.44 848.72 100.28V86.792H841.232V101.384C841.232 105.224 842.224 108.12 844.208 110.072C846.192 112.024 848.88 113 852.272 113C853.872 113 855.36 112.712 856.736 112.136C857.283 111.894 857.801 111.611 858.288 111.288C859.024 110.8 859.691 110.218 860.288 109.544V112.616H867.392V86.792H859.904V99.56C859.904 101.864 859.36 103.608 858.272 104.792ZM883.697 88.1616C882.947 88.6244 882.28 89.1759 881.697 89.816V86.792H874.545V112.616H882.033V99.848C882.033 97.544 882.593 95.816 883.713 94.664C884.833 93.48 886.337 92.888 888.225 92.888C889.921 92.888 891.217 93.4 892.113 94.424C893.009 95.416 893.457 96.936 893.457 98.984V112.616H900.945V97.832C900.945 94.056 899.953 91.208 897.969 89.288C896.017 87.368 893.441 86.408 890.241 86.408C888.481 86.408 886.865 86.712 885.393 87.32C884.787 87.5571 884.221 87.8377 883.697 88.1616ZM883.697 85.8815C884.005 85.7311 884.321 85.5921 884.646 85.4643C886.38 84.7511 888.253 84.408 890.241 84.408C893.867 84.408 896.977 85.5104 899.365 87.8559C901.86 90.2744 902.945 93.722 902.945 97.832V114.616H891.457V98.984C891.457 97.1769 891.054 96.236 890.628 95.7646L890.618 95.7529L890.607 95.741C890.182 95.2546 889.497 94.888 888.225 94.888C886.791 94.888 885.847 95.3179 885.165 96.0384L885.156 96.0483L885.147 96.0582C884.521 96.7011 884.033 97.8384 884.033 99.848V114.616H872.545V84.792H883.697V85.8815ZM926.056 112.782L925.793 112.976C924.813 113.701 923.657 114.211 922.38 114.549L922.359 114.555L922.339 114.56C921.116 114.856 919.836 115 918.508 115C915.102 115 912.172 114.126 909.998 112.117L909.991 112.11L909.984 112.104C907.799 110.045 906.86 107.137 906.86 103.736V95.128H902.876V85.368H906.86V79.08H918.348V85.368H921.925L921.677 84.792H933.779L939.696 99.0949L945.653 84.792H957.211L944.371 114.962C943.112 118.119 941.45 120.605 939.25 122.128C937.133 123.616 934.621 124.312 931.818 124.312C930.264 124.312 928.732 124.071 927.23 123.594C925.713 123.114 924.378 122.418 923.293 121.458L922.129 120.429L926.056 112.782ZM926.771 111.438L923.498 102.865L921.368 104.503C920.93 104.84 920.366 105.048 919.564 105.048C918.996 105.048 918.745 104.914 918.619 104.807C918.501 104.653 918.348 104.331 918.348 103.64V95.128H924.78V92.0086L933.71 112.782C933.372 113.417 933.076 113.745 932.874 113.896L932.849 113.915L932.825 113.934C932.62 114.098 932.264 114.264 931.578 114.264C931.112 114.264 930.601 114.174 930.038 113.964C929.522 113.761 929.074 113.485 928.683 113.137L926.771 111.438ZM929.322 115.832C929.229 115.795 929.136 115.757 929.045 115.717C928.421 115.441 927.857 115.079 927.354 114.632L924.618 119.96C925.45 120.696 926.522 121.272 927.834 121.688C929.146 122.104 930.474 122.312 931.818 122.312C934.282 122.312 936.378 121.704 938.106 120.488C939.866 119.272 941.338 117.176 942.522 114.2L954.186 86.792H946.986L939.69 104.312L932.442 86.792H924.714L935.898 112.808L935.802 113.048C935.29 114.2 934.714 115.016 934.074 115.496C933.434 116.008 932.602 116.264 931.578 116.264C930.842 116.264 930.09 116.12 929.322 115.832ZM916.348 93.128H922.78V87.368H916.348V81.08H908.86V87.368H904.876V93.128H908.86V103.736C908.86 106.776 909.692 109.08 911.356 110.648C913.052 112.216 915.436 113 918.508 113C919.692 113 920.812 112.872 921.868 112.616C922.956 112.328 923.868 111.912 924.604 111.368L922.588 106.088C922.053 106.499 921.446 106.778 920.767 106.925C920.388 107.007 919.987 107.048 919.564 107.048C918.54 107.048 917.74 106.76 917.164 106.184C916.62 105.576 916.348 104.728 916.348 103.64V93.128ZM694.672 104.936C693.456 106.216 691.888 106.856 689.968 106.856C688.048 106.856 686.464 106.216 685.216 104.936C684 103.624 683.392 101.88 683.392 99.704C683.392 97.528 684 95.8 685.216 94.52C686.464 93.208 688.048 92.552 689.968 92.552C691.888 92.552 693.456 93.208 694.672 94.52C695.92 95.8 696.544 97.528 696.544 99.704C696.544 101.88 695.92 103.624 694.672 104.936Z" fill="#42D4BA"/>
</g>
<path fill-rule="evenodd" clip-rule="evenodd" d="M683.152 112.616H676V77H683.488V89.528C684.084 88.8709 684.751 88.3177 685.488 87.8682C687.084 86.8947 689.009 86.408 691.264 86.408C693.664 86.408 695.84 86.968 697.792 88.088C699.776 89.176 701.328 90.728 702.448 92.744C703.568 94.728 704.128 97.048 704.128 99.704C704.128 102.36 703.568 104.696 702.448 106.712C701.328 108.696 699.776 110.248 697.792 111.368C695.84 112.456 693.664 113 691.264 113C688.828 113 686.79 112.473 685.152 111.419C684.402 110.937 683.735 110.344 683.152 109.64V112.616ZM685.152 113.712V114.616H674V75H685.488V85.5997C687.195 84.7954 689.136 84.408 691.264 84.408C693.983 84.408 696.5 85.0447 698.771 86.3437C701.082 87.6152 702.897 89.4363 704.193 91.7669C705.506 94.0959 706.128 96.7636 706.128 99.704C706.128 102.648 705.505 105.328 704.196 107.683L704.19 107.695C702.891 109.996 701.076 111.811 698.775 113.11L698.766 113.115C696.494 114.381 693.979 115 691.264 115C688.988 115 686.93 114.585 685.152 113.712ZM693.222 95.8981L693.205 95.8795C692.398 95.0083 691.377 94.552 689.968 94.552C688.559 94.552 687.511 95.0093 686.665 95.8984C685.881 96.7247 685.392 97.9159 685.392 99.704C685.392 101.478 685.874 102.693 686.666 103.558C687.505 104.409 688.553 104.856 689.968 104.856C691.393 104.856 692.419 104.404 693.222 103.559L693.223 103.558C694.048 102.69 694.544 101.477 694.544 99.704C694.544 97.9294 694.048 96.7446 693.24 95.9162L693.222 95.8981ZM737.372 84.792V114.616H726.268V113.608C726.026 113.734 725.778 113.854 725.525 113.965L725.507 113.973L725.489 113.981C723.851 114.667 722.098 115 720.252 115C716.458 115 713.223 113.895 710.786 111.498C708.293 109.045 707.212 105.552 707.212 101.384V84.792H718.7V100.28C718.7 102.129 719.095 103.144 719.541 103.675C719.93 104.139 720.598 104.52 721.932 104.52C723.247 104.52 724.131 104.12 724.789 103.429C725.411 102.745 725.884 101.569 725.884 99.56V84.792H737.372ZM726.252 104.792C725.164 105.944 723.724 106.52 721.932 106.52C718.444 106.52 716.7 104.44 716.7 100.28V86.792H709.212V101.384C709.212 105.224 710.204 108.12 712.188 110.072C714.172 112.024 716.86 113 720.252 113C721.852 113 723.34 112.712 724.716 112.136C725.264 111.894 725.781 111.611 726.268 111.288C727.005 110.8 727.671 110.218 728.268 109.544V112.616H735.372V86.792H727.884V99.56C727.884 101.864 727.34 103.608 726.252 104.792ZM771.165 84.792V108.296C771.165 113.357 769.845 117.502 766.835 120.317C763.874 123.086 759.707 124.312 754.669 124.312C752.01 124.312 749.464 123.988 747.041 123.33C744.604 122.669 742.491 121.686 740.765 120.335L739.421 119.284L744.293 110.484C742.825 109.398 741.599 108.053 740.626 106.458C739.261 104.221 738.605 101.676 738.605 98.888C738.605 96.0996 739.261 93.5549 740.626 91.3183C741.965 89.1242 743.783 87.4167 746.054 86.224C748.342 85.0074 750.842 84.408 753.517 84.408C755.971 84.408 758.174 84.8863 760.061 85.8822V84.792H771.165ZM762.061 90.104C761.475 89.3644 760.809 88.7358 760.061 88.2182C758.319 87.0114 756.137 86.408 753.517 86.408C751.149 86.408 748.973 86.936 746.989 87.992C745.037 89.016 743.485 90.472 742.333 92.36C741.181 94.248 740.605 96.424 740.605 98.888C740.605 101.352 741.181 103.528 742.333 105.416C743.485 107.304 745.037 108.776 746.989 109.832C748.973 110.856 751.149 111.368 753.517 111.368C755.935 111.368 757.983 110.853 759.663 109.823C759.947 109.649 760.221 109.46 760.484 109.256C760.909 108.927 761.307 108.559 761.677 108.152V109.256C761.677 109.862 761.636 110.429 761.555 110.955C761.317 112.485 760.734 113.679 759.805 114.536C758.589 115.72 756.685 116.312 754.093 116.312C752.429 116.312 750.765 116.04 749.101 115.496C748.198 115.218 747.379 114.883 746.646 114.492C746.028 114.163 745.471 113.794 744.973 113.384L741.997 118.76C743.469 119.912 745.325 120.792 747.565 121.4C749.805 122.008 752.173 122.312 754.669 122.312C759.405 122.312 763.005 121.16 765.469 118.856C767.933 116.552 769.165 113.032 769.165 108.296V86.792H762.061V90.104ZM758.995 112.39C757.354 113.05 755.516 113.368 753.517 113.368C750.85 113.368 748.357 112.788 746.072 111.609L746.055 111.6L746.038 111.591C745.939 111.538 745.842 111.484 745.745 111.428L746.245 111.84C747.09 112.536 748.218 113.132 749.689 113.584L749.706 113.59L749.723 113.595C751.197 114.077 752.651 114.312 754.093 114.312C756.433 114.312 757.724 113.771 758.41 113.103L758.429 113.084L758.449 113.066C758.647 112.883 758.832 112.661 758.995 112.39ZM758.496 95.797L758.477 95.7789C757.657 95.0016 756.561 94.552 755.005 94.552C753.45 94.552 752.326 95.0016 751.467 95.7962L751.457 95.8055L751.447 95.8146C750.632 96.5483 750.189 97.5059 750.189 98.888C750.189 100.265 750.629 101.248 751.457 102.019C752.313 102.784 753.441 103.224 755.005 103.224C756.576 103.224 757.678 102.781 758.495 102.028C759.33 101.256 759.773 100.27 759.773 98.888C759.773 97.5059 759.331 96.5483 758.515 95.8146L758.496 95.797ZM759.853 103.496C758.605 104.648 756.989 105.224 755.005 105.224C753.021 105.224 751.389 104.648 750.109 103.496C748.829 102.312 748.189 100.776 748.189 98.888C748.189 97 748.829 95.48 750.109 94.328C751.389 93.144 753.021 92.552 755.005 92.552C756.989 92.552 758.605 93.144 759.853 94.328C761.133 95.48 761.773 97 761.773 98.888C761.773 100.776 761.133 102.312 759.853 103.496ZM783.502 112.616H776.35V77H783.838V89.528C784.435 88.8709 785.101 88.3177 785.838 87.8682C787.434 86.8947 789.36 86.408 791.614 86.408C794.014 86.408 796.19 86.968 798.142 88.088C800.126 89.176 801.678 90.728 802.798 92.744C803.918 94.728 804.478 97.048 804.478 99.704C804.478 102.36 803.918 104.696 802.798 106.712C801.678 108.696 800.126 110.248 798.142 111.368C796.19 112.456 794.014 113 791.614 113C789.178 113 787.141 112.473 785.502 111.419C784.752 110.937 784.085 110.344 783.502 109.64V112.616ZM785.502 113.712V114.616H774.35V75H785.838V85.5997C787.545 84.7954 789.486 84.408 791.614 84.408C794.333 84.408 796.85 85.0448 799.121 86.3437C801.433 87.6153 803.248 89.4365 804.544 91.7671C805.313 93.1322 805.845 94.6137 806.154 96.1983C806.494 94.6419 807.073 93.1745 807.898 91.807C809.308 89.4694 811.263 87.6503 813.72 86.3656C816.213 85.0474 818.986 84.408 821.995 84.408C825.002 84.408 827.762 85.0464 830.227 86.3687C832.682 87.6533 834.635 89.4713 836.043 91.807C837.464 94.1618 838.155 96.8128 838.155 99.704C838.155 102.595 837.464 105.246 836.043 107.601C834.636 109.935 832.686 111.766 830.237 113.082L830.227 113.087L830.217 113.093C827.753 114.38 824.997 115 821.995 115C818.992 115 816.225 114.38 813.735 113.098L813.72 113.09L813.704 113.082C811.255 111.766 809.306 109.935 807.898 107.601C807.074 106.235 806.495 104.769 806.155 103.214C805.846 104.807 805.315 106.301 804.547 107.683L804.54 107.695C803.241 109.996 801.427 111.811 799.126 113.11L799.116 113.115C796.844 114.381 794.329 115 791.614 115C789.339 115 787.281 114.585 785.502 113.712ZM829.291 88.136C827.147 86.984 824.715 86.408 821.995 86.408C819.275 86.408 816.827 86.984 814.651 88.136C812.507 89.256 810.827 90.824 809.611 92.84C808.395 94.856 807.787 97.144 807.787 99.704C807.787 102.264 808.395 104.552 809.611 106.568C810.827 108.584 812.507 110.168 814.651 111.32C816.827 112.44 819.275 113 821.995 113C824.715 113 827.147 112.44 829.291 111.32C831.435 110.168 833.115 108.584 834.331 106.568C835.547 104.552 836.155 102.264 836.155 99.704C836.155 97.144 835.547 94.856 834.331 92.84C833.115 90.824 831.435 89.256 829.291 88.136ZM790.318 104.856L793.556 95.8795C792.748 95.0083 791.727 94.552 790.318 94.552C788.91 94.552 787.862 95.009 787.016 95.8975M793.572 103.559L793.573 103.558C794.399 102.69 794.894 101.477 794.894 99.704C794.894 97.9294 794.363 96.708 793.556 95.8795L790.318 104.856M793.572 103.559C792.769 104.404 791.743 104.856 790.318 104.856L793.572 103.559ZM787.016 95.8975C786.232 96.7238 785.742 97.9154 785.742 99.704C785.742 101.478 786.224 102.693 787.016 103.558C787.855 104.409 788.903 104.856 790.318 104.856M785.566 104.936C784.35 103.624 783.742 101.88 783.742 99.704C783.742 97.528 784.35 95.8 785.566 94.52C786.814 93.208 788.398 92.552 790.318 92.552C792.238 92.552 793.806 93.208 795.022 94.52C796.27 95.8 796.894 97.528 796.894 99.704C796.894 101.88 796.27 103.624 795.022 104.936C793.806 106.216 792.238 106.856 790.318 106.856C788.398 106.856 786.814 106.216 785.566 104.936ZM825.249 95.8981L825.232 95.8795C824.424 95.0083 823.404 94.552 821.995 94.552C820.586 94.552 819.538 95.0093 818.692 95.8984L818.683 95.9074L818.675 95.9162C817.867 96.7446 817.371 97.9294 817.371 99.704C817.371 101.471 817.863 102.682 818.684 103.549C819.524 104.406 820.575 104.856 821.995 104.856C823.42 104.856 824.446 104.404 825.249 103.559L825.25 103.558C826.075 102.69 826.571 101.477 826.571 99.704C826.571 97.9294 826.074 96.7446 825.267 95.9162L825.249 95.8981ZM817.243 104.936C815.995 103.624 815.371 101.88 815.371 99.704C815.371 97.528 815.995 95.8 817.243 94.52C818.491 93.208 820.075 92.552 821.995 92.552C823.915 92.552 825.483 93.208 826.699 94.52C827.947 95.8 828.571 97.528 828.571 99.704C828.571 101.88 827.947 103.624 826.699 104.936C825.483 106.216 823.915 106.856 821.995 106.856C820.075 106.856 818.491 106.216 817.243 104.936ZM869.392 84.792V114.616H858.288V113.608C858.045 113.734 857.797 113.854 857.544 113.965L857.526 113.973L857.508 113.981C855.87 114.667 854.117 115 852.272 115C848.477 115 845.242 113.895 842.805 111.498C840.312 109.045 839.232 105.552 839.232 101.384V84.792H850.72V100.28C850.72 102.129 851.115 103.144 851.56 103.675C851.949 104.139 852.618 104.52 853.952 104.52C855.266 104.52 856.15 104.12 856.808 103.429C857.43 102.745 857.904 101.569 857.904 99.56V84.792H869.392ZM858.272 104.792C857.184 105.944 855.744 106.52 853.952 106.52C850.464 106.52 848.72 104.44 848.72 100.28V86.792H841.232V101.384C841.232 105.224 842.224 108.12 844.208 110.072C846.192 112.024 848.88 113 852.272 113C853.872 113 855.36 112.712 856.736 112.136C857.283 111.894 857.801 111.611 858.288 111.288C859.024 110.8 859.691 110.218 860.288 109.544V112.616H867.392V86.792H859.904V99.56C859.904 101.864 859.36 103.608 858.272 104.792ZM883.697 88.1616C882.947 88.6244 882.28 89.1759 881.697 89.816V86.792H874.545V112.616H882.033V99.848C882.033 97.544 882.593 95.816 883.713 94.664C884.833 93.48 886.337 92.888 888.225 92.888C889.921 92.888 891.217 93.4 892.113 94.424C893.009 95.416 893.457 96.936 893.457 98.984V112.616H900.945V97.832C900.945 94.056 899.953 91.208 897.969 89.288C896.017 87.368 893.441 86.408 890.241 86.408C888.481 86.408 886.865 86.712 885.393 87.32C884.787 87.5571 884.221 87.8377 883.697 88.1616ZM883.697 85.8815C884.005 85.7311 884.321 85.5921 884.646 85.4643C886.38 84.7511 888.253 84.408 890.241 84.408C893.867 84.408 896.977 85.5104 899.365 87.8559C901.86 90.2744 902.945 93.722 902.945 97.832V114.616H891.457V98.984C891.457 97.1769 891.054 96.236 890.628 95.7646L890.618 95.7529L890.607 95.741C890.182 95.2546 889.497 94.888 888.225 94.888C886.791 94.888 885.847 95.3179 885.165 96.0384L885.156 96.0483L885.147 96.0582C884.521 96.7011 884.033 97.8384 884.033 99.848V114.616H872.545V84.792H883.697V85.8815ZM926.056 112.782L925.793 112.976C924.813 113.701 923.657 114.211 922.38 114.549L922.359 114.555L922.339 114.56C921.116 114.856 919.836 115 918.508 115C915.102 115 912.172 114.126 909.998 112.117L909.991 112.11L909.984 112.104C907.799 110.045 906.86 107.137 906.86 103.736V95.128H902.876V85.368H906.86V79.08H918.348V85.368H921.925L921.677 84.792H933.779L939.696 99.0949L945.653 84.792H957.211L944.371 114.962C943.112 118.119 941.45 120.605 939.25 122.128C937.133 123.616 934.621 124.312 931.818 124.312C930.264 124.312 928.732 124.071 927.23 123.594C925.713 123.114 924.378 122.418 923.293 121.458L922.129 120.429L926.056 112.782ZM926.771 111.438L923.498 102.865L921.368 104.503C920.93 104.84 920.366 105.048 919.564 105.048C918.996 105.048 918.745 104.914 918.619 104.807C918.501 104.653 918.348 104.331 918.348 103.64V95.128H924.78V92.0086L933.71 112.782C933.372 113.417 933.076 113.745 932.874 113.896L932.849 113.915L932.825 113.934C932.62 114.098 932.264 114.264 931.578 114.264C931.112 114.264 930.601 114.174 930.038 113.964C929.522 113.761 929.074 113.485 928.683 113.137L926.771 111.438ZM929.322 115.832C929.229 115.795 929.136 115.757 929.045 115.717C928.421 115.441 927.857 115.079 927.354 114.632L924.618 119.96C925.45 120.696 926.522 121.272 927.834 121.688C929.146 122.104 930.474 122.312 931.818 122.312C934.282 122.312 936.378 121.704 938.106 120.488C939.866 119.272 941.338 117.176 942.522 114.2L954.186 86.792H946.986L939.69 104.312L932.442 86.792H924.714L935.898 112.808L935.802 113.048C935.29 114.2 934.714 115.016 934.074 115.496C933.434 116.008 932.602 116.264 931.578 116.264C930.842 116.264 930.09 116.12 929.322 115.832ZM916.348 93.128H922.78V87.368H916.348V81.08H908.86V87.368H904.876V93.128H908.86V103.736C908.86 106.776 909.692 109.08 911.356 110.648C913.052 112.216 915.436 113 918.508 113C919.692 113 920.812 112.872 921.868 112.616C922.956 112.328 923.868 111.912 924.604 111.368L922.588 106.088C922.053 106.499 921.446 106.778 920.767 106.925C920.388 107.007 919.987 107.048 919.564 107.048C918.54 107.048 917.74 106.76 917.164 106.184C916.62 105.576 916.348 104.728 916.348 103.64V93.128ZM694.672 104.936C693.456 106.216 691.888 106.856 689.968 106.856C688.048 106.856 686.464 106.216 685.216 104.936C684 103.624 683.392 101.88 683.392 99.704C683.392 97.528 684 95.8 685.216 94.52C686.464 93.208 688.048 92.552 689.968 92.552C691.888 92.552 693.456 93.208 694.672 94.52C695.92 95.8 696.544 97.528 696.544 99.704C696.544 101.88 695.92 103.624 694.672 104.936Z" fill="#42D4BA"/>
<line x1="2.73438" y1="368" x2="2.73438" y2="77.817" stroke="white" stroke-width="4"/>
<path d="M503.695 62.6289C539.812 87.7065 575.72 113.042 611.083 139.175C619.185 145.163 617.859 143.417 626.5 148.5" stroke="#42D4BA" stroke-width="5" stroke-linecap="round"/>
<path d="M495.398 133.836C509.859 130.307 523.303 122.831 536.495 116.169C559.673 104.464 582.55 92.1037 604.783 78.6832C612.971 73.7409 620.758 68.0706 629.057 63.3202C630.384 62.5606 631.482 61.9375 632.974 61.9375" stroke="#42D4BA" stroke-width="5" stroke-linecap="round"/>
<path d="M512 28.9725C514.475 28.285 516.572 26.7785 519.203 26.5325C522.416 26.2321 524.961 26.9142 525.772 30.2864C526.215 32.1281 526.896 36.2594 525.397 37.8177C524.857 38.3788 523.879 37.9582 525.62 37.6417C529.596 36.9187 532.137 42.303 531.18 45.607C530.219 48.9232 525.51 51.8288 522.3 52.4813C519.936 52.9618 517.502 53.0325 515.367 51.8127C514.941 51.5694 514.745 51.4082 514.745 50.9329" stroke="#42D4BA" stroke-width="5" stroke-linecap="round"/>
<path d="M543.256 22.4258C541.245 32.8745 538.563 43.4 537.789 54.0407C537.775 54.2313 537.766 55.5551 537.766 55.3663" stroke="#42D4BA" stroke-width="5" stroke-linecap="round"/>
<path d="M542.828 23.9023C547.07 31.8513 549.47 40.4449 551.603 49.1473C551.813 50.0054 552.119 50.8868 552.119 51.7751" stroke="#42D4BA" stroke-width="5" stroke-linecap="round"/>
<path d="M538.398 45.0195H547.478" stroke="#42D4BA" stroke-width="5" stroke-linecap="round"/>
<path d="M555.711 19.0469C557.141 28.2409 560.044 37.128 561.518 46.2979C561.7 47.4323 562.257 50.8136 562.257 49.6646" stroke="#42D4BA" stroke-width="5" stroke-linecap="round"/>
<path d="M571.34 22.4258C570.839 23.0464 570.245 23.5575 569.697 24.1385C567.215 26.7713 565.016 29.6566 562.788 32.5027C562.414 32.9795 559.043 38.2333 558.365 38.0397C554.158 36.8377 567.023 39.4527 571.222 40.6791C573.982 41.4851 576.503 42.4453 578.941 43.9403C579.252 44.1306 579.462 44.2783 579.786 44.3861" stroke="#42D4BA" stroke-width="5" stroke-linecap="round"/>
<path d="M582.742 18.625C583.413 23.4559 585.095 28.1537 586.426 32.8312C587.364 36.1296 588.179 39.4574 588.983 42.7907C589.23 43.8142 589.71 46.917 589.71 45.8642" stroke="#42D4BA" stroke-width="5" stroke-linecap="round"/>
<path d="M581.68 18.2039C583.233 15.097 589.467 15.0546 592.261 15.0366C594.781 15.0203 597.725 14.8506 599.874 16.4091C601.849 17.8412 602.561 19.966 602.561 22.3098C602.561 26.3787 598.107 29.052 594.689 30.4041C593.263 30.9682 591.185 31.9326 589.915 30.6622" stroke="#42D4BA" stroke-width="5" stroke-linecap="round"/>
<path d="M610.609 13.1328C611.196 21.5368 613.619 29.7465 615.313 37.9672C615.75 40.0849 616.424 42.092 616.944 44.1729" stroke="#42D4BA" stroke-width="5" stroke-linecap="round"/>
<path d="M613.992 28.5475C615.986 28.5475 617.981 28.5475 619.975 28.5475C622.062 28.5475 624.395 28.178 625.864 29.9552C626.991 31.3193 629.442 35.4308 627.717 37.2049C626.019 38.9514 624.016 40.1917 621.641 40.7477C621.003 40.897 619.06 42.4264 619.06 41.6392" stroke="#42D4BA" stroke-width="5" stroke-linecap="round"/>
<path d="M632.57 10.1797C633.356 18.457 636.349 26.7046 639.116 34.5331C639.382 35.2857 639.961 36.4066 639.961 37.2078" stroke="#42D4BA" stroke-width="5" stroke-linecap="round"/>
<path d="M652.633 5.95312C654.438 15.5793 655.78 25.2808 657.701 34.8816" stroke="#42D4BA" stroke-width="5" stroke-linecap="round"/>
<path d="M640.805 3C647.887 3 654.866 3.38063 661.909 4.14963C664.649 4.44882 667.391 5.11157 670.156 5.11157" stroke="#42D4BA" stroke-width="5" stroke-linecap="round"/>
<path d="M30.3828 292.137C41.6918 278.001 51.9892 261.728 66.9026 251.009C70.2696 248.589 72.5318 247.333 72.6414 252.227C72.8699 262.433 72.5064 272.677 72.2501 282.877C72.0291 291.675 70.2219 301.849 80.1627 291.572C83.6893 287.927 95.0559 275.135 97.727 272.182C106.354 262.645 115.314 250.593 126.03 243.184C138.035 234.883 128.413 277.938 133.421 278.138C136.648 278.267 141.794 271.446 143.681 269.617C147.416 265.997 151.71 260.938 156.941 259.444C162.311 257.909 161.01 280.265 161.506 283.312C162.112 287.034 165.531 280.665 165.897 280.182C171.576 272.7 177.907 265.664 185.418 259.965C187.343 258.505 192.474 254.214 194.157 258.226C194.959 260.139 195.05 262.703 195.504 264.748" stroke="#42D4BA" stroke-width="5" stroke-linecap="round"/>
<path d="M780.027 230.862C770.456 230.384 761.002 228.54 751.375 229.108C738.534 229.865 723.678 233.853 718.186 246.705C713.282 258.181 712.533 273.381 716.757 285.208C722.896 302.398 743.402 309.674 760.174 308.772C773.93 308.032 788.345 303.985 795.97 291.701C800.418 284.534 803.327 275.496 801.585 266.959C799.485 256.669 791.437 249.559 783.06 244.173C769.887 235.702 755.531 233.085 740.12 233.219C735.382 233.26 731.547 234.101 727.235 235.826" stroke="#42D4BA" stroke-width="5" stroke-linecap="round"/>
<path d="M330 378.422C330.036 381.134 330.493 385.292 332.951 386.998C337.32 390.031 344.836 386.08 348.393 383.682C351.199 381.79 354.147 379.293 357.482 378.38C362.336 377.05 366.46 380.394 369.82 383.449C373.427 386.728 374.448 389.888 379.431 388.554C388.08 386.239 394.443 379.771 403.284 378.146C406.307 377.59 411.37 377.03 414.246 378.217C418.446 379.951 421.695 384.296 425.35 386.929C427.066 388.164 430.601 390.85 432.881 389.363C437.262 386.505 440.676 382.386 445.239 379.709C449.108 377.438 454.246 376.924 458.291 379.124C462.762 381.557 464.632 386.573 468.573 389.51C471.507 391.698 474.954 391.026 477.753 388.896C481.489 386.053 484.038 382.84 488.495 380.818C493.319 378.63 499.538 379.659 503.816 382.657C506.196 384.325 507.349 386.608 510.231 387.287" stroke="#42D4BA" stroke-width="5" stroke-linecap="round"/>
<defs>
<filter id="filter0_f_718_1051" x="669" y="70" width="293.211" height="59.3125" filterUnits="userSpaceOnUse" color-interpolation-filters="sRGB">
<feFlood flood-opacity="0" result="BackgroundImageFix"/>
<feBlend mode="normal" in="SourceGraphic" in2="BackgroundImageFix" result="shape"/>
<feGaussianBlur stdDeviation="2.5" result="effect1_foregroundBlur_718_1051"/>
</filter>
</defs>
</svg>
