<svg width="15" height="16" viewBox="0 0 15 16" fill="none" xmlns="http://www.w3.org/2000/svg">
<path d="M8.15536 8.8282C8.54588 8.43768 8.54588 7.80451 8.15536 7.41399L1.7914 1.05003C1.40087 0.659502 0.767706 0.659502 0.377182 1.05003C-0.0133421 1.44055 -0.0133421 2.07372 0.377182 2.46424L6.03404 8.12109L0.377182 13.7779C-0.0133421 14.1685 -0.0133421 14.8016 0.377182 15.1922C0.767706 15.5827 1.40087 15.5827 1.7914 15.1922L8.15536 8.8282ZM6.65625 9.12109H7.44825V7.12109H6.65625V9.12109Z" fill="#4B4B4B"/>
<path d="M6.74308 8.8282C6.35256 8.43768 6.35256 7.80451 6.74308 7.41399L13.107 1.05003C13.4976 0.659502 14.1307 0.659502 14.5213 1.05003C14.9118 1.44055 14.9118 2.07372 14.5213 2.46424L8.8644 8.12109L14.5213 13.7779C14.9118 14.1685 14.9118 14.8016 14.5213 15.1922C14.1307 15.5827 13.4976 15.5827 13.107 15.1922L6.74308 8.8282ZM8.24219 9.12109H7.45019V7.12109H8.24219V9.12109Z" fill="#4B4B4B"/>
</svg>
