<svg width="20" height="20" viewBox="0 0 20 20" fill="none" xmlns="http://www.w3.org/2000/svg">
<g opacity="0.5">
<path d="M2.5 5H4.16667H17.5" stroke="white" stroke-width="1.5" stroke-linecap="round" stroke-linejoin="round"/>
<path d="M6.66669 4.99999V3.33332C6.66669 2.8913 6.84228 2.46737 7.15484 2.15481C7.4674 1.84225 7.89133 1.66666 8.33335 1.66666H11.6667C12.1087 1.66666 12.5326 1.84225 12.8452 2.15481C13.1578 2.46737 13.3334 2.8913 13.3334 3.33332V4.99999M15.8334 4.99999V16.6667C15.8334 17.1087 15.6578 17.5326 15.3452 17.8452C15.0326 18.1577 14.6087 18.3333 14.1667 18.3333H5.83335C5.39133 18.3333 4.9674 18.1577 4.65484 17.8452C4.34228 17.5326 4.16669 17.1087 4.16669 16.6667V4.99999H15.8334Z" stroke="white" stroke-width="1.5" stroke-linecap="round" stroke-linejoin="round"/>
<path d="M8.33331 9.16666V14.1667" stroke="white" stroke-width="1.5" stroke-linecap="round" stroke-linejoin="round"/>
<path d="M11.6667 9.16666V14.1667" stroke="white" stroke-width="1.5" stroke-linecap="round" stroke-linejoin="round"/>
</g>
</svg>
