<svg width="436" height="92" viewBox="0 0 436 92" fill="none" xmlns="http://www.w3.org/2000/svg">
<g filter="url(#filter0_f_567_1326)">
<path fill-rule="evenodd" clip-rule="evenodd" d="M70.1464 80.1421L69.994 51.8628L56.8892 73.8497H46.453L33.4633 52.6599V80.1421H12.5V12.0312H30.703L51.9133 46.8644L72.6062 12.0312H90.8186L91.0112 79.4507L120.772 12.0312H141.339L171.2 79.4591V12.0312H202.519C208.527 12.0312 213.854 13.0421 218.444 15.1377C223.036 17.174 226.653 20.167 229.208 24.1298C231.774 28.0493 233.018 32.6316 233.018 37.788C233.018 42.7574 231.837 47.2051 229.408 51.0531C227.456 54.1761 224.801 56.7192 221.495 58.6932L236.217 80.1421H211.696L200.114 63.18H193.531V80.1421H147.991L142.975 67.7397H118.864L113.848 80.1421H70.1464ZM117.423 65.6023H144.416L149.432 78.0048H168.218L139.948 14.1686H122.165L93.9858 78.0048H112.407L117.423 65.6023ZM191.394 61.0426H201.243L212.824 78.0048H232.158L218.387 57.942C219.044 57.6233 219.676 57.2851 220.283 56.9272C223.38 55.1006 225.819 52.7638 227.598 49.9169C229.787 46.4515 230.881 42.4085 230.881 37.788C230.881 32.9851 229.726 28.8205 227.415 25.2943C225.105 21.7074 221.822 18.9715 217.566 17.0868C213.311 15.1414 208.295 14.1686 202.519 14.1686H173.337V78.0048H191.394V61.0426ZM51.9359 51.0112L29.5021 14.1686H14.6374V78.0048H31.326V45.0835L47.6498 71.7123H55.6749L72.0899 44.1716L72.2723 78.0048H88.8697L88.6873 14.1686H73.8226L51.9359 51.0112ZM130.92 31.8603L122.712 52.2879H139.127L130.92 31.8603ZM130.92 37.5933L125.874 50.1505H135.965L130.92 37.5933ZM210.505 37.788C210.505 35.2969 209.74 33.6262 208.411 32.469C207.066 31.2976 204.86 30.5323 201.425 30.5323H193.531V44.9525H201.425C204.864 44.9525 207.078 44.2159 208.426 43.0939C209.746 41.9371 210.505 40.2697 210.505 37.788ZM209.815 44.7188C207.93 46.2995 205.134 47.0898 201.425 47.0898H191.394V28.395H201.425C205.134 28.395 207.93 29.2157 209.815 30.8572C211.7 32.4987 212.642 34.809 212.642 37.788C212.642 40.767 211.7 43.0773 209.815 44.7188ZM283.704 78.0048L265.465 54.8414L258.717 62.0457V78.0048H240.842V14.1686H258.717V40.7062L283.43 14.1686H303.311L277.229 42.4389L304.679 78.0048H283.704ZM280.024 42.5618L307.279 77.8759V13.0193L280.024 42.5618ZM361.62 12.0312V30.2587H329.428V36.745H357.789V54.5165H329.428V61.9146H362.805V80.1421H282.666L265.324 58.1179L260.854 62.8904V80.1421H238.705V12.0312H260.854V35.2749L282.5 12.0312H361.62ZM327.291 64.052V52.3791H355.652V38.8823H327.291V28.1214H359.482V14.1686H309.416V78.0048H360.668V64.052H327.291ZM362.531 30.6235V12.0312H423.985V30.6235H404.469V80.1421H382.138V30.6235H362.531ZM384.276 28.4862V78.0048H402.332V28.4862H421.848V14.1686H364.669V28.4862H384.276Z" fill="#42D4BA"/>
<path fill-rule="evenodd" clip-rule="evenodd" d="M70.1464 80.1421L69.994 51.8628L56.8892 73.8497H46.453L33.4633 52.6599V80.1421H12.5V12.0312H30.703L51.9133 46.8644L72.6062 12.0312H90.8186L91.0112 79.4507L120.772 12.0312H141.339L171.2 79.4591V12.0312H202.519C208.527 12.0312 213.854 13.0421 218.444 15.1377C223.036 17.174 226.653 20.167 229.208 24.1298C231.774 28.0493 233.018 32.6316 233.018 37.788C233.018 42.7574 231.837 47.2051 229.408 51.0531C227.456 54.1761 224.801 56.7192 221.495 58.6932L236.217 80.1421H211.696L200.114 63.18H193.531V80.1421H147.991L142.975 67.7397H118.864L113.848 80.1421H70.1464ZM117.423 65.6023H144.416L149.432 78.0048H168.218L139.948 14.1686H122.165L93.9858 78.0048H112.407L117.423 65.6023ZM191.394 61.0426H201.243L212.824 78.0048H232.158L218.387 57.942C219.044 57.6233 219.676 57.2851 220.283 56.9272C223.38 55.1006 225.819 52.7638 227.598 49.9169C229.787 46.4515 230.881 42.4085 230.881 37.788C230.881 32.9851 229.726 28.8205 227.415 25.2943C225.105 21.7074 221.822 18.9715 217.566 17.0868C213.311 15.1414 208.295 14.1686 202.519 14.1686H173.337V78.0048H191.394V61.0426ZM51.9359 51.0112L29.5021 14.1686H14.6374V78.0048H31.326V45.0835L47.6498 71.7123H55.6749L72.0899 44.1716L72.2723 78.0048H88.8697L88.6873 14.1686H73.8226L51.9359 51.0112ZM130.92 31.8603L122.712 52.2879H139.127L130.92 31.8603ZM130.92 37.5933L125.874 50.1505H135.965L130.92 37.5933ZM210.505 37.788C210.505 35.2969 209.74 33.6262 208.411 32.469C207.066 31.2976 204.86 30.5323 201.425 30.5323H193.531V44.9525H201.425C204.864 44.9525 207.078 44.2159 208.426 43.0939C209.746 41.9371 210.505 40.2697 210.505 37.788ZM209.815 44.7188C207.93 46.2995 205.134 47.0898 201.425 47.0898H191.394V28.395H201.425C205.134 28.395 207.93 29.2157 209.815 30.8572C211.7 32.4987 212.642 34.809 212.642 37.788C212.642 40.767 211.7 43.0773 209.815 44.7188ZM283.704 78.0048L265.465 54.8414L258.717 62.0457V78.0048H240.842V14.1686H258.717V40.7062L283.43 14.1686H303.311L277.229 42.4389L304.679 78.0048H283.704ZM280.024 42.5618L307.279 77.8759V13.0193L280.024 42.5618ZM361.62 12.0312V30.2587H329.428V36.745H357.789V54.5165H329.428V61.9146H362.805V80.1421H282.666L265.324 58.1179L260.854 62.8904V80.1421H238.705V12.0312H260.854V35.2749L282.5 12.0312H361.62ZM327.291 64.052V52.3791H355.652V38.8823H327.291V28.1214H359.482V14.1686H309.416V78.0048H360.668V64.052H327.291ZM362.531 30.6235V12.0312H423.985V30.6235H404.469V80.1421H382.138V30.6235H362.531ZM384.276 28.4862V78.0048H402.332V28.4862H421.848V14.1686H364.669V28.4862H384.276Z" fill="#42D4BA"/>
<path fill-rule="evenodd" clip-rule="evenodd" d="M70.1464 80.1421L69.994 51.8628L56.8892 73.8497H46.453L33.4633 52.6599V80.1421H12.5V12.0312H30.703L51.9133 46.8644L72.6062 12.0312H90.8186L91.0112 79.4507L120.772 12.0312H141.339L171.2 79.4591V12.0312H202.519C208.527 12.0312 213.854 13.0421 218.444 15.1377C223.036 17.174 226.653 20.167 229.208 24.1298C231.774 28.0493 233.018 32.6316 233.018 37.788C233.018 42.7574 231.837 47.2051 229.408 51.0531C227.456 54.1761 224.801 56.7192 221.495 58.6932L236.217 80.1421H211.696L200.114 63.18H193.531V80.1421H147.991L142.975 67.7397H118.864L113.848 80.1421H70.1464ZM117.423 65.6023H144.416L149.432 78.0048H168.218L139.948 14.1686H122.165L93.9858 78.0048H112.407L117.423 65.6023ZM191.394 61.0426H201.243L212.824 78.0048H232.158L218.387 57.942C219.044 57.6233 219.676 57.2851 220.283 56.9272C223.38 55.1006 225.819 52.7638 227.598 49.9169C229.787 46.4515 230.881 42.4085 230.881 37.788C230.881 32.9851 229.726 28.8205 227.415 25.2943C225.105 21.7074 221.822 18.9715 217.566 17.0868C213.311 15.1414 208.295 14.1686 202.519 14.1686H173.337V78.0048H191.394V61.0426ZM51.9359 51.0112L29.5021 14.1686H14.6374V78.0048H31.326V45.0835L47.6498 71.7123H55.6749L72.0899 44.1716L72.2723 78.0048H88.8697L88.6873 14.1686H73.8226L51.9359 51.0112ZM130.92 31.8603L122.712 52.2879H139.127L130.92 31.8603ZM130.92 37.5933L125.874 50.1505H135.965L130.92 37.5933ZM210.505 37.788C210.505 35.2969 209.74 33.6262 208.411 32.469C207.066 31.2976 204.86 30.5323 201.425 30.5323H193.531V44.9525H201.425C204.864 44.9525 207.078 44.2159 208.426 43.0939C209.746 41.9371 210.505 40.2697 210.505 37.788ZM209.815 44.7188C207.93 46.2995 205.134 47.0898 201.425 47.0898H191.394V28.395H201.425C205.134 28.395 207.93 29.2157 209.815 30.8572C211.7 32.4987 212.642 34.809 212.642 37.788C212.642 40.767 211.7 43.0773 209.815 44.7188ZM283.704 78.0048L265.465 54.8414L258.717 62.0457V78.0048H240.842V14.1686H258.717V40.7062L283.43 14.1686H303.311L277.229 42.4389L304.679 78.0048H283.704ZM280.024 42.5618L307.279 77.8759V13.0193L280.024 42.5618ZM361.62 12.0312V30.2587H329.428V36.745H357.789V54.5165H329.428V61.9146H362.805V80.1421H282.666L265.324 58.1179L260.854 62.8904V80.1421H238.705V12.0312H260.854V35.2749L282.5 12.0312H361.62ZM327.291 64.052V52.3791H355.652V38.8823H327.291V28.1214H359.482V14.1686H309.416V78.0048H360.668V64.052H327.291ZM362.531 30.6235V12.0312H423.985V30.6235H404.469V80.1421H382.138V30.6235H362.531ZM384.276 28.4862V78.0048H402.332V28.4862H421.848V14.1686H364.669V28.4862H384.276Z" fill="#42D4BA"/>
</g>
<path fill-rule="evenodd" clip-rule="evenodd" d="M70.1464 80.1421L69.994 51.8628L56.8892 73.8497H46.453L33.4633 52.6599V80.1421H12.5V12.0312H30.703L51.9133 46.8644L72.6062 12.0312H90.8186L91.0112 79.4507L120.772 12.0312H141.339L171.2 79.4591V12.0312H202.519C208.527 12.0312 213.854 13.0421 218.444 15.1377C223.036 17.174 226.653 20.167 229.208 24.1298C231.774 28.0493 233.018 32.6316 233.018 37.788C233.018 42.7574 231.837 47.2051 229.408 51.0531C227.456 54.1761 224.801 56.7192 221.495 58.6932L236.217 80.1421H211.696L200.114 63.18H193.531V80.1421H147.991L142.975 67.7397H118.864L113.848 80.1421H70.1464ZM117.423 65.6023H144.416L149.432 78.0048H168.218L139.948 14.1686H122.165L93.9858 78.0048H112.407L117.423 65.6023ZM191.394 61.0426H201.243L212.824 78.0048H232.158L218.387 57.942C219.044 57.6233 219.676 57.2851 220.283 56.9272C223.38 55.1006 225.819 52.7638 227.598 49.9169C229.787 46.4515 230.881 42.4085 230.881 37.788C230.881 32.9851 229.726 28.8205 227.415 25.2943C225.105 21.7074 221.822 18.9715 217.566 17.0868C213.311 15.1414 208.295 14.1686 202.519 14.1686H173.337V78.0048H191.394V61.0426ZM51.9359 51.0112L29.5021 14.1686H14.6374V78.0048H31.326V45.0835L47.6498 71.7123H55.6749L72.0899 44.1716L72.2723 78.0048H88.8697L88.6873 14.1686H73.8226L51.9359 51.0112ZM130.92 31.8603L122.712 52.2879H139.127L130.92 31.8603ZM130.92 37.5933L125.874 50.1505H135.965L130.92 37.5933ZM210.505 37.788C210.505 35.2969 209.74 33.6262 208.411 32.469C207.066 31.2976 204.86 30.5323 201.425 30.5323H193.531V44.9525H201.425C204.864 44.9525 207.078 44.2159 208.426 43.0939C209.746 41.9371 210.505 40.2697 210.505 37.788ZM209.815 44.7188C207.93 46.2995 205.134 47.0898 201.425 47.0898H191.394V28.395H201.425C205.134 28.395 207.93 29.2157 209.815 30.8572C211.7 32.4987 212.642 34.809 212.642 37.788C212.642 40.767 211.7 43.0773 209.815 44.7188ZM283.704 78.0048L265.465 54.8414L258.717 62.0457V78.0048H240.842V14.1686H258.717V40.7062L283.43 14.1686H303.311L277.229 42.4389L304.679 78.0048H283.704ZM280.024 42.5618L307.279 77.8759V13.0193L280.024 42.5618ZM361.62 12.0312V30.2587H329.428V36.745H357.789V54.5165H329.428V61.9146H362.805V80.1421H282.666L265.324 58.1179L260.854 62.8904V80.1421H238.705V12.0312H260.854V35.2749L282.5 12.0312H361.62ZM327.291 64.052V52.3791H355.652V38.8823H327.291V28.1214H359.482V14.1686H309.416V78.0048H360.668V64.052H327.291ZM362.531 30.6235V12.0312H423.985V30.6235H404.469V80.1421H382.138V30.6235H362.531ZM384.276 28.4862V78.0048H402.332V28.4862H421.848V14.1686H364.669V28.4862H384.276Z" fill="#42D4BA"/>
<path fill-rule="evenodd" clip-rule="evenodd" d="M70.1464 80.1421L69.994 51.8628L56.8892 73.8497H46.453L33.4633 52.6599V80.1421H12.5V12.0312H30.703L51.9133 46.8644L72.6062 12.0312H90.8186L91.0112 79.4507L120.772 12.0312H141.339L171.2 79.4591V12.0312H202.519C208.527 12.0312 213.854 13.0421 218.444 15.1377C223.036 17.174 226.653 20.167 229.208 24.1298C231.774 28.0493 233.018 32.6316 233.018 37.788C233.018 42.7574 231.837 47.2051 229.408 51.0531C227.456 54.1761 224.801 56.7192 221.495 58.6932L236.217 80.1421H211.696L200.114 63.18H193.531V80.1421H147.991L142.975 67.7397H118.864L113.848 80.1421H70.1464ZM117.423 65.6023H144.416L149.432 78.0048H168.218L139.948 14.1686H122.165L93.9858 78.0048H112.407L117.423 65.6023ZM191.394 61.0426H201.243L212.824 78.0048H232.158L218.387 57.942C219.044 57.6233 219.676 57.2851 220.283 56.9272C223.38 55.1006 225.819 52.7638 227.598 49.9169C229.787 46.4515 230.881 42.4085 230.881 37.788C230.881 32.9851 229.726 28.8205 227.415 25.2943C225.105 21.7074 221.822 18.9715 217.566 17.0868C213.311 15.1414 208.295 14.1686 202.519 14.1686H173.337V78.0048H191.394V61.0426ZM51.9359 51.0112L29.5021 14.1686H14.6374V78.0048H31.326V45.0835L47.6498 71.7123H55.6749L72.0899 44.1716L72.2723 78.0048H88.8697L88.6873 14.1686H73.8226L51.9359 51.0112ZM130.92 31.8603L122.712 52.2879H139.127L130.92 31.8603ZM130.92 37.5933L125.874 50.1505H135.965L130.92 37.5933ZM210.505 37.788C210.505 35.2969 209.74 33.6262 208.411 32.469C207.066 31.2976 204.86 30.5323 201.425 30.5323H193.531V44.9525H201.425C204.864 44.9525 207.078 44.2159 208.426 43.0939C209.746 41.9371 210.505 40.2697 210.505 37.788ZM209.815 44.7188C207.93 46.2995 205.134 47.0898 201.425 47.0898H191.394V28.395H201.425C205.134 28.395 207.93 29.2157 209.815 30.8572C211.7 32.4987 212.642 34.809 212.642 37.788C212.642 40.767 211.7 43.0773 209.815 44.7188ZM283.704 78.0048L265.465 54.8414L258.717 62.0457V78.0048H240.842V14.1686H258.717V40.7062L283.43 14.1686H303.311L277.229 42.4389L304.679 78.0048H283.704ZM280.024 42.5618L307.279 77.8759V13.0193L280.024 42.5618ZM361.62 12.0312V30.2587H329.428V36.745H357.789V54.5165H329.428V61.9146H362.805V80.1421H282.666L265.324 58.1179L260.854 62.8904V80.1421H238.705V12.0312H260.854V35.2749L282.5 12.0312H361.62ZM327.291 64.052V52.3791H355.652V38.8823H327.291V28.1214H359.482V14.1686H309.416V78.0048H360.668V64.052H327.291ZM362.531 30.6235V12.0312H423.985V30.6235H404.469V80.1421H382.138V30.6235H362.531ZM384.276 28.4862V78.0048H402.332V28.4862H421.848V14.1686H364.669V28.4862H384.276Z" fill="#42D4BA"/>
<path fill-rule="evenodd" clip-rule="evenodd" d="M70.1464 80.1421L69.994 51.8628L56.8892 73.8497H46.453L33.4633 52.6599V80.1421H12.5V12.0312H30.703L51.9133 46.8644L72.6062 12.0312H90.8186L91.0112 79.4507L120.772 12.0312H141.339L171.2 79.4591V12.0312H202.519C208.527 12.0312 213.854 13.0421 218.444 15.1377C223.036 17.174 226.653 20.167 229.208 24.1298C231.774 28.0493 233.018 32.6316 233.018 37.788C233.018 42.7574 231.837 47.2051 229.408 51.0531C227.456 54.1761 224.801 56.7192 221.495 58.6932L236.217 80.1421H211.696L200.114 63.18H193.531V80.1421H147.991L142.975 67.7397H118.864L113.848 80.1421H70.1464ZM117.423 65.6023H144.416L149.432 78.0048H168.218L139.948 14.1686H122.165L93.9858 78.0048H112.407L117.423 65.6023ZM191.394 61.0426H201.243L212.824 78.0048H232.158L218.387 57.942C219.044 57.6233 219.676 57.2851 220.283 56.9272C223.38 55.1006 225.819 52.7638 227.598 49.9169C229.787 46.4515 230.881 42.4085 230.881 37.788C230.881 32.9851 229.726 28.8205 227.415 25.2943C225.105 21.7074 221.822 18.9715 217.566 17.0868C213.311 15.1414 208.295 14.1686 202.519 14.1686H173.337V78.0048H191.394V61.0426ZM51.9359 51.0112L29.5021 14.1686H14.6374V78.0048H31.326V45.0835L47.6498 71.7123H55.6749L72.0899 44.1716L72.2723 78.0048H88.8697L88.6873 14.1686H73.8226L51.9359 51.0112ZM130.92 31.8603L122.712 52.2879H139.127L130.92 31.8603ZM130.92 37.5933L125.874 50.1505H135.965L130.92 37.5933ZM210.505 37.788C210.505 35.2969 209.74 33.6262 208.411 32.469C207.066 31.2976 204.86 30.5323 201.425 30.5323H193.531V44.9525H201.425C204.864 44.9525 207.078 44.2159 208.426 43.0939C209.746 41.9371 210.505 40.2697 210.505 37.788ZM209.815 44.7188C207.93 46.2995 205.134 47.0898 201.425 47.0898H191.394V28.395H201.425C205.134 28.395 207.93 29.2157 209.815 30.8572C211.7 32.4987 212.642 34.809 212.642 37.788C212.642 40.767 211.7 43.0773 209.815 44.7188ZM283.704 78.0048L265.465 54.8414L258.717 62.0457V78.0048H240.842V14.1686H258.717V40.7062L283.43 14.1686H303.311L277.229 42.4389L304.679 78.0048H283.704ZM280.024 42.5618L307.279 77.8759V13.0193L280.024 42.5618ZM361.62 12.0312V30.2587H329.428V36.745H357.789V54.5165H329.428V61.9146H362.805V80.1421H282.666L265.324 58.1179L260.854 62.8904V80.1421H238.705V12.0312H260.854V35.2749L282.5 12.0312H361.62ZM327.291 64.052V52.3791H355.652V38.8823H327.291V28.1214H359.482V14.1686H309.416V78.0048H360.668V64.052H327.291ZM362.531 30.6235V12.0312H423.985V30.6235H404.469V80.1421H382.138V30.6235H362.531ZM384.276 28.4862V78.0048H402.332V28.4862H421.848V14.1686H364.669V28.4862H384.276Z" fill="#42D4BA"/>
<defs>
<filter id="filter0_f_567_1326" x="0.666063" y="0.197313" width="435.152" height="91.7772" filterUnits="userSpaceOnUse" color-interpolation-filters="sRGB">
<feFlood flood-opacity="0" result="BackgroundImageFix"/>
<feBlend mode="normal" in="SourceGraphic" in2="BackgroundImageFix" result="shape"/>
<feGaussianBlur stdDeviation="5.91697" result="effect1_foregroundBlur_567_1326"/>
</filter>
</defs>
</svg>
