<svg width="20" height="20" viewBox="0 0 20 20" fill="none" xmlns="http://www.w3.org/2000/svg">
<path d="M10 20C4.48372 20 0 15.5163 0 10C0 4.48372 4.48372 0 10 0C15.5163 0 20 4.48372 20 10C20 15.5163 15.5163 20 10 20ZM10 1.39535C5.25581 1.39535 1.39535 5.25581 1.39535 10C1.39535 14.7442 5.25581 18.6047 10 18.6047C14.7442 18.6047 18.6047 14.7442 18.6047 10C18.6047 5.25581 14.7442 1.39535 10 1.39535Z" fill="#A5A5A5"/>
<path d="M8.67952 13.3315C8.49347 13.3315 8.31673 13.2571 8.18649 13.1269L5.55389 10.4943C5.28412 10.2245 5.28412 9.77802 5.55389 9.50825C5.82366 9.23848 6.27017 9.23848 6.53993 9.50825L8.67952 11.6478L13.4609 6.86639C13.7307 6.59662 14.1772 6.59662 14.447 6.86639C14.7167 7.13616 14.7167 7.58267 14.447 7.85243L9.17254 13.1269C9.04231 13.2571 8.86556 13.3315 8.67952 13.3315Z" fill="#A5A5A5"/>
</svg>
