<svg width="20" height="21" viewBox="0 0 20 21" fill="none" xmlns="http://www.w3.org/2000/svg">
<g clip-path="url(#clip0_285_286)">
<path d="M15.8333 10.1398H4.16667C3.24619 10.1398 2.5 10.886 2.5 11.8064V17.6398C2.5 18.5602 3.24619 19.3064 4.16667 19.3064H15.8333C16.7538 19.3064 17.5 18.5602 17.5 17.6398V11.8064C17.5 10.886 16.7538 10.1398 15.8333 10.1398Z" stroke="#BABABA" stroke-width="1.56522" stroke-linecap="round" stroke-linejoin="round"/>
<path d="M5.83301 10.1398V6.80644C5.83301 5.70137 6.27199 4.64156 7.0534 3.86016C7.8348 3.07876 8.89461 2.63977 9.99967 2.63977C11.1047 2.63977 12.1646 3.07876 12.946 3.86016C13.7274 4.64156 14.1663 5.70137 14.1663 6.80644V10.1398" stroke="#BABABA" stroke-width="1.56522" stroke-linecap="round" stroke-linejoin="round"/>
</g>
<defs>
<clipPath id="clip0_285_286">
<rect width="20" height="20" fill="white" transform="translate(0 0.973145)"/>
</clipPath>
</defs>
</svg>
