<svg width="34" height="34" viewBox="0 0 34 34" fill="none" xmlns="http://www.w3.org/2000/svg">
<g clip-path="url(#clip0_242_1470)">
<path d="M12.7499 31.1667C13.5323 31.1667 14.1666 30.5324 14.1666 29.75C14.1666 28.9676 13.5323 28.3334 12.7499 28.3334C11.9675 28.3334 11.3333 28.9676 11.3333 29.75C11.3333 30.5324 11.9675 31.1667 12.7499 31.1667Z" stroke="white" stroke-width="3" stroke-linecap="round" stroke-linejoin="round"/>
<path d="M28.3334 31.1667C29.1158 31.1667 29.7501 30.5324 29.7501 29.75C29.7501 28.9676 29.1158 28.3334 28.3334 28.3334C27.551 28.3334 26.9167 28.9676 26.9167 29.75C26.9167 30.5324 27.551 31.1667 28.3334 31.1667Z" stroke="white" stroke-width="3" stroke-linecap="round" stroke-linejoin="round"/>
<path d="M1.4165 1.41663H7.08317L10.8798 20.3858C11.0094 21.038 11.3642 21.6239 11.8822 22.0409C12.4002 22.4579 13.0483 22.6794 13.7132 22.6666H27.4832C28.148 22.6794 28.7962 22.4579 29.3142 22.0409C29.8321 21.6239 30.187 21.038 30.3165 20.3858L32.5832 8.49996H8.49984" stroke="white" stroke-width="3" stroke-linecap="round" stroke-linejoin="round"/>
</g>
<defs>
<clipPath id="clip0_242_1470">
<rect width="34" height="34" fill="white"/>
</clipPath>
</defs>
</svg>
