<svg width="759" height="170" viewBox="0 0 759 170" fill="none" xmlns="http://www.w3.org/2000/svg">
<path d="M36.44 160H29.192V131.776H20.792C20.6 133.248 20.392 134.848 20.168 136.576C19.976 138.304 19.752 140.064 19.496 141.856C19.272 143.616 19.032 145.296 18.776 146.896C18.52 148.464 18.264 149.856 18.008 151.072C17.592 153.056 17.032 154.752 16.328 156.16C15.656 157.568 14.712 158.64 13.496 159.376C12.312 160.112 10.76 160.48 8.84 160.48C8.2 160.48 7.592 160.432 7.016 160.336C6.44 160.24 5.896 160.112 5.384 159.952V154C5.8 154.128 6.2 154.24 6.584 154.336C7 154.432 7.448 154.48 7.928 154.48C8.568 154.48 9.096 154.272 9.512 153.856C9.928 153.44 10.296 152.736 10.616 151.744C10.936 150.72 11.256 149.312 11.576 147.52C11.736 146.752 11.928 145.664 12.152 144.256C12.376 142.816 12.632 141.136 12.92 139.216C13.24 137.264 13.56 135.152 13.88 132.88C14.2 130.576 14.504 128.192 14.792 125.728H36.44V160ZM64.8136 160H45.0856V125.728H64.8136V131.68H52.3336V139.216H63.9496V145.168H52.3336V154H64.8136V160ZM85.145 160H77.897V131.776H68.585V125.728H94.457V131.776H85.145V160ZM127.822 160H120.574V145.216H106.99V160H99.7419V125.728H106.99V139.168H120.574V125.728H127.822V160ZM147.965 146.848L139.949 160H131.885L141.629 144.928C140.701 144.544 139.773 143.984 138.845 143.248C137.917 142.48 137.149 141.472 136.541 140.224C135.933 138.944 135.629 137.376 135.629 135.52C135.629 132.352 136.765 129.936 139.037 128.272C141.309 126.576 144.493 125.728 148.589 125.728H159.725V160H152.477V146.848H147.965ZM148.877 131.68C147.629 131.68 146.557 131.824 145.661 132.112C144.797 132.4 144.125 132.864 143.645 133.504C143.197 134.144 142.973 134.992 142.973 136.048C142.973 137.552 143.469 138.752 144.461 139.648C145.485 140.512 147.021 140.944 149.069 140.944H152.477V131.68H148.877ZM179.887 146.848L171.871 160H163.807L173.551 144.928C172.623 144.544 171.695 143.984 170.767 143.248C169.839 142.48 169.071 141.472 168.463 140.224C167.855 138.944 167.551 137.376 167.551 135.52C167.551 132.352 168.687 129.936 170.959 128.272C173.231 126.576 176.415 125.728 180.511 125.728H191.647V160H184.399V146.848H179.887ZM180.799 131.68C179.551 131.68 178.479 131.824 177.583 132.112C176.719 132.4 176.047 132.864 175.567 133.504C175.119 134.144 174.895 134.992 174.895 136.048C174.895 137.552 175.391 138.752 176.383 139.648C177.407 140.512 178.943 140.944 180.991 140.944H184.399V131.68H180.799ZM254.83 160H211.726V125.728H218.974V153.952H229.63V125.728H236.926V153.952H247.582V125.728H254.83V160ZM291.412 160H283.156L270.724 142.624V160H263.476V125.728H270.724V142.336L283.012 125.728H290.74L278.26 142.192L291.412 160ZM325.893 142.816C325.893 145.472 325.557 147.888 324.885 150.064C324.245 152.208 323.253 154.064 321.909 155.632C320.597 157.2 318.901 158.4 316.821 159.232C314.773 160.064 312.357 160.48 309.573 160.48C306.789 160.48 304.357 160.064 302.277 159.232C300.229 158.368 298.533 157.168 297.189 155.632C295.877 154.064 294.885 152.192 294.213 150.016C293.573 147.84 293.253 145.424 293.253 142.768C293.253 139.216 293.829 136.128 294.981 133.504C296.165 130.88 297.957 128.848 300.357 127.408C302.789 125.936 305.877 125.2 309.621 125.2C313.333 125.2 316.389 125.936 318.789 127.408C321.189 128.848 322.965 130.896 324.117 133.552C325.301 136.176 325.893 139.264 325.893 142.816ZM300.885 142.816C300.885 145.216 301.189 147.28 301.797 149.008C302.405 150.736 303.349 152.064 304.629 152.992C305.909 153.92 307.557 154.384 309.573 154.384C311.653 154.384 313.317 153.92 314.565 152.992C315.845 152.064 316.773 150.736 317.349 149.008C317.957 147.28 318.261 145.216 318.261 142.816C318.261 139.2 317.589 136.368 316.245 134.32C314.901 132.272 312.693 131.248 309.621 131.248C307.573 131.248 305.909 131.712 304.629 132.64C303.349 133.568 302.405 134.896 301.797 136.624C301.189 138.352 300.885 140.416 300.885 142.816ZM359.174 160H351.926V131.776H343.526C343.334 133.248 343.126 134.848 342.902 136.576C342.71 138.304 342.486 140.064 342.23 141.856C342.006 143.616 341.766 145.296 341.51 146.896C341.254 148.464 340.998 149.856 340.742 151.072C340.326 153.056 339.766 154.752 339.062 156.16C338.39 157.568 337.446 158.64 336.23 159.376C335.046 160.112 333.494 160.48 331.574 160.48C330.934 160.48 330.326 160.432 329.75 160.336C329.174 160.24 328.63 160.112 328.118 159.952V154C328.534 154.128 328.934 154.24 329.318 154.336C329.734 154.432 330.182 154.48 330.662 154.48C331.302 154.48 331.83 154.272 332.246 153.856C332.662 153.44 333.03 152.736 333.35 151.744C333.67 150.72 333.99 149.312 334.31 147.52C334.47 146.752 334.662 145.664 334.886 144.256C335.11 142.816 335.366 141.136 335.654 139.216C335.974 137.264 336.294 135.152 336.614 132.88C336.934 130.576 337.238 128.192 337.526 125.728H359.174V160ZM388.796 160L386.3 151.84H373.82L371.324 160H363.5L375.596 125.584H384.476L396.62 160H388.796ZM382.076 137.776C381.916 137.232 381.708 136.544 381.452 135.712C381.196 134.88 380.94 134.032 380.684 133.168C380.428 132.304 380.22 131.552 380.06 130.912C379.9 131.552 379.676 132.352 379.388 133.312C379.132 134.24 378.876 135.136 378.62 136C378.396 136.832 378.22 137.424 378.092 137.776L375.644 145.744H384.572L382.076 137.776ZM426.558 160.576C423.166 160.576 420.254 159.856 417.822 158.416C415.39 156.944 413.518 154.912 412.206 152.32C410.894 149.696 410.238 146.672 410.238 143.248C410.238 139.824 410.894 136.8 412.206 134.176C413.518 131.552 415.39 129.504 417.822 128.032C420.254 126.56 423.166 125.824 426.558 125.824C430.59 125.824 433.886 126.832 436.446 128.848C439.038 130.832 440.654 133.632 441.294 137.248H434.526C434.11 135.424 433.214 134 431.838 132.976C430.494 131.92 428.702 131.392 426.462 131.392C423.358 131.392 420.926 132.448 419.166 134.56C417.406 136.672 416.526 139.568 416.526 143.248C416.526 146.928 417.406 149.824 419.166 151.936C420.926 154.016 423.358 155.056 426.462 155.056C428.702 155.056 430.494 154.576 431.838 153.616C433.214 152.624 434.11 151.264 434.526 149.536H441.294C440.654 152.992 439.038 155.696 436.446 157.648C433.886 159.6 430.59 160.576 426.558 160.576ZM454.135 160V131.344H444.343V126.4H470.119V131.344H460.279V160H454.135ZM474.67 160V126.4H496.366V131.344H480.814V140.752H493.39V145.6H480.814V160H474.67ZM511.729 160V155.536C513.777 153.84 515.761 152.16 517.681 150.496C519.633 148.832 521.361 147.184 522.865 145.552C524.401 143.92 525.617 142.336 526.513 140.8C527.441 139.232 527.905 137.712 527.905 136.24C527.905 134.864 527.521 133.648 526.753 132.592C526.017 131.536 524.785 131.008 523.057 131.008C521.297 131.008 519.969 131.584 519.073 132.736C518.177 133.888 517.729 135.28 517.729 136.912H511.777C511.841 134.448 512.385 132.4 513.409 130.768C514.433 129.104 515.793 127.872 517.489 127.072C519.185 126.24 521.089 125.824 523.201 125.824C526.625 125.824 529.281 126.768 531.169 128.656C533.089 130.512 534.049 132.928 534.049 135.904C534.049 137.76 533.617 139.568 532.753 141.328C531.921 143.088 530.817 144.784 529.441 146.416C528.065 148.048 526.577 149.584 524.977 151.024C523.377 152.432 521.825 153.744 520.321 154.96H534.865V160H511.729ZM553.509 160.576C550.405 160.576 547.749 159.856 545.541 158.416C543.333 156.944 541.621 154.912 540.405 152.32C539.221 149.696 538.629 146.656 538.629 143.2C538.629 139.776 539.221 136.752 540.405 134.128C541.621 131.504 543.333 129.472 545.541 128.032C547.749 126.56 550.405 125.824 553.509 125.824C556.613 125.824 559.269 126.56 561.477 128.032C563.685 129.472 565.381 131.504 566.565 134.128C567.781 136.752 568.389 139.776 568.389 143.2C568.389 146.656 567.781 149.696 566.565 152.32C565.381 154.912 563.685 156.944 561.477 158.416C559.269 159.856 556.613 160.576 553.509 160.576ZM553.509 155.056C556.037 155.056 558.101 154 559.701 151.888C561.301 149.776 562.101 146.88 562.101 143.2C562.101 139.52 561.301 136.624 559.701 134.512C558.101 132.4 556.037 131.344 553.509 131.344C550.949 131.344 548.869 132.4 547.269 134.512C545.701 136.624 544.917 139.52 544.917 143.2C544.917 146.88 545.701 149.776 547.269 151.888C548.869 154 550.949 155.056 553.509 155.056ZM572.761 160V155.536C574.809 153.84 576.793 152.16 578.713 150.496C580.665 148.832 582.393 147.184 583.897 145.552C585.433 143.92 586.649 142.336 587.545 140.8C588.473 139.232 588.937 137.712 588.937 136.24C588.937 134.864 588.553 133.648 587.785 132.592C587.049 131.536 585.817 131.008 584.089 131.008C582.329 131.008 581.001 131.584 580.105 132.736C579.209 133.888 578.761 135.28 578.761 136.912H572.809C572.873 134.448 573.417 132.4 574.441 130.768C575.465 129.104 576.825 127.872 578.521 127.072C580.217 126.24 582.121 125.824 584.233 125.824C587.657 125.824 590.313 126.768 592.201 128.656C594.121 130.512 595.081 132.928 595.081 135.904C595.081 137.76 594.649 139.568 593.785 141.328C592.953 143.088 591.849 144.784 590.473 146.416C589.097 148.048 587.609 149.584 586.009 151.024C584.409 152.432 582.857 153.744 581.353 154.96H595.897V160H572.761ZM611.99 160.576C609.782 160.576 607.782 160.192 605.99 159.424C604.198 158.624 602.758 157.408 601.67 155.776C600.582 154.144 600.006 152.096 599.942 149.632H605.99C606.022 151.264 606.55 152.64 607.574 153.76C608.63 154.848 610.102 155.392 611.99 155.392C613.782 155.392 615.158 154.896 616.118 153.904C617.078 152.912 617.558 151.664 617.558 150.16C617.558 148.4 616.918 147.072 615.638 146.176C614.39 145.248 612.774 144.784 610.79 144.784H608.294V139.744H610.838C612.47 139.744 613.83 139.36 614.918 138.592C616.006 137.824 616.55 136.688 616.55 135.184C616.55 133.936 616.134 132.944 615.302 132.208C614.502 131.44 613.382 131.056 611.942 131.056C610.374 131.056 609.142 131.52 608.246 132.448C607.382 133.376 606.902 134.512 606.806 135.856H600.806C600.934 132.752 602.006 130.304 604.022 128.512C606.07 126.72 608.71 125.824 611.942 125.824C614.246 125.824 616.182 126.24 617.75 127.072C619.35 127.872 620.55 128.944 621.35 130.288C622.182 131.632 622.598 133.12 622.598 134.752C622.598 136.64 622.07 138.24 621.014 139.552C619.99 140.832 618.71 141.696 617.174 142.144C619.062 142.528 620.598 143.456 621.782 144.928C622.966 146.368 623.558 148.192 623.558 150.4C623.558 152.256 623.11 153.952 622.214 155.488C621.318 157.024 620.006 158.256 618.278 159.184C616.582 160.112 614.486 160.576 611.99 160.576Z" fill="white"/>
<path d="M44.4 101.956C35.9428 101.956 28.3314 100.188 21.5657 96.6514C14.8769 93.0379 9.61038 88.0405 5.76623 81.6592C1.92208 75.2779 0 68.0509 0 59.9782C0 51.9054 1.92208 44.6784 5.76623 38.2971C9.61038 31.9158 14.8769 26.9569 21.5657 23.4203C28.3314 19.8068 35.9428 18 44.4 18C51.7807 18 58.4311 19.307 64.3511 21.921C70.2711 24.5351 75.1916 28.3023 79.1127 33.2228L64.5818 46.3699C59.3537 40.0654 53.0109 36.9132 45.5532 36.9132C41.1709 36.9132 37.2498 37.8743 33.7901 39.7963C30.4073 41.7184 27.7548 44.4478 25.8327 47.9844C23.9875 51.4441 23.0649 55.4421 23.0649 59.9782C23.0649 64.5143 23.9875 68.5506 25.8327 72.0872C27.7548 75.547 30.4073 78.2379 33.7901 80.16C37.2498 82.082 41.1709 83.0431 45.5532 83.0431C53.0109 83.0431 59.3537 79.8909 64.5818 73.5865L79.1127 86.7335C75.1916 91.654 70.2711 95.4212 64.3511 98.0353C58.4311 100.649 51.7807 101.956 44.4 101.956Z" fill="white"/>
<path d="M105.801 37.7205H81.0065V19.6145H153.315V37.7205H128.636V100.342H105.801V37.7205Z" fill="white"/>
<path d="M184.656 37.2592V55.0192H220.292V72.6639H184.656V100.342H161.822V19.6145H225.135V37.2592H184.656Z" fill="white"/>
<g filter="url(#filter0_f_372_1044)">
<path fill-rule="evenodd" clip-rule="evenodd" d="M303.743 102.19L303.555 67.2522L287.365 94.4157H274.471L258.423 68.2369V102.19H232.524V18.0427H255.013L281.217 61.0769L306.782 18.0427H329.282L329.52 101.335L366.288 18.0427H391.697L428.588 101.346V18.0427H467.282C474.703 18.0427 481.285 19.2915 486.955 21.8805C492.629 24.3963 497.098 28.0939 500.254 32.9897C503.424 37.8321 504.961 43.4932 504.961 49.8636C504.961 56.003 503.502 61.4979 500.501 66.2518C498.089 70.1101 494.809 73.252 490.725 75.6908L508.913 102.19H478.619L464.31 81.2338H456.177V102.19H399.915L393.719 86.8671H363.931L357.734 102.19H303.743ZM362.15 84.2265H395.499L401.696 99.549H424.905L389.978 20.6833H368.009L333.195 99.549H355.954L362.15 84.2265ZM453.537 78.5933H465.704L480.013 99.549H503.898L486.886 74.7626C487.698 74.3689 488.478 73.9511 489.228 73.509C493.054 71.2523 496.066 68.3653 498.265 64.8481C500.969 60.5668 502.321 55.572 502.321 49.8636C502.321 43.9299 500.894 38.7849 498.039 34.4285C495.185 29.997 491.129 26.617 485.872 24.2886C480.614 21.8851 474.417 20.6833 467.282 20.6833H431.229V99.549H453.537V78.5933ZM281.245 66.2001L253.529 20.6833H235.165V99.549H255.783V58.8768L275.95 91.7751H285.864L306.144 57.7502L306.369 99.549H326.875L326.649 20.6833H308.285L281.245 66.2001ZM378.825 42.5404L368.685 67.7774H388.964L378.825 42.5404ZM378.825 49.6231L372.591 65.1368H385.058L378.825 49.6231ZM477.147 49.8636C477.147 46.786 476.202 44.722 474.561 43.2923C472.899 41.8452 470.174 40.8997 465.93 40.8997H456.177V58.7149H465.93C470.178 58.7149 472.914 57.8049 474.579 56.4187C476.209 54.9896 477.147 52.9296 477.147 49.8636ZM476.295 58.4262C473.967 60.379 470.512 61.3555 465.93 61.3555H453.537V38.2591H465.93C470.512 38.2591 473.967 39.2731 476.295 41.3011C478.623 43.329 479.788 46.1832 479.788 49.8636C479.788 53.544 478.623 56.3982 476.295 58.4262ZM567.58 99.549L545.047 70.932L536.71 79.8326V99.549H514.628V20.6833H536.71V53.4689L567.242 20.6833H591.803L559.581 55.6095L593.493 99.549H567.58ZM563.034 55.7613L596.706 99.3898V19.2634L563.034 55.7613ZM663.84 18.0427V40.5617H624.07V48.575H659.108V70.5306H624.07V79.6706H665.305V102.19H566.299L544.874 74.9799L539.351 80.8761V102.19H511.987V18.0427H539.351V46.7588L566.093 18.0427H663.84ZM621.429 82.3112V67.89H656.468V51.2156H621.429V37.9211H661.2V20.6833H599.347V99.549H662.664V82.3112H621.429ZM664.967 41.0123V18.0427H740.889V41.0123H716.779V102.19H689.19V41.0123H664.967ZM691.831 38.3718V99.549H714.138V38.3718H738.249V20.6833H667.608V38.3718H691.831Z" fill="#42D4BA"/>
<path fill-rule="evenodd" clip-rule="evenodd" d="M303.743 102.19L303.555 67.2522L287.365 94.4157H274.471L258.423 68.2369V102.19H232.524V18.0427H255.013L281.217 61.0769L306.782 18.0427H329.282L329.52 101.335L366.288 18.0427H391.697L428.588 101.346V18.0427H467.282C474.703 18.0427 481.285 19.2915 486.955 21.8805C492.629 24.3963 497.098 28.0939 500.254 32.9897C503.424 37.8321 504.961 43.4932 504.961 49.8636C504.961 56.003 503.502 61.4979 500.501 66.2518C498.089 70.1101 494.809 73.252 490.725 75.6908L508.913 102.19H478.619L464.31 81.2338H456.177V102.19H399.915L393.719 86.8671H363.931L357.734 102.19H303.743ZM362.15 84.2265H395.499L401.696 99.549H424.905L389.978 20.6833H368.009L333.195 99.549H355.954L362.15 84.2265ZM453.537 78.5933H465.704L480.013 99.549H503.898L486.886 74.7626C487.698 74.3689 488.478 73.9511 489.228 73.509C493.054 71.2523 496.066 68.3653 498.265 64.8481C500.969 60.5668 502.321 55.572 502.321 49.8636C502.321 43.9299 500.894 38.7849 498.039 34.4285C495.185 29.997 491.129 26.617 485.872 24.2886C480.614 21.8851 474.417 20.6833 467.282 20.6833H431.229V99.549H453.537V78.5933ZM281.245 66.2001L253.529 20.6833H235.165V99.549H255.783V58.8768L275.95 91.7751H285.864L306.144 57.7502L306.369 99.549H326.875L326.649 20.6833H308.285L281.245 66.2001ZM378.825 42.5404L368.685 67.7774H388.964L378.825 42.5404ZM378.825 49.6231L372.591 65.1368H385.058L378.825 49.6231ZM477.147 49.8636C477.147 46.786 476.202 44.722 474.561 43.2923C472.899 41.8452 470.174 40.8997 465.93 40.8997H456.177V58.7149H465.93C470.178 58.7149 472.914 57.8049 474.579 56.4187C476.209 54.9896 477.147 52.9296 477.147 49.8636ZM476.295 58.4262C473.967 60.379 470.512 61.3555 465.93 61.3555H453.537V38.2591H465.93C470.512 38.2591 473.967 39.2731 476.295 41.3011C478.623 43.329 479.788 46.1832 479.788 49.8636C479.788 53.544 478.623 56.3982 476.295 58.4262ZM567.58 99.549L545.047 70.932L536.71 79.8326V99.549H514.628V20.6833H536.71V53.4689L567.242 20.6833H591.803L559.581 55.6095L593.493 99.549H567.58ZM563.034 55.7613L596.706 99.3898V19.2634L563.034 55.7613ZM663.84 18.0427V40.5617H624.07V48.575H659.108V70.5306H624.07V79.6706H665.305V102.19H566.299L544.874 74.9799L539.351 80.8761V102.19H511.987V18.0427H539.351V46.7588L566.093 18.0427H663.84ZM621.429 82.3112V67.89H656.468V51.2156H621.429V37.9211H661.2V20.6833H599.347V99.549H662.664V82.3112H621.429ZM664.967 41.0123V18.0427H740.889V41.0123H716.779V102.19H689.19V41.0123H664.967ZM691.831 38.3718V99.549H714.138V38.3718H738.249V20.6833H667.608V38.3718H691.831Z" fill="#42D4BA"/>
<path fill-rule="evenodd" clip-rule="evenodd" d="M303.743 102.19L303.555 67.2522L287.365 94.4157H274.471L258.423 68.2369V102.19H232.524V18.0427H255.013L281.217 61.0769L306.782 18.0427H329.282L329.52 101.335L366.288 18.0427H391.697L428.588 101.346V18.0427H467.282C474.703 18.0427 481.285 19.2915 486.955 21.8805C492.629 24.3963 497.098 28.0939 500.254 32.9897C503.424 37.8321 504.961 43.4932 504.961 49.8636C504.961 56.003 503.502 61.4979 500.501 66.2518C498.089 70.1101 494.809 73.252 490.725 75.6908L508.913 102.19H478.619L464.31 81.2338H456.177V102.19H399.915L393.719 86.8671H363.931L357.734 102.19H303.743ZM362.15 84.2265H395.499L401.696 99.549H424.905L389.978 20.6833H368.009L333.195 99.549H355.954L362.15 84.2265ZM453.537 78.5933H465.704L480.013 99.549H503.898L486.886 74.7626C487.698 74.3689 488.478 73.9511 489.228 73.509C493.054 71.2523 496.066 68.3653 498.265 64.8481C500.969 60.5668 502.321 55.572 502.321 49.8636C502.321 43.9299 500.894 38.7849 498.039 34.4285C495.185 29.997 491.129 26.617 485.872 24.2886C480.614 21.8851 474.417 20.6833 467.282 20.6833H431.229V99.549H453.537V78.5933ZM281.245 66.2001L253.529 20.6833H235.165V99.549H255.783V58.8768L275.95 91.7751H285.864L306.144 57.7502L306.369 99.549H326.875L326.649 20.6833H308.285L281.245 66.2001ZM378.825 42.5404L368.685 67.7774H388.964L378.825 42.5404ZM378.825 49.6231L372.591 65.1368H385.058L378.825 49.6231ZM477.147 49.8636C477.147 46.786 476.202 44.722 474.561 43.2923C472.899 41.8452 470.174 40.8997 465.93 40.8997H456.177V58.7149H465.93C470.178 58.7149 472.914 57.8049 474.579 56.4187C476.209 54.9896 477.147 52.9296 477.147 49.8636ZM476.295 58.4262C473.967 60.379 470.512 61.3555 465.93 61.3555H453.537V38.2591H465.93C470.512 38.2591 473.967 39.2731 476.295 41.3011C478.623 43.329 479.788 46.1832 479.788 49.8636C479.788 53.544 478.623 56.3982 476.295 58.4262ZM567.58 99.549L545.047 70.932L536.71 79.8326V99.549H514.628V20.6833H536.71V53.4689L567.242 20.6833H591.803L559.581 55.6095L593.493 99.549H567.58ZM563.034 55.7613L596.706 99.3898V19.2634L563.034 55.7613ZM663.84 18.0427V40.5617H624.07V48.575H659.108V70.5306H624.07V79.6706H665.305V102.19H566.299L544.874 74.9799L539.351 80.8761V102.19H511.987V18.0427H539.351V46.7588L566.093 18.0427H663.84ZM621.429 82.3112V67.89H656.468V51.2156H621.429V37.9211H661.2V20.6833H599.347V99.549H662.664V82.3112H621.429ZM664.967 41.0123V18.0427H740.889V41.0123H716.779V102.19H689.19V41.0123H664.967ZM691.831 38.3718V99.549H714.138V38.3718H738.249V20.6833H667.608V38.3718H691.831Z" fill="#42D4BA"/>
</g>
<path fill-rule="evenodd" clip-rule="evenodd" d="M303.743 102.19L303.555 67.2522L287.365 94.4157H274.471L258.423 68.2369V102.19H232.524V18.0427H255.013L281.217 61.0769L306.782 18.0427H329.282L329.52 101.335L366.288 18.0427H391.697L428.588 101.346V18.0427H467.282C474.703 18.0427 481.285 19.2915 486.955 21.8805C492.629 24.3963 497.098 28.0939 500.254 32.9897C503.424 37.8321 504.961 43.4932 504.961 49.8636C504.961 56.003 503.502 61.4979 500.501 66.2518C498.089 70.1101 494.809 73.252 490.725 75.6908L508.913 102.19H478.619L464.31 81.2338H456.177V102.19H399.915L393.719 86.8671H363.931L357.734 102.19H303.743ZM362.15 84.2265H395.499L401.696 99.549H424.905L389.978 20.6833H368.009L333.195 99.549H355.954L362.15 84.2265ZM453.537 78.5933H465.704L480.013 99.549H503.898L486.886 74.7626C487.698 74.3689 488.478 73.9511 489.228 73.509C493.054 71.2523 496.066 68.3653 498.265 64.8481C500.969 60.5668 502.321 55.572 502.321 49.8636C502.321 43.9299 500.894 38.7849 498.039 34.4285C495.185 29.997 491.129 26.617 485.872 24.2886C480.614 21.8851 474.417 20.6833 467.282 20.6833H431.229V99.549H453.537V78.5933ZM281.245 66.2001L253.529 20.6833H235.165V99.549H255.783V58.8768L275.95 91.7751H285.864L306.144 57.7502L306.369 99.549H326.875L326.649 20.6833H308.285L281.245 66.2001ZM378.825 42.5404L368.685 67.7774H388.964L378.825 42.5404ZM378.825 49.6231L372.591 65.1368H385.058L378.825 49.6231ZM477.147 49.8636C477.147 46.786 476.202 44.722 474.561 43.2923C472.899 41.8452 470.174 40.8997 465.93 40.8997H456.177V58.7149H465.93C470.178 58.7149 472.914 57.8049 474.579 56.4187C476.209 54.9896 477.147 52.9296 477.147 49.8636ZM476.295 58.4262C473.967 60.379 470.512 61.3555 465.93 61.3555H453.537V38.2591H465.93C470.512 38.2591 473.967 39.2731 476.295 41.3011C478.623 43.329 479.788 46.1832 479.788 49.8636C479.788 53.544 478.623 56.3982 476.295 58.4262ZM567.58 99.549L545.047 70.932L536.71 79.8326V99.549H514.628V20.6833H536.71V53.4689L567.242 20.6833H591.803L559.581 55.6095L593.493 99.549H567.58ZM563.034 55.7613L596.706 99.3898V19.2634L563.034 55.7613ZM663.84 18.0427V40.5617H624.07V48.575H659.108V70.5306H624.07V79.6706H665.305V102.19H566.299L544.874 74.9799L539.351 80.8761V102.19H511.987V18.0427H539.351V46.7588L566.093 18.0427H663.84ZM621.429 82.3112V67.89H656.468V51.2156H621.429V37.9211H661.2V20.6833H599.347V99.549H662.664V82.3112H621.429ZM664.967 41.0123V18.0427H740.889V41.0123H716.779V102.19H689.19V41.0123H664.967ZM691.831 38.3718V99.549H714.138V38.3718H738.249V20.6833H667.608V38.3718H691.831Z" fill="#42D4BA"/>
<path fill-rule="evenodd" clip-rule="evenodd" d="M303.743 102.19L303.555 67.2522L287.365 94.4157H274.471L258.423 68.2369V102.19H232.524V18.0427H255.013L281.217 61.0769L306.782 18.0427H329.282L329.52 101.335L366.288 18.0427H391.697L428.588 101.346V18.0427H467.282C474.703 18.0427 481.285 19.2915 486.955 21.8805C492.629 24.3963 497.098 28.0939 500.254 32.9897C503.424 37.8321 504.961 43.4932 504.961 49.8636C504.961 56.003 503.502 61.4979 500.501 66.2518C498.089 70.1101 494.809 73.252 490.725 75.6908L508.913 102.19H478.619L464.31 81.2338H456.177V102.19H399.915L393.719 86.8671H363.931L357.734 102.19H303.743ZM362.15 84.2265H395.499L401.696 99.549H424.905L389.978 20.6833H368.009L333.195 99.549H355.954L362.15 84.2265ZM453.537 78.5933H465.704L480.013 99.549H503.898L486.886 74.7626C487.698 74.3689 488.478 73.9511 489.228 73.509C493.054 71.2523 496.066 68.3653 498.265 64.8481C500.969 60.5668 502.321 55.572 502.321 49.8636C502.321 43.9299 500.894 38.7849 498.039 34.4285C495.185 29.997 491.129 26.617 485.872 24.2886C480.614 21.8851 474.417 20.6833 467.282 20.6833H431.229V99.549H453.537V78.5933ZM281.245 66.2001L253.529 20.6833H235.165V99.549H255.783V58.8768L275.95 91.7751H285.864L306.144 57.7502L306.369 99.549H326.875L326.649 20.6833H308.285L281.245 66.2001ZM378.825 42.5404L368.685 67.7774H388.964L378.825 42.5404ZM378.825 49.6231L372.591 65.1368H385.058L378.825 49.6231ZM477.147 49.8636C477.147 46.786 476.202 44.722 474.561 43.2923C472.899 41.8452 470.174 40.8997 465.93 40.8997H456.177V58.7149H465.93C470.178 58.7149 472.914 57.8049 474.579 56.4187C476.209 54.9896 477.147 52.9296 477.147 49.8636ZM476.295 58.4262C473.967 60.379 470.512 61.3555 465.93 61.3555H453.537V38.2591H465.93C470.512 38.2591 473.967 39.2731 476.295 41.3011C478.623 43.329 479.788 46.1832 479.788 49.8636C479.788 53.544 478.623 56.3982 476.295 58.4262ZM567.58 99.549L545.047 70.932L536.71 79.8326V99.549H514.628V20.6833H536.71V53.4689L567.242 20.6833H591.803L559.581 55.6095L593.493 99.549H567.58ZM563.034 55.7613L596.706 99.3898V19.2634L563.034 55.7613ZM663.84 18.0427V40.5617H624.07V48.575H659.108V70.5306H624.07V79.6706H665.305V102.19H566.299L544.874 74.9799L539.351 80.8761V102.19H511.987V18.0427H539.351V46.7588L566.093 18.0427H663.84ZM621.429 82.3112V67.89H656.468V51.2156H621.429V37.9211H661.2V20.6833H599.347V99.549H662.664V82.3112H621.429ZM664.967 41.0123V18.0427H740.889V41.0123H716.779V102.19H689.19V41.0123H664.967ZM691.831 38.3718V99.549H714.138V38.3718H738.249V20.6833H667.608V38.3718H691.831Z" fill="#42D4BA"/>
<path fill-rule="evenodd" clip-rule="evenodd" d="M303.743 102.19L303.555 67.2522L287.365 94.4157H274.471L258.423 68.2369V102.19H232.524V18.0427H255.013L281.217 61.0769L306.782 18.0427H329.282L329.52 101.335L366.288 18.0427H391.697L428.588 101.346V18.0427H467.282C474.703 18.0427 481.285 19.2915 486.955 21.8805C492.629 24.3963 497.098 28.0939 500.254 32.9897C503.424 37.8321 504.961 43.4932 504.961 49.8636C504.961 56.003 503.502 61.4979 500.501 66.2518C498.089 70.1101 494.809 73.252 490.725 75.6908L508.913 102.19H478.619L464.31 81.2338H456.177V102.19H399.915L393.719 86.8671H363.931L357.734 102.19H303.743ZM362.15 84.2265H395.499L401.696 99.549H424.905L389.978 20.6833H368.009L333.195 99.549H355.954L362.15 84.2265ZM453.537 78.5933H465.704L480.013 99.549H503.898L486.886 74.7626C487.698 74.3689 488.478 73.9511 489.228 73.509C493.054 71.2523 496.066 68.3653 498.265 64.8481C500.969 60.5668 502.321 55.572 502.321 49.8636C502.321 43.9299 500.894 38.7849 498.039 34.4285C495.185 29.997 491.129 26.617 485.872 24.2886C480.614 21.8851 474.417 20.6833 467.282 20.6833H431.229V99.549H453.537V78.5933ZM281.245 66.2001L253.529 20.6833H235.165V99.549H255.783V58.8768L275.95 91.7751H285.864L306.144 57.7502L306.369 99.549H326.875L326.649 20.6833H308.285L281.245 66.2001ZM378.825 42.5404L368.685 67.7774H388.964L378.825 42.5404ZM378.825 49.6231L372.591 65.1368H385.058L378.825 49.6231ZM477.147 49.8636C477.147 46.786 476.202 44.722 474.561 43.2923C472.899 41.8452 470.174 40.8997 465.93 40.8997H456.177V58.7149H465.93C470.178 58.7149 472.914 57.8049 474.579 56.4187C476.209 54.9896 477.147 52.9296 477.147 49.8636ZM476.295 58.4262C473.967 60.379 470.512 61.3555 465.93 61.3555H453.537V38.2591H465.93C470.512 38.2591 473.967 39.2731 476.295 41.3011C478.623 43.329 479.788 46.1832 479.788 49.8636C479.788 53.544 478.623 56.3982 476.295 58.4262ZM567.58 99.549L545.047 70.932L536.71 79.8326V99.549H514.628V20.6833H536.71V53.4689L567.242 20.6833H591.803L559.581 55.6095L593.493 99.549H567.58ZM563.034 55.7613L596.706 99.3898V19.2634L563.034 55.7613ZM663.84 18.0427V40.5617H624.07V48.575H659.108V70.5306H624.07V79.6706H665.305V102.19H566.299L544.874 74.9799L539.351 80.8761V102.19H511.987V18.0427H539.351V46.7588L566.093 18.0427H663.84ZM621.429 82.3112V67.89H656.468V51.2156H621.429V37.9211H661.2V20.6833H599.347V99.549H662.664V82.3112H621.429ZM664.967 41.0123V18.0427H740.889V41.0123H716.779V102.19H689.19V41.0123H664.967ZM691.831 38.3718V99.549H714.138V38.3718H738.249V20.6833H667.608V38.3718H691.831Z" fill="#42D4BA"/>
<defs>
<filter id="filter0_f_372_1044" x="214.524" y="0.0427246" width="544.365" height="120.147" filterUnits="userSpaceOnUse" color-interpolation-filters="sRGB">
<feFlood flood-opacity="0" result="BackgroundImageFix"/>
<feBlend mode="normal" in="SourceGraphic" in2="BackgroundImageFix" result="shape"/>
<feGaussianBlur stdDeviation="9" result="effect1_foregroundBlur_372_1044"/>
</filter>
</defs>
</svg>
