<svg width="1900" height="686" viewBox="0 0 1900 686" fill="none" xmlns="http://www.w3.org/2000/svg">
<circle cx="151.615" cy="202.785" r="18.0888" fill="#2C2D2D"/>
<ellipse cx="339.167" cy="346.068" rx="14.2807" ry="14.7567" fill="#2C2D2D"/>
<circle cx="362.493" cy="506.012" r="17.6128" fill="#2C2D2D"/>
<ellipse cx="182.556" cy="667.383" rx="17.6128" ry="18.0888" fill="#2C2D2D"/>
<ellipse cx="111.629" cy="560.278" rx="18.0888" ry="17.6128" fill="#2C2D2D"/>
<path d="M380.16 185.637V150.441L359.16 128.767V8.56836L393.475 8.56839L427.707 8.56836V11.6477M427.707 239.524V11.6477M427.707 11.6477L401.755 37.4975V316.079" stroke="#2C2D2D" stroke-width="10"/>
<path d="M118.092 137.619V80.064L99.252 62.7377V8.56836L125.746 8.56839L152.566 8.56836V203.737" stroke="#2C2D2D" stroke-width="10"/>
<path d="M323.537 101.451V8.56843L304.872 8.56836L284.901 8.56838V110.022L338.872 164.436V278.845M338.872 342.228V278.845M338.872 278.845L312.584 306.151V379.301L362.969 429.729V502.679" stroke="#2C2D2D" stroke-width="10"/>
<path d="M911.494 127.413V89.9235M911.494 38.4748V89.9235M911.494 89.9235L830.423 14.2808M911.494 89.9235V161.912V348.763M911.494 403.801V348.763M911.494 348.763L853.997 398.77V457.853M853.997 543.295V457.853M853.997 457.853L911.494 500.118V575.109M911.494 636.918V575.109M911.494 575.109L944.668 524.207V464.216" stroke="#2C2D2D" stroke-width="10"/>
<path d="M819.84 465.55V398.976L883.737 343.532V212.434L859.376 189.899V225.49V64.1662L790.913 7.14029" stroke="#2C2D2D" stroke-width="10"/>
<path d="M826.614 393.194V231.181L789.484 196.517V-1.19209e-05" stroke="#2C2D2D" stroke-width="10"/>
<path d="M824.71 207.546L789.484 175.163V161.853M789.484 161.853L824.71 192.844M789.484 161.853V148.145M789.484 148.145L824.71 177.746M789.484 148.145V134.238L824.71 163.045" stroke="#2C2D2D" stroke-width="6"/>
<path d="M826.614 149.471L790.437 120.877V107.573M790.437 107.573L826.614 135.968M790.437 107.573V93.8716M790.437 93.8716L826.614 123.061M790.437 93.8716V79.9717L826.614 108.963" stroke="#2C2D2D" stroke-width="6"/>
<path d="M826.614 96.1565L790.437 67.1708V53.6844M790.437 53.6844L826.614 82.4688M790.437 53.6844V39.7955M790.437 39.7955L826.614 69.385M790.437 39.7955V25.7052L826.614 55.0935" stroke="#2C2D2D" stroke-width="6"/>
<path d="M763.779 339.88V306.271L808.525 264.111V316.215V234.48L763.779 190.331V110.784L788.638 84.732" stroke="#2C2D2D" stroke-width="10"/>
<path d="M559.089 209.686V40.7548M559.089 3.80817V8.88101V40.7548M559.089 40.7548L533.92 21.8298V157.891V7.44032H514.133H487.935H457.221L457.221 36.7706M457.221 96.3348V36.7706M457.221 36.7706L497.849 77.0113V264.668" stroke="#2C2D2D" stroke-width="10"/>
<path d="M735.48 173.272V105.196L759.019 79.3187V35.9251H698.376V129.878L664.264 101.414V68.7689M664.264 68.7689L633.144 97.2335V140.03M664.264 68.7689V6.6642C664.264 6.6642 638.187 6.6642 622.172 6.6642V32.9393L579.083 74.7405V165.111" stroke="#2C2D2D" stroke-width="10"/>
<path d="M194.777 45.4772L175.416 10.4724H251.58V60.5959M251.58 121.866V60.5959M251.58 60.5959L198.564 113.312V281.805" stroke="#2C2D2D" stroke-width="10"/>
<path d="M41.37 328.61V160.02L23.185 142.982M23.185 142.982L5 125.943V8.56831L41.37 8.56858H77.74V181.144M23.185 142.982V257.666M77.74 249.695V181.144M77.74 181.144L111.129 215.619V325.62M111.129 569.338V325.62M111.129 325.62L146.108 357.106V398.556L182.08 430.64V667.383" stroke="#2C2D2D" stroke-width="10"/>
<path d="M708.561 60.9309V37.1298H718.22M718.22 37.1298V60.9309M718.22 37.1298H727.289M727.289 37.1298V60.9309M727.289 37.1298H737.934M737.934 37.1298V60.9309M737.934 37.1298H747.594V60.9309" stroke="#2C2D2D" stroke-width="6"/>
<path d="M332.788 177.874L279.188 126.622L335.359 181.265V200.21M335.359 200.21L279.188 146.764M335.359 200.21V217.161M335.359 217.161L279.188 166.507M335.359 217.161V236.107L279.188 187.247" stroke="#2C2D2D" stroke-width="10"/>
<circle cx="117.341" cy="137.094" r="18.0888" fill="#2C2D2D"/>
<ellipse cx="77.3554" cy="248.008" rx="18.0888" ry="17.6128" fill="#2C2D2D"/>
<ellipse cx="41.1777" cy="327.979" rx="18.0888" ry="17.6128" fill="#2C2D2D"/>
<circle cx="16.1848" cy="16.1848" r="16.1848" transform="matrix(1 0 0 -1 895.161 638.822)" fill="#2C2D2D"/>
<circle cx="17.6128" cy="17.6128" r="17.6128" transform="matrix(1 0 0 -1 837.087 557.898)" fill="#2C2D2D"/>
<ellipse cx="199.217" cy="282.281" rx="15.2327" ry="15.7087" fill="#2C2D2D"/>
<ellipse cx="22.6126" cy="255.148" rx="10.9485" ry="10.4725" fill="#2C2D2D"/>
<circle cx="252.056" cy="123.29" r="14.7567" fill="#2C2D2D"/>
<ellipse cx="11.9006" cy="11.4245" rx="11.9006" ry="11.4245" transform="matrix(1 0 0 -1 797.101 331.312)" fill="#2C2D2D"/>
<ellipse cx="427.708" cy="244.199" rx="18.0888" ry="17.6128" fill="#2C2D2D"/>
<circle cx="380.582" cy="194.693" r="13.8046" fill="#2C2D2D"/>
<ellipse cx="322.506" cy="104.725" rx="17.6128" ry="18.0888" fill="#2C2D2D"/>
<circle cx="402.478" cy="324.171" r="17.6128" fill="#2C2D2D"/>
<circle cx="195.409" cy="44.7461" r="18.0888" fill="#2C2D2D"/>
<circle cx="11.9006" cy="11.9006" r="11.9006" transform="matrix(1 0 0 -1 899.922 408.427)" fill="#2C2D2D"/>
<ellipse cx="18.0888" cy="17.6128" rx="18.0888" ry="17.6128" transform="matrix(1 0 0 -1 927.531 483.639)" fill="#2C2D2D"/>
<ellipse cx="16.1848" cy="15.7087" rx="16.1848" ry="15.7087" transform="matrix(1 0 0 -1 842.799 250.388)" fill="#2C2D2D"/>
<circle cx="10.9485" cy="10.9485" r="10.9485" transform="matrix(1 0 0 -1 567.658 177.08)" fill="#2C2D2D"/>
<ellipse cx="18.0888" cy="17.6128" rx="18.0888" ry="17.6128" transform="matrix(1 0 0 -1 615.261 167.56)" fill="#2C2D2D"/>
<ellipse cx="17.6128" cy="18.0888" rx="17.6128" ry="18.0888" transform="matrix(1 0 0 -1 679.048 158.991)" fill="#2C2D2D"/>
<ellipse cx="17.6128" cy="18.0888" rx="17.6128" ry="18.0888" transform="matrix(1 0 0 -1 717.129 200.881)" fill="#2C2D2D"/>
<ellipse cx="17.6128" cy="18.0888" rx="17.6128" ry="18.0888" transform="matrix(1 0 0 -1 439.132 122.814)" fill="#2C2D2D"/>
<ellipse cx="17.6128" cy="18.0888" rx="17.6128" ry="18.0888" transform="matrix(1 0 0 -1 481.022 271.333)" fill="#2C2D2D"/>
<circle cx="17.6128" cy="17.6128" r="17.6128" transform="matrix(1 0 0 -1 542.905 227.539)" fill="#2C2D2D"/>
<ellipse cx="13.3286" cy="13.8046" rx="13.3286" ry="13.8046" transform="matrix(1 0 0 -1 521.008 170.416)" fill="#2C2D2D"/>
<circle cx="18.0888" cy="18.0888" r="18.0888" transform="matrix(1 0 0 -1 745.69 358.921)" fill="#2C2D2D"/>
<circle cx="1078.91" cy="202.785" r="18.0888" fill="#2C2D2D"/>
<ellipse cx="1266.46" cy="346.068" rx="14.2807" ry="14.7567" fill="#2C2D2D"/>
<circle cx="1289.78" cy="506.012" r="17.6128" fill="#2C2D2D"/>
<ellipse cx="1109.85" cy="667.383" rx="17.6128" ry="18.0888" fill="#2C2D2D"/>
<circle cx="819.95" cy="465.55" r="18.0888" fill="#2C2D2D"/>
<circle cx="1747.24" cy="466.502" r="18.0888" fill="#2C2D2D"/>
<ellipse cx="1038.92" cy="560.278" rx="18.0888" ry="17.6128" fill="#2C2D2D"/>
<path d="M1307.45 185.637V150.441L1286.45 128.767V8.56836L1320.77 8.56839L1355 8.56836V11.6477M1355 239.524V11.6477M1355 11.6477L1329.05 37.4975V316.079" stroke="#2C2D2D" stroke-width="10"/>
<path d="M1045.38 137.619V80.064L1026.54 62.7377V8.56836L1053.04 8.56839L1079.86 8.56836V203.737" stroke="#2C2D2D" stroke-width="10"/>
<path d="M1250.83 101.451V8.56843L1232.16 8.56836L1212.19 8.56838V110.022L1266.16 164.436V278.845M1266.16 342.228V278.845M1266.16 278.845L1239.87 306.151V379.301L1290.26 429.729V502.679" stroke="#2C2D2D" stroke-width="10"/>
<path d="M1838.79 127.413V89.9235M1838.79 38.4748V89.9235M1838.79 89.9235L1757.71 14.2808M1838.79 89.9235V161.912V348.763M1838.79 403.801V348.763M1838.79 348.763L1781.29 398.77V457.853M1781.29 543.295V457.853M1781.29 457.853L1838.79 500.118V575.109M1838.79 636.918V575.109M1838.79 575.109L1871.96 524.207V464.216" stroke="#2C2D2D" stroke-width="10"/>
<path d="M1747.13 465.55V398.976L1811.03 343.532V212.434L1786.67 189.899V225.49V64.1662L1717.73 6.66427" stroke="#2C2D2D" stroke-width="10"/>
<path d="M1753.91 393.194V231.181L1716.78 196.517V-1.19209e-05" stroke="#2C2D2D" stroke-width="10"/>
<path d="M1752 207.546L1716.78 175.163V161.853M1716.78 161.853L1752 192.844M1716.78 161.853V148.145M1716.78 148.145L1752 177.746M1716.78 148.145V134.238L1752 163.045" stroke="#2C2D2D" stroke-width="6"/>
<path d="M1753.91 149.471L1717.73 120.877V107.573M1717.73 107.573L1753.91 135.968M1717.73 107.573V93.8716M1717.73 93.8716L1753.91 123.061M1717.73 93.8716V79.9717L1753.91 108.963" stroke="#2C2D2D" stroke-width="6"/>
<path d="M1753.91 96.1565L1717.73 67.1708V53.6844M1717.73 53.6844L1753.91 82.4688M1717.73 53.6844V39.7955M1717.73 39.7955L1753.91 69.385M1717.73 39.7955V25.7052L1753.91 55.0935" stroke="#2C2D2D" stroke-width="6"/>
<path d="M1691.07 339.88V306.271L1735.82 264.111V316.215V234.48L1691.07 190.331V110.784L1715.93 84.732" stroke="#2C2D2D" stroke-width="10"/>
<path d="M1486.38 209.686V40.7548M1486.38 3.80817V8.88101V40.7548M1486.38 40.7548L1461.21 21.8298V157.891V7.44032H1441.43H1415.23H1384.51L1384.51 36.7706M1384.51 96.3348V36.7706M1384.51 36.7706L1425.14 77.0113V264.668" stroke="#2C2D2D" stroke-width="10"/>
<path d="M1662.77 173.272V105.196L1686.31 79.3187V35.9251H1625.67V129.878L1591.55 101.414V68.7689M1591.55 68.7689L1560.43 97.2335V140.03M1591.55 68.7689V6.6642C1591.55 6.6642 1565.48 6.6642 1549.46 6.6642V32.9393L1506.37 74.7405V165.111" stroke="#2C2D2D" stroke-width="10"/>
<path d="M1122.07 45.4772L1102.71 10.4724H1178.87V60.5959M1178.87 121.866V60.5959M1178.87 60.5959L1125.85 113.312V281.805" stroke="#2C2D2D" stroke-width="10"/>
<path d="M968.661 328.61V160.02L950.476 142.982M950.476 142.982L932.291 125.943V8.56831L968.661 8.56858H1005.03V181.144M950.476 142.982V257.666M1005.03 249.695V181.144M1005.03 181.144L1038.42 215.619V325.62M1038.42 569.338V325.62M1038.42 325.62L1073.4 357.106V398.556L1109.37 430.64V667.383" stroke="#2C2D2D" stroke-width="10"/>
<path d="M1635.85 60.9309V37.1298H1645.51M1645.51 37.1298V60.9309M1645.51 37.1298H1654.58M1654.58 37.1298V60.9309M1654.58 37.1298H1665.23M1665.23 37.1298V60.9309M1665.23 37.1298H1674.89V60.9309" stroke="#2C2D2D" stroke-width="6"/>
<path d="M1260.08 177.874L1206.48 126.622L1262.65 181.265V200.21M1262.65 200.21L1206.48 146.764M1262.65 200.21V217.161M1262.65 217.161L1206.48 166.507M1262.65 217.161V236.107L1206.48 187.247" stroke="#2C2D2D" stroke-width="10"/>
<circle cx="1044.63" cy="137.094" r="18.0888" fill="#2C2D2D"/>
<ellipse cx="1004.65" cy="248.008" rx="18.0888" ry="17.6128" fill="#2C2D2D"/>
<ellipse cx="968.469" cy="327.979" rx="18.0888" ry="17.6128" fill="#2C2D2D"/>
<circle cx="16.1848" cy="16.1848" r="16.1848" transform="matrix(1 0 0 -1 1822.45 638.822)" fill="#2C2D2D"/>
<circle cx="17.6128" cy="17.6128" r="17.6128" transform="matrix(1 0 0 -1 1764.38 557.898)" fill="#2C2D2D"/>
<ellipse cx="1126.51" cy="282.281" rx="15.2327" ry="15.7087" fill="#2C2D2D"/>
<ellipse cx="949.904" cy="255.148" rx="10.9485" ry="10.4725" fill="#2C2D2D"/>
<circle cx="1179.35" cy="123.29" r="14.7567" fill="#2C2D2D"/>
<circle cx="10.9485" cy="10.9485" r="10.9485" transform="matrix(1 0 0 -1 1724.39 330.359)" fill="#2C2D2D"/>
<ellipse cx="1355" cy="244.199" rx="18.0888" ry="17.6128" fill="#2C2D2D"/>
<circle cx="1307.87" cy="194.693" r="13.8046" fill="#2C2D2D"/>
<ellipse cx="1249.8" cy="104.725" rx="17.6128" ry="18.0888" fill="#2C2D2D"/>
<circle cx="1329.77" cy="324.171" r="17.6128" fill="#2C2D2D"/>
<circle cx="1122.7" cy="44.7461" r="18.0888" fill="#2C2D2D"/>
<circle cx="11.9006" cy="11.9006" r="11.9006" transform="matrix(1 0 0 -1 1827.21 408.427)" fill="#2C2D2D"/>
<ellipse cx="18.0888" cy="17.6128" rx="18.0888" ry="17.6128" transform="matrix(1 0 0 -1 1854.82 483.639)" fill="#2C2D2D"/>
<ellipse cx="16.1848" cy="15.7087" rx="16.1848" ry="15.7087" transform="matrix(1 0 0 -1 1770.09 250.388)" fill="#2C2D2D"/>
<circle cx="10.9485" cy="10.9485" r="10.9485" transform="matrix(1 0 0 -1 1494.95 177.08)" fill="#2C2D2D"/>
<ellipse cx="18.0888" cy="17.6128" rx="18.0888" ry="17.6128" transform="matrix(1 0 0 -1 1542.55 167.56)" fill="#2C2D2D"/>
<ellipse cx="17.6128" cy="18.0888" rx="17.6128" ry="18.0888" transform="matrix(1 0 0 -1 1606.34 158.991)" fill="#2C2D2D"/>
<ellipse cx="17.6128" cy="18.0888" rx="17.6128" ry="18.0888" transform="matrix(1 0 0 -1 1644.42 200.881)" fill="#2C2D2D"/>
<ellipse cx="17.6128" cy="18.0888" rx="17.6128" ry="18.0888" transform="matrix(1 0 0 -1 1366.42 122.814)" fill="#2C2D2D"/>
<ellipse cx="17.6128" cy="18.0888" rx="17.6128" ry="18.0888" transform="matrix(1 0 0 -1 1408.31 271.333)" fill="#2C2D2D"/>
<circle cx="17.6128" cy="17.6128" r="17.6128" transform="matrix(1 0 0 -1 1470.2 227.539)" fill="#2C2D2D"/>
<ellipse cx="13.3286" cy="13.8046" rx="13.3286" ry="13.8046" transform="matrix(1 0 0 -1 1448.3 170.416)" fill="#2C2D2D"/>
<circle cx="18.0888" cy="18.0888" r="18.0888" transform="matrix(1 0 0 -1 1672.98 358.921)" fill="#2C2D2D"/>
</svg>
