<svg width="1291" height="137" viewBox="0 0 1291 137" fill="none" xmlns="http://www.w3.org/2000/svg">
<path d="M33.7184 18.6201V51.1758H26.2306V24.7592H11.534V51.1758H4.0462V18.6201H33.7184ZM59.1309 25.7824C61.4563 25.7824 63.5647 26.325 65.456 27.4102C67.3783 28.4643 68.8821 29.9681 69.9673 31.9214C71.0525 33.8438 71.5951 36.0917 71.5951 38.6651C71.5951 41.2386 71.0525 43.5019 69.9673 45.4553C68.8821 47.3776 67.3783 48.8814 65.456 49.9666C63.5647 51.0208 61.4563 51.5478 59.1309 51.5478C55.9373 51.5478 53.4259 50.5402 51.5966 48.5248V60.1983H44.3413V26.1544H51.271V29.0379C53.0693 26.8676 55.6893 25.7824 59.1309 25.7824ZM57.8752 45.5948C59.7355 45.5948 61.2548 44.9747 62.433 43.7345C63.6422 42.4633 64.2468 40.7735 64.2468 38.6651C64.2468 36.5567 63.6422 34.8825 62.433 33.6422C61.2548 32.371 59.7355 31.7354 57.8752 31.7354C56.0149 31.7354 54.4801 32.371 53.2709 33.6422C52.0927 34.8825 51.5036 36.5567 51.5036 38.6651C51.5036 40.7735 52.0927 42.4633 53.2709 43.7345C54.4801 44.9747 56.0149 45.5948 57.8752 45.5948ZM79.8374 26.1544H87.0461V41.037L99.2313 26.1544H105.882V51.1758H98.6732V36.2932L86.5346 51.1758H79.8374V26.1544ZM135.128 38.107C138.074 39.0992 139.547 41.0835 139.547 44.06C139.547 46.3234 138.694 48.0752 136.989 49.3155C135.283 50.5557 132.741 51.1758 129.361 51.1758H116.014V26.1544H128.803C131.935 26.1544 134.384 26.728 136.152 27.8752C137.919 28.9914 138.803 30.5727 138.803 32.6191C138.803 33.8593 138.477 34.96 137.826 35.9211C137.206 36.8513 136.307 37.5799 135.128 38.107ZM122.664 36.4327H128.152C130.695 36.4327 131.966 35.5336 131.966 33.7353C131.966 31.9679 130.695 31.0843 128.152 31.0843H122.664V36.4327ZM128.757 46.2459C131.423 46.2459 132.757 45.3313 132.757 43.5019C132.757 42.5408 132.446 41.8432 131.826 41.4091C131.206 40.944 130.23 40.7115 128.896 40.7115H122.664V46.2459H128.757ZM172.426 38.7581C172.426 38.8511 172.379 39.5023 172.286 40.7115H153.358C153.699 42.2617 154.505 43.4864 155.776 44.3856C157.047 45.2848 158.629 45.7343 160.52 45.7343C161.822 45.7343 162.969 45.5483 163.962 45.1762C164.985 44.7732 165.93 44.1531 166.799 43.3159L170.659 47.5016C168.302 50.1991 164.861 51.5478 160.334 51.5478C157.512 51.5478 155.016 51.0053 152.846 49.9201C150.676 48.8039 149.001 47.2691 147.823 45.3158C146.645 43.3624 146.056 41.1455 146.056 38.6651C146.056 36.2157 146.63 34.0143 147.777 32.061C148.955 30.0766 150.552 28.5419 152.567 27.4567C154.613 26.3405 156.892 25.7824 159.404 25.7824C161.853 25.7824 164.07 26.3095 166.054 27.3636C168.039 28.4178 169.589 29.9371 170.705 31.9214C171.852 33.8748 172.426 36.1537 172.426 38.7581ZM159.45 31.2703C157.807 31.2703 156.427 31.7354 155.311 32.6656C154.195 33.5957 153.513 34.8669 153.265 36.4792H165.589C165.341 34.898 164.659 33.6422 163.543 32.7121C162.427 31.7509 161.063 31.2703 159.45 31.2703ZM201.303 32.1075H192.839V51.1758H185.63V32.1075H177.166V26.1544H201.303V32.1075ZM207.258 18.6201H215.909L214.467 39.8743H208.7L207.258 18.6201ZM211.584 51.5478C210.313 51.5478 209.243 51.1448 208.375 50.3386C207.538 49.5015 207.119 48.4938 207.119 47.3156C207.119 46.1374 207.538 45.1607 208.375 44.3856C209.212 43.5795 210.282 43.1764 211.584 43.1764C212.886 43.1764 213.956 43.5795 214.793 44.3856C215.63 45.1607 216.049 46.1374 216.049 47.3156C216.049 48.4938 215.614 49.5015 214.746 50.3386C213.909 51.1448 212.855 51.5478 211.584 51.5478ZM271.442 51.1758L271.395 31.6889L261.814 47.7342H258.466L248.885 32.061V51.1758H241.816V18.6201H248.048L260.233 38.8511L272.232 18.6201H278.464L278.511 51.1758H271.442ZM302.359 34.1538C305.615 34.1848 308.08 34.9135 309.754 36.3397C311.428 37.766 312.265 39.8123 312.265 42.4788C312.265 45.2693 311.32 47.4241 309.428 48.9434C307.537 50.4627 304.855 51.2223 301.382 51.2223L289.197 51.1758V26.1544H296.406V34.1538H302.359ZM314.963 26.1544H322.172V51.1758H314.963V26.1544ZM300.731 46.0599C302.127 46.0909 303.196 45.7963 303.94 45.1762C304.685 44.5561 305.057 43.626 305.057 42.3858C305.057 41.1765 304.685 40.2929 303.94 39.7348C303.227 39.1767 302.158 38.8821 300.731 38.8511L296.406 38.8046V46.0599H300.731ZM345.163 35.8281H391.671V40.3394H345.163V35.8281ZM442.689 45.2227V56.5707H435.946V51.1758H418.366V56.5707H411.622V45.2227H412.645C414.196 45.1917 415.265 44.2771 415.854 42.4788C416.443 40.6805 416.815 38.1225 416.97 34.8049L417.296 26.1544H439.108V45.2227H442.689ZM423.528 35.3165C423.435 37.859 423.234 39.9363 422.924 41.5486C422.644 43.1609 422.102 44.3856 421.296 45.2227H431.853V32.1075H423.668L423.528 35.3165ZM469.527 38.107C472.473 39.0992 473.946 41.0835 473.946 44.06C473.946 46.3234 473.093 48.0752 471.388 49.3155C469.682 50.5557 467.14 51.1758 463.76 51.1758H450.413V26.1544H463.202C466.334 26.1544 468.783 26.728 470.551 27.8752C472.318 28.9914 473.202 30.5727 473.202 32.6191C473.202 33.8593 472.876 34.96 472.225 35.9211C471.605 36.8513 470.706 37.5799 469.527 38.107ZM457.063 36.4327H462.551C465.094 36.4327 466.365 35.5336 466.365 33.7353C466.365 31.9679 465.094 31.0843 462.551 31.0843H457.063V36.4327ZM463.156 46.2459C465.822 46.2459 467.155 45.3313 467.155 43.5019C467.155 42.5408 466.845 41.8432 466.225 41.4091C465.605 40.944 464.629 40.7115 463.295 40.7115H457.063V46.2459H463.156ZM482.501 26.1544H489.71V41.037L501.895 26.1544H508.546V51.1758H501.337V36.2932L489.198 51.1758H482.501V26.1544ZM543.466 41.6881H539.978V51.1758H532.816V41.6881H529.328L524.026 51.1758H515.468L523.328 38.2465L516.026 26.1544H523.7L529.235 35.8746H532.816V26.1544H539.978V35.8746H543.513L549.094 26.1544H556.768L549.466 38.2465L557.372 51.1758H548.768L543.466 41.6881ZM587.852 38.7581C587.852 38.8511 587.806 39.5023 587.713 40.7115H568.784C569.125 42.2617 569.931 43.4864 571.202 44.3856C572.474 45.2848 574.055 45.7343 575.946 45.7343C577.248 45.7343 578.396 45.5483 579.388 45.1762C580.411 44.7732 581.357 44.1531 582.225 43.3159L586.085 47.5016C583.729 50.1991 580.287 51.5478 575.76 51.5478C572.939 51.5478 570.443 51.0053 568.272 49.9201C566.102 48.8039 564.428 47.2691 563.25 45.3158C562.071 43.3624 561.482 41.1455 561.482 38.6651C561.482 36.2157 562.056 34.0143 563.203 32.061C564.381 30.0766 565.978 28.5419 567.993 27.4567C570.04 26.3405 572.319 25.7824 574.83 25.7824C577.279 25.7824 579.496 26.3095 581.481 27.3636C583.465 28.4178 585.015 29.9371 586.131 31.9214C587.279 33.8748 587.852 36.1537 587.852 38.7581ZM574.877 31.2703C573.233 31.2703 571.854 31.7354 570.737 32.6656C569.621 33.5957 568.939 34.8669 568.691 36.4792H581.016C580.768 34.898 580.085 33.6422 578.969 32.7121C577.853 31.7509 576.489 31.2703 574.877 31.2703ZM596.571 26.1544H603.78V35.9211H614.663V26.1544H621.918V51.1758H614.663V41.8277H603.78V51.1758H596.571V26.1544ZM632.021 26.1544H639.229V41.037L651.414 26.1544H658.065V51.1758H650.856V36.2932L638.718 51.1758H632.021V26.1544ZM692.521 38.7581C692.521 38.8511 692.474 39.5023 692.381 40.7115H673.452C673.793 42.2617 674.599 43.4864 675.871 44.3856C677.142 45.2848 678.723 45.7343 680.614 45.7343C681.917 45.7343 683.064 45.5483 684.056 45.1762C685.079 44.7732 686.025 44.1531 686.893 43.3159L690.753 47.5016C688.397 50.1991 684.955 51.5478 680.428 51.5478C677.607 51.5478 675.111 51.0053 672.941 49.9201C670.77 48.8039 669.096 47.2691 667.918 45.3158C666.74 43.3624 666.15 41.1455 666.15 38.6651C666.15 36.2157 666.724 34.0143 667.871 32.061C669.049 30.0766 670.646 28.5419 672.662 27.4567C674.708 26.3405 676.987 25.7824 679.498 25.7824C681.948 25.7824 684.165 26.3095 686.149 27.3636C688.133 28.4178 689.684 29.9371 690.8 31.9214C691.947 33.8748 692.521 36.1537 692.521 38.7581ZM679.545 31.2703C677.901 31.2703 676.522 31.7354 675.406 32.6656C674.289 33.5957 673.607 34.8669 673.359 36.4792H685.684C685.436 34.898 684.754 33.6422 683.637 32.7121C682.521 31.7509 681.157 31.2703 679.545 31.2703ZM818.19 42.5253C819.492 42.5253 820.562 42.9439 821.399 43.781C822.236 44.5871 822.655 45.6568 822.655 46.9901C822.655 47.6102 822.577 48.2303 822.422 48.8504C822.267 49.4705 821.926 50.4006 821.399 51.6409L818.748 58.338H814.144L816.19 50.9432C815.415 50.6332 814.795 50.1371 814.33 49.455C813.896 48.7419 813.679 47.9202 813.679 46.9901C813.679 45.6568 814.097 44.5871 814.935 43.781C815.803 42.9439 816.888 42.5253 818.19 42.5253ZM872.079 26.1544V51.1758H864.824V32.1075H854.406V51.1758H847.197V26.1544H872.079ZM893.912 51.5478C891.277 51.5478 888.905 51.0053 886.797 49.9201C884.719 48.8039 883.092 47.2691 881.913 45.3158C880.735 43.3624 880.146 41.1455 880.146 38.6651C880.146 36.1847 880.735 33.9678 881.913 32.0145C883.092 30.0611 884.719 28.5419 886.797 27.4567C888.905 26.3405 891.277 25.7824 893.912 25.7824C896.548 25.7824 898.904 26.3405 900.982 27.4567C903.059 28.5419 904.687 30.0611 905.865 32.0145C907.043 33.9678 907.632 36.1847 907.632 38.6651C907.632 41.1455 907.043 43.3624 905.865 45.3158C904.687 47.2691 903.059 48.8039 900.982 49.9201C898.904 51.0053 896.548 51.5478 893.912 51.5478ZM893.912 45.5948C895.773 45.5948 897.292 44.9747 898.47 43.7345C899.679 42.4633 900.284 40.7735 900.284 38.6651C900.284 36.5567 899.679 34.8825 898.47 33.6422C897.292 32.371 895.773 31.7354 893.912 31.7354C892.052 31.7354 890.517 32.371 889.308 33.6422C888.099 34.8825 887.494 36.5567 887.494 38.6651C887.494 40.7735 888.099 42.4633 889.308 43.7345C890.517 44.9747 892.052 45.5948 893.912 45.5948ZM926.802 41.6881H923.035V51.1758H915.78V26.1544H923.035V35.8746H926.942L933.732 26.1544H941.452L932.709 38.1535L942.057 51.1758H933.499L926.802 41.6881ZM972.437 26.1544L961.135 52.7105C959.988 55.594 958.562 57.6249 956.857 58.8031C955.182 59.9813 953.151 60.5704 950.764 60.5704C949.462 60.5704 948.175 60.3689 946.904 59.9658C945.633 59.5627 944.594 59.0046 943.788 58.2915L946.439 53.1291C946.997 53.6252 947.632 54.0128 948.346 54.2918C949.09 54.5709 949.818 54.7104 950.531 54.7104C951.524 54.7104 952.33 54.4624 952.95 53.9663C953.57 53.5012 954.128 52.7105 954.624 51.5944L954.717 51.3618L943.881 26.1544H951.369L958.391 43.1299L965.461 26.1544H972.437ZM1003.98 26.1544V51.1758H996.721V32.1075H986.303V51.1758H979.094V26.1544H1003.98ZM1023.81 25.7824C1027.69 25.7824 1030.66 26.7125 1032.74 28.5729C1034.82 30.4022 1035.86 33.1772 1035.86 36.8978V51.1758H1029.07V48.0597C1027.7 50.3851 1025.16 51.5478 1021.44 51.5478C1019.52 51.5478 1017.84 51.2223 1016.42 50.5712C1015.02 49.9201 1013.95 49.0209 1013.21 47.8737C1012.46 46.7265 1012.09 45.4243 1012.09 43.967C1012.09 41.6416 1012.96 39.8123 1014.69 38.4791C1016.46 37.1458 1019.17 36.4792 1022.83 36.4792H1028.6C1028.6 34.898 1028.12 33.6887 1027.16 32.8516C1026.2 31.9834 1024.76 31.5494 1022.83 31.5494C1021.5 31.5494 1020.18 31.7664 1018.88 32.2005C1017.61 32.6036 1016.52 33.1617 1015.62 33.8748L1013.02 28.8054C1014.38 27.8442 1016.01 27.1001 1017.9 26.573C1019.83 26.0459 1021.79 25.7824 1023.81 25.7824ZM1023.25 46.6645C1024.49 46.6645 1025.59 46.3854 1026.55 45.8274C1027.51 45.2383 1028.2 44.3856 1028.6 43.2694V40.7115H1023.62C1020.65 40.7115 1019.16 41.6881 1019.16 43.6415C1019.16 44.5716 1019.52 45.3158 1020.23 45.8739C1020.97 46.401 1021.98 46.6645 1023.25 46.6645ZM1045.32 26.1544H1052.52V41.037L1064.71 26.1544H1071.36V51.1758H1064.15V36.2932L1052.01 51.1758H1045.32V26.1544ZM1057.87 23.457C1052.42 23.457 1049.67 21.0541 1049.64 16.2482H1054.38C1054.42 17.3334 1054.71 18.1861 1055.27 18.8062C1055.86 19.3953 1056.71 19.6898 1057.83 19.6898C1058.94 19.6898 1059.79 19.3953 1060.38 18.8062C1061 18.1861 1061.31 17.3334 1061.31 16.2482H1066.15C1066.12 21.0541 1063.36 23.457 1057.87 23.457ZM38.0436 105.572C38.0436 109.448 36.7414 112.517 34.1369 114.781C31.5635 117.013 27.8738 118.3 23.068 118.641V127.198H16.4174V118.641C11.6115 118.3 7.90637 117.029 5.30192 114.827C2.72847 112.595 1.44175 109.51 1.44175 105.572C1.44175 101.696 2.71297 98.6889 5.25541 96.5495C7.82886 94.4102 11.5495 93.1699 16.4174 92.8289V83.6668H23.068V92.8289C27.8738 93.1699 31.5635 94.4257 34.1369 96.596C36.7414 98.7664 38.0436 101.758 38.0436 105.572ZM8.46447 105.572C8.46447 107.804 9.10008 109.525 10.3713 110.734C11.6425 111.944 13.6579 112.703 16.4174 113.013V98.4564C13.6579 98.7354 11.6425 99.464 10.3713 100.642C9.10008 101.789 8.46447 103.433 8.46447 105.572ZM23.068 113.013C25.8275 112.703 27.8428 111.944 29.1141 110.734C30.4163 109.525 31.0674 107.804 31.0674 105.572C31.0674 103.433 30.4163 101.789 29.1141 100.642C27.8428 99.464 25.8275 98.7354 23.068 98.4564V113.013ZM46.1137 93.1544H53.3225V108.037L65.5076 93.1544H72.1582V118.176H64.9495V103.293L52.8109 118.176H46.1137V93.1544ZM97.033 92.7824C99.3584 92.7824 101.467 93.325 103.358 94.4102C105.28 95.4643 106.784 96.9681 107.869 98.9214C108.955 100.844 109.497 103.092 109.497 105.665C109.497 108.239 108.955 110.502 107.869 112.455C106.784 114.378 105.28 115.881 103.358 116.967C101.467 118.021 99.3584 118.548 97.033 118.548C93.8395 118.548 91.328 117.54 89.4987 115.525V127.198H82.2435V93.1544H89.1732V96.0379C90.9715 93.8676 93.5914 92.7824 97.033 92.7824ZM95.7773 112.595C97.6376 112.595 99.1569 111.975 100.335 110.734C101.544 109.463 102.149 107.773 102.149 105.665C102.149 103.557 101.544 101.882 100.335 100.642C99.1569 99.371 97.6376 98.7354 95.7773 98.7354C93.917 98.7354 92.3822 99.371 91.173 100.642C89.9948 101.882 89.4057 103.557 89.4057 105.665C89.4057 107.773 89.9948 109.463 91.173 110.734C92.3822 111.975 93.917 112.595 95.7773 112.595ZM142.156 118.176V103.2L134.668 115.757H131.599L124.297 103.154V118.176H117.74V93.1544H125.32L133.32 107.618L141.831 93.1544H148.621L148.714 118.176H142.156ZM183.145 105.758C183.145 105.851 183.098 106.502 183.005 107.711H164.076C164.417 109.262 165.224 110.486 166.495 111.386C167.766 112.285 169.347 112.734 171.239 112.734C172.541 112.734 173.688 112.548 174.68 112.176C175.703 111.773 176.649 111.153 177.517 110.316L181.377 114.502C179.021 117.199 175.579 118.548 171.053 118.548C168.231 118.548 165.735 118.005 163.565 116.92C161.394 115.804 159.72 114.269 158.542 112.316C157.364 110.362 156.775 108.146 156.775 105.665C156.775 103.216 157.348 101.014 158.495 99.061C159.674 97.0766 161.27 95.5419 163.286 94.4567C165.332 93.3405 167.611 92.7824 170.122 92.7824C172.572 92.7824 174.789 93.3095 176.773 94.3636C178.757 95.4178 180.308 96.9371 181.424 98.9214C182.571 100.875 183.145 103.154 183.145 105.758ZM170.169 98.2703C168.526 98.2703 167.146 98.7354 166.03 99.6656C164.913 100.596 164.231 101.867 163.983 103.479H176.308C176.06 101.898 175.378 100.642 174.262 99.7121C173.145 98.7509 171.781 98.2703 170.169 98.2703ZM191.863 93.1544H199.072V102.921H209.955V93.1544H217.21V118.176H209.955V108.828H199.072V118.176H191.863V93.1544ZM227.313 93.1544H234.522V102.921H245.405V93.1544H252.66V118.176H245.405V108.828H234.522V118.176H227.313V93.1544ZM275.924 101.154C279.18 101.185 281.645 101.913 283.319 103.34C284.993 104.766 285.83 106.812 285.83 109.479C285.83 112.269 284.885 114.424 282.993 115.943C281.102 117.463 278.42 118.222 274.948 118.222L262.762 118.176V93.1544H269.971V101.154H275.924ZM288.528 93.1544H295.737V118.176H288.528V93.1544ZM274.296 113.06C275.692 113.091 276.761 112.796 277.506 112.176C278.25 111.556 278.622 110.626 278.622 109.386C278.622 108.177 278.25 107.293 277.506 106.735C276.792 106.177 275.723 105.882 274.296 105.851L269.971 105.805V113.06H274.296ZM305.888 93.1544H313.096V108.037L325.282 93.1544H331.932V118.176H324.723V103.293L312.585 118.176H305.888V93.1544ZM318.445 90.457C312.988 90.457 310.244 88.0541 310.213 83.2482H314.957C314.988 84.3334 315.282 85.1861 315.84 85.8062C316.43 86.3953 317.282 86.6898 318.398 86.6898C319.515 86.6898 320.367 86.3953 320.956 85.8062C321.576 85.1861 321.886 84.3334 321.886 83.2482H326.723C326.692 88.0541 323.933 90.457 318.445 90.457ZM382.809 118.176V103.2L375.321 115.757H372.252L364.95 103.154V118.176H358.392V93.1544H365.973L373.973 107.618L382.484 93.1544H389.274L389.367 118.176H382.809ZM423.798 105.758C423.798 105.851 423.751 106.502 423.658 107.711H404.729C405.07 109.262 405.876 110.486 407.148 111.386C408.419 112.285 410 112.734 411.892 112.734C413.194 112.734 414.341 112.548 415.333 112.176C416.356 111.773 417.302 111.153 418.17 110.316L422.03 114.502C419.674 117.199 416.232 118.548 411.706 118.548C408.884 118.548 406.388 118.005 404.218 116.92C402.047 115.804 400.373 114.269 399.195 112.316C398.017 110.362 397.428 108.146 397.428 105.665C397.428 103.216 398.001 101.014 399.148 99.061C400.327 97.0766 401.923 95.5419 403.939 94.4567C405.985 93.3405 408.264 92.7824 410.775 92.7824C413.225 92.7824 415.442 93.3095 417.426 94.3636C419.41 95.4178 420.961 96.9371 422.077 98.9214C423.224 100.875 423.798 103.154 423.798 105.758ZM410.822 98.2703C409.179 98.2703 407.799 98.7354 406.683 99.6656C405.566 100.596 404.884 101.867 404.636 103.479H416.961C416.713 101.898 416.031 100.642 414.915 99.7121C413.798 98.7509 412.434 98.2703 410.822 98.2703ZM447.259 92.7824C449.585 92.7824 451.693 93.325 453.584 94.4102C455.507 95.4643 457.011 96.9681 458.096 98.9214C459.181 100.844 459.724 103.092 459.724 105.665C459.724 108.239 459.181 110.502 458.096 112.455C457.011 114.378 455.507 115.881 453.584 116.967C451.693 118.021 449.585 118.548 447.259 118.548C444.066 118.548 441.554 117.54 439.725 115.525V127.198H432.47V93.1544H439.399V96.0379C441.198 93.8676 443.818 92.7824 447.259 92.7824ZM446.004 112.595C447.864 112.595 449.383 111.975 450.561 110.734C451.771 109.463 452.375 107.773 452.375 105.665C452.375 103.557 451.771 101.882 450.561 100.642C449.383 99.371 447.864 98.7354 446.004 98.7354C444.143 98.7354 442.609 99.371 441.399 100.642C440.221 101.882 439.632 103.557 439.632 105.665C439.632 107.773 440.221 109.463 441.399 110.734C442.609 111.975 444.143 112.595 446.004 112.595ZM490.476 93.1544V118.176H483.221V108.874C481.112 109.928 478.787 110.455 476.244 110.455C472.865 110.455 470.307 109.696 468.57 108.177C466.865 106.626 466.013 104.239 466.013 101.014V93.1544H473.268V100.549C473.268 102.068 473.655 103.169 474.43 103.851C475.237 104.533 476.384 104.874 477.872 104.874C479.763 104.874 481.546 104.471 483.221 103.665V93.1544H490.476ZM513.44 102.828H559.948V107.339H513.44V102.828ZM594.642 118.548C592.007 118.548 589.635 118.005 587.526 116.92C585.449 115.804 583.821 114.269 582.643 112.316C581.465 110.362 580.876 108.146 580.876 105.665C580.876 103.185 581.465 100.968 582.643 99.0145C583.821 97.0611 585.449 95.5419 587.526 94.4567C589.635 93.3405 592.007 92.7824 594.642 92.7824C597.278 92.7824 599.634 93.3405 601.711 94.4567C603.789 95.5419 605.416 97.0611 606.595 99.0145C607.773 100.968 608.362 103.185 608.362 105.665C608.362 108.146 607.773 110.362 606.595 112.316C605.416 114.269 603.789 115.804 601.711 116.92C599.634 118.005 597.278 118.548 594.642 118.548ZM594.642 112.595C596.502 112.595 598.022 111.975 599.2 110.734C600.409 109.463 601.014 107.773 601.014 105.665C601.014 103.557 600.409 101.882 599.2 100.642C598.022 99.371 596.502 98.7354 594.642 98.7354C592.782 98.7354 591.247 99.371 590.038 100.642C588.829 101.882 588.224 103.557 588.224 105.665C588.224 107.773 588.829 109.463 590.038 110.734C591.247 111.975 592.782 112.595 594.642 112.595ZM641.391 93.1544V118.176H634.136V99.1075H623.718V118.176H616.509V93.1544H641.391ZM675.503 93.1544V118.176H668.248V99.1075H660.341L660.109 103.526C659.985 106.812 659.675 109.541 659.179 111.711C658.683 113.882 657.876 115.587 656.76 116.827C655.644 118.067 654.094 118.687 652.109 118.687C651.055 118.687 649.8 118.501 648.342 118.129L648.714 112.176C649.21 112.238 649.567 112.269 649.784 112.269C650.869 112.269 651.675 111.882 652.202 111.107C652.761 110.3 653.133 109.293 653.319 108.084C653.505 106.843 653.644 105.216 653.737 103.2L654.109 93.1544H675.503ZM695.357 92.7824C699.233 92.7824 702.21 93.7125 704.287 95.5729C706.364 97.4022 707.403 100.177 707.403 103.898V118.176H700.613V115.06C699.249 117.385 696.706 118.548 692.986 118.548C691.063 118.548 689.389 118.222 687.963 117.571C686.567 116.92 685.498 116.021 684.754 114.874C684.009 113.727 683.637 112.424 683.637 110.967C683.637 108.642 684.506 106.812 686.242 105.479C688.009 104.146 690.722 103.479 694.381 103.479H700.148C700.148 101.898 699.667 100.689 698.706 99.8516C697.745 98.9834 696.303 98.5494 694.381 98.5494C693.048 98.5494 691.73 98.7664 690.428 99.2005C689.156 99.6036 688.071 100.162 687.172 100.875L684.568 95.8054C685.932 94.8442 687.56 94.1001 689.451 93.573C691.373 93.0459 693.342 92.7824 695.357 92.7824ZM694.799 113.664C696.04 113.664 697.14 113.385 698.101 112.827C699.063 112.238 699.745 111.386 700.148 110.269V107.711H695.171C692.195 107.711 690.707 108.688 690.707 110.641C690.707 111.572 691.063 112.316 691.776 112.874C692.52 113.401 693.528 113.664 694.799 113.664ZM739.373 93.1544V118.176H732.118V108.874C730.009 109.928 727.684 110.455 725.141 110.455C721.762 110.455 719.204 109.696 717.468 108.177C715.762 106.626 714.91 104.239 714.91 101.014V93.1544H722.165V100.549C722.165 102.068 722.552 103.169 723.328 103.851C724.134 104.533 725.281 104.874 726.769 104.874C728.661 104.874 730.443 104.471 732.118 103.665V93.1544H739.373ZM749.497 93.1544H756.705V108.037L768.89 93.1544H775.541V118.176H768.332V103.293L756.194 118.176H749.497V93.1544ZM804.788 105.107C807.733 106.099 809.206 108.084 809.206 111.06C809.206 113.323 808.353 115.075 806.648 116.315C804.943 117.556 802.4 118.176 799.021 118.176H785.673V93.1544H798.463C801.594 93.1544 804.044 93.728 805.811 94.8752C807.578 95.9914 808.462 97.5727 808.462 99.6191C808.462 100.859 808.136 101.96 807.485 102.921C806.865 103.851 805.966 104.58 804.788 105.107ZM792.324 103.433H797.811C800.354 103.433 801.625 102.534 801.625 100.735C801.625 98.9679 800.354 98.0843 797.811 98.0843H792.324V103.433ZM798.416 113.246C801.083 113.246 802.416 112.331 802.416 110.502C802.416 109.541 802.106 108.843 801.486 108.409C800.865 107.944 799.889 107.711 798.556 107.711H792.324V113.246H798.416ZM827.482 92.7824C831.357 92.7824 834.334 93.7125 836.411 95.5729C838.489 97.4022 839.527 100.177 839.527 103.898V118.176H832.737V115.06C831.373 117.385 828.83 118.548 825.11 118.548C823.187 118.548 821.513 118.222 820.087 117.571C818.692 116.92 817.622 116.021 816.878 114.874C816.134 113.727 815.762 112.424 815.762 110.967C815.762 108.642 816.63 106.812 818.366 105.479C820.133 104.146 822.846 103.479 826.505 103.479H832.272C832.272 101.898 831.791 100.689 830.83 99.8516C829.869 98.9834 828.427 98.5494 826.505 98.5494C825.172 98.5494 823.854 98.7664 822.552 99.2005C821.281 99.6036 820.195 100.162 819.296 100.875L816.692 95.8054C818.056 94.8442 819.684 94.1001 821.575 93.573C823.497 93.0459 825.466 92.7824 827.482 92.7824ZM826.924 113.664C828.164 113.664 829.264 113.385 830.226 112.827C831.187 112.238 831.869 111.386 832.272 110.269V107.711H827.296C824.319 107.711 822.831 108.688 822.831 110.641C822.831 111.572 823.187 112.316 823.901 112.874C824.645 113.401 825.652 113.664 826.924 113.664ZM848.987 93.1544H856.196V108.037L868.381 93.1544H875.032V118.176H867.823V103.293L855.684 118.176H848.987V93.1544ZM861.544 90.457C856.087 90.457 853.343 88.0541 853.312 83.2482H858.056C858.087 84.3334 858.382 85.1861 858.94 85.8062C859.529 86.3953 860.382 86.6898 861.498 86.6898C862.614 86.6898 863.467 86.3953 864.056 85.8062C864.676 85.1861 864.986 84.3334 864.986 83.2482H869.823C869.792 88.0541 867.032 90.457 861.544 90.457ZM998.394 102.177H1011.56V107.991H998.394V102.177ZM1031.58 108.688H1027.82V118.176H1020.56V93.1544H1027.82V102.875H1031.72L1038.51 93.1544H1046.23L1037.49 105.154L1046.84 118.176H1038.28L1031.58 108.688ZM1064.51 118.548C1061.87 118.548 1059.5 118.005 1057.39 116.92C1055.31 115.804 1053.68 114.269 1052.51 112.316C1051.33 110.362 1050.74 108.146 1050.74 105.665C1050.74 103.185 1051.33 100.968 1052.51 99.0145C1053.68 97.0611 1055.31 95.5419 1057.39 94.4567C1059.5 93.3405 1061.87 92.7824 1064.51 92.7824C1067.14 92.7824 1069.5 93.3405 1071.57 94.4567C1073.65 95.5419 1075.28 97.0611 1076.46 99.0145C1077.64 100.968 1078.23 103.185 1078.23 105.665C1078.23 108.146 1077.64 110.362 1076.46 112.316C1075.28 114.269 1073.65 115.804 1071.57 116.92C1069.5 118.005 1067.14 118.548 1064.51 118.548ZM1064.51 112.595C1066.37 112.595 1067.89 111.975 1069.06 110.734C1070.27 109.463 1070.88 107.773 1070.88 105.665C1070.88 103.557 1070.27 101.882 1069.06 100.642C1067.89 99.371 1066.37 98.7354 1064.51 98.7354C1062.65 98.7354 1061.11 99.371 1059.9 100.642C1058.69 101.882 1058.09 103.557 1058.09 105.665C1058.09 107.773 1058.69 109.463 1059.9 110.734C1061.11 111.975 1062.65 112.595 1064.51 112.595ZM1086.37 93.1544H1093.58V108.037L1105.77 93.1544H1112.42V118.176H1105.21V103.293L1093.07 118.176H1086.37V93.1544ZM1122.55 93.1544H1129.76V102.921H1140.64V93.1544H1147.9V118.176H1140.64V108.828H1129.76V118.176H1122.55V93.1544ZM1167.72 92.7824C1171.59 92.7824 1174.57 93.7125 1176.65 95.5729C1178.73 97.4022 1179.76 100.177 1179.76 103.898V118.176H1172.97V115.06C1171.61 117.385 1169.07 118.548 1165.35 118.548C1163.42 118.548 1161.75 118.222 1160.32 117.571C1158.93 116.92 1157.86 116.021 1157.12 114.874C1156.37 113.727 1156 112.424 1156 110.967C1156 108.642 1156.87 106.812 1158.6 105.479C1160.37 104.146 1163.08 103.479 1166.74 103.479H1172.51C1172.51 101.898 1172.03 100.689 1171.07 99.8516C1170.11 98.9834 1168.66 98.5494 1166.74 98.5494C1165.41 98.5494 1164.09 98.7664 1162.79 99.2005C1161.52 99.6036 1160.43 100.162 1159.53 100.875L1156.93 95.8054C1158.29 94.8442 1159.92 94.1001 1161.81 93.573C1163.73 93.0459 1165.7 92.7824 1167.72 92.7824ZM1167.16 113.664C1168.4 113.664 1169.5 113.385 1170.46 112.827C1171.42 112.238 1172.11 111.386 1172.51 110.269V107.711H1167.53C1164.56 107.711 1163.07 108.688 1163.07 110.641C1163.07 111.572 1163.42 112.316 1164.14 112.874C1164.88 113.401 1165.89 113.664 1167.16 113.664ZM1213.64 118.176V103.2L1206.15 115.757H1203.08L1195.78 103.154V118.176H1189.22V93.1544H1196.81L1204.8 107.618L1213.32 93.1544H1220.11L1220.2 118.176H1213.64ZM1230.31 93.1544H1237.51V108.037L1249.7 93.1544H1256.35V118.176H1249.14V103.293L1237 118.176H1230.31V93.1544Z" fill="white"/>
<g filter="url(#filter0_f_697_978)">
<path fill-rule="evenodd" clip-rule="evenodd" d="M718.377 52.6554L718.363 52.6477C715.329 50.9896 712.903 48.6936 711.126 45.779L711.117 45.7648L711.109 45.7504C709.352 42.7736 708.492 39.4416 708.492 35.8144C708.492 32.1876 709.352 28.8661 711.115 25.9145L711.12 25.9074C712.897 22.957 715.328 20.652 718.377 19.0202C721.461 17.355 724.888 16.543 728.606 16.543C731.719 16.543 734.6 17.091 737.21 18.2342C739.841 19.3726 742.073 21.0243 743.874 23.1846L743.998 23.3335V17.1043H777.208V27.9562H766.73V54.5246H754.475V27.9562H743.998V26.0918L737.025 32.5284L735.444 30.7032C733.658 28.6398 731.55 27.6755 728.98 27.6755C727.313 27.6755 725.911 28.0434 724.71 28.7263L724.695 28.7349L724.679 28.7433C723.477 29.4036 722.545 30.3194 721.854 31.5293C721.197 32.7324 720.841 34.1411 720.841 35.8144C720.841 37.4877 721.197 38.8964 721.854 40.0995C722.546 41.3115 723.483 42.2481 724.695 42.9406C725.898 43.5977 727.306 43.9533 728.98 43.9533C731.54 43.9533 733.645 42.9822 735.435 40.8895L737.014 39.0438L745.284 46.6773L743.886 48.3828C742.085 50.5799 739.847 52.2545 737.205 53.3969C734.569 54.5369 731.675 55.0859 728.559 55.0859C724.875 55.0859 721.47 54.2908 718.391 52.663L718.377 52.6554ZM723.554 44.9824C721.963 44.0781 720.716 42.8307 719.812 41.2404C718.939 39.65 718.502 37.8413 718.502 35.8144C718.502 33.7875 718.939 31.9788 719.812 30.3885C720.716 28.7981 721.963 27.5664 723.554 26.6932C725.144 25.7889 726.953 25.3367 728.98 25.3367C731.974 25.3367 734.525 26.4059 736.632 28.5441C736.83 28.7441 737.023 28.9535 737.212 29.1723L742.077 24.6819C741.74 24.2777 741.386 23.8938 741.014 23.5303C740.829 23.3497 740.64 23.1742 740.447 23.0037C739.228 21.9288 737.838 21.0537 736.277 20.3785C734 19.3807 731.443 18.8817 728.606 18.8817C725.238 18.8817 722.197 19.6146 719.484 21.0802C716.803 22.5146 714.682 24.526 713.123 27.1142C711.595 29.6713 710.831 32.5713 710.831 35.8144C710.831 39.0575 711.595 41.9732 713.123 44.5614C714.682 47.1185 716.803 49.1298 719.484 50.5954C722.197 52.0299 725.222 52.7471 728.559 52.7471C731.397 52.7471 733.969 52.2482 736.277 51.2503C737.844 50.5725 739.239 49.6862 740.461 48.5913C740.591 48.4747 740.719 48.3557 740.845 48.2344C741.279 47.8176 741.689 47.3728 742.077 46.9002L737.212 42.4097C736.987 42.6725 736.757 42.922 736.522 43.1581C734.436 45.2474 731.922 46.2921 728.98 46.2921C726.953 46.2921 725.144 45.8555 723.554 44.9824ZM756.814 25.6174V52.1858H764.392V25.6174H774.869V19.443H746.336V25.6174H756.814ZM807.175 31.8385V42.5968H792.02V54.5246H779.765V17.1043H809.187V27.8626H792.02V31.8385H807.175ZM789.681 25.5238H806.848V19.443H782.104V52.1858H789.681V40.2581H804.837V34.1773H789.681V25.5238Z" fill="#42D4BA"/>
</g>
<path fill-rule="evenodd" clip-rule="evenodd" d="M718.377 52.6554L718.363 52.6477C715.329 50.9896 712.903 48.6936 711.126 45.779L711.117 45.7648L711.109 45.7504C709.352 42.7736 708.492 39.4416 708.492 35.8144C708.492 32.1876 709.352 28.8661 711.115 25.9145L711.12 25.9074C712.897 22.957 715.328 20.652 718.377 19.0202C721.461 17.355 724.888 16.543 728.606 16.543C731.719 16.543 734.6 17.091 737.21 18.2342C739.841 19.3726 742.073 21.0243 743.874 23.1846L743.998 23.3335V17.1043H777.208V27.9562H766.73V54.5246H754.475V27.9562H743.998V26.0918L737.025 32.5284L735.444 30.7032C733.658 28.6398 731.55 27.6755 728.98 27.6755C727.313 27.6755 725.911 28.0434 724.71 28.7263L724.695 28.7349L724.679 28.7433C723.477 29.4036 722.545 30.3194 721.854 31.5293C721.197 32.7324 720.841 34.1411 720.841 35.8144C720.841 37.4877 721.197 38.8964 721.854 40.0995C722.546 41.3115 723.483 42.2481 724.695 42.9406C725.898 43.5977 727.306 43.9533 728.98 43.9533C731.54 43.9533 733.645 42.9822 735.435 40.8895L737.014 39.0438L745.284 46.6773L743.886 48.3828C742.085 50.5799 739.847 52.2545 737.205 53.3969C734.569 54.5369 731.675 55.0859 728.559 55.0859C724.875 55.0859 721.47 54.2908 718.391 52.663L718.377 52.6554ZM723.554 44.9824C721.963 44.0781 720.716 42.8307 719.812 41.2404C718.939 39.65 718.502 37.8413 718.502 35.8144C718.502 33.7875 718.939 31.9788 719.812 30.3885C720.716 28.7981 721.963 27.5664 723.554 26.6932C725.144 25.7889 726.953 25.3367 728.98 25.3367C731.974 25.3367 734.525 26.4059 736.632 28.5441C736.83 28.7441 737.023 28.9535 737.212 29.1723L742.077 24.6819C741.74 24.2777 741.386 23.8938 741.014 23.5303C740.829 23.3497 740.64 23.1742 740.447 23.0037C739.228 21.9288 737.838 21.0537 736.277 20.3785C734 19.3807 731.443 18.8817 728.606 18.8817C725.238 18.8817 722.197 19.6146 719.484 21.0802C716.803 22.5146 714.682 24.526 713.123 27.1142C711.595 29.6713 710.831 32.5713 710.831 35.8144C710.831 39.0575 711.595 41.9732 713.123 44.5614C714.682 47.1185 716.803 49.1298 719.484 50.5954C722.197 52.0299 725.222 52.7471 728.559 52.7471C731.397 52.7471 733.969 52.2482 736.277 51.2503C737.844 50.5725 739.239 49.6862 740.461 48.5913C740.591 48.4747 740.719 48.3557 740.845 48.2344C741.279 47.8176 741.689 47.3728 742.077 46.9002L737.212 42.4097C736.987 42.6725 736.757 42.922 736.522 43.1581C734.436 45.2474 731.922 46.2921 728.98 46.2921C726.953 46.2921 725.144 45.8555 723.554 44.9824ZM756.814 25.6174V52.1858H764.392V25.6174H774.869V19.443H746.336V25.6174H756.814ZM807.175 31.8385V42.5968H792.02V54.5246H779.765V17.1043H809.187V27.8626H792.02V31.8385H807.175ZM789.681 25.5238H806.848V19.443H782.104V52.1858H789.681V40.2581H804.837V34.1773H789.681V25.5238Z" fill="#42D4BA"/>
<g filter="url(#filter1_f_697_978)">
<path fill-rule="evenodd" clip-rule="evenodd" d="M898.635 120.48L898.621 120.472C895.587 118.814 893.161 116.518 891.384 113.603L891.375 113.589L891.367 113.575C889.609 110.598 888.75 107.266 888.75 103.639C888.75 100.012 889.609 96.6903 891.373 93.7387L891.377 93.7316C893.155 90.7812 895.586 88.4762 898.635 86.8444C901.719 85.1792 905.146 84.3672 908.863 84.3672C911.977 84.3672 914.858 84.9152 917.468 86.0584C920.099 87.1968 922.331 88.8486 924.131 91.0089L924.255 91.1577V84.9285H957.466V95.7804H946.988V122.349H934.733V95.7804H924.255V93.916L917.282 100.353L915.702 98.5274C913.915 96.4641 911.808 95.4997 909.238 95.4997C907.571 95.4997 906.169 95.8676 904.968 96.5505L904.953 96.5591L904.937 96.5676C903.735 97.2278 902.803 98.1436 902.111 99.3535C901.454 100.557 901.099 101.965 901.099 103.639C901.099 105.312 901.454 106.721 902.111 107.924C902.804 109.136 903.741 110.072 904.953 110.765C906.156 111.422 907.564 111.778 909.238 111.778C911.797 111.778 913.903 110.806 915.693 108.714L917.272 106.868L925.541 114.502L924.143 116.207C922.343 118.404 920.105 120.079 917.463 121.221C914.827 122.361 911.933 122.91 908.817 122.91C905.133 122.91 901.728 122.115 898.649 120.487L898.635 120.48ZM903.812 112.807C902.221 111.902 900.974 110.655 900.07 109.065C899.196 107.474 898.76 105.666 898.76 103.639C898.76 101.612 899.196 99.8031 900.07 98.2127C900.974 96.6223 902.221 95.3906 903.812 94.5174C905.402 93.6131 907.211 93.161 909.238 93.161C912.232 93.161 914.783 94.2301 916.89 96.3683C917.087 96.5683 917.281 96.7778 917.47 96.9965L922.335 92.5061C921.998 92.1019 921.644 91.718 921.272 91.3545C921.087 91.174 920.898 90.9984 920.705 90.8279C919.486 89.753 918.096 88.8779 916.535 88.2028C914.258 87.2049 911.701 86.706 908.863 86.706C905.496 86.706 902.455 87.4388 899.742 88.9044C897.06 90.3388 894.94 92.3502 893.381 94.9384C891.853 97.4955 891.089 100.396 891.089 103.639C891.089 106.882 891.853 109.797 893.381 112.386C894.94 114.943 897.06 116.954 899.742 118.42C902.455 119.854 905.48 120.571 908.817 120.571C911.654 120.571 914.227 120.072 916.535 119.075C918.102 118.397 919.497 117.51 920.719 116.415C920.849 116.299 920.977 116.18 921.103 116.059C921.537 115.642 921.947 115.197 922.335 114.724L917.47 110.234C917.245 110.497 917.015 110.746 916.779 110.982C914.693 113.072 912.179 114.116 909.238 114.116C907.211 114.116 905.402 113.68 903.812 112.807ZM937.072 93.4416V120.01H944.649V93.4416H955.127V87.2673H926.594V93.4416H937.072ZM987.433 99.6627V110.421H972.278V122.349H960.023V84.9285H989.445V95.6868H972.278V99.6627H987.433ZM969.939 93.3481H987.106V87.2673H962.362V120.01H969.939V108.082H985.094V102.001H969.939V93.3481Z" fill="#42D4BA"/>
</g>
<path fill-rule="evenodd" clip-rule="evenodd" d="M898.635 120.48L898.621 120.472C895.587 118.814 893.161 116.518 891.384 113.603L891.375 113.589L891.367 113.575C889.609 110.598 888.75 107.266 888.75 103.639C888.75 100.012 889.609 96.6903 891.373 93.7387L891.377 93.7316C893.155 90.7812 895.586 88.4762 898.635 86.8444C901.719 85.1792 905.146 84.3672 908.863 84.3672C911.977 84.3672 914.858 84.9152 917.468 86.0584C920.099 87.1968 922.331 88.8486 924.131 91.0089L924.255 91.1577V84.9285H957.466V95.7804H946.988V122.349H934.733V95.7804H924.255V93.916L917.282 100.353L915.702 98.5274C913.915 96.4641 911.808 95.4997 909.238 95.4997C907.571 95.4997 906.169 95.8676 904.968 96.5505L904.953 96.5591L904.937 96.5676C903.735 97.2278 902.803 98.1436 902.111 99.3535C901.454 100.557 901.099 101.965 901.099 103.639C901.099 105.312 901.454 106.721 902.111 107.924C902.804 109.136 903.741 110.072 904.953 110.765C906.156 111.422 907.564 111.778 909.238 111.778C911.797 111.778 913.903 110.806 915.693 108.714L917.272 106.868L925.541 114.502L924.143 116.207C922.343 118.404 920.105 120.079 917.463 121.221C914.827 122.361 911.933 122.91 908.817 122.91C905.133 122.91 901.728 122.115 898.649 120.487L898.635 120.48ZM903.812 112.807C902.221 111.902 900.974 110.655 900.07 109.065C899.196 107.474 898.76 105.666 898.76 103.639C898.76 101.612 899.196 99.8031 900.07 98.2127C900.974 96.6223 902.221 95.3906 903.812 94.5174C905.402 93.6131 907.211 93.161 909.238 93.161C912.232 93.161 914.783 94.2301 916.89 96.3683C917.087 96.5683 917.281 96.7778 917.47 96.9965L922.335 92.5061C921.998 92.1019 921.644 91.718 921.272 91.3545C921.087 91.174 920.898 90.9984 920.705 90.8279C919.486 89.753 918.096 88.8779 916.535 88.2028C914.258 87.2049 911.701 86.706 908.863 86.706C905.496 86.706 902.455 87.4388 899.742 88.9044C897.06 90.3388 894.94 92.3502 893.381 94.9384C891.853 97.4955 891.089 100.396 891.089 103.639C891.089 106.882 891.853 109.797 893.381 112.386C894.94 114.943 897.06 116.954 899.742 118.42C902.455 119.854 905.48 120.571 908.817 120.571C911.654 120.571 914.227 120.072 916.535 119.075C918.102 118.397 919.497 117.51 920.719 116.415C920.849 116.299 920.977 116.18 921.103 116.059C921.537 115.642 921.947 115.197 922.335 114.724L917.47 110.234C917.245 110.497 917.015 110.746 916.779 110.982C914.693 113.072 912.179 114.116 909.238 114.116C907.211 114.116 905.402 113.68 903.812 112.807ZM937.072 93.4416V120.01H944.649V93.4416H955.127V87.2673H926.594V93.4416H937.072ZM987.433 99.6627V110.421H972.278V122.349H960.023V84.9285H989.445V95.6868H972.278V99.6627H987.433ZM969.939 93.3481H987.106V87.2673H962.362V120.01H969.939V108.082H985.094V102.001H969.939V93.3481Z" fill="#42D4BA"/>
<defs>
<filter id="filter0_f_697_978" x="702.645" y="10.696" width="112.389" height="50.2368" filterUnits="userSpaceOnUse" color-interpolation-filters="sRGB">
<feFlood flood-opacity="0" result="BackgroundImageFix"/>
<feBlend mode="normal" in="SourceGraphic" in2="BackgroundImageFix" result="shape"/>
<feGaussianBlur stdDeviation="2.92346" result="effect1_foregroundBlur_697_978"/>
</filter>
<filter id="filter1_f_697_978" x="882.903" y="78.5203" width="112.389" height="50.2368" filterUnits="userSpaceOnUse" color-interpolation-filters="sRGB">
<feFlood flood-opacity="0" result="BackgroundImageFix"/>
<feBlend mode="normal" in="SourceGraphic" in2="BackgroundImageFix" result="shape"/>
<feGaussianBlur stdDeviation="2.92346" result="effect1_foregroundBlur_697_978"/>
</filter>
</defs>
</svg>
