<svg width="60" height="60" viewBox="0 0 60 60" fill="none" xmlns="http://www.w3.org/2000/svg">
<circle cx="30" cy="30" r="29" fill="white" stroke="#42D4BA" stroke-width="2"/>
<g filter="url(#filter0_f_582_978)">
<path d="M10.304 34.9094L9.96433 35.2531L9.96633 35.2551L10.304 34.9094ZM8.98304 25.248V24.7648H8.49985V25.248H8.98304ZM12.0243 25.248H12.5075V24.7648H12.0243V25.248ZM16.0947 25.248V24.7648H15.6115V25.248H16.0947ZM19.0899 25.248H19.5731V24.7648H19.0899V25.248ZM17.7536 34.9094L17.4159 34.5638L17.4139 34.5658L17.7536 34.9094ZM14.0365 35.7318C12.528 35.7318 11.4188 35.323 10.6417 34.5638L9.96633 35.2551C10.971 36.2366 12.35 36.6982 14.0365 36.6982V35.7318ZM10.6437 34.5658C9.87944 33.8104 9.46623 32.7152 9.46623 31.2077H8.49985C8.49985 32.895 8.96728 34.2676 9.96433 35.2531L10.6437 34.5658ZM9.46623 31.2077V25.248H8.49985V31.2077H9.46623ZM8.98304 25.7312H12.0243V24.7648H8.98304V25.7312ZM11.5411 25.248V31.1155H12.5075V25.248H11.5411ZM11.5411 31.1155C11.5411 32.0264 11.7192 32.7988 12.1562 33.3508C12.6102 33.9243 13.2778 34.1792 14.0672 34.1792V33.2128C13.4946 33.2128 13.1408 33.0376 12.9139 32.751C12.6699 32.4428 12.5075 31.9249 12.5075 31.1155H11.5411ZM14.0672 34.1792C14.8527 34.1792 15.5168 33.9234 15.9678 33.3494C16.4013 32.7976 16.5779 32.0258 16.5779 31.1155H15.6115C15.6115 31.9256 15.4502 32.444 15.2079 32.7524C14.983 33.0385 14.6333 33.2128 14.0672 33.2128V34.1792ZM16.5779 31.1155V25.248H15.6115V31.1155H16.5779ZM16.0947 25.7312H19.0899V24.7648H16.0947V25.7312ZM18.6067 25.248V31.2077H19.5731V25.248H18.6067ZM18.6067 31.2077C18.6067 32.7137 18.1893 33.8082 17.4159 34.5638L18.0913 35.2551C19.0996 34.2699 19.5731 32.8966 19.5731 31.2077H18.6067ZM17.4139 34.5658C16.6479 35.3229 15.5452 35.7318 14.0365 35.7318V36.6982C15.7226 36.6982 17.0981 36.2367 18.0933 35.2531L17.4139 34.5658ZM22.3944 35.8925L22.517 35.4251L22.3944 35.8925ZM20.3976 35.0323L19.9561 34.8358L19.7941 35.1997L20.1205 35.4282L20.3976 35.0323ZM21.396 32.7898L21.662 32.3864L21.1863 32.0726L20.9545 32.5932L21.396 32.7898ZM23.0702 33.5578L23.2118 33.0958L23.0702 33.5578ZM26.1883 32.2982L25.9832 32.7358L25.9913 32.7396L25.9996 32.7431L26.1883 32.2982ZM24.5908 31.8221L24.6957 31.3504L24.6925 31.3497L24.5908 31.8221ZM22.5633 31.2691L22.3927 31.7213L22.4003 31.724L22.5633 31.2691ZM21.1195 26.7533L21.5179 27.0267L21.5203 27.0231L21.1195 26.7533ZM22.7169 25.4938L22.5266 25.0496L22.5243 25.0506L22.7169 25.4938ZM27.4324 25.2787L27.3202 25.7487L27.3269 25.7502L27.4324 25.2787ZM29.2449 25.9699L29.6912 26.1551L29.8524 25.7667L29.4899 25.5534L29.2449 25.9699ZM28.308 28.2278L28.0784 28.653L28.5492 28.9072L28.7543 28.413L28.308 28.2278ZM24.0072 27.6749L24.2647 28.0839L24.2752 28.0769L24.0072 27.6749ZM24.084 29.0112L23.8903 29.4539H23.8903L24.084 29.0112ZM25.666 29.4566L25.7665 28.984L25.7659 28.9839L25.666 29.4566ZM27.6936 30.025L27.5201 30.4761L27.5305 30.4798L27.6936 30.025ZM29.0913 30.9773L28.7291 31.2973L28.7372 31.3061L29.0913 30.9773ZM29.1528 34.4947L28.7544 34.2213V34.2213L29.1528 34.4947ZM27.54 35.7542L27.7303 36.1984L27.7356 36.196L27.54 35.7542ZM24.9288 35.7318C24.0986 35.7318 23.2951 35.6294 22.517 35.4251L22.2717 36.3598C23.132 36.5857 24.0181 36.6982 24.9288 36.6982V35.7318ZM22.517 35.4251C21.7348 35.2198 21.1265 34.9527 20.6747 34.6365L20.1205 35.4282C20.6927 35.8287 21.4155 36.1351 22.2717 36.3598L22.517 35.4251ZM20.839 35.2288L21.8374 32.9863L20.9545 32.5932L19.9561 34.8358L20.839 35.2288ZM21.1299 33.1931C21.655 33.5394 22.2562 33.8137 22.9286 34.0197L23.2118 33.0958C22.6144 32.9127 22.0995 32.675 21.662 32.3864L21.1299 33.1931ZM22.9286 34.0197C23.6057 34.2272 24.278 34.3328 24.9441 34.3328V33.3664C24.3814 33.3664 23.8045 33.2774 23.2118 33.0958L22.9286 34.0197ZM24.9441 34.3328C25.5525 34.3328 26.0807 34.2593 26.4735 34.0629C26.6767 33.9613 26.8582 33.8195 26.9878 33.6251C27.1193 33.4278 27.1784 33.2046 27.1784 32.9741H26.212C26.212 33.0354 26.198 33.0676 26.1837 33.0891C26.1673 33.1136 26.1299 33.1542 26.0413 33.1985C25.8504 33.294 25.5031 33.3664 24.9441 33.3664V34.3328ZM27.1784 32.9741C27.1784 32.726 27.108 32.4888 26.955 32.2848C26.8061 32.0863 26.6012 31.9485 26.377 31.8534L25.9996 32.7431C26.1133 32.7913 26.1618 32.8379 26.1819 32.8646C26.1979 32.8859 26.212 32.915 26.212 32.9741H27.1784ZM26.3934 31.8607C26.0149 31.6833 25.4386 31.5155 24.6957 31.3504L24.486 32.2938C25.2176 32.4563 25.7064 32.606 25.9832 32.7358L26.3934 31.8607ZM24.6925 31.3497C23.8962 31.1784 23.2425 30.9993 22.7264 30.8143L22.4003 31.724C22.9696 31.9281 23.6675 32.1176 24.4892 32.2945L24.6925 31.3497ZM22.7339 30.817C22.2658 30.6404 21.8653 30.3636 21.5276 29.9815L20.8035 30.6214C21.244 31.1199 21.7754 31.4882 22.3927 31.7212L22.7339 30.817ZM21.5276 29.9815C21.236 29.6514 21.0651 29.1824 21.0651 28.5197H20.0987C20.0987 29.352 20.3169 30.0708 20.8035 30.6214L21.5276 29.9815ZM21.0651 28.5197C21.0651 27.9583 21.2167 27.4655 21.5179 27.0267L20.7211 26.4799C20.3054 27.0855 20.0987 27.7703 20.0987 28.5197H21.0651ZM21.5203 27.0231C21.8178 26.5812 22.2704 26.2148 22.9096 25.9369L22.5243 25.0506C21.7503 25.3871 21.138 25.8604 20.7186 26.4835L21.5203 27.0231ZM22.9073 25.9379C23.5477 25.6634 24.3544 25.5162 25.3435 25.5162V24.5498C24.2641 24.5498 23.3197 24.7097 22.5266 25.0496L22.9073 25.9379ZM25.3435 25.5162C26.0123 25.5162 26.671 25.5937 27.3202 25.7487L27.5447 24.8087C26.8218 24.6361 26.0878 24.5498 25.3435 24.5498V25.5162ZM27.3269 25.7502C27.9716 25.8946 28.5273 26.1084 28.9999 26.3864L29.4899 25.5534C28.918 25.217 28.2654 24.9701 27.538 24.8072L27.3269 25.7502ZM28.7986 25.7847L27.8617 28.0426L28.7543 28.413L29.6912 26.1551L28.7986 25.7847ZM28.5375 27.8027C27.4577 27.2195 26.386 26.9152 25.3281 26.9152V27.8816C26.1954 27.8816 27.1103 28.1302 28.0784 28.653L28.5375 27.8027ZM25.3281 26.9152C24.6961 26.9152 24.1369 27.0076 23.7391 27.2728L24.2752 28.0769C24.4304 27.9735 24.7519 27.8816 25.3281 27.8816V26.9152ZM23.7497 27.266C23.3559 27.514 23.1092 27.8877 23.1092 28.3661H24.0756C24.0756 28.271 24.1055 28.184 24.2646 28.0838L23.7497 27.266ZM23.1092 28.3661C23.1092 28.6084 23.1809 28.8383 23.331 29.0352C23.4762 29.2258 23.6747 29.3596 23.8903 29.4539L24.2776 28.5685C24.1656 28.5195 24.1183 28.474 24.0997 28.4496C24.0859 28.4315 24.0756 28.4105 24.0756 28.3661H23.1092ZM23.8903 29.4539C24.2657 29.6181 24.8336 29.7746 25.5662 29.9294L25.7659 28.9839C25.0444 28.8314 24.5576 28.691 24.2776 28.5685L23.8903 29.4539ZM25.5656 29.9293C26.3703 30.1003 27.0195 30.2834 27.5201 30.4759L27.867 29.574C27.3026 29.3569 26.6002 29.1612 25.7665 28.984L25.5656 29.9293ZM27.5305 30.4798C27.9951 30.6463 28.393 30.9167 28.7292 31.2972L29.4534 30.6573C29.0114 30.1572 28.4775 29.7927 27.8566 29.5701L27.5305 30.4798ZM28.7372 31.3061C29.0327 31.6243 29.2072 32.0835 29.2072 32.7437H30.1736C30.1736 31.9088 29.9487 31.1904 29.4454 30.6485L28.7372 31.3061ZM29.2072 32.7437C29.2072 33.2931 29.0564 33.7811 28.7544 34.2213L29.5512 34.7681C29.9659 34.1638 30.1736 33.4845 30.1736 32.7437H29.2072ZM28.7544 34.2213C28.4574 34.654 27.9986 35.0227 27.3443 35.3124L27.7356 36.196C28.5149 35.8509 29.1313 35.3799 29.5512 34.7681L28.7544 34.2213ZM27.3496 35.3101C26.7086 35.5848 25.9068 35.7318 24.9288 35.7318V36.6982C25.9987 36.6982 26.9377 36.538 27.7303 36.1984L27.3496 35.3101ZM39.7275 33.6499H40.2107V33.1667H39.7275V33.6499ZM39.7275 36V36.4832H40.2107V36H39.7275ZM31.0952 36H30.612V36.4832H31.0952V36ZM31.0952 25.248V24.7648H30.612V25.248H31.0952ZM39.5278 25.248H40.011V24.7648H39.5278V25.248ZM39.5278 27.5981V28.0813H40.011V27.5981H39.5278ZM34.1058 27.5981V27.1149H33.6226V27.5981H34.1058ZM34.1058 29.4106H33.6226V29.8938H34.1058V29.4106ZM38.8827 29.4106H39.3659V28.9274H38.8827V29.4106ZM38.8827 31.6838V32.167H39.3659V31.6838H38.8827ZM34.1058 31.6838V31.2006H33.6226V31.6838H34.1058ZM34.1058 33.6499H33.6226V34.1331H34.1058V33.6499ZM39.2443 33.6499V36H40.2107V33.6499H39.2443ZM39.7275 35.5168H31.0952V36.4832H39.7275V35.5168ZM31.5784 36V25.248H30.612V36H31.5784ZM31.0952 25.7312H39.5278V24.7648H31.0952V25.7312ZM39.0446 25.248V27.5981H40.011V25.248H39.0446ZM39.5278 27.1149H34.1058V28.0813H39.5278V27.1149ZM33.6226 27.5981V29.4106H34.589V27.5981H33.6226ZM34.1058 29.8938H38.8827V28.9274H34.1058V29.8938ZM38.3995 29.4106V31.6838H39.3659V29.4106H38.3995ZM38.8827 31.2006H34.1058V32.167H38.8827V31.2006ZM33.6226 31.6838V33.6499H34.589V31.6838H33.6226ZM34.1058 34.1331H39.7275V33.1667H34.1058V34.1331ZM46.1154 33.143L46.5144 32.8706L46.3705 32.6598H46.1154V33.143ZM44.4565 33.143V32.6598H43.9733V33.143H44.4565ZM44.4565 36V36.4832H44.9397V36H44.4565ZM41.4152 36H40.932V36.4832H41.4152V36ZM41.4152 25.248V24.7648H40.932V25.248H41.4152ZM48.8648 25.7395L48.6639 26.179L48.6691 26.1813L48.8648 25.7395ZM50.5237 27.1219L50.1174 27.3836L50.1195 27.3867L50.5237 27.1219ZM50.5544 31.2691L50.1459 31.0111L50.1447 31.013L50.5544 31.2691ZM49.003 32.6208L48.7922 32.186L48.2868 32.4311L48.6047 32.8942L49.003 32.6208ZM51.3224 36V36.4832H52.2401L51.7208 35.7266L51.3224 36ZM48.0661 36L47.667 36.2725L47.8109 36.4832H48.0661V36ZM44.4565 27.6442V27.161H43.9733V27.6442H44.4565ZM44.4565 30.793H43.9733V31.2762H44.4565V30.793ZM47.5592 30.3936L47.8698 30.7639L47.8766 30.758L47.5592 30.3936ZM46.1154 32.6598H44.4565V33.6262H46.1154V32.6598ZM43.9733 33.143V36H44.9397V33.143H43.9733ZM44.4565 35.5168H41.4152V36.4832H44.4565V35.5168ZM41.8984 36V25.248H40.932V36H41.8984ZM41.4152 25.7312H46.3304V24.7648H41.4152V25.7312ZM46.3304 25.7312C47.2497 25.7312 48.0231 25.886 48.6639 26.179L49.0657 25.3001C48.2729 24.9376 47.3567 24.7648 46.3304 24.7648V25.7312ZM48.6691 26.1813C49.3078 26.4642 49.7841 26.8659 50.1175 27.3836L50.9299 26.8603C50.4851 26.1696 49.8554 25.6497 49.0605 25.2977L48.6691 26.1813ZM50.1195 27.3867C50.4501 27.8914 50.6242 28.4979 50.6242 29.2262H51.5906C51.5906 28.3367 51.3755 27.5403 50.9279 26.8571L50.1195 27.3867ZM50.6242 29.2262C50.6242 29.9251 50.4597 30.5142 50.1459 31.0111L50.9629 31.5271C51.3864 30.8567 51.5906 30.0839 51.5906 29.2262H50.6242ZM50.1447 31.013C49.8397 31.501 49.3956 31.8935 48.7922 32.186L49.2138 33.0556C49.9621 32.6928 50.5523 32.1841 50.9642 31.5252L50.1447 31.013ZM48.6047 32.8942L50.924 36.2734L51.7208 35.7266L49.4014 32.3474L48.6047 32.8942ZM51.3224 35.5168H48.0661V36.4832H51.3224V35.5168ZM48.4651 35.7275L46.5144 32.8706L45.7163 33.4155L47.667 36.2725L48.4651 35.7275ZM48.5186 29.2262C48.5186 28.6142 48.3197 28.0805 47.8766 27.6945L47.2419 28.4232C47.4336 28.5903 47.5522 28.8348 47.5522 29.2262H48.5186ZM47.8766 27.6945C47.4371 27.3117 46.8325 27.161 46.1461 27.161V28.1274C46.709 28.1274 47.0464 28.2531 47.2419 28.4232L47.8766 27.6945ZM46.1461 27.161H44.4565V28.1274H46.1461V27.161ZM43.9733 27.6442V30.793H44.9397V27.6442H43.9733ZM44.4565 31.2762H46.1461V30.3098H44.4565V31.2762ZM46.1461 31.2762C46.8288 31.2762 47.4306 31.1321 47.8697 30.7638L47.2487 30.0234C47.053 30.1876 46.7126 30.3098 46.1461 30.3098V31.2762ZM47.8766 30.758C48.3197 30.372 48.5186 29.8383 48.5186 29.2262H47.5522C47.5522 29.6177 47.4336 29.8622 47.2419 30.0292L47.8766 30.758Z" fill="#42D4BA"/>
</g>
<path d="M10.304 34.9094L9.96433 35.2531L9.96633 35.2551L10.304 34.9094ZM8.98304 25.248V24.7648H8.49985V25.248H8.98304ZM12.0243 25.248H12.5075V24.7648H12.0243V25.248ZM16.0947 25.248V24.7648H15.6115V25.248H16.0947ZM19.0899 25.248H19.5731V24.7648H19.0899V25.248ZM17.7536 34.9094L17.4159 34.5638L17.4139 34.5658L17.7536 34.9094ZM14.0365 35.7318C12.528 35.7318 11.4188 35.323 10.6417 34.5638L9.96633 35.2551C10.971 36.2366 12.35 36.6982 14.0365 36.6982V35.7318ZM10.6437 34.5658C9.87944 33.8104 9.46623 32.7152 9.46623 31.2077H8.49985C8.49985 32.895 8.96728 34.2676 9.96433 35.2531L10.6437 34.5658ZM9.46623 31.2077V25.248H8.49985V31.2077H9.46623ZM8.98304 25.7312H12.0243V24.7648H8.98304V25.7312ZM11.5411 25.248V31.1155H12.5075V25.248H11.5411ZM11.5411 31.1155C11.5411 32.0264 11.7192 32.7988 12.1562 33.3508C12.6102 33.9243 13.2778 34.1792 14.0672 34.1792V33.2128C13.4946 33.2128 13.1408 33.0376 12.9139 32.751C12.6699 32.4428 12.5075 31.9249 12.5075 31.1155H11.5411ZM14.0672 34.1792C14.8527 34.1792 15.5168 33.9234 15.9678 33.3494C16.4013 32.7976 16.5779 32.0258 16.5779 31.1155H15.6115C15.6115 31.9256 15.4502 32.444 15.2079 32.7524C14.983 33.0385 14.6333 33.2128 14.0672 33.2128V34.1792ZM16.5779 31.1155V25.248H15.6115V31.1155H16.5779ZM16.0947 25.7312H19.0899V24.7648H16.0947V25.7312ZM18.6067 25.248V31.2077H19.5731V25.248H18.6067ZM18.6067 31.2077C18.6067 32.7137 18.1893 33.8082 17.4159 34.5638L18.0913 35.2551C19.0996 34.2699 19.5731 32.8966 19.5731 31.2077H18.6067ZM17.4139 34.5658C16.6479 35.3229 15.5452 35.7318 14.0365 35.7318V36.6982C15.7226 36.6982 17.0981 36.2367 18.0933 35.2531L17.4139 34.5658ZM22.3944 35.8925L22.517 35.4251L22.3944 35.8925ZM20.3976 35.0323L19.9561 34.8358L19.7941 35.1997L20.1205 35.4282L20.3976 35.0323ZM21.396 32.7898L21.662 32.3864L21.1863 32.0726L20.9545 32.5932L21.396 32.7898ZM23.0702 33.5578L23.2118 33.0958L23.0702 33.5578ZM26.1883 32.2982L25.9832 32.7358L25.9913 32.7396L25.9996 32.7431L26.1883 32.2982ZM24.5908 31.8221L24.6957 31.3504L24.6925 31.3497L24.5908 31.8221ZM22.5633 31.2691L22.3927 31.7213L22.4003 31.724L22.5633 31.2691ZM21.1195 26.7533L21.5179 27.0267L21.5203 27.0231L21.1195 26.7533ZM22.7169 25.4938L22.5266 25.0496L22.5243 25.0506L22.7169 25.4938ZM27.4324 25.2787L27.3202 25.7487L27.3269 25.7502L27.4324 25.2787ZM29.2449 25.9699L29.6912 26.1551L29.8524 25.7667L29.4899 25.5534L29.2449 25.9699ZM28.308 28.2278L28.0784 28.653L28.5492 28.9072L28.7543 28.413L28.308 28.2278ZM24.0072 27.6749L24.2647 28.0839L24.2752 28.0769L24.0072 27.6749ZM24.084 29.0112L23.8903 29.4539H23.8903L24.084 29.0112ZM25.666 29.4566L25.7665 28.984L25.7659 28.9839L25.666 29.4566ZM27.6936 30.025L27.5201 30.4761L27.5305 30.4798L27.6936 30.025ZM29.0913 30.9773L28.7291 31.2973L28.7372 31.3061L29.0913 30.9773ZM29.1528 34.4947L28.7544 34.2213V34.2213L29.1528 34.4947ZM27.54 35.7542L27.7303 36.1984L27.7356 36.196L27.54 35.7542ZM24.9288 35.7318C24.0986 35.7318 23.2951 35.6294 22.517 35.4251L22.2717 36.3598C23.132 36.5857 24.0181 36.6982 24.9288 36.6982V35.7318ZM22.517 35.4251C21.7348 35.2198 21.1265 34.9527 20.6747 34.6365L20.1205 35.4282C20.6927 35.8287 21.4155 36.1351 22.2717 36.3598L22.517 35.4251ZM20.839 35.2288L21.8374 32.9863L20.9545 32.5932L19.9561 34.8358L20.839 35.2288ZM21.1299 33.1931C21.655 33.5394 22.2562 33.8137 22.9286 34.0197L23.2118 33.0958C22.6144 32.9127 22.0995 32.675 21.662 32.3864L21.1299 33.1931ZM22.9286 34.0197C23.6057 34.2272 24.278 34.3328 24.9441 34.3328V33.3664C24.3814 33.3664 23.8045 33.2774 23.2118 33.0958L22.9286 34.0197ZM24.9441 34.3328C25.5525 34.3328 26.0807 34.2593 26.4735 34.0629C26.6767 33.9613 26.8582 33.8195 26.9878 33.6251C27.1193 33.4278 27.1784 33.2046 27.1784 32.9741H26.212C26.212 33.0354 26.198 33.0676 26.1837 33.0891C26.1673 33.1136 26.1299 33.1542 26.0413 33.1985C25.8504 33.294 25.5031 33.3664 24.9441 33.3664V34.3328ZM27.1784 32.9741C27.1784 32.726 27.108 32.4888 26.955 32.2848C26.8061 32.0863 26.6012 31.9485 26.377 31.8534L25.9996 32.7431C26.1133 32.7913 26.1618 32.8379 26.1819 32.8646C26.1979 32.8859 26.212 32.915 26.212 32.9741H27.1784ZM26.3934 31.8607C26.0149 31.6833 25.4386 31.5155 24.6957 31.3504L24.486 32.2938C25.2176 32.4563 25.7064 32.606 25.9832 32.7358L26.3934 31.8607ZM24.6925 31.3497C23.8962 31.1784 23.2425 30.9993 22.7264 30.8143L22.4003 31.724C22.9696 31.9281 23.6675 32.1176 24.4892 32.2945L24.6925 31.3497ZM22.7339 30.817C22.2658 30.6404 21.8653 30.3636 21.5276 29.9815L20.8035 30.6214C21.244 31.1199 21.7754 31.4882 22.3927 31.7212L22.7339 30.817ZM21.5276 29.9815C21.236 29.6514 21.0651 29.1824 21.0651 28.5197H20.0987C20.0987 29.352 20.3169 30.0708 20.8035 30.6214L21.5276 29.9815ZM21.0651 28.5197C21.0651 27.9583 21.2167 27.4655 21.5179 27.0267L20.7211 26.4799C20.3054 27.0855 20.0987 27.7703 20.0987 28.5197H21.0651ZM21.5203 27.0231C21.8178 26.5812 22.2704 26.2148 22.9096 25.9369L22.5243 25.0506C21.7503 25.3871 21.138 25.8604 20.7186 26.4835L21.5203 27.0231ZM22.9073 25.9379C23.5477 25.6634 24.3544 25.5162 25.3435 25.5162V24.5498C24.2641 24.5498 23.3197 24.7097 22.5266 25.0496L22.9073 25.9379ZM25.3435 25.5162C26.0123 25.5162 26.671 25.5937 27.3202 25.7487L27.5447 24.8087C26.8218 24.6361 26.0878 24.5498 25.3435 24.5498V25.5162ZM27.3269 25.7502C27.9716 25.8946 28.5273 26.1084 28.9999 26.3864L29.4899 25.5534C28.918 25.217 28.2654 24.9701 27.538 24.8072L27.3269 25.7502ZM28.7986 25.7847L27.8617 28.0426L28.7543 28.413L29.6912 26.1551L28.7986 25.7847ZM28.5375 27.8027C27.4577 27.2195 26.386 26.9152 25.3281 26.9152V27.8816C26.1954 27.8816 27.1103 28.1302 28.0784 28.653L28.5375 27.8027ZM25.3281 26.9152C24.6961 26.9152 24.1369 27.0076 23.7391 27.2728L24.2752 28.0769C24.4304 27.9735 24.7519 27.8816 25.3281 27.8816V26.9152ZM23.7497 27.266C23.3559 27.514 23.1092 27.8877 23.1092 28.3661H24.0756C24.0756 28.271 24.1055 28.184 24.2646 28.0838L23.7497 27.266ZM23.1092 28.3661C23.1092 28.6084 23.1809 28.8383 23.331 29.0352C23.4762 29.2258 23.6747 29.3596 23.8903 29.4539L24.2776 28.5685C24.1656 28.5195 24.1183 28.474 24.0997 28.4496C24.0859 28.4315 24.0756 28.4105 24.0756 28.3661H23.1092ZM23.8903 29.4539C24.2657 29.6181 24.8336 29.7746 25.5662 29.9294L25.7659 28.9839C25.0444 28.8314 24.5576 28.691 24.2776 28.5685L23.8903 29.4539ZM25.5656 29.9293C26.3703 30.1003 27.0195 30.2834 27.5201 30.4759L27.867 29.574C27.3026 29.3569 26.6002 29.1612 25.7665 28.984L25.5656 29.9293ZM27.5305 30.4798C27.9951 30.6463 28.393 30.9167 28.7292 31.2972L29.4534 30.6573C29.0114 30.1572 28.4775 29.7927 27.8566 29.5701L27.5305 30.4798ZM28.7372 31.3061C29.0327 31.6243 29.2072 32.0835 29.2072 32.7437H30.1736C30.1736 31.9088 29.9487 31.1904 29.4454 30.6485L28.7372 31.3061ZM29.2072 32.7437C29.2072 33.2931 29.0564 33.7811 28.7544 34.2213L29.5512 34.7681C29.9659 34.1638 30.1736 33.4845 30.1736 32.7437H29.2072ZM28.7544 34.2213C28.4574 34.654 27.9986 35.0227 27.3443 35.3124L27.7356 36.196C28.5149 35.8509 29.1313 35.3799 29.5512 34.7681L28.7544 34.2213ZM27.3496 35.3101C26.7086 35.5848 25.9068 35.7318 24.9288 35.7318V36.6982C25.9987 36.6982 26.9377 36.538 27.7303 36.1984L27.3496 35.3101ZM39.7275 33.6499H40.2107V33.1667H39.7275V33.6499ZM39.7275 36V36.4832H40.2107V36H39.7275ZM31.0952 36H30.612V36.4832H31.0952V36ZM31.0952 25.248V24.7648H30.612V25.248H31.0952ZM39.5278 25.248H40.011V24.7648H39.5278V25.248ZM39.5278 27.5981V28.0813H40.011V27.5981H39.5278ZM34.1058 27.5981V27.1149H33.6226V27.5981H34.1058ZM34.1058 29.4106H33.6226V29.8938H34.1058V29.4106ZM38.8827 29.4106H39.3659V28.9274H38.8827V29.4106ZM38.8827 31.6838V32.167H39.3659V31.6838H38.8827ZM34.1058 31.6838V31.2006H33.6226V31.6838H34.1058ZM34.1058 33.6499H33.6226V34.1331H34.1058V33.6499ZM39.2443 33.6499V36H40.2107V33.6499H39.2443ZM39.7275 35.5168H31.0952V36.4832H39.7275V35.5168ZM31.5784 36V25.248H30.612V36H31.5784ZM31.0952 25.7312H39.5278V24.7648H31.0952V25.7312ZM39.0446 25.248V27.5981H40.011V25.248H39.0446ZM39.5278 27.1149H34.1058V28.0813H39.5278V27.1149ZM33.6226 27.5981V29.4106H34.589V27.5981H33.6226ZM34.1058 29.8938H38.8827V28.9274H34.1058V29.8938ZM38.3995 29.4106V31.6838H39.3659V29.4106H38.3995ZM38.8827 31.2006H34.1058V32.167H38.8827V31.2006ZM33.6226 31.6838V33.6499H34.589V31.6838H33.6226ZM34.1058 34.1331H39.7275V33.1667H34.1058V34.1331ZM46.1154 33.143L46.5144 32.8706L46.3705 32.6598H46.1154V33.143ZM44.4565 33.143V32.6598H43.9733V33.143H44.4565ZM44.4565 36V36.4832H44.9397V36H44.4565ZM41.4152 36H40.932V36.4832H41.4152V36ZM41.4152 25.248V24.7648H40.932V25.248H41.4152ZM48.8648 25.7395L48.6639 26.179L48.6691 26.1813L48.8648 25.7395ZM50.5237 27.1219L50.1174 27.3836L50.1195 27.3867L50.5237 27.1219ZM50.5544 31.2691L50.1459 31.0111L50.1447 31.013L50.5544 31.2691ZM49.003 32.6208L48.7922 32.186L48.2868 32.4311L48.6047 32.8942L49.003 32.6208ZM51.3224 36V36.4832H52.2401L51.7208 35.7266L51.3224 36ZM48.0661 36L47.667 36.2725L47.8109 36.4832H48.0661V36ZM44.4565 27.6442V27.161H43.9733V27.6442H44.4565ZM44.4565 30.793H43.9733V31.2762H44.4565V30.793ZM47.5592 30.3936L47.8698 30.7639L47.8766 30.758L47.5592 30.3936ZM46.1154 32.6598H44.4565V33.6262H46.1154V32.6598ZM43.9733 33.143V36H44.9397V33.143H43.9733ZM44.4565 35.5168H41.4152V36.4832H44.4565V35.5168ZM41.8984 36V25.248H40.932V36H41.8984ZM41.4152 25.7312H46.3304V24.7648H41.4152V25.7312ZM46.3304 25.7312C47.2497 25.7312 48.0231 25.886 48.6639 26.179L49.0657 25.3001C48.2729 24.9376 47.3567 24.7648 46.3304 24.7648V25.7312ZM48.6691 26.1813C49.3078 26.4642 49.7841 26.8659 50.1175 27.3836L50.9299 26.8603C50.4851 26.1696 49.8554 25.6497 49.0605 25.2977L48.6691 26.1813ZM50.1195 27.3867C50.4501 27.8914 50.6242 28.4979 50.6242 29.2262H51.5906C51.5906 28.3367 51.3755 27.5403 50.9279 26.8571L50.1195 27.3867ZM50.6242 29.2262C50.6242 29.9251 50.4597 30.5142 50.1459 31.0111L50.9629 31.5271C51.3864 30.8567 51.5906 30.0839 51.5906 29.2262H50.6242ZM50.1447 31.013C49.8397 31.501 49.3956 31.8935 48.7922 32.186L49.2138 33.0556C49.9621 32.6928 50.5523 32.1841 50.9642 31.5252L50.1447 31.013ZM48.6047 32.8942L50.924 36.2734L51.7208 35.7266L49.4014 32.3474L48.6047 32.8942ZM51.3224 35.5168H48.0661V36.4832H51.3224V35.5168ZM48.4651 35.7275L46.5144 32.8706L45.7163 33.4155L47.667 36.2725L48.4651 35.7275ZM48.5186 29.2262C48.5186 28.6142 48.3197 28.0805 47.8766 27.6945L47.2419 28.4232C47.4336 28.5903 47.5522 28.8348 47.5522 29.2262H48.5186ZM47.8766 27.6945C47.4371 27.3117 46.8325 27.161 46.1461 27.161V28.1274C46.709 28.1274 47.0464 28.2531 47.2419 28.4232L47.8766 27.6945ZM46.1461 27.161H44.4565V28.1274H46.1461V27.161ZM43.9733 27.6442V30.793H44.9397V27.6442H43.9733ZM44.4565 31.2762H46.1461V30.3098H44.4565V31.2762ZM46.1461 31.2762C46.8288 31.2762 47.4306 31.1321 47.8697 30.7638L47.2487 30.0234C47.053 30.1876 46.7126 30.3098 46.1461 30.3098V31.2762ZM47.8766 30.758C48.3197 30.372 48.5186 29.8383 48.5186 29.2262H47.5522C47.5522 29.6177 47.4336 29.8622 47.2419 30.0292L47.8766 30.758Z" fill="#42D4BA"/>
<defs>
<filter id="filter0_f_582_978" x="7.77639" y="23.8233" width="44.7519" height="13.5996" filterUnits="userSpaceOnUse" color-interpolation-filters="sRGB">
<feFlood flood-opacity="0" result="BackgroundImageFix"/>
<feBlend mode="normal" in="SourceGraphic" in2="BackgroundImageFix" result="shape"/>
<feGaussianBlur stdDeviation="0.603992" result="effect1_foregroundBlur_582_978"/>
</filter>
</defs>
</svg>
