<svg width="422" height="368" viewBox="0 0 422 368" fill="none" xmlns="http://www.w3.org/2000/svg">
<path d="M385 184C385 280.098 307.098 358 211 358C114.902 358 37 280.098 37 184" stroke="black" stroke-width="20" stroke-linecap="round"/>
<path d="M385 184C385 87.9025 307.098 10 211 10C114.902 10 37 87.9025 37 184" stroke="black" stroke-width="20" stroke-linecap="square" stroke-linejoin="round"/>
<path d="M136.385 232.56C129.365 232.56 122.821 231.433 116.755 229.18C110.775 226.84 105.575 223.547 101.155 219.3C96.7346 215.053 93.268 210.07 90.7546 204.35C88.328 198.63 87.1146 192.347 87.1146 185.5C87.1146 178.653 88.328 172.37 90.7546 166.65C93.268 160.93 96.7346 155.947 101.155 151.7C105.661 147.453 110.905 144.203 116.885 141.95C122.865 139.61 129.408 138.44 136.515 138.44C144.401 138.44 151.508 139.827 157.835 142.6C164.248 145.287 169.621 149.273 173.955 154.56L160.435 167.04C157.315 163.487 153.848 160.843 150.035 159.11C146.221 157.29 142.061 156.38 137.555 156.38C133.308 156.38 129.408 157.073 125.855 158.46C122.301 159.847 119.225 161.84 116.625 164.44C114.025 167.04 111.988 170.117 110.515 173.67C109.128 177.223 108.435 181.167 108.435 185.5C108.435 189.833 109.128 193.777 110.515 197.33C111.988 200.883 114.025 203.96 116.625 206.56C119.225 209.16 122.301 211.153 125.855 212.54C129.408 213.927 133.308 214.62 137.555 214.62C142.061 214.62 146.221 213.753 150.035 212.02C153.848 210.2 157.315 207.47 160.435 203.83L173.955 216.31C169.621 221.597 164.248 225.627 157.835 228.4C151.508 231.173 144.358 232.56 136.385 232.56ZM206.138 231V157.16H177.018V140H256.318V157.16H227.198V231H206.138ZM287.149 180.95H330.829V197.85H287.149V180.95ZM288.709 231H267.649V140H336.419V156.9H288.709V231Z" fill="black"/>
<g filter="url(#filter0_d_576_892)">
<path fill-rule="evenodd" clip-rule="evenodd" d="M364 184.5C364 269.276 295.276 338 210.5 338C125.724 338 57 269.276 57 184.5C57 99.7243 125.724 31 210.5 31C295.276 31 364 99.7243 364 184.5ZM210.5 328C289.753 328 354 263.753 354 184.5C354 105.247 289.753 41 210.5 41C131.247 41 67 105.247 67 184.5C67 263.753 131.247 328 210.5 328Z" fill="black"/>
</g>
<defs>
<filter id="filter0_d_576_892" x="53" y="31" width="315" height="315" filterUnits="userSpaceOnUse" color-interpolation-filters="sRGB">
<feFlood flood-opacity="0" result="BackgroundImageFix"/>
<feColorMatrix in="SourceAlpha" type="matrix" values="0 0 0 0 0 0 0 0 0 0 0 0 0 0 0 0 0 0 127 0" result="hardAlpha"/>
<feOffset dy="4"/>
<feGaussianBlur stdDeviation="2"/>
<feComposite in2="hardAlpha" operator="out"/>
<feColorMatrix type="matrix" values="0 0 0 0 0 0 0 0 0 0 0 0 0 0 0 0 0 0 0.25 0"/>
<feBlend mode="normal" in2="BackgroundImageFix" result="effect1_dropShadow_576_892"/>
<feBlend mode="normal" in="SourceGraphic" in2="effect1_dropShadow_576_892" result="shape"/>
</filter>
</defs>
</svg>
