<svg width="1920" height="198" viewBox="0 0 1920 198" fill="none" xmlns="http://www.w3.org/2000/svg">
<path d="M1485.11 123.26C1474.69 123.26 1465.32 121.083 1456.99 116.729C1448.76 112.28 1442.27 106.127 1437.54 98.2709C1432.81 90.4143 1430.44 81.5166 1430.44 71.5776C1430.44 61.6386 1432.81 52.7409 1437.54 44.8843C1442.27 37.0278 1448.76 30.9224 1456.99 26.5682C1465.32 22.1193 1474.69 19.8949 1485.11 19.8949C1494.19 19.8949 1502.38 21.5041 1509.67 24.7224C1516.96 27.9407 1523.02 32.5789 1527.84 38.637L1509.95 54.8233C1503.52 47.0614 1495.71 43.1805 1486.53 43.1805C1481.13 43.1805 1476.3 44.3637 1472.04 46.7301C1467.88 49.0966 1464.61 52.4569 1462.25 56.8111C1459.97 61.0707 1458.84 65.9928 1458.84 71.5776C1458.84 77.1624 1459.97 82.1319 1462.25 86.4861C1464.61 90.7456 1467.88 94.0586 1472.04 96.4251C1476.3 98.7915 1481.13 99.9747 1486.53 99.9747C1495.71 99.9747 1503.52 96.0938 1509.95 88.3319L1527.84 104.518C1523.02 110.576 1516.96 115.214 1509.67 118.433C1502.38 121.651 1494.19 123.26 1485.11 123.26Z" fill="white"/>
<path d="M1560.7 44.1744H1530.17V21.8827H1619.2V44.1744H1588.81V121.273H1560.7V44.1744Z" fill="white"/>
<path d="M1657.79 43.6065V65.4722H1701.66V87.196H1657.79V121.273H1629.67V21.8827H1707.62V43.6065H1657.79Z" fill="white"/>
<path d="M-176.56 188H-183.808V159.776H-192.208C-192.4 161.248 -192.608 162.848 -192.832 164.576C-193.024 166.304 -193.248 168.064 -193.504 169.856C-193.728 171.616 -193.968 173.296 -194.224 174.896C-194.48 176.464 -194.736 177.856 -194.992 179.072C-195.408 181.056 -195.968 182.752 -196.672 184.16C-197.344 185.568 -198.288 186.64 -199.504 187.376C-200.688 188.112 -202.24 188.48 -204.16 188.48C-204.8 188.48 -205.408 188.432 -205.984 188.336C-206.56 188.24 -207.104 188.112 -207.616 187.952V182C-207.2 182.128 -206.8 182.24 -206.416 182.336C-206 182.432 -205.552 182.48 -205.072 182.48C-204.432 182.48 -203.904 182.272 -203.488 181.856C-203.072 181.44 -202.704 180.736 -202.384 179.744C-202.064 178.72 -201.744 177.312 -201.424 175.52C-201.264 174.752 -201.072 173.664 -200.848 172.256C-200.624 170.816 -200.368 169.136 -200.08 167.216C-199.76 165.264 -199.44 163.152 -199.12 160.88C-198.8 158.576 -198.496 156.192 -198.208 153.728H-176.56V188ZM-148.186 188H-167.914V153.728H-148.186V159.68H-160.666V167.216H-149.05V173.168H-160.666V182H-148.186V188ZM-127.855 188H-135.103V159.776H-144.415V153.728H-118.543V159.776H-127.855V188ZM-85.1781 188H-92.4261V173.216H-106.01V188H-113.258V153.728H-106.01V167.168H-92.4261V153.728H-85.1781V188ZM-65.035 174.848L-73.051 188H-81.115L-71.371 172.928C-72.299 172.544 -73.227 171.984 -74.155 171.248C-75.083 170.48 -75.851 169.472 -76.459 168.224C-77.067 166.944 -77.371 165.376 -77.371 163.52C-77.371 160.352 -76.235 157.936 -73.963 156.272C-71.691 154.576 -68.507 153.728 -64.411 153.728H-53.275V188H-60.523V174.848H-65.035ZM-64.123 159.68C-65.371 159.68 -66.443 159.824 -67.339 160.112C-68.203 160.4 -68.875 160.864 -69.355 161.504C-69.803 162.144 -70.027 162.992 -70.027 164.048C-70.027 165.552 -69.531 166.752 -68.539 167.648C-67.515 168.512 -65.979 168.944 -63.931 168.944H-60.523V159.68H-64.123ZM-33.1131 174.848L-41.1291 188H-49.1931L-39.4491 172.928C-40.3771 172.544 -41.3051 171.984 -42.2331 171.248C-43.1611 170.48 -43.9291 169.472 -44.5371 168.224C-45.1451 166.944 -45.4491 165.376 -45.4491 163.52C-45.4491 160.352 -44.3131 157.936 -42.0411 156.272C-39.7691 154.576 -36.5851 153.728 -32.4891 153.728H-21.3531V188H-28.6011V174.848H-33.1131ZM-32.2011 159.68C-33.4491 159.68 -34.5211 159.824 -35.4171 160.112C-36.2811 160.4 -36.9531 160.864 -37.4331 161.504C-37.8811 162.144 -38.1051 162.992 -38.1051 164.048C-38.1051 165.552 -37.6091 166.752 -36.6171 167.648C-35.5931 168.512 -34.0571 168.944 -32.0091 168.944H-28.6011V159.68H-32.2011ZM41.8303 188H-1.27375V153.728H5.97425V181.952H16.6303V153.728H23.9263V181.952H34.5823V153.728H41.8303V188ZM78.4123 188H70.1562L57.7243 170.624V188H50.4763V153.728H57.7243V170.336L70.0123 153.728H77.7403L65.2603 170.192L78.4123 188ZM112.893 170.816C112.893 173.472 112.557 175.888 111.885 178.064C111.245 180.208 110.253 182.064 108.909 183.632C107.597 185.2 105.901 186.4 103.821 187.232C101.773 188.064 99.3568 188.48 96.5728 188.48C93.7888 188.48 91.3568 188.064 89.2768 187.232C87.2288 186.368 85.5328 185.168 84.1888 183.632C82.8768 182.064 81.8848 180.192 81.2128 178.016C80.5728 175.84 80.2528 173.424 80.2528 170.768C80.2528 167.216 80.8288 164.128 81.9808 161.504C83.1648 158.88 84.9568 156.848 87.3568 155.408C89.7888 153.936 92.8768 153.2 96.6208 153.2C100.333 153.2 103.389 153.936 105.789 155.408C108.189 156.848 109.965 158.896 111.117 161.552C112.301 164.176 112.893 167.264 112.893 170.816ZM87.8848 170.816C87.8848 173.216 88.1888 175.28 88.7968 177.008C89.4048 178.736 90.3488 180.064 91.6288 180.992C92.9088 181.92 94.5568 182.384 96.5728 182.384C98.6528 182.384 100.317 181.92 101.565 180.992C102.845 180.064 103.773 178.736 104.349 177.008C104.957 175.28 105.261 173.216 105.261 170.816C105.261 167.2 104.589 164.368 103.245 162.32C101.901 160.272 99.6928 159.248 96.6208 159.248C94.5728 159.248 92.9088 159.712 91.6288 160.64C90.3488 161.568 89.4048 162.896 88.7968 164.624C88.1888 166.352 87.8848 168.416 87.8848 170.816ZM146.174 188H138.926V159.776H130.526C130.334 161.248 130.126 162.848 129.902 164.576C129.71 166.304 129.486 168.064 129.23 169.856C129.006 171.616 128.766 173.296 128.51 174.896C128.254 176.464 127.998 177.856 127.742 179.072C127.326 181.056 126.766 182.752 126.062 184.16C125.39 185.568 124.446 186.64 123.23 187.376C122.046 188.112 120.494 188.48 118.574 188.48C117.934 188.48 117.326 188.432 116.75 188.336C116.174 188.24 115.63 188.112 115.118 187.952V182C115.534 182.128 115.934 182.24 116.318 182.336C116.734 182.432 117.182 182.48 117.662 182.48C118.302 182.48 118.83 182.272 119.246 181.856C119.662 181.44 120.03 180.736 120.35 179.744C120.67 178.72 120.99 177.312 121.31 175.52C121.47 174.752 121.662 173.664 121.886 172.256C122.11 170.816 122.366 169.136 122.654 167.216C122.974 165.264 123.294 163.152 123.614 160.88C123.934 158.576 124.238 156.192 124.526 153.728H146.174V188ZM175.796 188L173.3 179.84H160.82L158.324 188H150.5L162.596 153.584H171.476L183.62 188H175.796ZM169.076 165.776C168.916 165.232 168.708 164.544 168.452 163.712C168.196 162.88 167.94 162.032 167.684 161.168C167.428 160.304 167.22 159.552 167.06 158.912C166.9 159.552 166.676 160.352 166.388 161.312C166.132 162.24 165.876 163.136 165.62 164C165.396 164.832 165.22 165.424 165.092 165.776L162.644 173.744H171.572L169.076 165.776ZM213.558 188.576C210.166 188.576 207.254 187.856 204.822 186.416C202.39 184.944 200.518 182.912 199.206 180.32C197.894 177.696 197.238 174.672 197.238 171.248C197.238 167.824 197.894 164.8 199.206 162.176C200.518 159.552 202.39 157.504 204.822 156.032C207.254 154.56 210.166 153.824 213.558 153.824C217.59 153.824 220.886 154.832 223.446 156.848C226.038 158.832 227.654 161.632 228.294 165.248H221.526C221.11 163.424 220.214 162 218.838 160.976C217.494 159.92 215.702 159.392 213.462 159.392C210.358 159.392 207.926 160.448 206.166 162.56C204.406 164.672 203.526 167.568 203.526 171.248C203.526 174.928 204.406 177.824 206.166 179.936C207.926 182.016 210.358 183.056 213.462 183.056C215.702 183.056 217.494 182.576 218.838 181.616C220.214 180.624 221.11 179.264 221.526 177.536H228.294C227.654 180.992 226.038 183.696 223.446 185.648C220.886 187.6 217.59 188.576 213.558 188.576ZM241.135 188V159.344H231.343V154.4H257.119V159.344H247.279V188H241.135ZM261.67 188V154.4H283.366V159.344H267.814V168.752H280.39V173.6H267.814V188H261.67ZM298.729 188V183.536C300.777 181.84 302.761 180.16 304.681 178.496C306.633 176.832 308.361 175.184 309.865 173.552C311.401 171.92 312.617 170.336 313.513 168.8C314.441 167.232 314.905 165.712 314.905 164.24C314.905 162.864 314.521 161.648 313.753 160.592C313.017 159.536 311.785 159.008 310.057 159.008C308.297 159.008 306.969 159.584 306.073 160.736C305.177 161.888 304.729 163.28 304.729 164.912H298.777C298.841 162.448 299.385 160.4 300.409 158.768C301.433 157.104 302.793 155.872 304.489 155.072C306.185 154.24 308.089 153.824 310.201 153.824C313.625 153.824 316.281 154.768 318.169 156.656C320.089 158.512 321.049 160.928 321.049 163.904C321.049 165.76 320.617 167.568 319.753 169.328C318.921 171.088 317.817 172.784 316.441 174.416C315.065 176.048 313.577 177.584 311.977 179.024C310.377 180.432 308.825 181.744 307.321 182.96H321.865V188H298.729ZM340.509 188.576C337.405 188.576 334.749 187.856 332.541 186.416C330.333 184.944 328.621 182.912 327.405 180.32C326.221 177.696 325.629 174.656 325.629 171.2C325.629 167.776 326.221 164.752 327.405 162.128C328.621 159.504 330.333 157.472 332.541 156.032C334.749 154.56 337.405 153.824 340.509 153.824C343.613 153.824 346.269 154.56 348.477 156.032C350.685 157.472 352.381 159.504 353.565 162.128C354.781 164.752 355.389 167.776 355.389 171.2C355.389 174.656 354.781 177.696 353.565 180.32C352.381 182.912 350.685 184.944 348.477 186.416C346.269 187.856 343.613 188.576 340.509 188.576ZM340.509 183.056C343.037 183.056 345.101 182 346.701 179.888C348.301 177.776 349.101 174.88 349.101 171.2C349.101 167.52 348.301 164.624 346.701 162.512C345.101 160.4 343.037 159.344 340.509 159.344C337.949 159.344 335.869 160.4 334.269 162.512C332.701 164.624 331.917 167.52 331.917 171.2C331.917 174.88 332.701 177.776 334.269 179.888C335.869 182 337.949 183.056 340.509 183.056ZM359.761 188V183.536C361.809 181.84 363.793 180.16 365.713 178.496C367.665 176.832 369.393 175.184 370.897 173.552C372.433 171.92 373.649 170.336 374.545 168.8C375.473 167.232 375.937 165.712 375.937 164.24C375.937 162.864 375.553 161.648 374.785 160.592C374.049 159.536 372.817 159.008 371.089 159.008C369.329 159.008 368.001 159.584 367.105 160.736C366.209 161.888 365.761 163.28 365.761 164.912H359.809C359.873 162.448 360.417 160.4 361.441 158.768C362.465 157.104 363.825 155.872 365.521 155.072C367.217 154.24 369.121 153.824 371.233 153.824C374.657 153.824 377.313 154.768 379.201 156.656C381.121 158.512 382.081 160.928 382.081 163.904C382.081 165.76 381.649 167.568 380.785 169.328C379.953 171.088 378.849 172.784 377.473 174.416C376.097 176.048 374.609 177.584 373.009 179.024C371.409 180.432 369.857 181.744 368.353 182.96H382.897V188H359.761ZM398.99 188.576C396.782 188.576 394.782 188.192 392.99 187.424C391.198 186.624 389.758 185.408 388.67 183.776C387.582 182.144 387.006 180.096 386.942 177.632H392.99C393.022 179.264 393.55 180.64 394.574 181.76C395.63 182.848 397.102 183.392 398.99 183.392C400.782 183.392 402.158 182.896 403.118 181.904C404.078 180.912 404.558 179.664 404.558 178.16C404.558 176.4 403.918 175.072 402.638 174.176C401.39 173.248 399.774 172.784 397.79 172.784H395.294V167.744H397.838C399.47 167.744 400.83 167.36 401.918 166.592C403.006 165.824 403.55 164.688 403.55 163.184C403.55 161.936 403.134 160.944 402.302 160.208C401.502 159.44 400.382 159.056 398.942 159.056C397.374 159.056 396.142 159.52 395.246 160.448C394.382 161.376 393.902 162.512 393.806 163.856H387.806C387.934 160.752 389.006 158.304 391.022 156.512C393.07 154.72 395.71 153.824 398.942 153.824C401.246 153.824 403.182 154.24 404.75 155.072C406.35 155.872 407.55 156.944 408.35 158.288C409.182 159.632 409.598 161.12 409.598 162.752C409.598 164.64 409.07 166.24 408.014 167.552C406.99 168.832 405.71 169.696 404.174 170.144C406.062 170.528 407.598 171.456 408.782 172.928C409.966 174.368 410.558 176.192 410.558 178.4C410.558 180.256 410.11 181.952 409.214 183.488C408.318 185.024 407.006 186.256 405.278 187.184C403.582 188.112 401.486 188.576 398.99 188.576Z" fill="white"/>
<path d="M457.44 188H450.192V159.776H441.792C441.6 161.248 441.392 162.848 441.168 164.576C440.976 166.304 440.752 168.064 440.496 169.856C440.272 171.616 440.032 173.296 439.776 174.896C439.52 176.464 439.264 177.856 439.008 179.072C438.592 181.056 438.032 182.752 437.328 184.16C436.656 185.568 435.712 186.64 434.496 187.376C433.312 188.112 431.76 188.48 429.84 188.48C429.2 188.48 428.592 188.432 428.016 188.336C427.44 188.24 426.896 188.112 426.384 187.952V182C426.8 182.128 427.2 182.24 427.584 182.336C428 182.432 428.448 182.48 428.928 182.48C429.568 182.48 430.096 182.272 430.512 181.856C430.928 181.44 431.296 180.736 431.616 179.744C431.936 178.72 432.256 177.312 432.576 175.52C432.736 174.752 432.928 173.664 433.152 172.256C433.376 170.816 433.632 169.136 433.92 167.216C434.24 165.264 434.56 163.152 434.88 160.88C435.2 158.576 435.504 156.192 435.792 153.728H457.44V188ZM485.814 188H466.086V153.728H485.814V159.68H473.334V167.216H484.95V173.168H473.334V182H485.814V188ZM506.145 188H498.897V159.776H489.585V153.728H515.457V159.776H506.145V188ZM548.822 188H541.574V173.216H527.99V188H520.742V153.728H527.99V167.168H541.574V153.728H548.822V188ZM568.965 174.848L560.949 188H552.885L562.629 172.928C561.701 172.544 560.773 171.984 559.845 171.248C558.917 170.48 558.149 169.472 557.541 168.224C556.933 166.944 556.629 165.376 556.629 163.52C556.629 160.352 557.765 157.936 560.037 156.272C562.309 154.576 565.493 153.728 569.589 153.728H580.725V188H573.477V174.848H568.965ZM569.877 159.68C568.629 159.68 567.557 159.824 566.661 160.112C565.797 160.4 565.125 160.864 564.645 161.504C564.197 162.144 563.973 162.992 563.973 164.048C563.973 165.552 564.469 166.752 565.461 167.648C566.485 168.512 568.021 168.944 570.069 168.944H573.477V159.68H569.877ZM600.887 174.848L592.871 188H584.807L594.551 172.928C593.623 172.544 592.695 171.984 591.767 171.248C590.839 170.48 590.071 169.472 589.463 168.224C588.855 166.944 588.551 165.376 588.551 163.52C588.551 160.352 589.687 157.936 591.959 156.272C594.231 154.576 597.415 153.728 601.511 153.728H612.647V188H605.399V174.848H600.887ZM601.799 159.68C600.551 159.68 599.479 159.824 598.583 160.112C597.719 160.4 597.047 160.864 596.567 161.504C596.119 162.144 595.895 162.992 595.895 164.048C595.895 165.552 596.391 166.752 597.383 167.648C598.407 168.512 599.943 168.944 601.991 168.944H605.399V159.68H601.799ZM675.83 188H632.726V153.728H639.974V181.952H650.63V153.728H657.926V181.952H668.582V153.728H675.83V188ZM712.412 188H704.156L691.724 170.624V188H684.476V153.728H691.724V170.336L704.012 153.728H711.74L699.26 170.192L712.412 188ZM746.893 170.816C746.893 173.472 746.557 175.888 745.885 178.064C745.245 180.208 744.253 182.064 742.909 183.632C741.597 185.2 739.901 186.4 737.821 187.232C735.773 188.064 733.357 188.48 730.573 188.48C727.789 188.48 725.357 188.064 723.277 187.232C721.229 186.368 719.533 185.168 718.189 183.632C716.877 182.064 715.885 180.192 715.213 178.016C714.573 175.84 714.253 173.424 714.253 170.768C714.253 167.216 714.829 164.128 715.981 161.504C717.165 158.88 718.957 156.848 721.357 155.408C723.789 153.936 726.877 153.2 730.621 153.2C734.333 153.2 737.389 153.936 739.789 155.408C742.189 156.848 743.965 158.896 745.117 161.552C746.301 164.176 746.893 167.264 746.893 170.816ZM721.885 170.816C721.885 173.216 722.189 175.28 722.797 177.008C723.405 178.736 724.349 180.064 725.629 180.992C726.909 181.92 728.557 182.384 730.573 182.384C732.653 182.384 734.317 181.92 735.565 180.992C736.845 180.064 737.773 178.736 738.349 177.008C738.957 175.28 739.261 173.216 739.261 170.816C739.261 167.2 738.589 164.368 737.245 162.32C735.901 160.272 733.693 159.248 730.621 159.248C728.573 159.248 726.909 159.712 725.629 160.64C724.349 161.568 723.405 162.896 722.797 164.624C722.189 166.352 721.885 168.416 721.885 170.816ZM780.174 188H772.926V159.776H764.526C764.334 161.248 764.126 162.848 763.902 164.576C763.71 166.304 763.486 168.064 763.23 169.856C763.006 171.616 762.766 173.296 762.51 174.896C762.254 176.464 761.998 177.856 761.742 179.072C761.326 181.056 760.766 182.752 760.062 184.16C759.39 185.568 758.446 186.64 757.23 187.376C756.046 188.112 754.494 188.48 752.574 188.48C751.934 188.48 751.326 188.432 750.75 188.336C750.174 188.24 749.63 188.112 749.118 187.952V182C749.534 182.128 749.934 182.24 750.318 182.336C750.734 182.432 751.182 182.48 751.662 182.48C752.302 182.48 752.83 182.272 753.246 181.856C753.662 181.44 754.03 180.736 754.35 179.744C754.67 178.72 754.99 177.312 755.31 175.52C755.47 174.752 755.662 173.664 755.886 172.256C756.11 170.816 756.366 169.136 756.654 167.216C756.974 165.264 757.294 163.152 757.614 160.88C757.934 158.576 758.238 156.192 758.526 153.728H780.174V188ZM809.796 188L807.3 179.84H794.82L792.324 188H784.5L796.596 153.584H805.476L817.62 188H809.796ZM803.076 165.776C802.916 165.232 802.708 164.544 802.452 163.712C802.196 162.88 801.94 162.032 801.684 161.168C801.428 160.304 801.22 159.552 801.06 158.912C800.9 159.552 800.676 160.352 800.388 161.312C800.132 162.24 799.876 163.136 799.62 164C799.396 164.832 799.22 165.424 799.092 165.776L796.644 173.744H805.572L803.076 165.776ZM847.558 188.576C844.166 188.576 841.254 187.856 838.822 186.416C836.39 184.944 834.518 182.912 833.206 180.32C831.894 177.696 831.238 174.672 831.238 171.248C831.238 167.824 831.894 164.8 833.206 162.176C834.518 159.552 836.39 157.504 838.822 156.032C841.254 154.56 844.166 153.824 847.558 153.824C851.59 153.824 854.886 154.832 857.446 156.848C860.038 158.832 861.654 161.632 862.294 165.248H855.526C855.11 163.424 854.214 162 852.838 160.976C851.494 159.92 849.702 159.392 847.462 159.392C844.358 159.392 841.926 160.448 840.166 162.56C838.406 164.672 837.526 167.568 837.526 171.248C837.526 174.928 838.406 177.824 840.166 179.936C841.926 182.016 844.358 183.056 847.462 183.056C849.702 183.056 851.494 182.576 852.838 181.616C854.214 180.624 855.11 179.264 855.526 177.536H862.294C861.654 180.992 860.038 183.696 857.446 185.648C854.886 187.6 851.59 188.576 847.558 188.576ZM875.135 188V159.344H865.343V154.4H891.119V159.344H881.279V188H875.135ZM895.67 188V154.4H917.366V159.344H901.814V168.752H914.39V173.6H901.814V188H895.67ZM932.729 188V183.536C934.777 181.84 936.761 180.16 938.681 178.496C940.633 176.832 942.361 175.184 943.865 173.552C945.401 171.92 946.617 170.336 947.513 168.8C948.441 167.232 948.905 165.712 948.905 164.24C948.905 162.864 948.521 161.648 947.753 160.592C947.017 159.536 945.785 159.008 944.057 159.008C942.297 159.008 940.969 159.584 940.073 160.736C939.177 161.888 938.729 163.28 938.729 164.912H932.777C932.841 162.448 933.385 160.4 934.409 158.768C935.433 157.104 936.793 155.872 938.489 155.072C940.185 154.24 942.089 153.824 944.201 153.824C947.625 153.824 950.281 154.768 952.169 156.656C954.089 158.512 955.049 160.928 955.049 163.904C955.049 165.76 954.617 167.568 953.753 169.328C952.921 171.088 951.817 172.784 950.441 174.416C949.065 176.048 947.577 177.584 945.977 179.024C944.377 180.432 942.825 181.744 941.321 182.96H955.865V188H932.729ZM974.509 188.576C971.405 188.576 968.749 187.856 966.541 186.416C964.333 184.944 962.621 182.912 961.405 180.32C960.221 177.696 959.629 174.656 959.629 171.2C959.629 167.776 960.221 164.752 961.405 162.128C962.621 159.504 964.333 157.472 966.541 156.032C968.749 154.56 971.405 153.824 974.509 153.824C977.613 153.824 980.269 154.56 982.477 156.032C984.685 157.472 986.381 159.504 987.565 162.128C988.781 164.752 989.389 167.776 989.389 171.2C989.389 174.656 988.781 177.696 987.565 180.32C986.381 182.912 984.685 184.944 982.477 186.416C980.269 187.856 977.613 188.576 974.509 188.576ZM974.509 183.056C977.037 183.056 979.101 182 980.701 179.888C982.301 177.776 983.101 174.88 983.101 171.2C983.101 167.52 982.301 164.624 980.701 162.512C979.101 160.4 977.037 159.344 974.509 159.344C971.949 159.344 969.869 160.4 968.269 162.512C966.701 164.624 965.917 167.52 965.917 171.2C965.917 174.88 966.701 177.776 968.269 179.888C969.869 182 971.949 183.056 974.509 183.056ZM993.761 188V183.536C995.809 181.84 997.793 180.16 999.713 178.496C1001.66 176.832 1003.39 175.184 1004.9 173.552C1006.43 171.92 1007.65 170.336 1008.54 168.8C1009.47 167.232 1009.94 165.712 1009.94 164.24C1009.94 162.864 1009.55 161.648 1008.78 160.592C1008.05 159.536 1006.82 159.008 1005.09 159.008C1003.33 159.008 1002 159.584 1001.1 160.736C1000.21 161.888 999.761 163.28 999.761 164.912H993.809C993.873 162.448 994.417 160.4 995.441 158.768C996.465 157.104 997.825 155.872 999.521 155.072C1001.22 154.24 1003.12 153.824 1005.23 153.824C1008.66 153.824 1011.31 154.768 1013.2 156.656C1015.12 158.512 1016.08 160.928 1016.08 163.904C1016.08 165.76 1015.65 167.568 1014.78 169.328C1013.95 171.088 1012.85 172.784 1011.47 174.416C1010.1 176.048 1008.61 177.584 1007.01 179.024C1005.41 180.432 1003.86 181.744 1002.35 182.96H1016.9V188H993.761ZM1032.99 188.576C1030.78 188.576 1028.78 188.192 1026.99 187.424C1025.2 186.624 1023.76 185.408 1022.67 183.776C1021.58 182.144 1021.01 180.096 1020.94 177.632H1026.99C1027.02 179.264 1027.55 180.64 1028.57 181.76C1029.63 182.848 1031.1 183.392 1032.99 183.392C1034.78 183.392 1036.16 182.896 1037.12 181.904C1038.08 180.912 1038.56 179.664 1038.56 178.16C1038.56 176.4 1037.92 175.072 1036.64 174.176C1035.39 173.248 1033.77 172.784 1031.79 172.784H1029.29V167.744H1031.84C1033.47 167.744 1034.83 167.36 1035.92 166.592C1037.01 165.824 1037.55 164.688 1037.55 163.184C1037.55 161.936 1037.13 160.944 1036.3 160.208C1035.5 159.44 1034.38 159.056 1032.94 159.056C1031.37 159.056 1030.14 159.52 1029.25 160.448C1028.38 161.376 1027.9 162.512 1027.81 163.856H1021.81C1021.93 160.752 1023.01 158.304 1025.02 156.512C1027.07 154.72 1029.71 153.824 1032.94 153.824C1035.25 153.824 1037.18 154.24 1038.75 155.072C1040.35 155.872 1041.55 156.944 1042.35 158.288C1043.18 159.632 1043.6 161.12 1043.6 162.752C1043.6 164.64 1043.07 166.24 1042.01 167.552C1040.99 168.832 1039.71 169.696 1038.17 170.144C1040.06 170.528 1041.6 171.456 1042.78 172.928C1043.97 174.368 1044.56 176.192 1044.56 178.4C1044.56 180.256 1044.11 181.952 1043.21 183.488C1042.32 185.024 1041.01 186.256 1039.28 187.184C1037.58 188.112 1035.49 188.576 1032.99 188.576Z" fill="white"/>
<path d="M1091.44 188H1084.19V159.776H1075.79C1075.6 161.248 1075.39 162.848 1075.17 164.576C1074.98 166.304 1074.75 168.064 1074.5 169.856C1074.27 171.616 1074.03 173.296 1073.78 174.896C1073.52 176.464 1073.26 177.856 1073.01 179.072C1072.59 181.056 1072.03 182.752 1071.33 184.16C1070.66 185.568 1069.71 186.64 1068.5 187.376C1067.31 188.112 1065.76 188.48 1063.84 188.48C1063.2 188.48 1062.59 188.432 1062.02 188.336C1061.44 188.24 1060.9 188.112 1060.38 187.952V182C1060.8 182.128 1061.2 182.24 1061.58 182.336C1062 182.432 1062.45 182.48 1062.93 182.48C1063.57 182.48 1064.1 182.272 1064.51 181.856C1064.93 181.44 1065.3 180.736 1065.62 179.744C1065.94 178.72 1066.26 177.312 1066.58 175.52C1066.74 174.752 1066.93 173.664 1067.15 172.256C1067.38 170.816 1067.63 169.136 1067.92 167.216C1068.24 165.264 1068.56 163.152 1068.88 160.88C1069.2 158.576 1069.5 156.192 1069.79 153.728H1091.44V188ZM1119.81 188H1100.09V153.728H1119.81V159.68H1107.33V167.216H1118.95V173.168H1107.33V182H1119.81V188ZM1140.15 188H1132.9V159.776H1123.59V153.728H1149.46V159.776H1140.15V188ZM1182.82 188H1175.57V173.216H1161.99V188H1154.74V153.728H1161.99V167.168H1175.57V153.728H1182.82V188ZM1202.97 174.848L1194.95 188H1186.88L1196.63 172.928C1195.7 172.544 1194.77 171.984 1193.85 171.248C1192.92 170.48 1192.15 169.472 1191.54 168.224C1190.93 166.944 1190.63 165.376 1190.63 163.52C1190.63 160.352 1191.77 157.936 1194.04 156.272C1196.31 154.576 1199.49 153.728 1203.59 153.728H1214.73V188H1207.48V174.848H1202.97ZM1203.88 159.68C1202.63 159.68 1201.56 159.824 1200.66 160.112C1199.8 160.4 1199.13 160.864 1198.65 161.504C1198.2 162.144 1197.97 162.992 1197.97 164.048C1197.97 165.552 1198.47 166.752 1199.46 167.648C1200.49 168.512 1202.02 168.944 1204.07 168.944H1207.48V159.68H1203.88ZM1234.89 174.848L1226.87 188H1218.81L1228.55 172.928C1227.62 172.544 1226.69 171.984 1225.77 171.248C1224.84 170.48 1224.07 169.472 1223.46 168.224C1222.85 166.944 1222.55 165.376 1222.55 163.52C1222.55 160.352 1223.69 157.936 1225.96 156.272C1228.23 154.576 1231.41 153.728 1235.51 153.728H1246.65V188H1239.4V174.848H1234.89ZM1235.8 159.68C1234.55 159.68 1233.48 159.824 1232.58 160.112C1231.72 160.4 1231.05 160.864 1230.57 161.504C1230.12 162.144 1229.89 162.992 1229.89 164.048C1229.89 165.552 1230.39 166.752 1231.38 167.648C1232.41 168.512 1233.94 168.944 1235.99 168.944H1239.4V159.68H1235.8ZM1309.83 188H1266.73V153.728H1273.97V181.952H1284.63V153.728H1291.93V181.952H1302.58V153.728H1309.83V188ZM1346.41 188H1338.16L1325.72 170.624V188H1318.48V153.728H1325.72V170.336L1338.01 153.728H1345.74L1333.26 170.192L1346.41 188ZM1380.89 170.816C1380.89 173.472 1380.56 175.888 1379.88 178.064C1379.24 180.208 1378.25 182.064 1376.91 183.632C1375.6 185.2 1373.9 186.4 1371.82 187.232C1369.77 188.064 1367.36 188.48 1364.57 188.48C1361.79 188.48 1359.36 188.064 1357.28 187.232C1355.23 186.368 1353.53 185.168 1352.19 183.632C1350.88 182.064 1349.88 180.192 1349.21 178.016C1348.57 175.84 1348.25 173.424 1348.25 170.768C1348.25 167.216 1348.83 164.128 1349.98 161.504C1351.16 158.88 1352.96 156.848 1355.36 155.408C1357.79 153.936 1360.88 153.2 1364.62 153.2C1368.33 153.2 1371.39 153.936 1373.79 155.408C1376.19 156.848 1377.96 158.896 1379.12 161.552C1380.3 164.176 1380.89 167.264 1380.89 170.816ZM1355.88 170.816C1355.88 173.216 1356.19 175.28 1356.8 177.008C1357.4 178.736 1358.35 180.064 1359.63 180.992C1360.91 181.92 1362.56 182.384 1364.57 182.384C1366.65 182.384 1368.32 181.92 1369.56 180.992C1370.84 180.064 1371.77 178.736 1372.35 177.008C1372.96 175.28 1373.26 173.216 1373.26 170.816C1373.26 167.2 1372.59 164.368 1371.24 162.32C1369.9 160.272 1367.69 159.248 1364.62 159.248C1362.57 159.248 1360.91 159.712 1359.63 160.64C1358.35 161.568 1357.4 162.896 1356.8 164.624C1356.19 166.352 1355.88 168.416 1355.88 170.816ZM1414.17 188H1406.93V159.776H1398.53C1398.33 161.248 1398.13 162.848 1397.9 164.576C1397.71 166.304 1397.49 168.064 1397.23 169.856C1397.01 171.616 1396.77 173.296 1396.51 174.896C1396.25 176.464 1396 177.856 1395.74 179.072C1395.33 181.056 1394.77 182.752 1394.06 184.16C1393.39 185.568 1392.45 186.64 1391.23 187.376C1390.05 188.112 1388.49 188.48 1386.57 188.48C1385.93 188.48 1385.33 188.432 1384.75 188.336C1384.17 188.24 1383.63 188.112 1383.12 187.952V182C1383.53 182.128 1383.93 182.24 1384.32 182.336C1384.73 182.432 1385.18 182.48 1385.66 182.48C1386.3 182.48 1386.83 182.272 1387.25 181.856C1387.66 181.44 1388.03 180.736 1388.35 179.744C1388.67 178.72 1388.99 177.312 1389.31 175.52C1389.47 174.752 1389.66 173.664 1389.89 172.256C1390.11 170.816 1390.37 169.136 1390.65 167.216C1390.97 165.264 1391.29 163.152 1391.61 160.88C1391.93 158.576 1392.24 156.192 1392.53 153.728H1414.17V188ZM1443.8 188L1441.3 179.84H1428.82L1426.32 188H1418.5L1430.6 153.584H1439.48L1451.62 188H1443.8ZM1437.08 165.776C1436.92 165.232 1436.71 164.544 1436.45 163.712C1436.2 162.88 1435.94 162.032 1435.68 161.168C1435.43 160.304 1435.22 159.552 1435.06 158.912C1434.9 159.552 1434.68 160.352 1434.39 161.312C1434.13 162.24 1433.88 163.136 1433.62 164C1433.4 164.832 1433.22 165.424 1433.09 165.776L1430.64 173.744H1439.57L1437.08 165.776ZM1481.56 188.576C1478.17 188.576 1475.25 187.856 1472.82 186.416C1470.39 184.944 1468.52 182.912 1467.21 180.32C1465.89 177.696 1465.24 174.672 1465.24 171.248C1465.24 167.824 1465.89 164.8 1467.21 162.176C1468.52 159.552 1470.39 157.504 1472.82 156.032C1475.25 154.56 1478.17 153.824 1481.56 153.824C1485.59 153.824 1488.89 154.832 1491.45 156.848C1494.04 158.832 1495.65 161.632 1496.29 165.248H1489.53C1489.11 163.424 1488.21 162 1486.84 160.976C1485.49 159.92 1483.7 159.392 1481.46 159.392C1478.36 159.392 1475.93 160.448 1474.17 162.56C1472.41 164.672 1471.53 167.568 1471.53 171.248C1471.53 174.928 1472.41 177.824 1474.17 179.936C1475.93 182.016 1478.36 183.056 1481.46 183.056C1483.7 183.056 1485.49 182.576 1486.84 181.616C1488.21 180.624 1489.11 179.264 1489.53 177.536H1496.29C1495.65 180.992 1494.04 183.696 1491.45 185.648C1488.89 187.6 1485.59 188.576 1481.56 188.576ZM1509.13 188V159.344H1499.34V154.4H1525.12V159.344H1515.28V188H1509.13ZM1529.67 188V154.4H1551.37V159.344H1535.81V168.752H1548.39V173.6H1535.81V188H1529.67ZM1566.73 188V183.536C1568.78 181.84 1570.76 180.16 1572.68 178.496C1574.63 176.832 1576.36 175.184 1577.87 173.552C1579.4 171.92 1580.62 170.336 1581.51 168.8C1582.44 167.232 1582.91 165.712 1582.91 164.24C1582.91 162.864 1582.52 161.648 1581.75 160.592C1581.02 159.536 1579.79 159.008 1578.06 159.008C1576.3 159.008 1574.97 159.584 1574.07 160.736C1573.18 161.888 1572.73 163.28 1572.73 164.912H1566.78C1566.84 162.448 1567.39 160.4 1568.41 158.768C1569.43 157.104 1570.79 155.872 1572.49 155.072C1574.19 154.24 1576.09 153.824 1578.2 153.824C1581.63 153.824 1584.28 154.768 1586.17 156.656C1588.09 158.512 1589.05 160.928 1589.05 163.904C1589.05 165.76 1588.62 167.568 1587.75 169.328C1586.92 171.088 1585.82 172.784 1584.44 174.416C1583.07 176.048 1581.58 177.584 1579.98 179.024C1578.38 180.432 1576.83 181.744 1575.32 182.96H1589.87V188H1566.73ZM1608.51 188.576C1605.4 188.576 1602.75 187.856 1600.54 186.416C1598.33 184.944 1596.62 182.912 1595.4 180.32C1594.22 177.696 1593.63 174.656 1593.63 171.2C1593.63 167.776 1594.22 164.752 1595.4 162.128C1596.62 159.504 1598.33 157.472 1600.54 156.032C1602.75 154.56 1605.4 153.824 1608.51 153.824C1611.61 153.824 1614.27 154.56 1616.48 156.032C1618.68 157.472 1620.38 159.504 1621.56 162.128C1622.78 164.752 1623.39 167.776 1623.39 171.2C1623.39 174.656 1622.78 177.696 1621.56 180.32C1620.38 182.912 1618.68 184.944 1616.48 186.416C1614.27 187.856 1611.61 188.576 1608.51 188.576ZM1608.51 183.056C1611.04 183.056 1613.1 182 1614.7 179.888C1616.3 177.776 1617.1 174.88 1617.1 171.2C1617.1 167.52 1616.3 164.624 1614.7 162.512C1613.1 160.4 1611.04 159.344 1608.51 159.344C1605.95 159.344 1603.87 160.4 1602.27 162.512C1600.7 164.624 1599.92 167.52 1599.92 171.2C1599.92 174.88 1600.7 177.776 1602.27 179.888C1603.87 182 1605.95 183.056 1608.51 183.056ZM1627.76 188V183.536C1629.81 181.84 1631.79 180.16 1633.71 178.496C1635.66 176.832 1637.39 175.184 1638.9 173.552C1640.43 171.92 1641.65 170.336 1642.54 168.8C1643.47 167.232 1643.94 165.712 1643.94 164.24C1643.94 162.864 1643.55 161.648 1642.78 160.592C1642.05 159.536 1640.82 159.008 1639.09 159.008C1637.33 159.008 1636 159.584 1635.1 160.736C1634.21 161.888 1633.76 163.28 1633.76 164.912H1627.81C1627.87 162.448 1628.42 160.4 1629.44 158.768C1630.46 157.104 1631.82 155.872 1633.52 155.072C1635.22 154.24 1637.12 153.824 1639.23 153.824C1642.66 153.824 1645.31 154.768 1647.2 156.656C1649.12 158.512 1650.08 160.928 1650.08 163.904C1650.08 165.76 1649.65 167.568 1648.78 169.328C1647.95 171.088 1646.85 172.784 1645.47 174.416C1644.1 176.048 1642.61 177.584 1641.01 179.024C1639.41 180.432 1637.86 181.744 1636.35 182.96H1650.9V188H1627.76ZM1666.99 188.576C1664.78 188.576 1662.78 188.192 1660.99 187.424C1659.2 186.624 1657.76 185.408 1656.67 183.776C1655.58 182.144 1655.01 180.096 1654.94 177.632H1660.99C1661.02 179.264 1661.55 180.64 1662.57 181.76C1663.63 182.848 1665.1 183.392 1666.99 183.392C1668.78 183.392 1670.16 182.896 1671.12 181.904C1672.08 180.912 1672.56 179.664 1672.56 178.16C1672.56 176.4 1671.92 175.072 1670.64 174.176C1669.39 173.248 1667.77 172.784 1665.79 172.784H1663.29V167.744H1665.84C1667.47 167.744 1668.83 167.36 1669.92 166.592C1671.01 165.824 1671.55 164.688 1671.55 163.184C1671.55 161.936 1671.13 160.944 1670.3 160.208C1669.5 159.44 1668.38 159.056 1666.94 159.056C1665.37 159.056 1664.14 159.52 1663.25 160.448C1662.38 161.376 1661.9 162.512 1661.81 163.856H1655.81C1655.93 160.752 1657.01 158.304 1659.02 156.512C1661.07 154.72 1663.71 153.824 1666.94 153.824C1669.25 153.824 1671.18 154.24 1672.75 155.072C1674.35 155.872 1675.55 156.944 1676.35 158.288C1677.18 159.632 1677.6 161.12 1677.6 162.752C1677.6 164.64 1677.07 166.24 1676.01 167.552C1674.99 168.832 1673.71 169.696 1672.17 170.144C1674.06 170.528 1675.6 171.456 1676.78 172.928C1677.97 174.368 1678.56 176.192 1678.56 178.4C1678.56 180.256 1678.11 181.952 1677.21 183.488C1676.32 185.024 1675.01 186.256 1673.28 187.184C1671.58 188.112 1669.49 188.576 1666.99 188.576Z" fill="white"/>
<path d="M1716.44 188H1709.19V159.776H1700.79C1700.6 161.248 1700.39 162.848 1700.17 164.576C1699.98 166.304 1699.75 168.064 1699.5 169.856C1699.27 171.616 1699.03 173.296 1698.78 174.896C1698.52 176.464 1698.26 177.856 1698.01 179.072C1697.59 181.056 1697.03 182.752 1696.33 184.16C1695.66 185.568 1694.71 186.64 1693.5 187.376C1692.31 188.112 1690.76 188.48 1688.84 188.48C1688.2 188.48 1687.59 188.432 1687.02 188.336C1686.44 188.24 1685.9 188.112 1685.38 187.952V182C1685.8 182.128 1686.2 182.24 1686.58 182.336C1687 182.432 1687.45 182.48 1687.93 182.48C1688.57 182.48 1689.1 182.272 1689.51 181.856C1689.93 181.44 1690.3 180.736 1690.62 179.744C1690.94 178.72 1691.26 177.312 1691.58 175.52C1691.74 174.752 1691.93 173.664 1692.15 172.256C1692.38 170.816 1692.63 169.136 1692.92 167.216C1693.24 165.264 1693.56 163.152 1693.88 160.88C1694.2 158.576 1694.5 156.192 1694.79 153.728H1716.44V188ZM1744.81 188H1725.09V153.728H1744.81V159.68H1732.33V167.216H1743.95V173.168H1732.33V182H1744.81V188ZM1765.15 188H1757.9V159.776H1748.59V153.728H1774.46V159.776H1765.15V188ZM1807.82 188H1800.57V173.216H1786.99V188H1779.74V153.728H1786.99V167.168H1800.57V153.728H1807.82V188ZM1827.97 174.848L1819.95 188H1811.88L1821.63 172.928C1820.7 172.544 1819.77 171.984 1818.85 171.248C1817.92 170.48 1817.15 169.472 1816.54 168.224C1815.93 166.944 1815.63 165.376 1815.63 163.52C1815.63 160.352 1816.77 157.936 1819.04 156.272C1821.31 154.576 1824.49 153.728 1828.59 153.728H1839.73V188H1832.48V174.848H1827.97ZM1828.88 159.68C1827.63 159.68 1826.56 159.824 1825.66 160.112C1824.8 160.4 1824.13 160.864 1823.65 161.504C1823.2 162.144 1822.97 162.992 1822.97 164.048C1822.97 165.552 1823.47 166.752 1824.46 167.648C1825.49 168.512 1827.02 168.944 1829.07 168.944H1832.48V159.68H1828.88ZM1859.89 174.848L1851.87 188H1843.81L1853.55 172.928C1852.62 172.544 1851.69 171.984 1850.77 171.248C1849.84 170.48 1849.07 169.472 1848.46 168.224C1847.85 166.944 1847.55 165.376 1847.55 163.52C1847.55 160.352 1848.69 157.936 1850.96 156.272C1853.23 154.576 1856.41 153.728 1860.51 153.728H1871.65V188H1864.4V174.848H1859.89ZM1860.8 159.68C1859.55 159.68 1858.48 159.824 1857.58 160.112C1856.72 160.4 1856.05 160.864 1855.57 161.504C1855.12 162.144 1854.89 162.992 1854.89 164.048C1854.89 165.552 1855.39 166.752 1856.38 167.648C1857.41 168.512 1858.94 168.944 1860.99 168.944H1864.4V159.68H1860.8ZM1934.83 188H1891.73V153.728H1898.97V181.952H1909.63V153.728H1916.93V181.952H1927.58V153.728H1934.83V188ZM1971.41 188H1963.16L1950.72 170.624V188H1943.48V153.728H1950.72V170.336L1963.01 153.728H1970.74L1958.26 170.192L1971.41 188ZM2005.89 170.816C2005.89 173.472 2005.56 175.888 2004.88 178.064C2004.24 180.208 2003.25 182.064 2001.91 183.632C2000.6 185.2 1998.9 186.4 1996.82 187.232C1994.77 188.064 1992.36 188.48 1989.57 188.48C1986.79 188.48 1984.36 188.064 1982.28 187.232C1980.23 186.368 1978.53 185.168 1977.19 183.632C1975.88 182.064 1974.88 180.192 1974.21 178.016C1973.57 175.84 1973.25 173.424 1973.25 170.768C1973.25 167.216 1973.83 164.128 1974.98 161.504C1976.16 158.88 1977.96 156.848 1980.36 155.408C1982.79 153.936 1985.88 153.2 1989.62 153.2C1993.33 153.2 1996.39 153.936 1998.79 155.408C2001.19 156.848 2002.96 158.896 2004.12 161.552C2005.3 164.176 2005.89 167.264 2005.89 170.816ZM1980.88 170.816C1980.88 173.216 1981.19 175.28 1981.8 177.008C1982.4 178.736 1983.35 180.064 1984.63 180.992C1985.91 181.92 1987.56 182.384 1989.57 182.384C1991.65 182.384 1993.32 181.92 1994.56 180.992C1995.84 180.064 1996.77 178.736 1997.35 177.008C1997.96 175.28 1998.26 173.216 1998.26 170.816C1998.26 167.2 1997.59 164.368 1996.24 162.32C1994.9 160.272 1992.69 159.248 1989.62 159.248C1987.57 159.248 1985.91 159.712 1984.63 160.64C1983.35 161.568 1982.4 162.896 1981.8 164.624C1981.19 166.352 1980.88 168.416 1980.88 170.816ZM2039.17 188H2031.93V159.776H2023.53C2023.33 161.248 2023.13 162.848 2022.9 164.576C2022.71 166.304 2022.49 168.064 2022.23 169.856C2022.01 171.616 2021.77 173.296 2021.51 174.896C2021.25 176.464 2021 177.856 2020.74 179.072C2020.33 181.056 2019.77 182.752 2019.06 184.16C2018.39 185.568 2017.45 186.64 2016.23 187.376C2015.05 188.112 2013.49 188.48 2011.57 188.48C2010.93 188.48 2010.33 188.432 2009.75 188.336C2009.17 188.24 2008.63 188.112 2008.12 187.952V182C2008.53 182.128 2008.93 182.24 2009.32 182.336C2009.73 182.432 2010.18 182.48 2010.66 182.48C2011.3 182.48 2011.83 182.272 2012.25 181.856C2012.66 181.44 2013.03 180.736 2013.35 179.744C2013.67 178.72 2013.99 177.312 2014.31 175.52C2014.47 174.752 2014.66 173.664 2014.89 172.256C2015.11 170.816 2015.37 169.136 2015.65 167.216C2015.97 165.264 2016.29 163.152 2016.61 160.88C2016.93 158.576 2017.24 156.192 2017.53 153.728H2039.17V188ZM2068.8 188L2066.3 179.84H2053.82L2051.32 188H2043.5L2055.6 153.584H2064.48L2076.62 188H2068.8ZM2062.08 165.776C2061.92 165.232 2061.71 164.544 2061.45 163.712C2061.2 162.88 2060.94 162.032 2060.68 161.168C2060.43 160.304 2060.22 159.552 2060.06 158.912C2059.9 159.552 2059.68 160.352 2059.39 161.312C2059.13 162.24 2058.88 163.136 2058.62 164C2058.4 164.832 2058.22 165.424 2058.09 165.776L2055.64 173.744H2064.57L2062.08 165.776ZM2106.56 188.576C2103.17 188.576 2100.25 187.856 2097.82 186.416C2095.39 184.944 2093.52 182.912 2092.21 180.32C2090.89 177.696 2090.24 174.672 2090.24 171.248C2090.24 167.824 2090.89 164.8 2092.21 162.176C2093.52 159.552 2095.39 157.504 2097.82 156.032C2100.25 154.56 2103.17 153.824 2106.56 153.824C2110.59 153.824 2113.89 154.832 2116.45 156.848C2119.04 158.832 2120.65 161.632 2121.29 165.248H2114.53C2114.11 163.424 2113.21 162 2111.84 160.976C2110.49 159.92 2108.7 159.392 2106.46 159.392C2103.36 159.392 2100.93 160.448 2099.17 162.56C2097.41 164.672 2096.53 167.568 2096.53 171.248C2096.53 174.928 2097.41 177.824 2099.17 179.936C2100.93 182.016 2103.36 183.056 2106.46 183.056C2108.7 183.056 2110.49 182.576 2111.84 181.616C2113.21 180.624 2114.11 179.264 2114.53 177.536H2121.29C2120.65 180.992 2119.04 183.696 2116.45 185.648C2113.89 187.6 2110.59 188.576 2106.56 188.576ZM2134.13 188V159.344H2124.34V154.4H2150.12V159.344H2140.28V188H2134.13ZM2154.67 188V154.4H2176.37V159.344H2160.81V168.752H2173.39V173.6H2160.81V188H2154.67ZM2191.73 188V183.536C2193.78 181.84 2195.76 180.16 2197.68 178.496C2199.63 176.832 2201.36 175.184 2202.87 173.552C2204.4 171.92 2205.62 170.336 2206.51 168.8C2207.44 167.232 2207.91 165.712 2207.91 164.24C2207.91 162.864 2207.52 161.648 2206.75 160.592C2206.02 159.536 2204.79 159.008 2203.06 159.008C2201.3 159.008 2199.97 159.584 2199.07 160.736C2198.18 161.888 2197.73 163.28 2197.73 164.912H2191.78C2191.84 162.448 2192.39 160.4 2193.41 158.768C2194.43 157.104 2195.79 155.872 2197.49 155.072C2199.19 154.24 2201.09 153.824 2203.2 153.824C2206.63 153.824 2209.28 154.768 2211.17 156.656C2213.09 158.512 2214.05 160.928 2214.05 163.904C2214.05 165.76 2213.62 167.568 2212.75 169.328C2211.92 171.088 2210.82 172.784 2209.44 174.416C2208.07 176.048 2206.58 177.584 2204.98 179.024C2203.38 180.432 2201.83 181.744 2200.32 182.96H2214.87V188H2191.73ZM2233.51 188.576C2230.4 188.576 2227.75 187.856 2225.54 186.416C2223.33 184.944 2221.62 182.912 2220.4 180.32C2219.22 177.696 2218.63 174.656 2218.63 171.2C2218.63 167.776 2219.22 164.752 2220.4 162.128C2221.62 159.504 2223.33 157.472 2225.54 156.032C2227.75 154.56 2230.4 153.824 2233.51 153.824C2236.61 153.824 2239.27 154.56 2241.48 156.032C2243.68 157.472 2245.38 159.504 2246.56 162.128C2247.78 164.752 2248.39 167.776 2248.39 171.2C2248.39 174.656 2247.78 177.696 2246.56 180.32C2245.38 182.912 2243.68 184.944 2241.48 186.416C2239.27 187.856 2236.61 188.576 2233.51 188.576ZM2233.51 183.056C2236.04 183.056 2238.1 182 2239.7 179.888C2241.3 177.776 2242.1 174.88 2242.1 171.2C2242.1 167.52 2241.3 164.624 2239.7 162.512C2238.1 160.4 2236.04 159.344 2233.51 159.344C2230.95 159.344 2228.87 160.4 2227.27 162.512C2225.7 164.624 2224.92 167.52 2224.92 171.2C2224.92 174.88 2225.7 177.776 2227.27 179.888C2228.87 182 2230.95 183.056 2233.51 183.056ZM2252.76 188V183.536C2254.81 181.84 2256.79 180.16 2258.71 178.496C2260.66 176.832 2262.39 175.184 2263.9 173.552C2265.43 171.92 2266.65 170.336 2267.54 168.8C2268.47 167.232 2268.94 165.712 2268.94 164.24C2268.94 162.864 2268.55 161.648 2267.78 160.592C2267.05 159.536 2265.82 159.008 2264.09 159.008C2262.33 159.008 2261 159.584 2260.1 160.736C2259.21 161.888 2258.76 163.28 2258.76 164.912H2252.81C2252.87 162.448 2253.42 160.4 2254.44 158.768C2255.46 157.104 2256.82 155.872 2258.52 155.072C2260.22 154.24 2262.12 153.824 2264.23 153.824C2267.66 153.824 2270.31 154.768 2272.2 156.656C2274.12 158.512 2275.08 160.928 2275.08 163.904C2275.08 165.76 2274.65 167.568 2273.78 169.328C2272.95 171.088 2271.85 172.784 2270.47 174.416C2269.1 176.048 2267.61 177.584 2266.01 179.024C2264.41 180.432 2262.86 181.744 2261.35 182.96H2275.9V188H2252.76ZM2291.99 188.576C2289.78 188.576 2287.78 188.192 2285.99 187.424C2284.2 186.624 2282.76 185.408 2281.67 183.776C2280.58 182.144 2280.01 180.096 2279.94 177.632H2285.99C2286.02 179.264 2286.55 180.64 2287.57 181.76C2288.63 182.848 2290.1 183.392 2291.99 183.392C2293.78 183.392 2295.16 182.896 2296.12 181.904C2297.08 180.912 2297.56 179.664 2297.56 178.16C2297.56 176.4 2296.92 175.072 2295.64 174.176C2294.39 173.248 2292.77 172.784 2290.79 172.784H2288.29V167.744H2290.84C2292.47 167.744 2293.83 167.36 2294.92 166.592C2296.01 165.824 2296.55 164.688 2296.55 163.184C2296.55 161.936 2296.13 160.944 2295.3 160.208C2294.5 159.44 2293.38 159.056 2291.94 159.056C2290.37 159.056 2289.14 159.52 2288.25 160.448C2287.38 161.376 2286.9 162.512 2286.81 163.856H2280.81C2280.93 160.752 2282.01 158.304 2284.02 156.512C2286.07 154.72 2288.71 153.824 2291.94 153.824C2294.25 153.824 2296.18 154.24 2297.75 155.072C2299.35 155.872 2300.55 156.944 2301.35 158.288C2302.18 159.632 2302.6 161.12 2302.6 162.752C2302.6 164.64 2302.07 166.24 2301.01 167.552C2299.99 168.832 2298.71 169.696 2297.17 170.144C2299.06 170.528 2300.6 171.456 2301.78 172.928C2302.97 174.368 2303.56 176.192 2303.56 178.4C2303.56 180.256 2303.11 181.952 2302.21 183.488C2301.32 185.024 2300.01 186.256 2298.28 187.184C2296.58 188.112 2294.49 188.576 2291.99 188.576Z" fill="white"/>
<path d="M564.385 121.313C553.973 121.313 544.602 119.136 536.272 114.782C528.037 110.333 521.553 104.18 516.82 96.3234C512.087 88.4669 509.72 79.5691 509.72 69.6302C509.72 59.6912 512.087 50.7934 516.82 42.9369C521.553 35.0804 528.037 28.975 536.272 24.6208C544.602 20.1719 553.973 17.9474 564.385 17.9474C573.472 17.9474 581.66 19.5566 588.948 22.775C596.237 25.9933 602.295 30.6315 607.122 36.6895L589.232 52.8759C582.796 45.114 574.986 41.2331 565.805 41.2331C560.409 41.2331 555.582 42.4163 551.322 44.7827C547.157 47.1491 543.892 50.5094 541.525 54.8637C539.253 59.1232 538.118 64.0454 538.118 69.6302C538.118 75.2149 539.253 80.1844 541.525 84.5386C543.892 88.7982 547.157 92.1112 551.322 94.4776C555.582 96.844 560.409 98.0272 565.805 98.0272C574.986 98.0272 582.796 94.1463 589.232 86.3844L607.122 102.571C602.295 108.629 596.237 113.267 588.948 116.485C581.66 119.704 573.472 121.313 564.385 121.313Z" fill="white"/>
<path d="M639.981 42.227H609.454V19.9352H698.479V42.227H668.094V119.325H639.981V42.227Z" fill="white"/>
<path d="M737.066 41.659V63.5248H780.939V85.2486H737.066V119.325H708.953V19.9352H786.903V41.659H737.066Z" fill="white"/>
<g filter="url(#filter0_f_349_828)">
<path fill-rule="evenodd" clip-rule="evenodd" d="M883.683 121.6L883.451 78.5858L863.518 112.029H847.644L827.886 79.7981V121.6H796V18H823.688L855.95 70.9829L887.425 18H915.126L915.419 120.548L960.687 18H991.97L1037.39 120.561V18H1085.03C1094.17 18 1102.27 19.5375 1109.25 22.725C1116.24 25.8224 1121.74 30.3748 1125.62 36.4025C1129.53 42.3643 1131.42 49.3341 1131.42 57.1773C1131.42 64.736 1129.62 71.5012 1125.93 77.3541C1122.96 82.1044 1118.92 85.9726 1113.89 88.9752L1136.28 121.6H1098.99L1081.37 95.7997H1071.36V121.6H1002.09L994.459 102.735H957.785L950.156 121.6H883.683ZM955.593 99.4842H996.651L1004.28 118.349H1032.85L989.854 21.251H962.806L919.944 118.349H947.964L955.593 99.4842ZM1068.11 92.5487H1083.09L1100.7 118.349H1130.11L1109.16 87.8325C1110.16 87.3478 1111.13 86.8333 1112.05 86.289C1116.76 83.5106 1120.47 79.9562 1123.17 75.6259C1126.5 70.3549 1128.17 64.2053 1128.17 57.1773C1128.17 49.8718 1126.41 43.5373 1122.9 38.1738C1119.38 32.7179 1114.39 28.5565 1107.92 25.6898C1101.44 22.7306 1093.81 21.251 1085.03 21.251H1040.64V118.349H1068.11V92.5487ZM855.984 77.2904L821.861 21.251H799.251V118.349H824.635V68.2742L849.465 108.778H861.671L886.639 66.8871L886.917 118.349H912.162L911.885 21.251H889.275L855.984 77.2904ZM976.122 48.161L963.638 79.2324H988.606L976.122 48.161ZM976.122 56.8812L968.448 75.9813H983.796L976.122 56.8812ZM1097.17 57.1773C1097.17 53.3882 1096.01 50.847 1093.99 49.0868C1091.94 47.3051 1088.59 46.1411 1083.36 46.1411H1071.36V68.0748H1083.36C1088.59 68.0748 1091.96 66.9545 1094.01 65.2478C1096.02 63.4883 1097.17 60.952 1097.17 57.1773ZM1096.13 67.7193C1093.26 70.1237 1089.01 71.3258 1083.36 71.3258H1068.11V42.89H1083.36C1089.01 42.89 1093.26 44.1384 1096.13 46.6352C1098.99 49.132 1100.43 52.646 1100.43 57.1773C1100.43 61.7085 1098.99 65.2225 1096.13 67.7193ZM1208.51 118.349L1180.77 83.1163L1170.51 94.0745V118.349H1143.32V21.251H1170.51V61.616L1208.1 21.251H1238.34L1198.67 64.2516L1240.42 118.349H1208.51ZM1202.92 64.4384L1244.37 118.153V19.5029L1202.92 64.4384ZM1327.03 18V45.7249H1278.06V55.5908H1321.2V82.6221H1278.06V93.8751H1328.83V121.6H1206.94L1180.56 88.1L1173.76 95.3593V121.6H1140.07V18H1173.76V53.3547L1206.68 18H1327.03ZM1274.81 97.1261V79.3711H1317.95V58.8418H1274.81V42.4739H1323.78V21.251H1247.62V118.349H1325.58V97.1261H1274.81ZM1328.42 46.2798V18H1421.89V46.2798H1392.2V121.6H1358.24V46.2798H1328.42ZM1361.49 43.0287V118.349H1388.95V43.0287H1418.64V21.251H1331.67V43.0287H1361.49Z" fill="#42D4BA"/>
<path fill-rule="evenodd" clip-rule="evenodd" d="M883.683 121.6L883.451 78.5858L863.518 112.029H847.644L827.886 79.7981V121.6H796V18H823.688L855.95 70.9829L887.425 18H915.126L915.419 120.548L960.687 18H991.97L1037.39 120.561V18H1085.03C1094.17 18 1102.27 19.5375 1109.25 22.725C1116.24 25.8224 1121.74 30.3748 1125.62 36.4025C1129.53 42.3643 1131.42 49.3341 1131.42 57.1773C1131.42 64.736 1129.62 71.5012 1125.93 77.3541C1122.96 82.1044 1118.92 85.9726 1113.89 88.9752L1136.28 121.6H1098.99L1081.37 95.7997H1071.36V121.6H1002.09L994.459 102.735H957.785L950.156 121.6H883.683ZM955.593 99.4842H996.651L1004.28 118.349H1032.85L989.854 21.251H962.806L919.944 118.349H947.964L955.593 99.4842ZM1068.11 92.5487H1083.09L1100.7 118.349H1130.11L1109.16 87.8325C1110.16 87.3478 1111.13 86.8333 1112.05 86.289C1116.76 83.5106 1120.47 79.9562 1123.17 75.6259C1126.5 70.3549 1128.17 64.2053 1128.17 57.1773C1128.17 49.8718 1126.41 43.5373 1122.9 38.1738C1119.38 32.7179 1114.39 28.5565 1107.92 25.6898C1101.44 22.7306 1093.81 21.251 1085.03 21.251H1040.64V118.349H1068.11V92.5487ZM855.984 77.2904L821.861 21.251H799.251V118.349H824.635V68.2742L849.465 108.778H861.671L886.639 66.8871L886.917 118.349H912.162L911.885 21.251H889.275L855.984 77.2904ZM976.122 48.161L963.638 79.2324H988.606L976.122 48.161ZM976.122 56.8812L968.448 75.9813H983.796L976.122 56.8812ZM1097.17 57.1773C1097.17 53.3882 1096.01 50.847 1093.99 49.0868C1091.94 47.3051 1088.59 46.1411 1083.36 46.1411H1071.36V68.0748H1083.36C1088.59 68.0748 1091.96 66.9545 1094.01 65.2478C1096.02 63.4883 1097.17 60.952 1097.17 57.1773ZM1096.13 67.7193C1093.26 70.1237 1089.01 71.3258 1083.36 71.3258H1068.11V42.89H1083.36C1089.01 42.89 1093.26 44.1384 1096.13 46.6352C1098.99 49.132 1100.43 52.646 1100.43 57.1773C1100.43 61.7085 1098.99 65.2225 1096.13 67.7193ZM1208.51 118.349L1180.77 83.1163L1170.51 94.0745V118.349H1143.32V21.251H1170.51V61.616L1208.1 21.251H1238.34L1198.67 64.2516L1240.42 118.349H1208.51ZM1202.92 64.4384L1244.37 118.153V19.5029L1202.92 64.4384ZM1327.03 18V45.7249H1278.06V55.5908H1321.2V82.6221H1278.06V93.8751H1328.83V121.6H1206.94L1180.56 88.1L1173.76 95.3593V121.6H1140.07V18H1173.76V53.3547L1206.68 18H1327.03ZM1274.81 97.1261V79.3711H1317.95V58.8418H1274.81V42.4739H1323.78V21.251H1247.62V118.349H1325.58V97.1261H1274.81ZM1328.42 46.2798V18H1421.89V46.2798H1392.2V121.6H1358.24V46.2798H1328.42ZM1361.49 43.0287V118.349H1388.95V43.0287H1418.64V21.251H1331.67V43.0287H1361.49Z" fill="#42D4BA"/>
<path fill-rule="evenodd" clip-rule="evenodd" d="M883.683 121.6L883.451 78.5858L863.518 112.029H847.644L827.886 79.7981V121.6H796V18H823.688L855.95 70.9829L887.425 18H915.126L915.419 120.548L960.687 18H991.97L1037.39 120.561V18H1085.03C1094.17 18 1102.27 19.5375 1109.25 22.725C1116.24 25.8224 1121.74 30.3748 1125.62 36.4025C1129.53 42.3643 1131.42 49.3341 1131.42 57.1773C1131.42 64.736 1129.62 71.5012 1125.93 77.3541C1122.96 82.1044 1118.92 85.9726 1113.89 88.9752L1136.28 121.6H1098.99L1081.37 95.7997H1071.36V121.6H1002.09L994.459 102.735H957.785L950.156 121.6H883.683ZM955.593 99.4842H996.651L1004.28 118.349H1032.85L989.854 21.251H962.806L919.944 118.349H947.964L955.593 99.4842ZM1068.11 92.5487H1083.09L1100.7 118.349H1130.11L1109.16 87.8325C1110.16 87.3478 1111.13 86.8333 1112.05 86.289C1116.76 83.5106 1120.47 79.9562 1123.17 75.6259C1126.5 70.3549 1128.17 64.2053 1128.17 57.1773C1128.17 49.8718 1126.41 43.5373 1122.9 38.1738C1119.38 32.7179 1114.39 28.5565 1107.92 25.6898C1101.44 22.7306 1093.81 21.251 1085.03 21.251H1040.64V118.349H1068.11V92.5487ZM855.984 77.2904L821.861 21.251H799.251V118.349H824.635V68.2742L849.465 108.778H861.671L886.639 66.8871L886.917 118.349H912.162L911.885 21.251H889.275L855.984 77.2904ZM976.122 48.161L963.638 79.2324H988.606L976.122 48.161ZM976.122 56.8812L968.448 75.9813H983.796L976.122 56.8812ZM1097.17 57.1773C1097.17 53.3882 1096.01 50.847 1093.99 49.0868C1091.94 47.3051 1088.59 46.1411 1083.36 46.1411H1071.36V68.0748H1083.36C1088.59 68.0748 1091.96 66.9545 1094.01 65.2478C1096.02 63.4883 1097.17 60.952 1097.17 57.1773ZM1096.13 67.7193C1093.26 70.1237 1089.01 71.3258 1083.36 71.3258H1068.11V42.89H1083.36C1089.01 42.89 1093.26 44.1384 1096.13 46.6352C1098.99 49.132 1100.43 52.646 1100.43 57.1773C1100.43 61.7085 1098.99 65.2225 1096.13 67.7193ZM1208.51 118.349L1180.77 83.1163L1170.51 94.0745V118.349H1143.32V21.251H1170.51V61.616L1208.1 21.251H1238.34L1198.67 64.2516L1240.42 118.349H1208.51ZM1202.92 64.4384L1244.37 118.153V19.5029L1202.92 64.4384ZM1327.03 18V45.7249H1278.06V55.5908H1321.2V82.6221H1278.06V93.8751H1328.83V121.6H1206.94L1180.56 88.1L1173.76 95.3593V121.6H1140.07V18H1173.76V53.3547L1206.68 18H1327.03ZM1274.81 97.1261V79.3711H1317.95V58.8418H1274.81V42.4739H1323.78V21.251H1247.62V118.349H1325.58V97.1261H1274.81ZM1328.42 46.2798V18H1421.89V46.2798H1392.2V121.6H1358.24V46.2798H1328.42ZM1361.49 43.0287V118.349H1388.95V43.0287H1418.64V21.251H1331.67V43.0287H1361.49Z" fill="#42D4BA"/>
</g>
<path fill-rule="evenodd" clip-rule="evenodd" d="M883.683 121.6L883.451 78.5858L863.518 112.029H847.644L827.886 79.7981V121.6H796V18H823.688L855.95 70.9829L887.425 18H915.126L915.419 120.548L960.687 18H991.97L1037.39 120.561V18H1085.03C1094.17 18 1102.27 19.5375 1109.25 22.725C1116.24 25.8224 1121.74 30.3748 1125.62 36.4025C1129.53 42.3643 1131.42 49.3341 1131.42 57.1773C1131.42 64.736 1129.62 71.5012 1125.93 77.3541C1122.96 82.1044 1118.92 85.9726 1113.89 88.9752L1136.28 121.6H1098.99L1081.37 95.7997H1071.36V121.6H1002.09L994.459 102.735H957.785L950.156 121.6H883.683ZM955.593 99.4842H996.651L1004.28 118.349H1032.85L989.854 21.251H962.806L919.944 118.349H947.964L955.593 99.4842ZM1068.11 92.5487H1083.09L1100.7 118.349H1130.11L1109.16 87.8325C1110.16 87.3478 1111.13 86.8333 1112.05 86.289C1116.76 83.5106 1120.47 79.9562 1123.17 75.6259C1126.5 70.3549 1128.17 64.2053 1128.17 57.1773C1128.17 49.8718 1126.41 43.5373 1122.9 38.1738C1119.38 32.7179 1114.39 28.5565 1107.92 25.6898C1101.44 22.7306 1093.81 21.251 1085.03 21.251H1040.64V118.349H1068.11V92.5487ZM855.984 77.2904L821.861 21.251H799.251V118.349H824.635V68.2742L849.465 108.778H861.671L886.639 66.8871L886.917 118.349H912.162L911.885 21.251H889.275L855.984 77.2904ZM976.122 48.161L963.638 79.2324H988.606L976.122 48.161ZM976.122 56.8812L968.448 75.9813H983.796L976.122 56.8812ZM1097.17 57.1773C1097.17 53.3882 1096.01 50.847 1093.99 49.0868C1091.94 47.3051 1088.59 46.1411 1083.36 46.1411H1071.36V68.0748H1083.36C1088.59 68.0748 1091.96 66.9545 1094.01 65.2478C1096.02 63.4883 1097.17 60.952 1097.17 57.1773ZM1096.13 67.7193C1093.26 70.1237 1089.01 71.3258 1083.36 71.3258H1068.11V42.89H1083.36C1089.01 42.89 1093.26 44.1384 1096.13 46.6352C1098.99 49.132 1100.43 52.646 1100.43 57.1773C1100.43 61.7085 1098.99 65.2225 1096.13 67.7193ZM1208.51 118.349L1180.77 83.1163L1170.51 94.0745V118.349H1143.32V21.251H1170.51V61.616L1208.1 21.251H1238.34L1198.67 64.2516L1240.42 118.349H1208.51ZM1202.92 64.4384L1244.37 118.153V19.5029L1202.92 64.4384ZM1327.03 18V45.7249H1278.06V55.5908H1321.2V82.6221H1278.06V93.8751H1328.83V121.6H1206.94L1180.56 88.1L1173.76 95.3593V121.6H1140.07V18H1173.76V53.3547L1206.68 18H1327.03ZM1274.81 97.1261V79.3711H1317.95V58.8418H1274.81V42.4739H1323.78V21.251H1247.62V118.349H1325.58V97.1261H1274.81ZM1328.42 46.2798V18H1421.89V46.2798H1392.2V121.6H1358.24V46.2798H1328.42ZM1361.49 43.0287V118.349H1388.95V43.0287H1418.64V21.251H1331.67V43.0287H1361.49Z" fill="#42D4BA"/>
<path fill-rule="evenodd" clip-rule="evenodd" d="M883.683 121.6L883.451 78.5858L863.518 112.029H847.644L827.886 79.7981V121.6H796V18H823.688L855.95 70.9829L887.425 18H915.126L915.419 120.548L960.687 18H991.97L1037.39 120.561V18H1085.03C1094.17 18 1102.27 19.5375 1109.25 22.725C1116.24 25.8224 1121.74 30.3748 1125.62 36.4025C1129.53 42.3643 1131.42 49.3341 1131.42 57.1773C1131.42 64.736 1129.62 71.5012 1125.93 77.3541C1122.96 82.1044 1118.92 85.9726 1113.89 88.9752L1136.28 121.6H1098.99L1081.37 95.7997H1071.36V121.6H1002.09L994.459 102.735H957.785L950.156 121.6H883.683ZM955.593 99.4842H996.651L1004.28 118.349H1032.85L989.854 21.251H962.806L919.944 118.349H947.964L955.593 99.4842ZM1068.11 92.5487H1083.09L1100.7 118.349H1130.11L1109.16 87.8325C1110.16 87.3478 1111.13 86.8333 1112.05 86.289C1116.76 83.5106 1120.47 79.9562 1123.17 75.6259C1126.5 70.3549 1128.17 64.2053 1128.17 57.1773C1128.17 49.8718 1126.41 43.5373 1122.9 38.1738C1119.38 32.7179 1114.39 28.5565 1107.92 25.6898C1101.44 22.7306 1093.81 21.251 1085.03 21.251H1040.64V118.349H1068.11V92.5487ZM855.984 77.2904L821.861 21.251H799.251V118.349H824.635V68.2742L849.465 108.778H861.671L886.639 66.8871L886.917 118.349H912.162L911.885 21.251H889.275L855.984 77.2904ZM976.122 48.161L963.638 79.2324H988.606L976.122 48.161ZM976.122 56.8812L968.448 75.9813H983.796L976.122 56.8812ZM1097.17 57.1773C1097.17 53.3882 1096.01 50.847 1093.99 49.0868C1091.94 47.3051 1088.59 46.1411 1083.36 46.1411H1071.36V68.0748H1083.36C1088.59 68.0748 1091.96 66.9545 1094.01 65.2478C1096.02 63.4883 1097.17 60.952 1097.17 57.1773ZM1096.13 67.7193C1093.26 70.1237 1089.01 71.3258 1083.36 71.3258H1068.11V42.89H1083.36C1089.01 42.89 1093.26 44.1384 1096.13 46.6352C1098.99 49.132 1100.43 52.646 1100.43 57.1773C1100.43 61.7085 1098.99 65.2225 1096.13 67.7193ZM1208.51 118.349L1180.77 83.1163L1170.51 94.0745V118.349H1143.32V21.251H1170.51V61.616L1208.1 21.251H1238.34L1198.67 64.2516L1240.42 118.349H1208.51ZM1202.92 64.4384L1244.37 118.153V19.5029L1202.92 64.4384ZM1327.03 18V45.7249H1278.06V55.5908H1321.2V82.6221H1278.06V93.8751H1328.83V121.6H1206.94L1180.56 88.1L1173.76 95.3593V121.6H1140.07V18H1173.76V53.3547L1206.68 18H1327.03ZM1274.81 97.1261V79.3711H1317.95V58.8418H1274.81V42.4739H1323.78V21.251H1247.62V118.349H1325.58V97.1261H1274.81ZM1328.42 46.2798V18H1421.89V46.2798H1392.2V121.6H1358.24V46.2798H1328.42ZM1361.49 43.0287V118.349H1388.95V43.0287H1418.64V21.251H1331.67V43.0287H1361.49Z" fill="#42D4BA"/>
<path fill-rule="evenodd" clip-rule="evenodd" d="M883.683 121.6L883.451 78.5858L863.518 112.029H847.644L827.886 79.7981V121.6H796V18H823.688L855.95 70.9829L887.425 18H915.126L915.419 120.548L960.687 18H991.97L1037.39 120.561V18H1085.03C1094.17 18 1102.27 19.5375 1109.25 22.725C1116.24 25.8224 1121.74 30.3748 1125.62 36.4025C1129.53 42.3643 1131.42 49.3341 1131.42 57.1773C1131.42 64.736 1129.62 71.5012 1125.93 77.3541C1122.96 82.1044 1118.92 85.9726 1113.89 88.9752L1136.28 121.6H1098.99L1081.37 95.7997H1071.36V121.6H1002.09L994.459 102.735H957.785L950.156 121.6H883.683ZM955.593 99.4842H996.651L1004.28 118.349H1032.85L989.854 21.251H962.806L919.944 118.349H947.964L955.593 99.4842ZM1068.11 92.5487H1083.09L1100.7 118.349H1130.11L1109.16 87.8325C1110.16 87.3478 1111.13 86.8333 1112.05 86.289C1116.76 83.5106 1120.47 79.9562 1123.17 75.6259C1126.5 70.3549 1128.17 64.2053 1128.17 57.1773C1128.17 49.8718 1126.41 43.5373 1122.9 38.1738C1119.38 32.7179 1114.39 28.5565 1107.92 25.6898C1101.44 22.7306 1093.81 21.251 1085.03 21.251H1040.64V118.349H1068.11V92.5487ZM855.984 77.2904L821.861 21.251H799.251V118.349H824.635V68.2742L849.465 108.778H861.671L886.639 66.8871L886.917 118.349H912.162L911.885 21.251H889.275L855.984 77.2904ZM976.122 48.161L963.638 79.2324H988.606L976.122 48.161ZM976.122 56.8812L968.448 75.9813H983.796L976.122 56.8812ZM1097.17 57.1773C1097.17 53.3882 1096.01 50.847 1093.99 49.0868C1091.94 47.3051 1088.59 46.1411 1083.36 46.1411H1071.36V68.0748H1083.36C1088.59 68.0748 1091.96 66.9545 1094.01 65.2478C1096.02 63.4883 1097.17 60.952 1097.17 57.1773ZM1096.13 67.7193C1093.26 70.1237 1089.01 71.3258 1083.36 71.3258H1068.11V42.89H1083.36C1089.01 42.89 1093.26 44.1384 1096.13 46.6352C1098.99 49.132 1100.43 52.646 1100.43 57.1773C1100.43 61.7085 1098.99 65.2225 1096.13 67.7193ZM1208.51 118.349L1180.77 83.1163L1170.51 94.0745V118.349H1143.32V21.251H1170.51V61.616L1208.1 21.251H1238.34L1198.67 64.2516L1240.42 118.349H1208.51ZM1202.92 64.4384L1244.37 118.153V19.5029L1202.92 64.4384ZM1327.03 18V45.7249H1278.06V55.5908H1321.2V82.6221H1278.06V93.8751H1328.83V121.6H1206.94L1180.56 88.1L1173.76 95.3593V121.6H1140.07V18H1173.76V53.3547L1206.68 18H1327.03ZM1274.81 97.1261V79.3711H1317.95V58.8418H1274.81V42.4739H1323.78V21.251H1247.62V118.349H1325.58V97.1261H1274.81ZM1328.42 46.2798V18H1421.89V46.2798H1392.2V121.6H1358.24V46.2798H1328.42ZM1361.49 43.0287V118.349H1388.95V43.0287H1418.64V21.251H1331.67V43.0287H1361.49Z" fill="#42D4BA"/>
<g filter="url(#filter1_f_349_828)">
<path fill-rule="evenodd" clip-rule="evenodd" d="M-34.317 121.6L-34.5489 78.5858L-54.4819 112.029H-70.3558L-90.1137 79.7981V121.6H-122V18H-94.3123L-62.0504 70.9829L-30.5754 18H-2.8736L-2.5806 120.548L42.6871 18H73.9703L119.39 120.561V18H167.029C176.166 18 184.27 19.5375 191.25 22.725C198.236 25.8224 203.738 30.3748 207.623 36.4025C211.526 42.3643 213.419 49.3341 213.419 57.1773C213.419 64.736 211.622 71.5012 207.928 77.3541C204.958 82.1044 200.92 85.9726 195.892 88.9752L218.285 121.6H180.986L163.37 95.7997H153.357V121.6H84.0884L76.4592 102.735H39.7848L32.1557 121.6H-34.317ZM37.5928 99.4842H78.6513L86.2804 118.349H114.855L71.8545 21.251H44.8058L1.94397 118.349H29.9636L37.5928 99.4842ZM150.106 92.5487H165.087L182.703 118.349H212.11L191.165 87.8325C192.164 87.3478 193.126 86.8333 194.048 86.289C198.759 83.5106 202.468 79.9562 205.174 75.6259C208.504 70.3549 210.168 64.2053 210.168 57.1773C210.168 49.8718 208.411 43.5373 204.897 38.1738C201.383 32.7179 196.389 28.5565 189.916 25.6898C183.443 22.7306 175.814 21.251 167.029 21.251H122.641V118.349H150.106V92.5487ZM-62.016 77.2904L-96.139 21.251H-118.749V118.349H-93.3648V68.2742L-68.5355 108.778H-56.3289L-31.3608 66.8871L-31.0834 118.349H-5.83794L-6.11537 21.251H-28.7253L-62.016 77.2904ZM58.122 48.161L45.638 79.2324H70.6061L58.122 48.161ZM58.122 56.8812L50.4479 75.9813H65.7962L58.122 56.8812ZM179.175 57.1773C179.175 53.3882 178.012 50.847 175.991 49.0868C173.945 47.3051 170.59 46.1411 165.364 46.1411H153.357V68.0748H165.364C170.595 68.0748 173.963 66.9545 176.013 65.2478C178.02 63.4883 179.175 60.952 179.175 57.1773ZM178.126 67.7193C175.259 70.1237 171.005 71.3258 165.364 71.3258H150.106V42.89H165.364C171.005 42.89 175.259 44.1384 178.126 46.6352C180.992 49.132 182.426 52.646 182.426 57.1773C182.426 61.7085 180.992 65.2225 178.126 67.7193ZM290.514 118.349L262.772 83.1163L252.508 94.0745V118.349H225.32V21.251H252.508V61.616L290.098 21.251H320.337L280.666 64.2516L322.418 118.349H290.514ZM284.917 64.4384L326.373 118.153V19.5029L284.917 64.4384ZM409.028 18V45.7249H360.063V55.5908H403.202V82.6221H360.063V93.8751H410.831V121.6H288.936L262.558 88.1L255.759 95.3593V121.6H222.069V18H255.759V53.3547L288.683 18H409.028ZM356.812 97.1261V79.3711H399.951V58.8418H356.812V42.4739H405.777V21.251H329.625V118.349H407.58V97.1261H356.812ZM410.415 46.2798V18H503.889V46.2798H474.205V121.6H440.238V46.2798H410.415ZM443.489 43.0287V118.349H470.954V43.0287H500.638V21.251H413.666V43.0287H443.489Z" fill="#42D4BA"/>
<path fill-rule="evenodd" clip-rule="evenodd" d="M-34.317 121.6L-34.5489 78.5858L-54.4819 112.029H-70.3558L-90.1137 79.7981V121.6H-122V18H-94.3123L-62.0504 70.9829L-30.5754 18H-2.8736L-2.5806 120.548L42.6871 18H73.9703L119.39 120.561V18H167.029C176.166 18 184.27 19.5375 191.25 22.725C198.236 25.8224 203.738 30.3748 207.623 36.4025C211.526 42.3643 213.419 49.3341 213.419 57.1773C213.419 64.736 211.622 71.5012 207.928 77.3541C204.958 82.1044 200.92 85.9726 195.892 88.9752L218.285 121.6H180.986L163.37 95.7997H153.357V121.6H84.0884L76.4592 102.735H39.7848L32.1557 121.6H-34.317ZM37.5928 99.4842H78.6513L86.2804 118.349H114.855L71.8545 21.251H44.8058L1.94397 118.349H29.9636L37.5928 99.4842ZM150.106 92.5487H165.087L182.703 118.349H212.11L191.165 87.8325C192.164 87.3478 193.126 86.8333 194.048 86.289C198.759 83.5106 202.468 79.9562 205.174 75.6259C208.504 70.3549 210.168 64.2053 210.168 57.1773C210.168 49.8718 208.411 43.5373 204.897 38.1738C201.383 32.7179 196.389 28.5565 189.916 25.6898C183.443 22.7306 175.814 21.251 167.029 21.251H122.641V118.349H150.106V92.5487ZM-62.016 77.2904L-96.139 21.251H-118.749V118.349H-93.3648V68.2742L-68.5355 108.778H-56.3289L-31.3608 66.8871L-31.0834 118.349H-5.83794L-6.11537 21.251H-28.7253L-62.016 77.2904ZM58.122 48.161L45.638 79.2324H70.6061L58.122 48.161ZM58.122 56.8812L50.4479 75.9813H65.7962L58.122 56.8812ZM179.175 57.1773C179.175 53.3882 178.012 50.847 175.991 49.0868C173.945 47.3051 170.59 46.1411 165.364 46.1411H153.357V68.0748H165.364C170.595 68.0748 173.963 66.9545 176.013 65.2478C178.02 63.4883 179.175 60.952 179.175 57.1773ZM178.126 67.7193C175.259 70.1237 171.005 71.3258 165.364 71.3258H150.106V42.89H165.364C171.005 42.89 175.259 44.1384 178.126 46.6352C180.992 49.132 182.426 52.646 182.426 57.1773C182.426 61.7085 180.992 65.2225 178.126 67.7193ZM290.514 118.349L262.772 83.1163L252.508 94.0745V118.349H225.32V21.251H252.508V61.616L290.098 21.251H320.337L280.666 64.2516L322.418 118.349H290.514ZM284.917 64.4384L326.373 118.153V19.5029L284.917 64.4384ZM409.028 18V45.7249H360.063V55.5908H403.202V82.6221H360.063V93.8751H410.831V121.6H288.936L262.558 88.1L255.759 95.3593V121.6H222.069V18H255.759V53.3547L288.683 18H409.028ZM356.812 97.1261V79.3711H399.951V58.8418H356.812V42.4739H405.777V21.251H329.625V118.349H407.58V97.1261H356.812ZM410.415 46.2798V18H503.889V46.2798H474.205V121.6H440.238V46.2798H410.415ZM443.489 43.0287V118.349H470.954V43.0287H500.638V21.251H413.666V43.0287H443.489Z" fill="#42D4BA"/>
<path fill-rule="evenodd" clip-rule="evenodd" d="M-34.317 121.6L-34.5489 78.5858L-54.4819 112.029H-70.3558L-90.1137 79.7981V121.6H-122V18H-94.3123L-62.0504 70.9829L-30.5754 18H-2.8736L-2.5806 120.548L42.6871 18H73.9703L119.39 120.561V18H167.029C176.166 18 184.27 19.5375 191.25 22.725C198.236 25.8224 203.738 30.3748 207.623 36.4025C211.526 42.3643 213.419 49.3341 213.419 57.1773C213.419 64.736 211.622 71.5012 207.928 77.3541C204.958 82.1044 200.92 85.9726 195.892 88.9752L218.285 121.6H180.986L163.37 95.7997H153.357V121.6H84.0884L76.4592 102.735H39.7848L32.1557 121.6H-34.317ZM37.5928 99.4842H78.6513L86.2804 118.349H114.855L71.8545 21.251H44.8058L1.94397 118.349H29.9636L37.5928 99.4842ZM150.106 92.5487H165.087L182.703 118.349H212.11L191.165 87.8325C192.164 87.3478 193.126 86.8333 194.048 86.289C198.759 83.5106 202.468 79.9562 205.174 75.6259C208.504 70.3549 210.168 64.2053 210.168 57.1773C210.168 49.8718 208.411 43.5373 204.897 38.1738C201.383 32.7179 196.389 28.5565 189.916 25.6898C183.443 22.7306 175.814 21.251 167.029 21.251H122.641V118.349H150.106V92.5487ZM-62.016 77.2904L-96.139 21.251H-118.749V118.349H-93.3648V68.2742L-68.5355 108.778H-56.3289L-31.3608 66.8871L-31.0834 118.349H-5.83794L-6.11537 21.251H-28.7253L-62.016 77.2904ZM58.122 48.161L45.638 79.2324H70.6061L58.122 48.161ZM58.122 56.8812L50.4479 75.9813H65.7962L58.122 56.8812ZM179.175 57.1773C179.175 53.3882 178.012 50.847 175.991 49.0868C173.945 47.3051 170.59 46.1411 165.364 46.1411H153.357V68.0748H165.364C170.595 68.0748 173.963 66.9545 176.013 65.2478C178.02 63.4883 179.175 60.952 179.175 57.1773ZM178.126 67.7193C175.259 70.1237 171.005 71.3258 165.364 71.3258H150.106V42.89H165.364C171.005 42.89 175.259 44.1384 178.126 46.6352C180.992 49.132 182.426 52.646 182.426 57.1773C182.426 61.7085 180.992 65.2225 178.126 67.7193ZM290.514 118.349L262.772 83.1163L252.508 94.0745V118.349H225.32V21.251H252.508V61.616L290.098 21.251H320.337L280.666 64.2516L322.418 118.349H290.514ZM284.917 64.4384L326.373 118.153V19.5029L284.917 64.4384ZM409.028 18V45.7249H360.063V55.5908H403.202V82.6221H360.063V93.8751H410.831V121.6H288.936L262.558 88.1L255.759 95.3593V121.6H222.069V18H255.759V53.3547L288.683 18H409.028ZM356.812 97.1261V79.3711H399.951V58.8418H356.812V42.4739H405.777V21.251H329.625V118.349H407.58V97.1261H356.812ZM410.415 46.2798V18H503.889V46.2798H474.205V121.6H440.238V46.2798H410.415ZM443.489 43.0287V118.349H470.954V43.0287H500.638V21.251H413.666V43.0287H443.489Z" fill="#42D4BA"/>
</g>
<path fill-rule="evenodd" clip-rule="evenodd" d="M-34.317 121.6L-34.5489 78.5858L-54.4819 112.029H-70.3558L-90.1137 79.7981V121.6H-122V18H-94.3123L-62.0504 70.9829L-30.5754 18H-2.8736L-2.5806 120.548L42.6871 18H73.9703L119.39 120.561V18H167.029C176.166 18 184.27 19.5375 191.25 22.725C198.236 25.8224 203.738 30.3748 207.623 36.4025C211.526 42.3643 213.419 49.3341 213.419 57.1773C213.419 64.736 211.622 71.5012 207.928 77.3541C204.958 82.1044 200.92 85.9726 195.892 88.9752L218.285 121.6H180.986L163.37 95.7997H153.357V121.6H84.0884L76.4592 102.735H39.7848L32.1557 121.6H-34.317ZM37.5928 99.4842H78.6513L86.2804 118.349H114.855L71.8545 21.251H44.8058L1.94397 118.349H29.9636L37.5928 99.4842ZM150.106 92.5487H165.087L182.703 118.349H212.11L191.165 87.8325C192.164 87.3478 193.126 86.8333 194.048 86.289C198.759 83.5106 202.468 79.9562 205.174 75.6259C208.504 70.3549 210.168 64.2053 210.168 57.1773C210.168 49.8718 208.411 43.5373 204.897 38.1738C201.383 32.7179 196.389 28.5565 189.916 25.6898C183.443 22.7306 175.814 21.251 167.029 21.251H122.641V118.349H150.106V92.5487ZM-62.016 77.2904L-96.139 21.251H-118.749V118.349H-93.3648V68.2742L-68.5355 108.778H-56.3289L-31.3608 66.8871L-31.0834 118.349H-5.83794L-6.11537 21.251H-28.7253L-62.016 77.2904ZM58.122 48.161L45.638 79.2324H70.6061L58.122 48.161ZM58.122 56.8812L50.4479 75.9813H65.7962L58.122 56.8812ZM179.175 57.1773C179.175 53.3882 178.012 50.847 175.991 49.0868C173.945 47.3051 170.59 46.1411 165.364 46.1411H153.357V68.0748H165.364C170.595 68.0748 173.963 66.9545 176.013 65.2478C178.02 63.4883 179.175 60.952 179.175 57.1773ZM178.126 67.7193C175.259 70.1237 171.005 71.3258 165.364 71.3258H150.106V42.89H165.364C171.005 42.89 175.259 44.1384 178.126 46.6352C180.992 49.132 182.426 52.646 182.426 57.1773C182.426 61.7085 180.992 65.2225 178.126 67.7193ZM290.514 118.349L262.772 83.1163L252.508 94.0745V118.349H225.32V21.251H252.508V61.616L290.098 21.251H320.337L280.666 64.2516L322.418 118.349H290.514ZM284.917 64.4384L326.373 118.153V19.5029L284.917 64.4384ZM409.028 18V45.7249H360.063V55.5908H403.202V82.6221H360.063V93.8751H410.831V121.6H288.936L262.558 88.1L255.759 95.3593V121.6H222.069V18H255.759V53.3547L288.683 18H409.028ZM356.812 97.1261V79.3711H399.951V58.8418H356.812V42.4739H405.777V21.251H329.625V118.349H407.58V97.1261H356.812ZM410.415 46.2798V18H503.889V46.2798H474.205V121.6H440.238V46.2798H410.415ZM443.489 43.0287V118.349H470.954V43.0287H500.638V21.251H413.666V43.0287H443.489Z" fill="#42D4BA"/>
<path fill-rule="evenodd" clip-rule="evenodd" d="M-34.317 121.6L-34.5489 78.5858L-54.4819 112.029H-70.3558L-90.1137 79.7981V121.6H-122V18H-94.3123L-62.0504 70.9829L-30.5754 18H-2.8736L-2.5806 120.548L42.6871 18H73.9703L119.39 120.561V18H167.029C176.166 18 184.27 19.5375 191.25 22.725C198.236 25.8224 203.738 30.3748 207.623 36.4025C211.526 42.3643 213.419 49.3341 213.419 57.1773C213.419 64.736 211.622 71.5012 207.928 77.3541C204.958 82.1044 200.92 85.9726 195.892 88.9752L218.285 121.6H180.986L163.37 95.7997H153.357V121.6H84.0884L76.4592 102.735H39.7848L32.1557 121.6H-34.317ZM37.5928 99.4842H78.6513L86.2804 118.349H114.855L71.8545 21.251H44.8058L1.94397 118.349H29.9636L37.5928 99.4842ZM150.106 92.5487H165.087L182.703 118.349H212.11L191.165 87.8325C192.164 87.3478 193.126 86.8333 194.048 86.289C198.759 83.5106 202.468 79.9562 205.174 75.6259C208.504 70.3549 210.168 64.2053 210.168 57.1773C210.168 49.8718 208.411 43.5373 204.897 38.1738C201.383 32.7179 196.389 28.5565 189.916 25.6898C183.443 22.7306 175.814 21.251 167.029 21.251H122.641V118.349H150.106V92.5487ZM-62.016 77.2904L-96.139 21.251H-118.749V118.349H-93.3648V68.2742L-68.5355 108.778H-56.3289L-31.3608 66.8871L-31.0834 118.349H-5.83794L-6.11537 21.251H-28.7253L-62.016 77.2904ZM58.122 48.161L45.638 79.2324H70.6061L58.122 48.161ZM58.122 56.8812L50.4479 75.9813H65.7962L58.122 56.8812ZM179.175 57.1773C179.175 53.3882 178.012 50.847 175.991 49.0868C173.945 47.3051 170.59 46.1411 165.364 46.1411H153.357V68.0748H165.364C170.595 68.0748 173.963 66.9545 176.013 65.2478C178.02 63.4883 179.175 60.952 179.175 57.1773ZM178.126 67.7193C175.259 70.1237 171.005 71.3258 165.364 71.3258H150.106V42.89H165.364C171.005 42.89 175.259 44.1384 178.126 46.6352C180.992 49.132 182.426 52.646 182.426 57.1773C182.426 61.7085 180.992 65.2225 178.126 67.7193ZM290.514 118.349L262.772 83.1163L252.508 94.0745V118.349H225.32V21.251H252.508V61.616L290.098 21.251H320.337L280.666 64.2516L322.418 118.349H290.514ZM284.917 64.4384L326.373 118.153V19.5029L284.917 64.4384ZM409.028 18V45.7249H360.063V55.5908H403.202V82.6221H360.063V93.8751H410.831V121.6H288.936L262.558 88.1L255.759 95.3593V121.6H222.069V18H255.759V53.3547L288.683 18H409.028ZM356.812 97.1261V79.3711H399.951V58.8418H356.812V42.4739H405.777V21.251H329.625V118.349H407.58V97.1261H356.812ZM410.415 46.2798V18H503.889V46.2798H474.205V121.6H440.238V46.2798H410.415ZM443.489 43.0287V118.349H470.954V43.0287H500.638V21.251H413.666V43.0287H443.489Z" fill="#42D4BA"/>
<path fill-rule="evenodd" clip-rule="evenodd" d="M-34.317 121.6L-34.5489 78.5858L-54.4819 112.029H-70.3558L-90.1137 79.7981V121.6H-122V18H-94.3123L-62.0504 70.9829L-30.5754 18H-2.8736L-2.5806 120.548L42.6871 18H73.9703L119.39 120.561V18H167.029C176.166 18 184.27 19.5375 191.25 22.725C198.236 25.8224 203.738 30.3748 207.623 36.4025C211.526 42.3643 213.419 49.3341 213.419 57.1773C213.419 64.736 211.622 71.5012 207.928 77.3541C204.958 82.1044 200.92 85.9726 195.892 88.9752L218.285 121.6H180.986L163.37 95.7997H153.357V121.6H84.0884L76.4592 102.735H39.7848L32.1557 121.6H-34.317ZM37.5928 99.4842H78.6513L86.2804 118.349H114.855L71.8545 21.251H44.8058L1.94397 118.349H29.9636L37.5928 99.4842ZM150.106 92.5487H165.087L182.703 118.349H212.11L191.165 87.8325C192.164 87.3478 193.126 86.8333 194.048 86.289C198.759 83.5106 202.468 79.9562 205.174 75.6259C208.504 70.3549 210.168 64.2053 210.168 57.1773C210.168 49.8718 208.411 43.5373 204.897 38.1738C201.383 32.7179 196.389 28.5565 189.916 25.6898C183.443 22.7306 175.814 21.251 167.029 21.251H122.641V118.349H150.106V92.5487ZM-62.016 77.2904L-96.139 21.251H-118.749V118.349H-93.3648V68.2742L-68.5355 108.778H-56.3289L-31.3608 66.8871L-31.0834 118.349H-5.83794L-6.11537 21.251H-28.7253L-62.016 77.2904ZM58.122 48.161L45.638 79.2324H70.6061L58.122 48.161ZM58.122 56.8812L50.4479 75.9813H65.7962L58.122 56.8812ZM179.175 57.1773C179.175 53.3882 178.012 50.847 175.991 49.0868C173.945 47.3051 170.59 46.1411 165.364 46.1411H153.357V68.0748H165.364C170.595 68.0748 173.963 66.9545 176.013 65.2478C178.02 63.4883 179.175 60.952 179.175 57.1773ZM178.126 67.7193C175.259 70.1237 171.005 71.3258 165.364 71.3258H150.106V42.89H165.364C171.005 42.89 175.259 44.1384 178.126 46.6352C180.992 49.132 182.426 52.646 182.426 57.1773C182.426 61.7085 180.992 65.2225 178.126 67.7193ZM290.514 118.349L262.772 83.1163L252.508 94.0745V118.349H225.32V21.251H252.508V61.616L290.098 21.251H320.337L280.666 64.2516L322.418 118.349H290.514ZM284.917 64.4384L326.373 118.153V19.5029L284.917 64.4384ZM409.028 18V45.7249H360.063V55.5908H403.202V82.6221H360.063V93.8751H410.831V121.6H288.936L262.558 88.1L255.759 95.3593V121.6H222.069V18H255.759V53.3547L288.683 18H409.028ZM356.812 97.1261V79.3711H399.951V58.8418H356.812V42.4739H405.777V21.251H329.625V118.349H407.58V97.1261H356.812ZM410.415 46.2798V18H503.889V46.2798H474.205V121.6H440.238V46.2798H410.415ZM443.489 43.0287V118.349H470.954V43.0287H500.638V21.251H413.666V43.0287H443.489Z" fill="#42D4BA"/>
<g filter="url(#filter2_f_349_828)">
<path fill-rule="evenodd" clip-rule="evenodd" d="M1804.68 123.6L1804.45 80.5858L1784.52 114.029H1768.64L1748.89 81.7981V123.6H1717V20H1744.69L1776.95 72.9829L1808.42 20H1836.13L1836.42 122.548L1881.69 20H1912.97L1958.39 122.561V20H2006.03C2015.17 20 2023.27 21.5375 2030.25 24.725C2037.24 27.8224 2042.74 32.3748 2046.62 38.4025C2050.53 44.3643 2052.42 51.3341 2052.42 59.1773C2052.42 66.736 2050.62 73.5012 2046.93 79.3541C2043.96 84.1044 2039.92 87.9726 2034.89 90.9752L2057.28 123.6H2019.99L2002.37 97.7997H1992.36V123.6H1923.09L1915.46 104.735H1878.78L1871.16 123.6H1804.68ZM1876.59 101.484H1917.65L1925.28 120.349H1953.85L1910.85 23.251H1883.81L1840.94 120.349H1868.96L1876.59 101.484ZM1989.11 94.5487H2004.09L2021.7 120.349H2051.11L2030.16 89.8325C2031.16 89.3478 2032.13 88.8333 2033.05 88.289C2037.76 85.5106 2041.47 81.9562 2044.17 77.6259C2047.5 72.3549 2049.17 66.2053 2049.17 59.1773C2049.17 51.8718 2047.41 45.5373 2043.9 40.1738C2040.38 34.7179 2035.39 30.5565 2028.92 27.6898C2022.44 24.7306 2014.81 23.251 2006.03 23.251H1961.64V120.349H1989.11V94.5487ZM1776.98 79.2904L1742.86 23.251H1720.25V120.349H1745.64V70.2742L1770.46 110.778H1782.67L1807.64 68.8871L1807.92 120.349H1833.16L1832.88 23.251H1810.27L1776.98 79.2904ZM1897.12 50.161L1884.64 81.2324H1909.61L1897.12 50.161ZM1897.12 58.8812L1889.45 77.9813H1904.8L1897.12 58.8812ZM2018.17 59.1773C2018.17 55.3882 2017.01 52.847 2014.99 51.0868C2012.94 49.3051 2009.59 48.1411 2004.36 48.1411H1992.36V70.0748H2004.36C2009.59 70.0748 2012.96 68.9545 2015.01 67.2478C2017.02 65.4883 2018.17 62.952 2018.17 59.1773ZM2017.13 69.7193C2014.26 72.1237 2010.01 73.3258 2004.36 73.3258H1989.11V44.89H2004.36C2010.01 44.89 2014.26 46.1384 2017.13 48.6352C2019.99 51.132 2021.43 54.646 2021.43 59.1773C2021.43 63.7085 2019.99 67.2225 2017.13 69.7193ZM2129.51 120.349L2101.77 85.1163L2091.51 96.0745V120.349H2064.32V23.251H2091.51V63.616L2129.1 23.251H2159.34L2119.67 66.2516L2161.42 120.349H2129.51ZM2123.92 66.4384L2165.37 120.153V21.5029L2123.92 66.4384ZM2248.03 20V47.7249H2199.06V57.5908H2242.2V84.6221H2199.06V95.8751H2249.83V123.6H2127.94L2101.56 90.1L2094.76 97.3593V123.6H2061.07V20H2094.76V55.3547L2127.68 20H2248.03ZM2195.81 99.1261V81.3711H2238.95V60.8418H2195.81V44.4739H2244.78V23.251H2168.62V120.349H2246.58V99.1261H2195.81ZM2249.42 48.2798V20H2342.89V48.2798H2313.2V123.6H2279.24V48.2798H2249.42ZM2282.49 45.0287V120.349H2309.95V45.0287H2339.64V23.251H2252.67V45.0287H2282.49Z" fill="#42D4BA"/>
<path fill-rule="evenodd" clip-rule="evenodd" d="M1804.68 123.6L1804.45 80.5858L1784.52 114.029H1768.64L1748.89 81.7981V123.6H1717V20H1744.69L1776.95 72.9829L1808.42 20H1836.13L1836.42 122.548L1881.69 20H1912.97L1958.39 122.561V20H2006.03C2015.17 20 2023.27 21.5375 2030.25 24.725C2037.24 27.8224 2042.74 32.3748 2046.62 38.4025C2050.53 44.3643 2052.42 51.3341 2052.42 59.1773C2052.42 66.736 2050.62 73.5012 2046.93 79.3541C2043.96 84.1044 2039.92 87.9726 2034.89 90.9752L2057.28 123.6H2019.99L2002.37 97.7997H1992.36V123.6H1923.09L1915.46 104.735H1878.78L1871.16 123.6H1804.68ZM1876.59 101.484H1917.65L1925.28 120.349H1953.85L1910.85 23.251H1883.81L1840.94 120.349H1868.96L1876.59 101.484ZM1989.11 94.5487H2004.09L2021.7 120.349H2051.11L2030.16 89.8325C2031.16 89.3478 2032.13 88.8333 2033.05 88.289C2037.76 85.5106 2041.47 81.9562 2044.17 77.6259C2047.5 72.3549 2049.17 66.2053 2049.17 59.1773C2049.17 51.8718 2047.41 45.5373 2043.9 40.1738C2040.38 34.7179 2035.39 30.5565 2028.92 27.6898C2022.44 24.7306 2014.81 23.251 2006.03 23.251H1961.64V120.349H1989.11V94.5487ZM1776.98 79.2904L1742.86 23.251H1720.25V120.349H1745.64V70.2742L1770.46 110.778H1782.67L1807.64 68.8871L1807.92 120.349H1833.16L1832.88 23.251H1810.27L1776.98 79.2904ZM1897.12 50.161L1884.64 81.2324H1909.61L1897.12 50.161ZM1897.12 58.8812L1889.45 77.9813H1904.8L1897.12 58.8812ZM2018.17 59.1773C2018.17 55.3882 2017.01 52.847 2014.99 51.0868C2012.94 49.3051 2009.59 48.1411 2004.36 48.1411H1992.36V70.0748H2004.36C2009.59 70.0748 2012.96 68.9545 2015.01 67.2478C2017.02 65.4883 2018.17 62.952 2018.17 59.1773ZM2017.13 69.7193C2014.26 72.1237 2010.01 73.3258 2004.36 73.3258H1989.11V44.89H2004.36C2010.01 44.89 2014.26 46.1384 2017.13 48.6352C2019.99 51.132 2021.43 54.646 2021.43 59.1773C2021.43 63.7085 2019.99 67.2225 2017.13 69.7193ZM2129.51 120.349L2101.77 85.1163L2091.51 96.0745V120.349H2064.32V23.251H2091.51V63.616L2129.1 23.251H2159.34L2119.67 66.2516L2161.42 120.349H2129.51ZM2123.92 66.4384L2165.37 120.153V21.5029L2123.92 66.4384ZM2248.03 20V47.7249H2199.06V57.5908H2242.2V84.6221H2199.06V95.8751H2249.83V123.6H2127.94L2101.56 90.1L2094.76 97.3593V123.6H2061.07V20H2094.76V55.3547L2127.68 20H2248.03ZM2195.81 99.1261V81.3711H2238.95V60.8418H2195.81V44.4739H2244.78V23.251H2168.62V120.349H2246.58V99.1261H2195.81ZM2249.42 48.2798V20H2342.89V48.2798H2313.2V123.6H2279.24V48.2798H2249.42ZM2282.49 45.0287V120.349H2309.95V45.0287H2339.64V23.251H2252.67V45.0287H2282.49Z" fill="#42D4BA"/>
<path fill-rule="evenodd" clip-rule="evenodd" d="M1804.68 123.6L1804.45 80.5858L1784.52 114.029H1768.64L1748.89 81.7981V123.6H1717V20H1744.69L1776.95 72.9829L1808.42 20H1836.13L1836.42 122.548L1881.69 20H1912.97L1958.39 122.561V20H2006.03C2015.17 20 2023.27 21.5375 2030.25 24.725C2037.24 27.8224 2042.74 32.3748 2046.62 38.4025C2050.53 44.3643 2052.42 51.3341 2052.42 59.1773C2052.42 66.736 2050.62 73.5012 2046.93 79.3541C2043.96 84.1044 2039.92 87.9726 2034.89 90.9752L2057.28 123.6H2019.99L2002.37 97.7997H1992.36V123.6H1923.09L1915.46 104.735H1878.78L1871.16 123.6H1804.68ZM1876.59 101.484H1917.65L1925.28 120.349H1953.85L1910.85 23.251H1883.81L1840.94 120.349H1868.96L1876.59 101.484ZM1989.11 94.5487H2004.09L2021.7 120.349H2051.11L2030.16 89.8325C2031.16 89.3478 2032.13 88.8333 2033.05 88.289C2037.76 85.5106 2041.47 81.9562 2044.17 77.6259C2047.5 72.3549 2049.17 66.2053 2049.17 59.1773C2049.17 51.8718 2047.41 45.5373 2043.9 40.1738C2040.38 34.7179 2035.39 30.5565 2028.92 27.6898C2022.44 24.7306 2014.81 23.251 2006.03 23.251H1961.64V120.349H1989.11V94.5487ZM1776.98 79.2904L1742.86 23.251H1720.25V120.349H1745.64V70.2742L1770.46 110.778H1782.67L1807.64 68.8871L1807.92 120.349H1833.16L1832.88 23.251H1810.27L1776.98 79.2904ZM1897.12 50.161L1884.64 81.2324H1909.61L1897.12 50.161ZM1897.12 58.8812L1889.45 77.9813H1904.8L1897.12 58.8812ZM2018.17 59.1773C2018.17 55.3882 2017.01 52.847 2014.99 51.0868C2012.94 49.3051 2009.59 48.1411 2004.36 48.1411H1992.36V70.0748H2004.36C2009.59 70.0748 2012.96 68.9545 2015.01 67.2478C2017.02 65.4883 2018.17 62.952 2018.17 59.1773ZM2017.13 69.7193C2014.26 72.1237 2010.01 73.3258 2004.36 73.3258H1989.11V44.89H2004.36C2010.01 44.89 2014.26 46.1384 2017.13 48.6352C2019.99 51.132 2021.43 54.646 2021.43 59.1773C2021.43 63.7085 2019.99 67.2225 2017.13 69.7193ZM2129.51 120.349L2101.77 85.1163L2091.51 96.0745V120.349H2064.32V23.251H2091.51V63.616L2129.1 23.251H2159.34L2119.67 66.2516L2161.42 120.349H2129.51ZM2123.92 66.4384L2165.37 120.153V21.5029L2123.92 66.4384ZM2248.03 20V47.7249H2199.06V57.5908H2242.2V84.6221H2199.06V95.8751H2249.83V123.6H2127.94L2101.56 90.1L2094.76 97.3593V123.6H2061.07V20H2094.76V55.3547L2127.68 20H2248.03ZM2195.81 99.1261V81.3711H2238.95V60.8418H2195.81V44.4739H2244.78V23.251H2168.62V120.349H2246.58V99.1261H2195.81ZM2249.42 48.2798V20H2342.89V48.2798H2313.2V123.6H2279.24V48.2798H2249.42ZM2282.49 45.0287V120.349H2309.95V45.0287H2339.64V23.251H2252.67V45.0287H2282.49Z" fill="#42D4BA"/>
</g>
<path fill-rule="evenodd" clip-rule="evenodd" d="M1804.68 123.6L1804.45 80.5858L1784.52 114.029H1768.64L1748.89 81.7981V123.6H1717V20H1744.69L1776.95 72.9829L1808.42 20H1836.13L1836.42 122.548L1881.69 20H1912.97L1958.39 122.561V20H2006.03C2015.17 20 2023.27 21.5375 2030.25 24.725C2037.24 27.8224 2042.74 32.3748 2046.62 38.4025C2050.53 44.3643 2052.42 51.3341 2052.42 59.1773C2052.42 66.736 2050.62 73.5012 2046.93 79.3541C2043.96 84.1044 2039.92 87.9726 2034.89 90.9752L2057.28 123.6H2019.99L2002.37 97.7997H1992.36V123.6H1923.09L1915.46 104.735H1878.78L1871.16 123.6H1804.68ZM1876.59 101.484H1917.65L1925.28 120.349H1953.85L1910.85 23.251H1883.81L1840.94 120.349H1868.96L1876.59 101.484ZM1989.11 94.5487H2004.09L2021.7 120.349H2051.11L2030.16 89.8325C2031.16 89.3478 2032.13 88.8333 2033.05 88.289C2037.76 85.5106 2041.47 81.9562 2044.17 77.6259C2047.5 72.3549 2049.17 66.2053 2049.17 59.1773C2049.17 51.8718 2047.41 45.5373 2043.9 40.1738C2040.38 34.7179 2035.39 30.5565 2028.92 27.6898C2022.44 24.7306 2014.81 23.251 2006.03 23.251H1961.64V120.349H1989.11V94.5487ZM1776.98 79.2904L1742.86 23.251H1720.25V120.349H1745.64V70.2742L1770.46 110.778H1782.67L1807.64 68.8871L1807.92 120.349H1833.16L1832.88 23.251H1810.27L1776.98 79.2904ZM1897.12 50.161L1884.64 81.2324H1909.61L1897.12 50.161ZM1897.12 58.8812L1889.45 77.9813H1904.8L1897.12 58.8812ZM2018.17 59.1773C2018.17 55.3882 2017.01 52.847 2014.99 51.0868C2012.94 49.3051 2009.59 48.1411 2004.36 48.1411H1992.36V70.0748H2004.36C2009.59 70.0748 2012.96 68.9545 2015.01 67.2478C2017.02 65.4883 2018.17 62.952 2018.17 59.1773ZM2017.13 69.7193C2014.26 72.1237 2010.01 73.3258 2004.36 73.3258H1989.11V44.89H2004.36C2010.01 44.89 2014.26 46.1384 2017.13 48.6352C2019.99 51.132 2021.43 54.646 2021.43 59.1773C2021.43 63.7085 2019.99 67.2225 2017.13 69.7193ZM2129.51 120.349L2101.77 85.1163L2091.51 96.0745V120.349H2064.32V23.251H2091.51V63.616L2129.1 23.251H2159.34L2119.67 66.2516L2161.42 120.349H2129.51ZM2123.92 66.4384L2165.37 120.153V21.5029L2123.92 66.4384ZM2248.03 20V47.7249H2199.06V57.5908H2242.2V84.6221H2199.06V95.8751H2249.83V123.6H2127.94L2101.56 90.1L2094.76 97.3593V123.6H2061.07V20H2094.76V55.3547L2127.68 20H2248.03ZM2195.81 99.1261V81.3711H2238.95V60.8418H2195.81V44.4739H2244.78V23.251H2168.62V120.349H2246.58V99.1261H2195.81ZM2249.42 48.2798V20H2342.89V48.2798H2313.2V123.6H2279.24V48.2798H2249.42ZM2282.49 45.0287V120.349H2309.95V45.0287H2339.64V23.251H2252.67V45.0287H2282.49Z" fill="#42D4BA"/>
<path fill-rule="evenodd" clip-rule="evenodd" d="M1804.68 123.6L1804.45 80.5858L1784.52 114.029H1768.64L1748.89 81.7981V123.6H1717V20H1744.69L1776.95 72.9829L1808.42 20H1836.13L1836.42 122.548L1881.69 20H1912.97L1958.39 122.561V20H2006.03C2015.17 20 2023.27 21.5375 2030.25 24.725C2037.24 27.8224 2042.74 32.3748 2046.62 38.4025C2050.53 44.3643 2052.42 51.3341 2052.42 59.1773C2052.42 66.736 2050.62 73.5012 2046.93 79.3541C2043.96 84.1044 2039.92 87.9726 2034.89 90.9752L2057.28 123.6H2019.99L2002.37 97.7997H1992.36V123.6H1923.09L1915.46 104.735H1878.78L1871.16 123.6H1804.68ZM1876.59 101.484H1917.65L1925.28 120.349H1953.85L1910.85 23.251H1883.81L1840.94 120.349H1868.96L1876.59 101.484ZM1989.11 94.5487H2004.09L2021.7 120.349H2051.11L2030.16 89.8325C2031.16 89.3478 2032.13 88.8333 2033.05 88.289C2037.76 85.5106 2041.47 81.9562 2044.17 77.6259C2047.5 72.3549 2049.17 66.2053 2049.17 59.1773C2049.17 51.8718 2047.41 45.5373 2043.9 40.1738C2040.38 34.7179 2035.39 30.5565 2028.92 27.6898C2022.44 24.7306 2014.81 23.251 2006.03 23.251H1961.64V120.349H1989.11V94.5487ZM1776.98 79.2904L1742.86 23.251H1720.25V120.349H1745.64V70.2742L1770.46 110.778H1782.67L1807.64 68.8871L1807.92 120.349H1833.16L1832.88 23.251H1810.27L1776.98 79.2904ZM1897.12 50.161L1884.64 81.2324H1909.61L1897.12 50.161ZM1897.12 58.8812L1889.45 77.9813H1904.8L1897.12 58.8812ZM2018.17 59.1773C2018.17 55.3882 2017.01 52.847 2014.99 51.0868C2012.94 49.3051 2009.59 48.1411 2004.36 48.1411H1992.36V70.0748H2004.36C2009.59 70.0748 2012.96 68.9545 2015.01 67.2478C2017.02 65.4883 2018.17 62.952 2018.17 59.1773ZM2017.13 69.7193C2014.26 72.1237 2010.01 73.3258 2004.36 73.3258H1989.11V44.89H2004.36C2010.01 44.89 2014.26 46.1384 2017.13 48.6352C2019.99 51.132 2021.43 54.646 2021.43 59.1773C2021.43 63.7085 2019.99 67.2225 2017.13 69.7193ZM2129.51 120.349L2101.77 85.1163L2091.51 96.0745V120.349H2064.32V23.251H2091.51V63.616L2129.1 23.251H2159.34L2119.67 66.2516L2161.42 120.349H2129.51ZM2123.92 66.4384L2165.37 120.153V21.5029L2123.92 66.4384ZM2248.03 20V47.7249H2199.06V57.5908H2242.2V84.6221H2199.06V95.8751H2249.83V123.6H2127.94L2101.56 90.1L2094.76 97.3593V123.6H2061.07V20H2094.76V55.3547L2127.68 20H2248.03ZM2195.81 99.1261V81.3711H2238.95V60.8418H2195.81V44.4739H2244.78V23.251H2168.62V120.349H2246.58V99.1261H2195.81ZM2249.42 48.2798V20H2342.89V48.2798H2313.2V123.6H2279.24V48.2798H2249.42ZM2282.49 45.0287V120.349H2309.95V45.0287H2339.64V23.251H2252.67V45.0287H2282.49Z" fill="#42D4BA"/>
<path fill-rule="evenodd" clip-rule="evenodd" d="M1804.68 123.6L1804.45 80.5858L1784.52 114.029H1768.64L1748.89 81.7981V123.6H1717V20H1744.69L1776.95 72.9829L1808.42 20H1836.13L1836.42 122.548L1881.69 20H1912.97L1958.39 122.561V20H2006.03C2015.17 20 2023.27 21.5375 2030.25 24.725C2037.24 27.8224 2042.74 32.3748 2046.62 38.4025C2050.53 44.3643 2052.42 51.3341 2052.42 59.1773C2052.42 66.736 2050.62 73.5012 2046.93 79.3541C2043.96 84.1044 2039.92 87.9726 2034.89 90.9752L2057.28 123.6H2019.99L2002.37 97.7997H1992.36V123.6H1923.09L1915.46 104.735H1878.78L1871.16 123.6H1804.68ZM1876.59 101.484H1917.65L1925.28 120.349H1953.85L1910.85 23.251H1883.81L1840.94 120.349H1868.96L1876.59 101.484ZM1989.11 94.5487H2004.09L2021.7 120.349H2051.11L2030.16 89.8325C2031.16 89.3478 2032.13 88.8333 2033.05 88.289C2037.76 85.5106 2041.47 81.9562 2044.17 77.6259C2047.5 72.3549 2049.17 66.2053 2049.17 59.1773C2049.17 51.8718 2047.41 45.5373 2043.9 40.1738C2040.38 34.7179 2035.39 30.5565 2028.92 27.6898C2022.44 24.7306 2014.81 23.251 2006.03 23.251H1961.64V120.349H1989.11V94.5487ZM1776.98 79.2904L1742.86 23.251H1720.25V120.349H1745.64V70.2742L1770.46 110.778H1782.67L1807.64 68.8871L1807.92 120.349H1833.16L1832.88 23.251H1810.27L1776.98 79.2904ZM1897.12 50.161L1884.64 81.2324H1909.61L1897.12 50.161ZM1897.12 58.8812L1889.45 77.9813H1904.8L1897.12 58.8812ZM2018.17 59.1773C2018.17 55.3882 2017.01 52.847 2014.99 51.0868C2012.94 49.3051 2009.59 48.1411 2004.36 48.1411H1992.36V70.0748H2004.36C2009.59 70.0748 2012.96 68.9545 2015.01 67.2478C2017.02 65.4883 2018.17 62.952 2018.17 59.1773ZM2017.13 69.7193C2014.26 72.1237 2010.01 73.3258 2004.36 73.3258H1989.11V44.89H2004.36C2010.01 44.89 2014.26 46.1384 2017.13 48.6352C2019.99 51.132 2021.43 54.646 2021.43 59.1773C2021.43 63.7085 2019.99 67.2225 2017.13 69.7193ZM2129.51 120.349L2101.77 85.1163L2091.51 96.0745V120.349H2064.32V23.251H2091.51V63.616L2129.1 23.251H2159.34L2119.67 66.2516L2161.42 120.349H2129.51ZM2123.92 66.4384L2165.37 120.153V21.5029L2123.92 66.4384ZM2248.03 20V47.7249H2199.06V57.5908H2242.2V84.6221H2199.06V95.8751H2249.83V123.6H2127.94L2101.56 90.1L2094.76 97.3593V123.6H2061.07V20H2094.76V55.3547L2127.68 20H2248.03ZM2195.81 99.1261V81.3711H2238.95V60.8418H2195.81V44.4739H2244.78V23.251H2168.62V120.349H2246.58V99.1261H2195.81ZM2249.42 48.2798V20H2342.89V48.2798H2313.2V123.6H2279.24V48.2798H2249.42ZM2282.49 45.0287V120.349H2309.95V45.0287H2339.64V23.251H2252.67V45.0287H2282.49Z" fill="#42D4BA"/>
<defs>
<filter id="filter0_f_349_828" x="778" y="0" width="661.889" height="139.6" filterUnits="userSpaceOnUse" color-interpolation-filters="sRGB">
<feFlood flood-opacity="0" result="BackgroundImageFix"/>
<feBlend mode="normal" in="SourceGraphic" in2="BackgroundImageFix" result="shape"/>
<feGaussianBlur stdDeviation="9" result="effect1_foregroundBlur_349_828"/>
</filter>
<filter id="filter1_f_349_828" x="-140" y="0" width="661.889" height="139.6" filterUnits="userSpaceOnUse" color-interpolation-filters="sRGB">
<feFlood flood-opacity="0" result="BackgroundImageFix"/>
<feBlend mode="normal" in="SourceGraphic" in2="BackgroundImageFix" result="shape"/>
<feGaussianBlur stdDeviation="9" result="effect1_foregroundBlur_349_828"/>
</filter>
<filter id="filter2_f_349_828" x="1699" y="2" width="661.889" height="139.6" filterUnits="userSpaceOnUse" color-interpolation-filters="sRGB">
<feFlood flood-opacity="0" result="BackgroundImageFix"/>
<feBlend mode="normal" in="SourceGraphic" in2="BackgroundImageFix" result="shape"/>
<feGaussianBlur stdDeviation="9" result="effect1_foregroundBlur_349_828"/>
</filter>
</defs>
</svg>
