<svg width="1938" height="458" viewBox="0 0 1938 458" fill="none" xmlns="http://www.w3.org/2000/svg">
<rect width="1938" height="458" fill="#19191A"/>
<rect x="0.5" y="0.5" width="1937" height="457" stroke="white" stroke-opacity="0.2"/>
<circle cx="112.541" cy="134.467" r="10.9243" fill="#232323"/>
<ellipse cx="225.812" cy="220.998" rx="8.62443" ry="8.91191" fill="#232323"/>
<circle cx="239.895" cy="317.594" r="10.6368" fill="#232323"/>
<ellipse cx="131.231" cy="415.049" rx="10.6368" ry="10.9243" fill="#232323"/>
<ellipse cx="88.393" cy="350.363" rx="10.9243" ry="10.6368" fill="#232323"/>
<path d="M250.565 124.111V102.856L237.883 89.7666V17.1758L258.607 17.1758L279.28 17.1758V19.0355M279.28 156.655V19.0355M279.28 19.0355L263.607 34.6468V202.889" stroke="#232323" stroke-width="5.74962"/>
<path d="M92.3001 95.1125V60.3537L80.9219 49.89V17.1758L96.9223 17.1758L113.12 17.1758V135.043" stroke="#232323" stroke-width="5.74962"/>
<path d="M216.372 73.2697V17.1758L205.1 17.1758L193.039 17.1758V78.4458L225.633 111.308V180.402M225.633 218.681V180.402M225.633 180.402L209.757 196.893V241.07L240.186 271.525V315.581" stroke="#232323" stroke-width="5.74962"/>
<path d="M571.453 88.9484V66.3075M571.453 35.2363V66.3075M571.453 66.3075L522.492 20.625M571.453 66.3075V109.783V222.627M571.453 255.865V222.627M571.453 222.627L536.729 252.827V288.509M536.729 340.109V288.509M536.729 288.509L571.453 314.033V359.322M571.453 396.65V359.322M571.453 359.322L591.488 328.581V292.351" stroke="#232323" stroke-width="5.74962"/>
<path d="M516.102 293.156V252.951L554.692 219.467V140.294L539.979 126.684V148.179V50.7513L498.633 16.312" stroke="#232323" stroke-width="5.74962"/>
<path d="M520.189 249.461V151.617L497.766 130.683V12.0016" stroke="#232323" stroke-width="5.74962"/>
<path d="M519.039 137.34L497.766 117.783V109.745M497.766 109.745L519.039 128.461M497.766 109.745V101.466M497.766 101.466L519.039 119.343M497.766 101.466V93.0678L519.039 110.465" stroke="#232323" stroke-width="3.44977"/>
<path d="M520.192 102.27L498.344 85.001V76.9663M498.344 76.9663L520.192 94.1149M498.344 76.9663V68.6917M498.344 68.6917L520.192 86.3201M498.344 68.6917V60.2973L520.192 77.8057" stroke="#232323" stroke-width="3.44977"/>
<path d="M520.192 70.0703L498.344 52.5652V44.4204M498.344 44.4204L520.192 61.804M498.344 44.4204V36.0326M498.344 36.0326L520.192 53.9024M498.344 36.0326V27.5231L520.192 45.2714" stroke="#232323" stroke-width="3.44977"/>
<path d="M482.242 217.262V196.965L509.265 171.503V202.97V153.608L482.242 126.946V78.9051L497.255 63.1719" stroke="#232323" stroke-width="5.74962"/>
<path d="M358.63 138.635V36.6132M358.63 14.3002V17.3638V36.6132M358.63 36.6132L343.43 25.1839V107.355V16.4938H331.48H315.659H297.109L297.109 34.207M297.109 70.1792V34.207M297.109 34.207L321.646 58.5093V171.84" stroke="#232323" stroke-width="5.74962"/>
<path d="M465.155 116.645V75.5316L479.371 59.9039V33.6975H442.747V90.4381L422.146 73.2476V53.5326M422.146 53.5326L403.352 70.7231V96.5689M422.146 53.5326V16.0262C422.146 16.0262 406.397 16.0262 396.726 16.0262V31.8943L370.703 57.139V111.716" stroke="#232323" stroke-width="5.74962"/>
<path d="M138.614 39.4645L126.922 18.3242H172.919V48.595M172.919 85.5975V48.595M172.919 48.595L140.901 80.4315V182.188" stroke="#232323" stroke-width="5.74962"/>
<path d="M45.9647 210.456V108.641L34.9824 98.3512M34.9824 98.3512L24 88.0614V17.1758L45.9647 17.1759H67.9294V121.398M34.9824 98.3512V167.612M67.9294 162.798V121.398M67.9294 121.398L88.0938 142.218V208.651M88.0938 355.838V208.651M88.0938 208.651L109.218 227.666V252.699L130.943 272.075V305.519M130.943 415.05V363.878" stroke="#232323" stroke-width="5.74962"/>
<path d="M448.898 48.7969V34.4228H454.732M454.732 34.4228V48.7969M454.732 34.4228H460.209M460.209 34.4228V48.7969M460.209 34.4228H466.638M466.638 34.4228V48.7969M466.638 34.4228H472.472V48.7969" stroke="#232323" stroke-width="3.44977"/>
<path d="M221.956 119.421L189.586 88.4688L223.509 121.469V132.91M223.509 132.91L189.586 100.633M223.509 132.91V143.148M223.509 143.148L189.586 112.556M223.509 143.148V154.589L189.586 125.082" stroke="#232323" stroke-width="5.74962"/>
<circle cx="91.8462" cy="94.7954" r="10.9243" fill="#232323"/>
<ellipse cx="67.6977" cy="161.777" rx="10.9243" ry="10.6368" fill="#232323"/>
<circle cx="9.77436" cy="9.77436" r="9.77436" transform="matrix(1 0 0 -1 561.586 397.801)" fill="#232323"/>
<circle cx="10.6368" cy="10.6368" r="10.6368" transform="matrix(1 0 0 -1 526.516 348.93)" fill="#232323"/>
<ellipse cx="141.293" cy="182.475" rx="9.19939" ry="9.48688" fill="#232323"/>
<circle cx="173.201" cy="86.4588" r="8.91191" fill="#232323"/>
<ellipse cx="7.18703" cy="6.89955" rx="7.18703" ry="6.89955" transform="matrix(1 0 0 -1 502.367 212.086)" fill="#232323"/>
<ellipse cx="279.284" cy="159.477" rx="10.9243" ry="10.6368" fill="#232323"/>
<circle cx="250.821" cy="129.579" r="8.33695" fill="#232323"/>
<ellipse cx="215.746" cy="75.2446" rx="10.6368" ry="10.9243" fill="#232323"/>
<circle cx="264.043" cy="207.774" r="10.6368" fill="#232323"/>
<circle cx="138.995" cy="39.0219" r="10.9243" fill="#232323"/>
<circle cx="7.18703" cy="7.18703" r="7.18703" transform="matrix(1 0 0 -1 564.461 258.66)" fill="#232323"/>
<ellipse cx="10.9243" cy="10.6368" rx="10.9243" ry="10.6368" transform="matrix(1 0 0 -1 581.141 304.082)" fill="#232323"/>
<ellipse cx="9.77436" cy="9.48688" rx="9.77436" ry="9.48688" transform="matrix(1 0 0 -1 529.969 163.215)" fill="#232323"/>
<circle cx="6.61206" cy="6.61206" r="6.61206" transform="matrix(1 0 0 -1 363.805 118.941)" fill="#232323"/>
<ellipse cx="10.9243" cy="10.6368" rx="10.9243" ry="10.6368" transform="matrix(1 0 0 -1 392.547 113.191)" fill="#232323"/>
<ellipse cx="10.6368" cy="10.9243" rx="10.6368" ry="10.9243" transform="matrix(1 0 0 -1 431.07 108.02)" fill="#232323"/>
<ellipse cx="10.6368" cy="10.9243" rx="10.6368" ry="10.9243" transform="matrix(1 0 0 -1 454.07 133.316)" fill="#232323"/>
<ellipse cx="10.6368" cy="10.9243" rx="10.6368" ry="10.9243" transform="matrix(1 0 0 -1 286.18 86.1719)" fill="#232323"/>
<ellipse cx="10.6368" cy="10.9243" rx="10.6368" ry="10.9243" transform="matrix(1 0 0 -1 311.484 175.863)" fill="#232323"/>
<circle cx="10.6368" cy="10.6368" r="10.6368" transform="matrix(1 0 0 -1 348.852 149.414)" fill="#232323"/>
<ellipse cx="8.04947" cy="8.33695" rx="8.04947" ry="8.33695" transform="matrix(1 0 0 -1 335.633 114.918)" fill="#232323"/>
<circle cx="10.9243" cy="10.9243" r="10.9243" transform="matrix(1 0 0 -1 471.32 228.762)" fill="#232323"/>
<circle cx="672.557" cy="134.467" r="10.9243" fill="#232323"/>
<ellipse cx="785.828" cy="220.998" rx="8.62443" ry="8.91191" fill="#232323"/>
<circle cx="799.91" cy="317.594" r="10.6368" fill="#232323"/>
<ellipse cx="691.246" cy="415.049" rx="10.6368" ry="10.9243" fill="#232323"/>
<circle cx="516.166" cy="293.155" r="10.9243" fill="#232323"/>
<circle cx="1076.18" cy="293.733" r="10.9243" fill="#232323"/>
<ellipse cx="648.409" cy="350.363" rx="10.9243" ry="10.6368" fill="#232323"/>
<path d="M810.581 124.111V102.856L797.898 89.7666V17.1758L818.622 17.1758L839.296 17.1758V19.0355M839.296 156.655V19.0355M839.296 19.0355L823.622 34.6468V202.889" stroke="#232323" stroke-width="5.74962"/>
<path d="M652.316 95.1125V60.3537L640.938 49.89V17.1758L656.938 17.1758L673.135 17.1758V135.043" stroke="#232323" stroke-width="5.74962"/>
<path d="M776.388 73.2697V17.1758L765.116 17.1758L753.055 17.1758V78.4458L785.649 111.308V180.402M785.649 218.681V180.402M785.649 180.402L769.773 196.893V241.07L800.202 271.525V315.581" stroke="#232323" stroke-width="5.74962"/>
<path d="M1131.47 88.9484V66.3075M1131.47 35.2363V66.3075M1131.47 66.3075L1082.51 20.625M1131.47 66.3075V109.783V222.627M1131.47 255.865V222.627M1131.47 222.627L1096.74 252.827V288.509M1096.74 340.109V288.509M1096.74 288.509L1131.47 314.033V359.322M1131.47 396.65V359.322M1131.47 359.322L1151.5 328.581V292.351" stroke="#232323" stroke-width="5.74962"/>
<path d="M1076.12 293.156V252.951L1114.71 219.467V140.294L1099.99 126.684V148.179V50.7513L1058.36 16.0245" stroke="#232323" stroke-width="5.74962"/>
<path d="M1080.2 249.461V151.617L1057.78 130.683V12.0016" stroke="#232323" stroke-width="5.74962"/>
<path d="M1079.05 137.34L1057.78 117.783V109.745M1057.78 109.745L1079.05 128.461M1057.78 109.745V101.466M1057.78 101.466L1079.05 119.343M1057.78 101.466V93.0678L1079.05 110.465" stroke="#232323" stroke-width="3.44977"/>
<path d="M1080.21 102.27L1058.36 85.001V76.9663M1058.36 76.9663L1080.21 94.1149M1058.36 76.9663V68.6917M1058.36 68.6917L1080.21 86.3201M1058.36 68.6917V60.2973L1080.21 77.8057" stroke="#232323" stroke-width="3.44977"/>
<path d="M1080.21 70.0703L1058.36 52.5652V44.4204M1058.36 44.4204L1080.21 61.804M1058.36 44.4204V36.0326M1058.36 36.0326L1080.21 53.9024M1058.36 36.0326V27.5231L1080.21 45.2714" stroke="#232323" stroke-width="3.44977"/>
<path d="M1042.26 217.262V196.965L1069.28 171.503V202.97V153.608L1042.26 126.946V78.9051L1057.27 63.1719" stroke="#232323" stroke-width="5.74962"/>
<path d="M918.638 138.635V36.6132M918.638 14.3002V17.3638V36.6132M918.638 36.6132L903.437 25.1839V107.355V16.4938H891.488H875.667H857.117L857.117 34.207M857.117 70.1792V34.207M857.117 34.207L881.654 58.5093V171.84" stroke="#232323" stroke-width="5.74962"/>
<path d="M1025.17 116.645V75.5316L1039.39 59.9039V33.6975H1002.76V90.4381L982.161 73.2476V53.5326M982.161 53.5326L963.367 70.7231V96.5689M982.161 53.5326V16.0262C982.161 16.0262 966.413 16.0262 956.741 16.0262V31.8943L930.719 57.139V111.716" stroke="#232323" stroke-width="5.74962"/>
<path d="M698.622 39.4645L686.93 18.3242H732.927V48.595M732.927 85.5975V48.595M732.927 48.595L700.909 80.4315V182.188" stroke="#232323" stroke-width="5.74962"/>
<path d="M605.98 210.456V108.641L594.998 98.3512M594.998 98.3512L584.016 88.0614V17.1758L605.98 17.1759H627.945V121.398M594.998 98.3512V167.612M627.945 162.798V121.398M627.945 121.398L648.109 142.218V208.651M648.109 355.838V208.651M648.109 208.651L669.234 227.666V252.699L690.959 272.075V301.782M690.959 415.05V368.046V360.428" stroke="#232323" stroke-width="5.74962"/>
<path d="M1008.91 48.7969V34.4228H1014.74M1014.74 34.4228V48.7969M1014.74 34.4228H1020.22M1020.22 34.4228V48.7969M1020.22 34.4228H1026.65M1026.65 34.4228V48.7969M1026.65 34.4228H1032.48V48.7969" stroke="#232323" stroke-width="3.44977"/>
<path d="M781.972 119.421L749.602 88.4688L783.524 121.469V132.91M783.524 132.91L749.602 100.633M783.524 132.91V143.148M783.524 143.148L749.602 112.556M783.524 143.148V154.589L749.602 125.082" stroke="#232323" stroke-width="5.74962"/>
<circle cx="651.862" cy="94.7954" r="10.9243" fill="#232323"/>
<ellipse cx="627.713" cy="161.777" rx="10.9243" ry="10.6368" fill="#232323"/>
<ellipse cx="605.862" cy="210.074" rx="10.9243" ry="10.6368" fill="#232323"/>
<circle cx="9.77436" cy="9.77436" r="9.77436" transform="matrix(1 0 0 -1 1121.6 397.801)" fill="#232323"/>
<circle cx="10.6368" cy="10.6368" r="10.6368" transform="matrix(1 0 0 -1 1086.53 348.93)" fill="#232323"/>
<ellipse cx="701.309" cy="182.475" rx="9.19939" ry="9.48688" fill="#232323"/>
<ellipse cx="594.651" cy="166.09" rx="6.61206" ry="6.32458" fill="#232323"/>
<circle cx="733.217" cy="86.4588" r="8.91191" fill="#232323"/>
<circle cx="6.61206" cy="6.61206" r="6.61206" transform="matrix(1 0 0 -1 1062.38 211.512)" fill="#232323"/>
<ellipse cx="839.299" cy="159.477" rx="10.9243" ry="10.6368" fill="#232323"/>
<circle cx="810.837" cy="129.579" r="8.33695" fill="#232323"/>
<ellipse cx="775.762" cy="75.2446" rx="10.6368" ry="10.9243" fill="#232323"/>
<circle cx="824.059" cy="207.774" r="10.6368" fill="#232323"/>
<circle cx="699.002" cy="39.0219" r="10.9243" fill="#232323"/>
<circle cx="7.18703" cy="7.18703" r="7.18703" transform="matrix(1 0 0 -1 1124.48 258.66)" fill="#232323"/>
<ellipse cx="10.9243" cy="10.6368" rx="10.9243" ry="10.6368" transform="matrix(1 0 0 -1 1141.15 304.082)" fill="#232323"/>
<ellipse cx="9.77436" cy="9.48688" rx="9.77436" ry="9.48688" transform="matrix(1 0 0 -1 1089.98 163.215)" fill="#232323"/>
<circle cx="6.61206" cy="6.61206" r="6.61206" transform="matrix(1 0 0 -1 923.812 118.941)" fill="#232323"/>
<ellipse cx="10.9243" cy="10.6368" rx="10.9243" ry="10.6368" transform="matrix(1 0 0 -1 952.562 113.191)" fill="#232323"/>
<ellipse cx="10.6368" cy="10.9243" rx="10.6368" ry="10.9243" transform="matrix(1 0 0 -1 991.086 108.02)" fill="#232323"/>
<ellipse cx="10.6368" cy="10.9243" rx="10.6368" ry="10.9243" transform="matrix(1 0 0 -1 1014.09 133.316)" fill="#232323"/>
<ellipse cx="10.6368" cy="10.9243" rx="10.6368" ry="10.9243" transform="matrix(1 0 0 -1 846.195 86.1719)" fill="#232323"/>
<ellipse cx="10.6368" cy="10.9243" rx="10.6368" ry="10.9243" transform="matrix(1 0 0 -1 871.492 175.863)" fill="#232323"/>
<circle cx="10.6368" cy="10.6368" r="10.6368" transform="matrix(1 0 0 -1 908.867 149.414)" fill="#232323"/>
<ellipse cx="8.04947" cy="8.33695" rx="8.04947" ry="8.33695" transform="matrix(1 0 0 -1 895.641 114.918)" fill="#232323"/>
<circle cx="10.9243" cy="10.9243" r="10.9243" transform="matrix(1 0 0 -1 1031.34 228.762)" fill="#232323"/>
<path d="M681.45 315.618C681.45 313.649 681.873 311.865 682.72 310.264C683.584 308.682 684.771 307.431 686.28 306.511C687.807 305.609 689.527 305.158 691.441 305.158C693.354 305.158 695.065 305.609 696.574 306.511C698.101 307.431 699.288 308.682 700.134 310.264C700.999 311.865 701.431 313.659 701.431 315.646C701.431 317.32 701.137 318.829 700.548 320.172C699.959 321.533 699.113 322.674 698.009 323.594L695.36 320.724C696.868 319.417 697.623 317.798 697.623 315.866C697.623 314.671 697.356 313.603 696.822 312.665C696.307 311.727 695.58 310.991 694.642 310.457C693.704 309.942 692.637 309.684 691.441 309.684C690.245 309.684 689.178 309.942 688.239 310.457C687.301 310.991 686.565 311.727 686.031 312.665C685.516 313.603 685.259 314.671 685.259 315.866C685.259 317.798 686.022 319.417 687.549 320.724L684.9 323.594C683.778 322.674 682.922 321.533 682.333 320.172C681.744 318.81 681.45 317.292 681.45 315.618ZM697.457 330.426V324.244H701.1V341.079H697.457V334.897H681.781V330.426H697.457ZM697.512 347.956H692.407V356.897H688.819V347.956H681.781V343.485H701.1V358.084H697.512V347.956Z" fill="#232323"/>
<path d="M141.026 350.616C141.026 352.585 140.603 354.37 139.757 355.97C138.892 357.553 137.706 358.804 136.197 359.724C134.67 360.625 132.949 361.076 131.036 361.076C129.122 361.076 127.411 360.625 125.903 359.724C124.376 358.804 123.189 357.553 122.343 355.97C121.478 354.37 121.045 352.576 121.045 350.589C121.045 348.914 121.34 347.406 121.929 346.063C122.517 344.701 123.364 343.56 124.468 342.64L127.117 345.511C125.608 346.817 124.854 348.436 124.854 350.368C124.854 351.564 125.121 352.631 125.654 353.569C126.169 354.508 126.896 355.244 127.835 355.777C128.773 356.292 129.84 356.55 131.036 356.55C132.232 356.55 133.299 356.292 134.237 355.777C135.176 355.244 135.912 354.508 136.445 353.569C136.96 352.631 137.218 351.564 137.218 350.368C137.218 348.436 136.454 346.817 134.927 345.511L137.577 342.64C138.699 343.56 139.555 344.701 140.143 346.063C140.732 347.424 141.026 348.942 141.026 350.616ZM125.02 335.808V341.99H121.377V325.155H125.02V331.337H140.695V335.808H125.02ZM124.964 318.279H130.07V309.337H133.658V318.279H140.695V322.75H121.377V308.15H124.964V318.279Z" fill="#232323"/>
<ellipse cx="45.8462" cy="213.524" rx="10.9243" ry="10.6368" fill="#232323"/>
<ellipse cx="34.3527" cy="165.803" rx="6.89955" ry="6.61206" fill="#232323"/>
<circle cx="10.9243" cy="10.9243" r="10.9243" transform="matrix(-1 0 0 1 1834.93 127.543)" fill="#232323"/>
<ellipse cx="8.62443" cy="8.91191" rx="8.62443" ry="8.91191" transform="matrix(-1 0 0 1 1719.36 216.086)" fill="#232323"/>
<circle cx="10.6368" cy="10.6368" r="10.6368" transform="matrix(-1 0 0 1 1707.29 310.957)" fill="#232323"/>
<ellipse cx="10.6368" cy="10.9243" rx="10.6368" ry="10.9243" transform="matrix(-1 0 0 1 1815.95 408.125)" fill="#232323"/>
<ellipse cx="10.9243" cy="10.6368" rx="10.9243" ry="10.6368" transform="matrix(-1 0 0 1 1859.08 343.727)" fill="#232323"/>
<path d="M1685.98 128.111V106.856L1698.66 93.7666V21.1758L1677.94 21.1758L1657.27 21.1758V23.0355M1657.27 160.655V23.0355M1657.27 23.0355L1672.94 38.6468V206.889" stroke="#232323" stroke-width="5.74962"/>
<path d="M1844.25 99.1125V64.3537L1855.62 53.89V21.1758L1839.62 21.1758L1823.43 21.1758V139.043" stroke="#232323" stroke-width="5.74962"/>
<path d="M1720.17 77.2697V21.1758L1731.45 21.1758L1743.51 21.1758V82.4458L1710.91 115.308V184.402M1710.91 222.681V184.402M1710.91 184.402L1726.79 200.893V245.07L1696.36 275.525V319.581" stroke="#232323" stroke-width="5.74962"/>
<path d="M1365.09 92.9484V70.3075M1365.09 39.2363V70.3075M1365.09 70.3075L1414.05 24.625M1365.09 70.3075V113.783V226.627M1365.09 259.865V226.627M1365.09 226.627L1399.82 256.827V292.509M1399.82 344.109V292.509M1399.82 292.509L1365.09 318.033V363.322M1365.09 400.65V363.322M1365.09 363.322L1345.06 332.581V296.351" stroke="#232323" stroke-width="5.74962"/>
<path d="M1420.44 297.156V256.951L1381.86 223.467V144.294L1396.57 130.684V152.179V54.7513L1437.91 20.312" stroke="#232323" stroke-width="5.74962"/>
<path d="M1416.36 253.461V155.617L1438.78 134.683V16.0016" stroke="#232323" stroke-width="5.74962"/>
<path d="M1417.51 141.34L1438.78 121.783V113.745M1438.78 113.745L1417.51 132.461M1438.78 113.745V105.466M1438.78 105.466L1417.51 123.343M1438.78 105.466V97.0678L1417.51 114.465" stroke="#232323" stroke-width="3.44977"/>
<path d="M1416.35 106.27L1438.2 89.001V80.9663M1438.2 80.9663L1416.35 98.1149M1438.2 80.9663V72.6917M1438.2 72.6917L1416.35 90.3201M1438.2 72.6917V64.2973L1416.35 81.8057" stroke="#232323" stroke-width="3.44977"/>
<path d="M1416.35 74.0703L1438.2 56.5652V48.4204M1438.2 48.4204L1416.35 65.804M1438.2 48.4204V40.0326M1438.2 40.0326L1416.35 57.9024M1438.2 40.0326V31.5231L1416.35 49.2714" stroke="#232323" stroke-width="3.44977"/>
<path d="M1454.3 221.262V200.965L1427.28 175.503V206.97V157.608L1454.3 130.946V82.9051L1439.29 67.1719" stroke="#232323" stroke-width="5.74962"/>
<path d="M1577.92 142.635V40.6132M1577.92 18.3002V21.3638V40.6132M1577.92 40.6132L1593.12 29.1839V111.355V20.4938H1605.07H1620.89H1639.44L1639.44 38.207M1639.44 74.1792V38.207M1639.44 38.207L1614.9 62.5093V175.84" stroke="#232323" stroke-width="5.74962"/>
<path d="M1471.39 120.645V79.5316L1457.18 63.9039V37.6975H1493.8V94.4381L1514.4 77.2476V57.5326M1514.4 57.5326L1533.2 74.7231V100.569M1514.4 57.5326V20.0262C1514.4 20.0262 1530.15 20.0262 1539.82 20.0262V35.8943L1565.84 61.139V115.716" stroke="#232323" stroke-width="5.74962"/>
<path d="M1797.93 43.4645L1809.62 22.3242H1763.63V52.595M1763.63 89.5975V52.595M1763.63 52.595L1795.65 84.4315V186.188" stroke="#232323" stroke-width="5.74962"/>
<path d="M1890.58 214.456V112.641L1901.56 102.351M1901.56 102.351L1912.55 92.0614V21.1758L1890.58 21.1759H1868.62V125.398M1901.56 102.351V171.612M1868.62 166.798V125.398M1868.62 125.398L1848.45 146.218V212.651M1848.45 359.838V212.651M1848.45 212.651L1827.33 231.666V256.699L1805.6 276.075V309.519M1805.6 419.05V367.878" stroke="#232323" stroke-width="5.74962"/>
<path d="M1487.65 52.7969V38.4228H1481.81M1481.81 38.4228V52.7969M1481.81 38.4228H1476.34M1476.34 38.4228V52.7969M1476.34 38.4228H1469.91M1469.91 38.4228V52.7969M1469.91 38.4228H1464.07V52.7969" stroke="#232323" stroke-width="3.44977"/>
<path d="M1714.59 123.421L1746.96 92.4688L1713.04 125.469V136.91M1713.04 136.91L1746.96 104.633M1713.04 136.91V147.148M1713.04 147.148L1746.96 116.556M1713.04 147.148V158.589L1746.96 129.082" stroke="#232323" stroke-width="5.74962"/>
<circle cx="10.9243" cy="10.9243" r="10.9243" transform="matrix(-1 0 0 1 1855.62 87.8711)" fill="#232323"/>
<ellipse cx="10.9243" cy="10.6368" rx="10.9243" ry="10.6368" transform="matrix(-1 0 0 1 1879.77 155.141)" fill="#232323"/>
<circle cx="1365.19" cy="392.026" r="9.77436" transform="rotate(180 1365.19 392.026)" fill="#232323"/>
<circle cx="1399.39" cy="342.293" r="10.6368" transform="rotate(180 1399.39 342.293)" fill="#232323"/>
<ellipse cx="9.19939" cy="9.48688" rx="9.19939" ry="9.48688" transform="matrix(-1 0 0 1 1804.45 176.988)" fill="#232323"/>
<circle cx="8.91191" cy="8.91191" r="8.91191" transform="matrix(-1 0 0 1 1772.26 81.5469)" fill="#232323"/>
<ellipse cx="1426.99" cy="209.186" rx="7.18703" ry="6.89955" transform="rotate(180 1426.99 209.186)" fill="#232323"/>
<ellipse cx="10.9243" cy="10.6368" rx="10.9243" ry="10.6368" transform="matrix(-1 0 0 1 1668.19 152.84)" fill="#232323"/>
<circle cx="8.33695" cy="8.33695" r="8.33695" transform="matrix(-1 0 0 1 1694.06 125.242)" fill="#232323"/>
<ellipse cx="10.6368" cy="10.9243" rx="10.6368" ry="10.9243" transform="matrix(-1 0 0 1 1731.44 68.3203)" fill="#232323"/>
<circle cx="10.6368" cy="10.6368" r="10.6368" transform="matrix(-1 0 0 1 1683.14 201.137)" fill="#232323"/>
<circle cx="10.9243" cy="10.9243" r="10.9243" transform="matrix(-1 0 0 1 1808.48 32.0977)" fill="#232323"/>
<circle cx="1364.9" cy="255.473" r="7.18703" transform="rotate(180 1364.9 255.473)" fill="#232323"/>
<ellipse cx="1344.48" cy="297.445" rx="10.9243" ry="10.6368" transform="rotate(180 1344.48 297.445)" fill="#232323"/>
<ellipse cx="1396.8" cy="157.728" rx="9.77436" ry="9.48688" transform="rotate(180 1396.8 157.728)" fill="#232323"/>
<circle cx="1566.13" cy="116.329" r="6.61206" transform="rotate(180 1566.13 116.329)" fill="#232323"/>
<ellipse cx="1533.08" cy="106.555" rx="10.9243" ry="10.6368" transform="rotate(180 1533.08 106.555)" fill="#232323"/>
<ellipse cx="1494.84" cy="101.095" rx="10.6368" ry="10.9243" transform="rotate(180 1494.84 101.095)" fill="#232323"/>
<ellipse cx="1471.84" cy="126.392" rx="10.6368" ry="10.9243" transform="rotate(180 1471.84 126.392)" fill="#232323"/>
<ellipse cx="1639.73" cy="79.2476" rx="10.6368" ry="10.9243" transform="rotate(180 1639.73 79.2476)" fill="#232323"/>
<ellipse cx="1614.43" cy="168.939" rx="10.6368" ry="10.9243" transform="rotate(180 1614.43 168.939)" fill="#232323"/>
<circle cx="1577.06" cy="142.777" r="10.6368" transform="rotate(180 1577.06 142.777)" fill="#232323"/>
<ellipse cx="1592.86" cy="110.581" rx="8.04947" ry="8.33695" transform="rotate(180 1592.86 110.581)" fill="#232323"/>
<circle cx="1454.3" cy="221.837" r="10.9243" transform="rotate(180 1454.3 221.837)" fill="#232323"/>
<circle cx="10.9243" cy="10.9243" r="10.9243" transform="matrix(-1 0 0 1 1274.91 127.543)" fill="#232323"/>
<ellipse cx="8.62443" cy="8.91191" rx="8.62443" ry="8.91191" transform="matrix(-1 0 0 1 1159.34 216.086)" fill="#232323"/>
<circle cx="7.50008" cy="7.50008" r="7.50008" transform="matrix(-1 0 0 1 1139 271)" fill="#232323"/>
<ellipse cx="10.6368" cy="10.9243" rx="10.6368" ry="10.9243" transform="matrix(-1 0 0 1 1255.94 408.125)" fill="#232323"/>
<circle cx="10.9243" cy="10.9243" r="10.9243" transform="matrix(-1 0 0 1 1431.3 286.23)" fill="#232323"/>
<ellipse cx="10.9243" cy="10.6368" rx="10.9243" ry="10.6368" transform="matrix(-1 0 0 1 1299.06 343.727)" fill="#232323"/>
<path d="M1284.23 99.1125V64.3537L1295.61 53.89V21.1758L1279.61 21.1758L1263.41 21.1758V139.043" stroke="#232323" stroke-width="5.74962"/>
<path d="M1160.16 77.2697V21.1758L1171.43 21.1758L1183.49 21.1758V82.4458L1150.9 115.308V184.402M1150.9 222.681V184.402M1150.9 184.402L1166.77 200.893V245.07L1136.35 275.525" stroke="#232323" stroke-width="5.74962"/>
<path d="M1237.92 43.4645L1249.62 22.3242H1203.62V52.595M1203.62 89.5975V52.595M1203.62 52.595L1235.64 84.4315V186.188" stroke="#232323" stroke-width="5.74962"/>
<path d="M1330.57 214.456V112.641L1341.55 102.351M1341.55 102.351L1352.53 92.0614V21.1758L1330.57 21.1759H1308.6V125.398M1341.55 102.351V171.612M1308.6 166.798V125.398M1308.6 125.398L1288.44 146.218V212.651M1288.44 359.838V212.651M1288.44 212.651L1267.31 231.666V256.699L1245.59 276.075V305.782M1245.59 419.05V372.046V364.428" stroke="#232323" stroke-width="5.74962"/>
<path d="M1154.58 123.421L1186.95 92.4688L1153.02 125.469V136.91M1153.02 136.91L1186.95 104.633M1153.02 136.91V147.148M1153.02 147.148L1186.95 116.556M1153.02 147.148V158.589L1186.95 129.082" stroke="#232323" stroke-width="5.74962"/>
<circle cx="10.9243" cy="10.9243" r="10.9243" transform="matrix(-1 0 0 1 1295.61 87.8711)" fill="#232323"/>
<ellipse cx="10.9243" cy="10.6368" rx="10.9243" ry="10.6368" transform="matrix(-1 0 0 1 1319.76 155.141)" fill="#232323"/>
<ellipse cx="10.9243" cy="10.6368" rx="10.9243" ry="10.6368" transform="matrix(-1 0 0 1 1341.61 203.438)" fill="#232323"/>
<ellipse cx="9.19939" cy="9.48688" rx="9.19939" ry="9.48688" transform="matrix(-1 0 0 1 1244.44 176.988)" fill="#232323"/>
<ellipse cx="6.61206" cy="6.32458" rx="6.61206" ry="6.32458" transform="matrix(-1 0 0 1 1348.51 163.766)" fill="#232323"/>
<circle cx="8.91191" cy="8.91191" r="8.91191" transform="matrix(-1 0 0 1 1212.24 81.5469)" fill="#232323"/>
<ellipse cx="10.6368" cy="10.9243" rx="10.6368" ry="10.9243" transform="matrix(-1 0 0 1 1171.42 68.3203)" fill="#232323"/>
<circle cx="10.9243" cy="10.9243" r="10.9243" transform="matrix(-1 0 0 1 1248.47 32.0977)" fill="#232323"/>
<path d="M1234.43 319.618C1234.43 317.649 1234.86 315.865 1235.7 314.264C1236.57 312.682 1237.76 311.431 1239.26 310.511C1240.79 309.609 1242.51 309.158 1244.42 309.158C1246.34 309.158 1248.05 309.609 1249.56 310.511C1251.09 311.431 1252.27 312.682 1253.12 314.264C1253.98 315.865 1254.42 317.659 1254.42 319.646C1254.42 321.32 1254.12 322.829 1253.53 324.172C1252.94 325.533 1252.1 326.674 1250.99 327.594L1248.34 324.724C1249.85 323.417 1250.61 321.798 1250.61 319.866C1250.61 318.671 1250.34 317.603 1249.81 316.665C1249.29 315.727 1248.56 314.991 1247.63 314.457C1246.69 313.942 1245.62 313.684 1244.42 313.684C1243.23 313.684 1242.16 313.942 1241.22 314.457C1240.29 314.991 1239.55 315.727 1239.02 316.665C1238.5 317.603 1238.24 318.671 1238.24 319.866C1238.24 321.798 1239.01 323.417 1240.53 324.724L1237.88 327.594C1236.76 326.674 1235.91 325.533 1235.32 324.172C1234.73 322.81 1234.43 321.292 1234.43 319.618ZM1250.44 334.426V328.244H1254.08V345.079H1250.44V338.897H1234.77V334.426H1250.44ZM1250.5 351.956H1245.39V360.897H1241.8V351.956H1234.77V347.485H1254.08V362.084H1250.5V351.956Z" fill="#232323"/>
<path d="M1816.18 354.616C1816.18 356.585 1815.76 358.37 1814.91 359.97C1814.05 361.553 1812.86 362.804 1811.35 363.724C1809.83 364.625 1808.11 365.076 1806.19 365.076C1804.28 365.076 1802.57 364.625 1801.06 363.724C1799.53 362.804 1798.35 361.553 1797.5 359.97C1796.63 358.37 1796.2 356.576 1796.2 354.589C1796.2 352.914 1796.5 351.406 1797.08 350.063C1797.67 348.701 1798.52 347.56 1799.62 346.64L1802.27 349.511C1800.76 350.817 1800.01 352.436 1800.01 354.368C1800.01 355.564 1800.28 356.631 1800.81 357.569C1801.33 358.508 1802.05 359.244 1802.99 359.777C1803.93 360.292 1805 360.55 1806.19 360.55C1807.39 360.55 1808.46 360.292 1809.39 359.777C1810.33 359.244 1811.07 358.508 1811.6 357.569C1812.12 356.631 1812.37 355.564 1812.37 354.368C1812.37 352.436 1811.61 350.817 1810.08 349.511L1812.73 346.64C1813.86 347.56 1814.71 348.701 1815.3 350.063C1815.89 351.424 1816.18 352.942 1816.18 354.616ZM1800.18 339.808V345.99H1796.53V329.155H1800.18V335.337H1815.85V339.808H1800.18ZM1800.12 322.279H1805.23V313.337H1808.81V322.279H1815.85V326.75H1796.53V312.15H1800.12V322.279Z" fill="#232323"/>
<ellipse cx="10.9243" cy="10.6368" rx="10.9243" ry="10.6368" transform="matrix(-1 0 0 1 1901.62 206.887)" fill="#232323"/>
<ellipse cx="6.89955" cy="6.61206" rx="6.89955" ry="6.61206" transform="matrix(-1 0 0 1 1909.09 163.191)" fill="#232323"/>
</svg>
